<svg version="1.1" id="Layer_1" xmlns="http://www.w3.org/2000/svg" xmlns:xlink="http://www.w3.org/1999/xlink" x="0px" y="0px"
	 viewBox="0 0 25 32" enable-background="new 0 0 25 32" xml:space="preserve">
<g>
	<g>
		<g>
			<path fill="#FFFFFF" d="M16.3,1.1h-15v29.9h22.4V8.4L16.3,1.1z M17.4,3.8L21,7.3h-3.6V3.8z M22.6,29.8H2.4V2.2h13.9v6.3h6.3
				L22.6,29.8L22.6,29.8z"/>
			<path fill="#FFFFFF" d="M24.2,31.4H0.8V0.6h15.7l7.7,7.7V31.4z M1.8,30.4h21.4V8.7l-0.1-0.1l0,21.8H1.9V1.7h14.3l-0.1-0.1H1.8
				V30.4z M2.9,29.3h19.2l0-20.4h-6.3V2.7H2.9V29.3z M16.8,7.9h5.7l-5.7-5.7V7.9z M22.2,7.8h-5.3V2.5L22.2,7.8z M17.9,6.8h1.9
				L17.9,5V6.8z"/>
		</g>
	</g>
	<g>
		<g>
			<rect x="6.5" y="13.5" fill="#FFFFFF" width="11.7" height="1.1"/>
			<path fill="#FFFFFF" d="M18.7,15.1H6V13h12.7V15.1z M7,14.1h10.7V14H7V14.1z"/>
		</g>
	</g>
	<g>
		<g>
			<rect x="6.5" y="17" fill="#FFFFFF" width="11.7" height="1.1"/>
			<path fill="#FFFFFF" d="M18.7,18.6H6v-2.1h12.7V18.6z M7,17.6h10.7v-0.1H7V17.6z"/>
		</g>
	</g>
	<g>
		<g>
			<rect x="6.5" y="20.5" fill="#FFFFFF" width="11.7" height="1.1"/>
			<path fill="#FFFFFF" d="M18.7,22.1H6V20h12.7V22.1z M7,21.1h10.7V21H7V21.1z"/>
		</g>
	</g>
</g>
</svg>
