<?xml version="1.0" encoding="utf-8"?>
<!-- Generator: Adobe Illustrator 17.1.0, SVG Export Plug-In . SVG Version: 6.00 Build 0)  -->
<!DOCTYPE svg PUBLIC "-//W3C//DTD SVG 1.1//EN" "http://www.w3.org/Graphics/SVG/1.1/DTD/svg11.dtd">
<svg version="1.1" id="Layer_1" xmlns="http://www.w3.org/2000/svg" xmlns:xlink="http://www.w3.org/1999/xlink" x="0px" y="0px"
	 width="83px" height="83px" viewBox="58.5 52.5 83 83" enable-background="new 58.5 52.5 83 83" xml:space="preserve">
<g>
	<g>
		<g>
			<path fill="#FC1D00" d="M117.5,109.2c0,0.9,0.7,1.6,1.6,1.6h0.7c0.9,0,1.6-0.7,1.6-1.6V78.8c0-0.9-0.7-1.6-1.6-1.6h-0.7
				c-0.9,0-1.6,0.7-1.6,1.6V109.2z"/>
		</g>
		<g>
			<path fill="#FC1D00" d="M129.5,95.3c0,0.8,0.7,1.5,1.5,1.5h0.6c0.8,0,1.5-0.7,1.5-1.5v-2c0-0.8-0.7-1.5-1.5-1.5H131
				c-0.8,0-1.5,0.7-1.5,1.5V95.3z"/>
		</g>
		<path fill="#FC1D00" d="M123.7,103.7c0,1,0.7,1.9,1.7,1.9h0.6c0.9,0,1.7-0.8,1.7-1.9V83.9c0-1-0.7-1.9-1.7-1.9h-0.6
			c-0.9,0-1.7,0.8-1.7,1.9V103.7z"/>
	</g>
	<rect x="82" y="92.1" fill="#FC1D00" width="37.3" height="3.9"/>
	<g>
		<g>
			<path fill="#FC1D00" d="M82.5,109.2c0,0.9-0.7,1.6-1.6,1.6h-0.7c-0.9,0-1.6-0.7-1.6-1.6V78.8c0-0.9,0.7-1.6,1.6-1.6h0.7
				c0.9,0,1.6,0.7,1.6,1.6V109.2z"/>
		</g>
		<g>
			<path fill="#FC1D00" d="M70.5,95.3c0,0.8-0.7,1.5-1.5,1.5h-0.6c-0.8,0-1.5-0.7-1.5-1.5v-2c0-0.8,0.7-1.5,1.5-1.5H69
				c0.8,0,1.5,0.7,1.5,1.5V95.3z"/>
		</g>
		<path fill="#FC1D00" d="M76.3,103.7c0,1-0.7,1.9-1.7,1.9H74c-0.9,0-1.7-0.8-1.7-1.9V83.9c0-1,0.7-1.9,1.7-1.9h0.6
			c0.9,0,1.7,0.8,1.7,1.9V103.7z"/>
	</g>
</g>
</svg>
