<?xml version="1.0" encoding="utf-8"?>
<!-- Generator: Adobe Illustrator 17.1.0, SVG Export Plug-In . SVG Version: 6.00 Build 0)  -->
<!DOCTYPE svg PUBLIC "-//W3C//DTD SVG 1.1//EN" "http://www.w3.org/Graphics/SVG/1.1/DTD/svg11.dtd">
<svg version="1.1" id="Layer_1" xmlns="http://www.w3.org/2000/svg" xmlns:xlink="http://www.w3.org/1999/xlink" x="0px" y="0px"
	 width="221px" height="221px" viewBox="-10.5 -10.5 221 221" enable-background="new -10.5 -10.5 221 221" xml:space="preserve">
<g>
	<path fill="#FC1D00" d="M169.2,180H30.8c-11.1,0-20-8.9-20-20V55.4c0-11.1,8.9-20,20-20h138.5c11.1,0,20,8.9,20,20V160
		C189.2,171.1,180.3,180,169.2,180z M30.8,44.6c-5.8,0-10.8,4.9-10.8,10.8V160c0,5.8,4.9,10.8,10.8,10.8h138.5
		c5.8,0,10.8-4.9,10.8-10.8V55.4c0-5.8-4.9-10.8-10.8-10.8H30.8z"/>
	<g>
		<g>
			<path fill="#FC1D00" d="M93.2,112.3H74.2V97.8h19.1V79.1H108v18.8h19.1v14.5H108v18.8H93.2V112.3z"/>
		</g>
	</g>
	<g>
		<g>
			<rect x="72.3" y="23.1" fill="#FC1D00" width="52.3" height="3.1"/>
			<path fill="#FC1D00" d="M127.7,26.2H72.3V20h55.4V26.2z M75.4,23.1h49.2H75.4z"/>
		</g>
		<g>
			<rect x="72.3" y="23.1" fill="#FC1D00" width="6.2" height="21.5"/>
			<path fill="#FC1D00" d="M81.5,44.6h-9.2V20h9.2V44.6z M75.4,41.5h3.1V23.1h-3.1V41.5z"/>
		</g>
		<g>
			<rect x="118.5" y="23.1" fill="#FC1D00" width="6.2" height="21.5"/>
			<path fill="#FC1D00" d="M127.7,44.6h-9.2V20h9.2V44.6z M121.5,41.5h3.1V23.1h-3.1V41.5z"/>
		</g>
	</g>
</g>
</svg>
