
<?xml version="1.0" encoding="utf-8"?>
<!-- Generator: Adobe Illustrator 18.0.0, SVG Export Plug-In . SVG Version: 6.00 Build 0)  -->
<!DOCTYPE svg PUBLIC "-//W3C//DTD SVG 1.1//EN" "http://www.w3.org/Graphics/SVG/1.1/DTD/svg11.dtd">
<svg version="1.1" id="Layer_1" xmlns="http://www.w3.org/2000/svg" xmlns:xlink="http://www.w3.org/1999/xlink" x="0px" y="0px"
	 width="244px" height="242.6px" viewBox="185.3 274 244 242.6" enable-background="new 185.3 274 244 242.6" xml:space="preserve">
<g>
	<g>
		<path fill="#FC1D00" d="M256,307.8c-2.5,1.6-3.6,5.1-2.1,7.6c1.6,2.5,5.1,3.6,7.6,2.1c2.5-1.6,3.6-5.1,2.1-7.6
			C262.2,306.8,258.6,305.8,256,307.8z"/>
		<path fill="#FC1D00" d="M259,320.7L259,320.7c-2.9,0-5.7-1.5-7.2-3.9c-2.2-3.7-0.9-8.7,2.8-11c1.3-1,2.8-1.5,4.4-1.5
			c2.9,0,5.5,1.7,6.9,4.4c2.1,3.7,0.8,8.7-3,10.9C261.7,320.3,260.4,320.7,259,320.7z M259,309.3c-0.5,0-1,0.2-1.4,0.5l-0.2,0.2
			c-1.4,0.9-2,2.9-1.2,4.2c0.6,0.9,1.7,1.5,2.9,1.5l0,0c0.5,0,1-0.1,1.3-0.3c1.4-0.8,2-2.9,1.2-4.2l-0.1-0.2
			C260.9,309.9,260,309.3,259,309.3z"/>
	</g>
	<g>
		<path fill="#FC1D00" d="M218.8,344.5c-1.6,2.5-0.5,6.1,2.1,7.6c2.5,1.6,6.1,0.5,7.6-2.1c1.6-2.5,0.5-6.1-2.1-7.6
			C223.4,340.9,220.4,342,218.8,344.5z"/>
		<path fill="#FC1D00" d="M223.6,355.4L223.6,355.4c-1.4,0-2.8-0.4-4-1.1c-1.8-1-3.2-2.9-3.7-5.1c-0.5-2.1-0.2-4.3,0.8-6
			c1.5-2.5,4.1-3.9,6.9-3.9c1.3,0,2.7,0.3,3.9,0.9l0.1,0.1c1.9,1.1,3.2,2.9,3.8,5.1c0.5,2.1,0.2,4.3-0.8,6
			C229.3,353.8,226.5,355.4,223.6,355.4z M223.6,344.2c-1.1,0-2.1,0.6-2.7,1.6c-0.4,0.6-0.5,1.4-0.3,2.2c0.2,0.9,0.8,1.6,1.4,2
			c0.4,0.3,0.9,0.4,1.4,0.4l0,0c1.1,0,2.3-0.6,2.8-1.5c0.4-0.7,0.5-1.4,0.3-2.2c-0.2-0.8-0.7-1.6-1.4-2
			C224.7,344.4,224.2,344.2,223.6,344.2z"/>
	</g>
	<g>
		<circle fill="#FC1D00" cx="210.7" cy="395.5" r="5.6"/>
		<path fill="#FC1D00" d="M210.7,403.6c-4.5,0-8.1-3.6-8.1-8.1s3.6-8.1,8.1-8.1s8.1,3.6,8.1,8.1S215.2,403.6,210.7,403.6z
			 M210.7,392.4c-1.7,0-3.1,1.4-3.1,3.1s1.4,3.1,3.1,3.1s3.1-1.4,3.1-3.1S212.4,392.4,210.7,392.4z"/>
	</g>
	<g>
		<path fill="#FC1D00" d="M218.8,446c1.6,2.5,5.1,3.6,7.6,2.1c2.5-1.6,3.6-5.1,2.1-7.6s-5.1-3.6-7.6-2.1
			C217.8,440.3,217.3,443.4,218.8,446z"/>
		<path fill="#FC1D00" d="M223.9,451.2L223.9,451.2c-2.9,0-5.7-1.5-7.2-3.9c-2.4-3.9-1.2-8.4,2.8-11l0.1-0.1c1.1-0.7,2.5-1,3.9-1
			c2.9,0,5.7,1.6,7.2,4c2.2,3.7,0.8,8.7-2.9,11C226.6,450.9,225.3,451.2,223.9,451.2z M222.2,440.4c-1.7,1.1-2.2,2.7-1.3,4.2
			c0.6,0.9,1.7,1.6,2.9,1.6l0,0c0.5,0,1-0.1,1.3-0.3c1.4-0.8,2-2.9,1.2-4.2c-0.5-0.9-1.7-1.5-2.9-1.5
			C223,440.1,222.6,440.2,222.2,440.4z"/>
	</g>
	<g>
		<path fill="#FC1D00" d="M256,483.2c2.5,1.6,6.1,0.5,7.6-2.1c1.6-2.5,0.5-6.1-2.1-7.6c-2.5-1.6-6.1-0.5-7.6,2.1
			C252.5,478.6,253,481.6,256,483.2z"/>
		<path fill="#FC1D00" d="M258.7,486.4L258.7,486.4c-1.4,0-2.7-0.4-3.9-1c-4-2.1-5.3-6.5-3.1-10.9l0.1-0.1c1.4-2.5,4.2-4.1,7.1-4.1
			c1.4,0,2.8,0.4,4,1.1c1.8,1,3.2,2.9,3.7,5.1c0.5,2.1,0.2,4.3-0.8,6C264.4,484.8,261.6,486.4,258.7,486.4z M256.2,476.7
			c-0.9,2-0.6,3.4,1,4.2l0.2,0.1c0.4,0.2,0.8,0.4,1.3,0.4c1.1,0,2.3-0.6,2.8-1.5c0.4-0.7,0.5-1.4,0.3-2.2c-0.2-0.9-0.8-1.6-1.4-2
			C258.9,474.7,257,475.4,256.2,476.7z"/>
	</g>
	<g>
		<circle fill="#FC1D00" cx="306.5" cy="491.3" r="5.6"/>
		<path fill="#FC1D00" d="M306.5,499.4c-4.5,0-8.1-3.6-8.1-8.1s3.6-8.1,8.1-8.1s8.1,3.6,8.1,8.1S311,499.4,306.5,499.4z
			 M306.5,488.2c-1.7,0-3.1,1.4-3.1,3.1s1.4,3.1,3.1,3.1s3.1-1.4,3.1-3.1S308.2,488.2,306.5,488.2z"/>
	</g>
	<g>
		<path fill="#FC1D00" d="M357.5,483.2c2.5-1.6,3.6-5.1,2.1-7.6c-1.6-2.5-5.1-3.6-7.6-2.1c-2.5,1.6-3.6,5.1-2.1,7.6
			C351.4,484.2,354.9,484.7,357.5,483.2z"/>
		<path fill="#FC1D00" d="M354.5,486.5L354.5,486.5c-3,0-5.5-1.6-6.8-4.2c-2.1-3.7-0.7-8.7,3-10.9c1.2-0.7,2.5-1.1,3.9-1.1
			c2.9,0,5.7,1.5,7.2,3.9c2.2,3.7,0.9,8.8-2.9,11.1C357.5,486.1,356,486.5,354.5,486.5z M354.5,475.3c-0.5,0-1,0.1-1.3,0.3
			c-1.4,0.8-2,2.9-1.2,4.2l0.1,0.2c0.6,1.3,1.7,1.5,2.4,1.5c0.6,0,1.2-0.2,1.7-0.5c1.4-0.9,2-2.9,1.2-4.2
			C356.9,475.9,355.7,475.3,354.5,475.3z"/>
	</g>
	<g>
		<path fill="#FC1D00" d="M394.7,446c1.6-2.5,0.5-6.1-2.1-7.6c-2.5-1.6-6.1-0.5-7.6,2.1s-0.5,6.1,2.1,7.6
			C389.6,449.5,393.2,449,394.7,446z"/>
		<path fill="#FC1D00" d="M390,451.3L390,451.3c-1.5,0-2.9-0.4-4.2-1.2c-3.8-2.2-5.2-7.2-3-11c1.4-2.5,4.2-4.1,7.1-4.1
			c1.4,0,2.8,0.4,4,1.1c1.8,1,3.2,2.9,3.7,5.1c0.5,2.1,0.2,4.2-0.8,5.9C395.5,449.8,393,451.3,390,451.3z M390,440.1
			c-1.1,0-2.3,0.6-2.8,1.5c-0.8,1.4-0.3,3.4,1.1,4.2c0.5,0.3,1.1,0.5,1.7,0.5s1.8-0.2,2.5-1.5l0.1-0.2c0.4-0.6,0.5-1.4,0.3-2.2
			c-0.2-0.9-0.8-1.6-1.4-2C391,440.2,390.5,440.1,390,440.1z"/>
	</g>
</g>
<g>
	<path fill="#FC1D00" d="M354.9,430.9c1-2.1,0.5-4.6-1.6-5.6l-44.3-26v-66.7c0-2.1-2.1-4.1-4.1-4.1c-2.1,0-4.1,2.1-4.1,4.1v69.3
		c0,1.6,1,2.5,2.1,3.6l46.4,27c0.5,0.5,1.6,0.5,2.1,0.5C352.9,432.9,353.9,431.9,354.9,430.9z"/>
	<path fill="#FC1D00" d="M351.4,435.4c-0.7,0-2.3,0-3.5-1l-46.5-27l-0.3-0.3c-1.1-1.1-2.7-2.7-2.7-5.2v-69.3c0-3.4,3.1-6.6,6.6-6.6
		c3.4,0,6.6,3.1,6.6,6.6v65.3l43,25.2c3.1,1.6,4.3,5.5,2.6,8.9l-0.2,0.4l-0.3,0.3C355.5,433.8,353.9,435.4,351.4,435.4z
		 M350.9,430.4c0.2,0,0.4,0,0.5,0c0.4,0,0.7-0.3,1.4-0.9c0.2-0.7,0.1-1.6-0.6-2l-0.1-0.1l-45.6-26.7v-68.1c0-0.7-0.9-1.6-1.6-1.6
		s-1.6,0.9-1.6,1.6v69.3c0,0.4,0.3,0.8,1.1,1.6L350.9,430.4z"/>
</g>
<path fill="#FC1D00" d="M403.9,417.8c-0.1,0-0.2,0-0.3,0c-4.4-0.2-7.8-3.9-7.7-8.3c1.2-29.7-9.1-57.7-28.4-77
	c-17.6-17.5-40.7-26.2-66.8-25.2c-4.4,0.2-8.1-3.2-8.3-7.7c-0.2-4.4,3.2-8.1,7.7-8.3c30.3-1.3,58.3,9.3,78.8,29.8
	c22.4,22.4,34.4,54.8,33,88.9C411.7,414.4,408.2,417.8,403.9,417.8z"/>
</svg>
	
