<?xml version="1.0" encoding="utf-8"?>
<!-- Generator: Adobe Illustrator 17.1.0, SVG Export Plug-In . SVG Version: 6.00 Build 0)  -->
<!DOCTYPE svg PUBLIC "-//W3C//DTD SVG 1.1//EN" "http://www.w3.org/Graphics/SVG/1.1/DTD/svg11.dtd">
<svg version="1.1" id="Layer_1" xmlns="http://www.w3.org/2000/svg" xmlns:xlink="http://www.w3.org/1999/xlink" x="0px" y="0px"
	 width="51px" height="51px" viewBox="0 0 51 51" enable-background="new 0 0 51 51" xml:space="preserve">
<rect x="1" y="1" fill="none" stroke="#FFFFFF" stroke-width="2" stroke-miterlimit="10" width="49" height="49"/>
<g>
	<path fill="#FFFFFF" d="M32.6,13.9H18.4c-2.5,0-4.5,2-4.5,4.5v4.7v9.5c0,2.5,2,4.5,4.5,4.5h14.2c2.5,0,4.5-2,4.5-4.5v-9.5v-4.7
		C37.1,15.9,35.1,13.9,32.6,13.9z M33.9,16.6l0.5,0v0.5v3.4l-3.9,0l0-3.9L33.9,16.6z M22.2,23.1c0.7-1,1.9-1.7,3.3-1.7
		c1.4,0,2.6,0.7,3.3,1.7c0.5,0.7,0.8,1.5,0.8,2.4c0,2.3-1.8,4.1-4.1,4.1c-2.3,0-4.1-1.8-4.1-4.1C21.4,24.6,21.7,23.8,22.2,23.1z
		 M34.9,32.6c0,1.2-1,2.2-2.2,2.2H18.4c-1.2,0-2.2-1-2.2-2.2v-9.5h3.5c-0.3,0.7-0.5,1.5-0.5,2.4c0,3.5,2.8,6.3,6.3,6.3
		c3.5,0,6.3-2.8,6.3-6.3c0-0.8-0.2-1.6-0.5-2.4h3.5V32.6z"/>
</g>
</svg>
