<svg version="1.1" id="Layer_1" xmlns="http://www.w3.org/2000/svg" xmlns:xlink="http://www.w3.org/1999/xlink" x="0px" y="0px"
	 width="51px" height="51px" viewBox="0 0 51 51" enable-background="new 0 0 51 51" xml:space="preserve">
<rect x="1" y="1" fill="none" stroke="#FFFFFF" stroke-width="2" stroke-miterlimit="10" width="49" height="49"/>
<g>
	<path fill="#FFFFFF" d="M36.5,16.4c-0.9,0.5-1.9,0.9-3,1.2c-0.9-0.9-2.1-1.5-3.5-1.5c-2.6,0-4.8,2.1-4.8,4.8c0,0.4,0,0.7,0.1,1.1
		c-4-0.2-7.5-2.1-9.8-5c-0.4,0.7-0.6,1.5-0.6,2.4c0,1.7,0.8,3.1,2.1,4c-0.8,0-1.5-0.2-2.2-0.6c0,0,0,0,0,0.1c0,2.3,1.6,4.2,3.8,4.7
		c-0.4,0.1-0.8,0.2-1.3,0.2c-0.3,0-0.6,0-0.9-0.1c0.6,1.9,2.4,3.3,4.4,3.3c-1.6,1.3-3.7,2-5.9,2c-0.4,0-0.8,0-1.1-0.1
		c2.1,1.4,4.6,2.1,7.3,2.1c8.8,0,13.6-7.3,13.6-13.6c0-0.2,0-0.4,0-0.6c0.9-0.7,1.7-1.5,2.4-2.5c-0.9,0.4-1.8,0.6-2.7,0.7
		C35.4,18.5,36.1,17.5,36.5,16.4z"/>
</g>
</svg>
