<?xml version="1.0" encoding="utf-8"?>
<!-- Generator: Adobe Illustrator 17.1.0, SVG Export Plug-In . SVG Version: 6.00 Build 0)  -->
<!DOCTYPE svg PUBLIC "-//W3C//DTD SVG 1.1//EN" "http://www.w3.org/Graphics/SVG/1.1/DTD/svg11.dtd">
<svg version="1.1" id="Layer_1" xmlns="http://www.w3.org/2000/svg" xmlns:xlink="http://www.w3.org/1999/xlink" x="0px" y="0px"
	 viewBox="0 0 26 26" enable-background="new 0 0 26 26" xml:space="preserve">
<g>
	<path fill="#FFFFFF" d="M20.1,1.4H5.9c-2.5,0-4.5,2-4.5,4.5v4.7v9.5c0,2.5,2,4.5,4.5,4.5h14.2c2.5,0,4.5-2,4.5-4.5v-9.5V5.9
		C24.6,3.4,22.6,1.4,20.1,1.4z M21.4,4.1l0.5,0v0.5V8L18,8l0-3.9L21.4,4.1z M9.7,10.6c0.7-1,1.9-1.7,3.3-1.7c1.4,0,2.6,0.7,3.3,1.7
		c0.5,0.7,0.8,1.5,0.8,2.4c0,2.3-1.8,4.1-4.1,4.1c-2.3,0-4.1-1.8-4.1-4.1C8.9,12.1,9.2,11.3,9.7,10.6z M22.3,20.1
		c0,1.2-1,2.2-2.2,2.2H5.9c-1.2,0-2.2-1-2.2-2.2v-9.5h3.5c-0.3,0.7-0.5,1.5-0.5,2.4c0,3.5,2.8,6.3,6.3,6.3c3.5,0,6.3-2.8,6.3-6.3
		c0-0.8-0.2-1.6-0.5-2.4h3.5V20.1z"/>
</g>
</svg>
