<svg version="1.1" xmlns="http://www.w3.org/2000/svg" xmlns:xlink="http://www.w3.org/1999/xlink" x="0px" y="0px"
	 width="176.9px" height="36.4px" viewBox="11.5 81.9 176.9 36.4" enable-background="new 11.5 81.9 176.9 36.4"
	 xml:space="preserve">
<rect x="12.8" y="83.2" fill="#FC1D00" width="33.8" height="33.8"/>
<rect class="logorect" x="12.8" y="100.1" fill="#FFFFFF" width="16.9" height="16.9"/>
<g>
	<g>
		<path fill="#FFFFFF" d="M65,103v7.5h-4.1V89.9h8.2c2.4,0,4.2,0.6,5.6,1.8c1.4,1.2,2,2.8,2,4.8c0,2-0.7,3.5-2,4.7
			c-1.4,1.2-3.2,1.8-5.6,1.8L65,103L65,103z M65,99.8h4.1c1.1,0,2-0.3,2.6-0.9c0.6-0.6,0.9-1.4,0.9-2.4c0-1-0.3-1.8-0.9-2.5
			c-0.6-0.6-1.5-1-2.6-1H65V99.8z"/>
		<path fill="#FFFFFF" d="M85,102.2v8.2h-4.1V89.9h7.7c2.3,0,4.2,0.5,5.5,1.6c1.3,1.1,2,2.5,2,4.5c0,1.1-0.3,2-0.8,2.7
			c-0.6,0.8-1.4,1.4-2.4,1.8c1.2,0.4,2.1,0.9,2.6,1.8c0.5,0.8,0.8,1.9,0.8,3.1v1.5c0,0.6,0.1,1.2,0.2,1.8c0.1,0.6,0.4,1.1,0.8,1.4
			v0.3H93c-0.4-0.3-0.6-0.8-0.7-1.5c-0.1-0.7-0.2-1.4-0.2-2v-1.5c0-1-0.3-1.8-0.8-2.4c-0.6-0.6-1.3-0.8-2.4-0.8H85L85,102.2z M85,99
			h3.6c1.2,0,2-0.2,2.6-0.7c0.6-0.5,0.8-1.2,0.8-2.2c0-0.9-0.3-1.7-0.8-2.2c-0.6-0.6-1.4-0.8-2.5-0.8H85V99z"/>
		<path fill="#FFFFFF" d="M113.7,101.4h-8.5v5.8h10v3.2h-14.1V89.9h14V93h-9.9v5.2h8.5V101.4z"/>
		<path fill="#FFFFFF" d="M124.2,89.9l5.2,15.1h0.1l5.3-15.1h5.4v20.5h-4.1v-6.1l0.4-9.1l-0.1,0l-5.5,15.2h-2.8l-5.5-15.1l-0.1,0
			l0.4,9v6.1h-4.1V89.9H124.2z"/>
		<path fill="#FFFFFF" d="M149.6,110.4h-4.1V89.9h4.1V110.4z"/>
		<path fill="#FFFFFF" d="M165.9,105c0-0.8-0.3-1.4-0.8-1.9c-0.6-0.5-1.5-0.9-2.9-1.4c-2.5-0.7-4.3-1.5-5.5-2.5
			c-1.3-1-1.9-2.3-1.9-4c0-1.7,0.7-3.1,2.2-4.1s3.3-1.6,5.5-1.6c2.3,0,4.1,0.6,5.5,1.8c1.4,1.2,2.1,2.7,2.1,4.4l0,0.1h-4
			c0-0.9-0.3-1.7-0.9-2.3c-0.6-0.6-1.5-0.9-2.7-0.9c-1.1,0-1.9,0.2-2.5,0.7c-0.6,0.5-0.9,1.1-0.9,1.9c0,0.7,0.3,1.3,1,1.7
			c0.6,0.4,1.7,0.9,3.3,1.4c2.3,0.6,4,1.5,5.1,2.5c1.2,1,1.7,2.4,1.7,4.1c0,1.8-0.7,3.2-2.1,4.2c-1.4,1-3.2,1.5-5.5,1.5
			c-2.2,0-4.2-0.6-5.8-1.7c-1.7-1.1-2.5-2.8-2.4-4.8l0-0.1h4c0,1.2,0.4,2.1,1.1,2.7c0.8,0.6,1.8,0.8,3.1,0.8c1.1,0,2-0.2,2.6-0.7
			C165.6,106.4,165.9,105.8,165.9,105z"/>
		<path fill="#FFFFFF" d="M186.9,101.4h-8.5v5.8h10v3.2h-14.1V89.9h14V93h-9.9v5.2h8.5V101.4L186.9,101.4z"/>
	</g>
</g>
<path d="M11.5,81.9v36.4h36.4V81.9H11.5z M46.6,117.1H12.8V83.2h33.8V117.1z"/>
</svg>
