<svg version="1.1" xmlns="http://www.w3.org/2000/svg" xmlns:xlink="http://www.w3.org/1999/xlink" x="0px" y="0px"
	 viewBox="0 0 167.5 50" enable-background="new 0 0 167.5 50" xml:space="preserve">
<g>
	<g>
		<g>
			<path d="M54.4,25.4v6.2h-3.4V14.4h6.8c2,0,3.5,0.5,4.7,1.5s1.7,2.3,1.7,4c0,1.6-0.6,3-1.7,4
				c-1.1,1-2.7,1.5-4.7,1.5H54.4z M54.4,22.7h3.4c1,0,1.7-0.3,2.2-0.8c0.5-0.5,0.7-1.2,0.7-2c0-0.8-0.2-1.5-0.7-2s-1.2-0.8-2.2-0.8
				h-3.4V22.7z"/>
			<path d="M71.1,24.7v6.9h-3.4V14.4h6.5c2,0,3.5,0.4,4.6,1.3c1.1,0.9,1.7,2.1,1.7,3.7c0,0.9-0.2,1.7-0.7,2.3
				c-0.5,0.6-1.1,1.2-2,1.5c1,0.3,1.7,0.8,2.2,1.5c0.4,0.7,0.7,1.6,0.7,2.6v1.3c0,0.5,0.1,1,0.2,1.5c0.1,0.5,0.4,0.9,0.7,1.2v0.2
				h-3.5c-0.3-0.3-0.5-0.7-0.6-1.3c-0.1-0.6-0.1-1.1-0.1-1.7v-1.2c0-0.9-0.2-1.5-0.7-2s-1.1-0.7-2-0.7H71.1z M71.1,22.1h3
				c1,0,1.7-0.2,2.2-0.6c0.5-0.4,0.7-1,0.7-1.8c0-0.8-0.2-1.4-0.7-1.9c-0.5-0.5-1.2-0.7-2.1-0.7h-3V22.1z"/>
			<path d="M95.1,24H88v4.9h8.3v2.7H84.6V14.4h11.7v2.7H88v4.3h7.1V24z"/>
			<path d="M103.9,14.4l4.4,12.7h0.1l4.4-12.7h4.5v17.2h-3.4v-5.1l0.3-7.6l-0.1,0l-4.6,12.7h-2.3l-4.6-12.7l-0.1,0
				l0.3,7.5v5.1h-3.4V14.4H103.9z"/>
			<path d="M125.1,31.6h-3.4V14.4h3.4V31.6z"/>
			<path d="M138.8,27.1c0-0.7-0.2-1.2-0.7-1.6c-0.5-0.4-1.3-0.8-2.5-1.1c-2-0.6-3.6-1.3-4.6-2.1
				c-1-0.8-1.6-1.9-1.6-3.3s0.6-2.6,1.8-3.4c1.2-0.9,2.7-1.3,4.6-1.3c1.9,0,3.4,0.5,4.6,1.5c1.2,1,1.8,2.2,1.7,3.7l0,0.1h-3.3
				c0-0.8-0.3-1.4-0.8-1.9c-0.5-0.5-1.3-0.7-2.2-0.7c-0.9,0-1.6,0.2-2.1,0.6s-0.8,0.9-0.8,1.6c0,0.6,0.3,1.1,0.8,1.4
				s1.5,0.8,2.8,1.2c1.9,0.5,3.3,1.2,4.3,2.1c1,0.9,1.5,2,1.5,3.4c0,1.5-0.6,2.6-1.7,3.5s-2.7,1.3-4.6,1.3c-1.9,0-3.5-0.5-4.9-1.4
				s-2.1-2.3-2-4.1l0-0.1h3.3c0,1,0.3,1.8,0.9,2.2c0.6,0.5,1.5,0.7,2.6,0.7c0.9,0,1.7-0.2,2.1-0.6C138.5,28.3,138.8,27.7,138.8,27.1
				z"/>
			<path d="M156.3,24h-7.1v4.9h8.3v2.7h-11.8V14.4h11.7v2.7h-8.3v4.3h7.1V24z"/>
		</g>
	</g>
	<path d="M9.5,10v30h29V10H9.5z M25.5,39h-15V23h15V39z"/>
</g>
</svg>
