<?xml version="1.0" encoding="utf-8"?>
<!-- Generator: Adobe Illustrator 17.1.0, SVG Export Plug-In . SVG Version: 6.00 Build 0)  -->
<!DOCTYPE svg PUBLIC "-//W3C//DTD SVG 1.1//EN" "http://www.w3.org/Graphics/SVG/1.1/DTD/svg11.dtd">
<svg version="1.1" id="Layer_1" xmlns="http://www.w3.org/2000/svg" xmlns:xlink="http://www.w3.org/1999/xlink" x="0px" y="0px"
	 width="100px" height="100px" viewBox="50 50 100 100" enable-background="new 50 50 100 100" xml:space="preserve">
<g>
	<g>
		<g>
			<path fill="#FC1D00" d="M65.1,120.6h2.5v2.5c0,3.2,2.6,5.9,5.9,5.9h20.2c1.3,0,2.6-0.4,3.5-1.2c3.1,0.8,8.8,1.4,18.9,1.4
				c18.5,0,22-1.9,22.9-3.6c0.6-1.2-0.1-2.2-0.4-2.6c-0.3-0.6-0.9-1.2-1-1.4c0.1-0.3,0.3-0.6,0.3-0.9c1.6-0.4,2.7-1.2,2.8-2.7
				c0-8.8-10.3-15.1-24.5-15.1c-6.6,0-12.2,1.4-16.3,3.6v-3.3c0-0.6-0.4-1-1-1H68.6c-0.6,0-1,0.4-1,1v5.9h-2.5
				c-3.1,0-5.8,2.6-5.8,5.8C59.5,118.2,62,120.6,65.1,120.6z M104,107.1l2.6,4.6c0.3,0.3,0.5,0.5,0.9,0.5c0.3,0,0.3,0,0.5-0.1
				c0.5-0.3,0.6-0.9,0.4-1.4l-2.5-4.2c2.3-0.6,4.9-1,7.7-1.3l2.8,4.9c0.3,0.3,0.5,0.5,0.9,0.5c0.3,0,0.3,0,0.5-0.1
				c0.5-0.3,0.6-0.9,0.4-1.4l-2.3-4h0.1c3,0,5.7,0.3,8.2,0.9l3,5.3c0.3,0.3,0.5,0.5,0.9,0.5c0.3,0,0.3,0,0.5-0.1
				c0.5-0.3,0.6-0.9,0.4-1.4l-2.1-3.3c6.9,2.1,11.3,6.3,11.3,11.2c0,0.3-0.3,0.6-1.4,0.9c-0.3,0-0.4,0.1-0.8,0.1
				c-0.9,0.1-2.1,0.3-3.7,0.3c-1.8,0-3.7-0.1-6-0.1c-3.1-0.1-6.6-0.3-10.3-0.3c-3.6,0-6.9,0.1-9.9,0.3c-1.7,0-3.2,0.1-4.6,0.1
				c-0.5,0-1,0-1.6,0c-0.1,0-0.3,0-0.4,0c-0.8,0-1.4,0-2.1,0c-0.9,0-1.4-0.1-1.9-0.3c-0.3,0-0.5-0.1-0.8-0.1
				c-0.5-0.1-1.2-0.3-1.2-0.6c0-2.8,1.4-5.4,3.9-7.5c0.6-0.5,1.4-1,2.1-1.4C101,108.4,102.5,107.6,104,107.1z M106.8,123.5l-3.9-2.3
				c1,0,2.3,0,3.6-0.1c1.3,0,2.6-0.1,4-0.1L106.8,123.5z M101.4,122.6c-0.6,0-1.2,0-1.6,0c-0.8,0-1.4,0-1.8,0c-0.1,0-0.3,0-0.3,0
				c-0.6,0-1.4-0.3-1.7-0.6c-0.3-0.3-0.3-0.6-0.3-1c0.5,0.1,1.2,0.1,1.9,0.1c0.3,0,0.3,0,0.5,0s0.4,0,0.6,0l0.9,0.5l0.3,0.1l2.1,0.9
				C101.9,122.6,101.7,122.6,101.4,122.6z M114.2,120.8L114.2,120.8c0.8,0,1.4,0,2.1,0c0.8,0,1.4,0,2.2,0c0.1,0.1,0.1,0.3,0.3,0.3
				l2.6,1.8h-0.9c-3,0-6-0.1-8.9-0.1L114.2,120.8z M122.1,121c1.6,0,3.1,0.1,4.4,0.1s2.6,0.1,3.6,0.1l-4.1,2.6L122.1,121z M135,122
				c-0.6,0.8-1.7,1-3.1,1c-0.3,0-0.5,0-0.8,0l2.8-1.7c0.1,0,0.1-0.1,0.1-0.1c0.5,0,1,0,1.4-0.1C135.5,121.4,135.4,121.7,135,122z
				 M116.2,127.2c-4.2,0-7.6-0.1-10.2-0.3c-3.1-0.3-5.4-0.4-6.9-0.8c-0.9-0.3-1.7-0.3-2.2-0.5c-1.4-0.4-1.6-0.9-1.7-0.9
				c0-0.1,0.1-0.3,0.3-0.4c0-0.1,0.1-0.1,0.1-0.3c0.5,0.3,1.2,0.4,1.9,0.5c0.3,0,0.4,0.1,0.8,0.1s0.9,0,1.4,0c1.4,0,3.2,0,5.3,0l0,0
				l0,0l0,0l1.4,0.9c0.3,0.1,0.3,0.1,0.5,0.1c0.3,0,0.4-0.1,0.6-0.3l1-0.8l0,0c3.5,0,7.8,0.1,11.7,0.1h4l1,0.8
				c0.3,0.1,0.4,0.3,0.6,0.3c0.3,0,0.4,0,0.5-0.1l1.2-0.8c1.9,0,3.3,0,4.2,0c1.9,0,3.5-0.5,4.6-1.6c0.1,0.3,0.3,0.3,0.4,0.5
				c0,0.1,0.1,0.3,0.3,0.3c0.1,0.1,0.3,0.3,0.3,0.4C137.2,124.8,136.2,127.2,116.2,127.2z M69.6,104.4h28.1v3.6
				c-3.7,2.6-5.9,6-5.9,10.2c0,0.9,0.4,1.9,2.1,2.5c-0.1,0.6-0.1,1.4,0.3,2.1c-0.1,0.1-0.3,0.3-0.4,0.5c-0.3,0.4-0.9,1.4-0.3,2.6
				c0.3,0.4,0.5,0.9,1.3,1.2c-0.3,0-0.4,0.1-0.6,0.1H73.6c-2.1,0-3.9-1.7-3.9-3.9L69.6,104.4z M65.1,111.3h2.5v7.2h-2.5
				c-1.9,0-3.7-1.7-3.7-3.7C61.7,113,63.2,111.3,65.1,111.3z"/>
			<path fill="#FC1D00" d="M116.1,129.8c-8.6,0-15-0.5-18.8-1.4c-0.9,0.7-2.2,1.1-3.6,1.1H73.5c-3.6,0-6.5-2.9-6.5-6.5v-1.9h-1.9
				c-3.4,0-6.2-2.7-6.4-6.2v0c0-3.4,2.9-6.4,6.4-6.4H67v-5.3c0-1,0.6-1.6,1.6-1.6h30.2c1,0,1.6,0.6,1.6,1.6v2.4
				c4.3-2.1,9.9-3.3,15.8-3.3c14.5,0,25,6.6,25,15.6v0c-0.1,1.5-1.1,2.6-2.9,3.1c0,0.1-0.1,0.2-0.1,0.4c0,0,0,0,0.1,0.1
				c0.3,0.3,0.6,0.7,0.8,1.1l0,0c0.3,0.5,1.1,1.7,0.4,3.1C138.5,127.8,134.9,129.8,116.1,129.8z M98.2,127.4
				c3.8,0.8,9.8,1.2,17.9,1.2c8.2,0,14.3-0.4,18-1.2c2.5-0.5,4-1.2,4.5-2.1c0.4-0.7,0.1-1.3-0.3-1.9l-0.1-0.1l0,0
				c-0.1-0.3-0.4-0.6-0.6-0.9c-0.2-0.2-0.3-0.3-0.4-0.5l-0.1-0.3l0.1-0.3c0.1-0.2,0.2-0.5,0.2-0.6v-0.4l0.4-0.1
				c2-0.5,2.3-1.5,2.4-2.2c0-8.4-10.1-14.5-23.9-14.5c-6.1,0-11.8,1.3-16.1,3.5l-0.8,0.4v-4.3c0-0.3-0.1-0.5-0.5-0.5H68.6
				c-0.3,0-0.5,0.1-0.5,0.5v6.5h-3c-2.8,0-5.2,2.4-5.2,5.2c0.1,2.9,2.4,5.1,5.2,5.1h3v3c0,2.9,2.4,5.3,5.3,5.3h20.2
				c1.1,0,2.2-0.3,3-0.9h-1.9c0,0-0.1,0-0.1,0c-0.1,0-0.3,0.1-0.5,0.1H73.6c-2.5,0-4.4-2-4.4-4.4l-0.1-19.4h29.2v4.5l-0.2,0.2
				c-3.7,2.6-5.7,5.9-5.7,9.7c0,0.6,0.2,1.4,1.7,1.9l0.5,0.1l-0.1,0.5c-0.1,0.5-0.1,1.1,0.2,1.7l0.2,0.4l-0.3,0.3
				c-0.1,0.1-0.2,0.2-0.3,0.4l0,0.1c-0.3,0.5-0.7,1.2-0.2,2c0,0,0,0.1,0.1,0.1c0.2,0.3,0.4,0.6,0.9,0.8L98.2,127.4z M70.2,105
				l0.1,18.2c0,1.8,1.5,3.3,3.3,3.3h19.6c-0.1-0.1-0.1-0.2-0.2-0.3c0,0,0-0.1-0.1-0.1l0,0c-0.4-0.7-0.6-1.8,0.3-3.1
				c0.1-0.1,0.1-0.2,0.2-0.3c-0.2-0.5-0.2-1.1-0.2-1.6c-1.6-0.7-2-1.9-2-2.8c0-4.1,2-7.7,5.9-10.5V105L70.2,105L70.2,105z
				 M116.2,127.7c-4.5,0-8-0.1-10.2-0.3h0c-0.5,0-1-0.1-1.5-0.1c-2.3-0.2-4.2-0.3-5.5-0.7h0c-0.4-0.1-0.7-0.2-1-0.2
				c-0.4-0.1-0.8-0.1-1.2-0.3c-1-0.3-1.5-0.7-1.7-0.9h-0.4v-0.6c0-0.3,0.2-0.5,0.3-0.7c0,0,0-0.1,0.1-0.1v-0.8l0.8,0.4
				c0.5,0.2,1.1,0.3,1.7,0.5c0.2,0,0.3,0,0.4,0.1c0.1,0,0.2,0,0.3,0h6.9l1.5,1c0,0,0.1,0,0.1,0c0,0,0.1,0,0.1,0c0,0,0,0,0.2-0.1
				c0,0,0.1-0.1,0.2-0.1l1.1-0.8h0.2c1.7,0,3.6,0,5.6,0.1c2.1,0,4.2,0.1,6.1,0.1h4.2l1.1,0.8c0.1,0,0.1,0.1,0.2,0.1
				c0.1,0.1,0.1,0.1,0.2,0.1c0,0,0.1,0,0.1,0l1.4-0.9h4.4c1.8,0,3.2-0.5,4.2-1.4l0.6-0.5l0.3,0.7c0,0,0,0.1,0.1,0.1
				c0.1,0.1,0.2,0.2,0.3,0.3h0l0.2,0.2c0.2,0.2,0.4,0.4,0.4,0.8v0.2l-0.2,0.2c-0.2,0.3-0.8,1-3.9,1.6
				C130.3,127.4,124.3,127.7,116.2,127.7z M106.1,126.3c2.2,0.1,5.7,0.3,10.1,0.3c3.8,0,6.8-0.1,9.4-0.2c-0.1,0-0.2-0.1-0.3-0.2
				c0,0-0.1,0-0.1-0.1l0,0l-0.9-0.7h-3.8c-2,0-4.1,0-6.2-0.1c-1.9,0-3.7-0.1-5.4-0.1l-0.9,0.7l0,0c-0.1,0-0.1,0.1-0.1,0.1
				c-0.2,0.1-0.4,0.2-0.8,0.2s-0.4,0-0.8-0.2l0,0l-1.3-0.8h-6.5c-0.3,0-0.5,0-0.6-0.1c-0.1,0-0.1,0-0.1,0h-0.1c-0.1,0-0.2,0-0.3,0h0
				c0.2,0.1,0.5,0.2,0.9,0.2c0.3,0.1,0.7,0.1,1.1,0.2c1.2,0.3,3,0.4,5.3,0.6C105,126.2,105.6,126.3,106.1,126.3z M126.9,126.2
				c0,0-0.1,0.1-0.1,0.1c6.8-0.4,9.1-1.3,9.9-1.8c-0.1-0.1-0.2-0.2-0.2-0.3c-1.2,0.8-2.7,1.3-4.5,1.3h-4.1L126.9,126.2z M126,124.5
				l-5.6-4.1h1.7c0.8,0,1.6,0,2.4,0.1c0.7,0,1.4,0.1,2,0.1c0.7,0,1.4,0,2,0.1c0.6,0,1.1,0.1,1.6,0.1h2L126,124.5z M123.9,121.6
				l2.1,1.5l2.2-1.4c-0.6,0-1.1,0-1.7,0c-0.6,0-1.3,0-2-0.1C124.3,121.6,124.1,121.6,123.9,121.6z M106.8,124.2l-5.9-3.6h2.1
				c1,0,2.3,0,3.5-0.1h0c0.6,0,1.2,0,1.9-0.1c0.7,0,1.4-0.1,2.1-0.1h1.8L106.8,124.2z M105,121.8l1.8,1.1l1.8-1.3c0,0-0.1,0-0.1,0
				c-0.7,0-1.3,0.1-1.9,0.1C106,121.7,105.5,121.8,105,121.8z M131.9,123.6h-2.9l4.5-2.6v-0.3h0.6c0.5,0,0.9,0,1.2-0.1l0.8-0.2v0.8
				c0,0.4-0.2,0.9-0.7,1.3C134.5,123.5,133.1,123.6,131.9,123.6z M134.2,121.9l-0.6,0.4c0.3-0.1,0.6-0.3,0.8-0.5h0
				C134.3,121.8,134.3,121.9,134.2,121.9z M123.1,123.5h-2.7c-1.5,0-3.1,0-4.6-0.1c-1.5,0-2.9-0.1-4.3-0.1h-1.8l4.3-3.1h4.7l0.2,0.2
				c0,0,0.1,0.1,0.1,0.2L123.1,123.5z M113.2,122.2c0.9,0,1.7,0,2.6,0c1.2,0,2.4,0,3.6,0.1l-1-0.7c-0.1,0-0.2-0.1-0.3-0.2h-3.8
				L113.2,122.2z M104.9,123.2h-7.1c-0.8,0-1.7-0.3-2.1-0.8c-0.4-0.4-0.4-1-0.4-1.4v-0.7l0.7,0.2c0.4,0.1,1.1,0.1,1.8,0.1h1.3l1,0.6
				l0.2,0.1L104.9,123.2z M96.6,121.7L96.6,121.7c0.1,0.2,0.7,0.4,1.2,0.4h1.7l-0.7-0.4h-1C97.4,121.7,97,121.7,96.6,121.7z
				 M132.4,119.9c-0.8,0-1.7,0-2.7-0.1c-1.1,0-2.2-0.1-3.4-0.1h0c-3-0.1-6.5-0.3-10.3-0.3c-3.7,0-7,0.1-9.9,0.3h0
				c-0.9,0-1.7,0-2.5,0.1c-0.8,0-1.5,0.1-2.1,0.1h-4c-0.9,0-1.5-0.1-2-0.3c-0.2,0-0.3,0-0.4-0.1c-0.1,0-0.2,0-0.2,0h-0.1l-0.2,0
				c-0.6-0.1-1.5-0.4-1.5-1.2c0-2.9,1.4-5.7,4.1-7.9c0.6-0.5,1.4-1,2.1-1.5c1.5-1.1,3-1.9,4.5-2.4l0.5-0.1l2.8,5
				c0.2,0.2,0.3,0.3,0.4,0.3c0,0,0.1,0,0.1,0c0,0,0.1,0,0.1-0.1c0.2-0.1,0.2-0.4,0.1-0.6l-2.8-4.9l0.7-0.2c2.2-0.6,4.7-1,7.8-1.3
				l0.4,0l3,5.1c0.2,0.2,0.3,0.3,0.4,0.3c0,0,0.1,0,0.1,0c0,0,0.1,0,0.1-0.1c0.2-0.1,0.2-0.4,0.1-0.6l-2.8-4.8h1.1
				c3.2,0,5.9,0.3,8.4,0.9l0.2,0.1l3,5.4c0.2,0.2,0.3,0.3,0.4,0.3c0,0,0.1,0,0.1,0c0,0,0.1,0,0.1-0.1c0.1,0,0.2-0.1,0.2-0.2
				c0-0.1,0-0.3,0-0.4l-2.8-4.6l1.4,0.4c7.2,2.1,11.7,6.7,11.7,11.7c0,0.5-0.3,1.1-1.9,1.5l-0.1,0h-0.1c0,0-0.1,0-0.1,0
				c-0.1,0-0.3,0.1-0.6,0.1C135.4,119.7,134.2,119.9,132.4,119.9z M126.4,118.6c1.2,0,2.3,0,3.4,0.1c0.9,0,1.8,0.1,2.6,0.1
				c1.7,0,2.8-0.1,3.6-0.2h0.1c0.1,0,0.2,0,0.3,0c0.1,0,0.2-0.1,0.4-0.1c0.7-0.1,0.9-0.3,0.9-0.4c0-4.2-3.6-8-9.4-10.1l1.3,2.1
				c0.4,0.8,0.1,1.8-0.6,2.2c-0.3,0.2-0.4,0.2-0.8,0.2c-0.6,0-1-0.4-1.3-0.7l0,0l-2.9-5.1c-2.1-0.5-4.4-0.8-7-0.8l1.8,3.2
				c0.4,0.8,0.1,1.8-0.6,2.2c-0.3,0.2-0.4,0.2-0.8,0.2c-0.6,0-1-0.4-1.3-0.7l0,0l0-0.1l-2.6-4.6c-2.6,0.2-4.7,0.6-6.5,1l2.1,3.6
				c0.4,0.8,0.1,1.8-0.6,2.2c-0.3,0.2-0.4,0.2-0.8,0.2c-0.6,0-1-0.4-1.3-0.7l0,0l-2.4-4.3c-1.3,0.5-2.5,1.2-3.8,2.1l0,0
				c-0.7,0.4-1.4,0.9-2,1.4c-2.3,2-3.6,4.4-3.6,6.9c0.1,0.1,0.4,0.1,0.6,0.2l0,0c0.2,0,0.3,0,0.4,0.1c0.1,0,0.2,0,0.2,0h0.1l0.1,0
				c0.5,0.1,1,0.2,1.8,0.2h4c0.7,0,1.4,0,2.1-0.1c0.8,0,1.7-0.1,2.5-0.1c2.9-0.1,6.2-0.3,9.9-0.3
				C119.9,118.3,123.4,118.5,126.4,118.6z M68.1,119.1h-3c-2.3,0-4.3-2-4.3-4.3v-0.1c0.3-1.9,2-4,4.3-4h3V119.1z M62,114.8
				c0,1.7,1.5,3.1,3.2,3.1H67v-6.1h-1.9C63.4,111.9,62.2,113.4,62,114.8z"/>
		</g>
		<g>
			<g>
				<path fill="#FC1D00" d="M82,72.6c0.1,0,3.1,0.9,2.5,4.1c-0.1,1.2-0.9,2.1-1.6,2.8c-1.3,1.8-3,3.9,0.8,7.6
					c0.1,0.1,0.5,0.3,0.6,0.3c0.3,0,0.5-0.1,0.6-0.3c0.4-0.4,0.4-0.9,0-1.3c-2.6-2.6-1.9-3.5-0.5-5.1c0.8-0.9,1.7-2.1,1.8-3.7
					c0.6-3.9-2.3-5.7-3.9-6.2c-0.5-0.1-1,0.1-1.2,0.6C81.3,71.8,81.6,72.5,82,72.6z"/>
				<path fill="#FC1D00" d="M84.3,88c-0.2,0-0.8-0.2-1-0.4c-4-4-2.2-6.4-0.9-8.2l0.2-0.2c0.6-0.7,1.3-1.5,1.4-2.5v0
					c0.5-2.6-1.7-3.3-1.9-3.4h0l-0.1,0c-0.5-0.2-0.8-0.7-1.1-1.5l0-0.2l0-0.2c0.2-0.7,0.8-1.1,1.5-1.1c0.1,0,0.3,0,0.4,0l0,0
					c2.4,0.8,4.9,3,4.2,6.8c-0.2,2-1.3,3.3-1.9,4c-1.3,1.5-1.8,2.1,0.5,4.4c0.3,0.3,0.5,0.7,0.5,1c0,0.4-0.2,0.8-0.5,1
					C85.1,87.8,84.7,88,84.3,88z M84,86.7c0,0,0.2,0.1,0.3,0.1c0.1,0,0.2-0.1,0.2-0.1c0,0,0.1-0.1,0.1-0.2c0-0.1-0.1-0.2-0.1-0.2
					c-2.9-2.9-2.1-4.1-0.5-5.9c0.8-0.9,1.6-1.9,1.7-3.4v0c0.7-4-2.9-5.4-3.4-5.5c0,0-0.1,0-0.1,0c0,0-0.2,0-0.3,0.1
					c0.2,0.4,0.3,0.6,0.3,0.6c0.5,0.1,1.4,0.5,2.1,1.4c0.7,0.9,1,2.1,0.7,3.4c-0.1,1.3-1,2.3-1.6,3.1l0,0L83.3,80
					C82,81.8,80.8,83.4,84,86.7z"/>
			</g>
			<g>
				<path fill="#FC1D00" d="M85.5,81.5c-0.3,0.5-0.1,1,0.3,1.3c0.3,0.1,2.7,1.8,1.3,4.6c-0.5,1-1.3,1.7-2.2,2.5
					c-1.8,1.4-3.9,3.1-1.3,7.6c0.1,0.3,0.5,0.5,0.9,0.5c0.1,0,0.3,0,0.5-0.1c0.5-0.3,0.6-0.9,0.4-1.3c-1.8-3.1-0.9-3.9,0.8-5.1
					c0.9-0.8,2.1-1.7,2.7-3.1c1.7-3.5-0.6-6-2.1-6.9C86.4,80.9,85.7,81.1,85.5,81.5z"/>
				<path fill="#FC1D00" d="M84.4,98.5c-0.6,0-1.2-0.3-1.4-0.8c-2.8-5-0.4-6.9,1.4-8.3l0.1-0.1c0.8-0.7,1.5-1.3,2-2.2
					c1.2-2.5-1-3.9-1-3.9l0,0c-0.6-0.4-0.8-1.3-0.5-2l0-0.1c0.3-0.4,0.7-0.6,1.2-0.6c0.3,0,0.7,0.1,0.9,0.4c1.6,1,4,3.9,2.2,7.6
					c-0.6,1.4-1.7,2.3-2.6,3.1l-0.3,0.2c-1.6,1.2-2.2,1.7-0.6,4.4c0.2,0.3,0.3,0.7,0.2,1.1c-0.1,0.4-0.4,0.8-0.8,1
					C84.9,98.5,84.6,98.5,84.4,98.5z M86,82.3c0.3,0.1,1,0.7,1.5,1.5c0.5,0.8,0.9,2.2,0,3.9c-0.6,1.1-1.4,1.8-2.3,2.5l-0.1,0.1
					c-1.7,1.4-3.5,2.7-1.1,6.9l0,0c0,0.1,0.2,0.2,0.4,0.2c0.1,0,0.1,0,0.3-0.1c0.1-0.1,0.2-0.2,0.2-0.2c0-0.1,0-0.2,0-0.2l0,0
					c-2-3.4-0.9-4.4,0.9-5.9l0.2-0.2c0.8-0.7,1.8-1.5,2.3-2.7c1.8-3.8-1.7-6.1-1.8-6.2l0,0l0,0c0,0-0.1-0.1-0.2-0.1
					c-0.1,0-0.2,0-0.2,0.1C85.8,82,85.9,82.2,86,82.3z"/>
			</g>
		</g>
	</g>
	<rect x="95.4" y="120.1" fill="#FC1D00" width="5.4" height="3.3"/>
	<rect x="112.9" y="120.1" fill="#FC1D00" width="7.4" height="2.8"/>
	<rect x="131.5" y="120.1" fill="#FC1D00" width="3.9" height="3.3"/>
</g>
</svg>
