<?xml version="1.0" encoding="utf-8"?>
<!-- Generator: Adobe Illustrator 17.1.0, SVG Export Plug-In . SVG Version: 6.00 Build 0)  -->
<!DOCTYPE svg PUBLIC "-//W3C//DTD SVG 1.1//EN" "http://www.w3.org/Graphics/SVG/1.1/DTD/svg11.dtd">
<svg version="1.1" id="Layer_1" xmlns="http://www.w3.org/2000/svg" xmlns:xlink="http://www.w3.org/1999/xlink" x="0px" y="0px"
	 viewBox="0 0 270 270" enable-background="new 0 0 270 270" xml:space="preserve">
<g>
	<path fill="#333333" d="M243.3,243.3H26.7V26.7h216.6V243.3z M29.7,240.3h210.6V29.7H29.7V240.3z"/>
	<g>
		<g>
			<polygon fill="#333333" points="110.4,95.9 110.4,117.4 117.4,117.4 117.4,103 124.5,103 124.5,124.6 74.9,124.6 74.9,103 
				89.1,103 89.1,95.9 74.9,95.9 74.9,74.3 82,74.3 82,88.7 96.2,88.7 96.2,110.2 82,110.2 82,117.4 103.3,117.4 103.3,81.5 
				89.1,81.5 89.1,74.3 110.4,74.3 110.4,88.7 138.7,88.7 138.7,95.9 			"/>
			<path fill="#FFFFFF" d="M126,126.1H73.4v-24.5h14.2v-4.2H73.4V72.8h10.1v14.4h14.2v24.5H83.5v4.2h18.3V83H87.6V72.8h24.3v14.4
				h28.4v10.2h-28.4v18.5h4.1v-14.3H126V126.1z M76.4,123.1H123v-18.5h-4.1v14.3h-10.1V94.4h28.4v-4.2h-28.4V75.8H90.6V80h14.2v38.9
				H80.5v-10.2h14.2V90.2H80.5V75.8h-4.1v18.5h14.2v10.2H76.4V123.1z"/>
		</g>
		<g>
			<polygon fill="#333333" points="209.7,146.1 209.7,210.7 60.7,210.7 60.7,146.1 110.4,146.1 110.4,167.6 96.2,167.6 96.2,196.3 
				74.9,196.3 74.9,189.2 89.1,189.2 89.1,160.4 103.3,160.4 103.3,153.3 82,153.3 82,182 74.9,182 74.9,153.3 67.8,153.3 
				67.8,203.5 131.6,203.5 131.6,174.8 167.1,174.8 167.1,189.2 195.5,189.2 195.5,196.3 145.8,196.3 145.8,189.2 160,189.2 
				160,182 138.7,182 138.7,203.5 202.6,203.5 202.6,182 174.2,182 174.2,167.6 160,167.6 160,153.3 138.7,153.3 138.7,160.4 
				152.9,160.4 152.9,167.6 131.6,167.6 131.6,153.3 124.5,153.3 124.5,182 110.4,182 110.4,189.2 124.5,189.2 124.5,196.3 
				103.3,196.3 103.3,174.8 117.4,174.8 117.4,146.1 195.5,146.1 195.5,167.6 188.4,167.6 188.4,153.3 167.1,153.3 167.1,160.4 
				181.3,160.4 181.3,174.8 202.6,174.8 202.6,146.1 			"/>
			<path fill="#FFFFFF" d="M211.2,212.2h-152v-67.6h52.7v24.5H97.7v28.7H73.4v-10.2h14.2v-28.7h14.2v-4.2H83.5v28.7H73.4v-28.7h-4.1
				V202h60.9v-28.7h38.5v14.4H197v10.2h-52.7v-10.2h14.2v-4.2h-18.3V202h60.9v-18.5h-28.4v-14.4h-14.2v-14.4h-18.3v4.2h14.2v10.2
				h-24.3v-14.4H126v28.7h-14.2v4.2H126v10.2h-24.3v-24.5h14.2v-28.7h81v24.5h-10.1v-14.4h-18.3v4.2h14.2v14.4h18.3v-28.7h10.1
				V212.2z M62.2,209.2h146v-61.6h-4.1v28.7h-24.3v-14.4h-14.2v-10.2h24.3v14.4h4.1v-18.5h-75v28.7h-14.2v18.5H123v-4.2h-14.2v-10.2
				H123v-28.7h10.1v14.4h18.3v-4.2h-14.2v-10.2h24.3v14.4h14.2v14.4h28.4V205h-66.9v-24.5h24.3v10.2h-14.2v4.2H194v-4.2h-28.4v-14.4
				h-32.5V205H66.3v-53.2h10.1v28.7h4.1v-28.7h24.3v10.2H90.6v28.7H76.4v4.2h18.3v-28.7h14.2v-18.5H62.2V209.2z"/>
		</g>
		<g>
			<polygon fill="#333333" points="209.7,60 209.7,124.6 202.6,124.6 202.6,67.1 195.5,67.1 195.5,88.7 188.4,88.7 188.4,67.1 
				67.8,67.1 67.8,124.6 60.7,124.6 60.7,60 			"/>
			<path fill="#FFFFFF" d="M211.2,126.1h-10.1V68.6H197v21.5h-10.1V68.6H69.3v57.4H59.2V58.5h152V126.1z M204.1,123.1h4.1V61.5h-146
				v61.6h4.1V65.6h123.6v21.5h4.1V65.6h10.1V123.1z"/>
		</g>
		<g>
			<polygon fill="#333333" points="195.5,95.9 195.5,124.6 131.6,124.6 131.6,103 145.8,103 145.8,88.7 167.1,88.7 167.1,95.9 
				152.9,95.9 152.9,103 174.2,103 174.2,81.5 117.4,81.5 117.4,74.3 181.3,74.3 181.3,110.2 138.7,110.2 138.7,117.4 188.4,117.4 
				188.4,95.9 			"/>
			<path fill="#FFFFFF" d="M197,126.1h-66.9v-24.5h14.2V87.2h24.3v10.2h-14.2v4.2h18.3V83h-56.8V72.8h66.8v38.9h-42.6v4.2h46.7V94.4
				H197V126.1z M133.1,123.1H194V97.4h-4.1v21.5h-52.7v-10.2h42.6V75.8h-60.8V80h56.8v24.5h-24.3V94.4h14.2v-4.2h-18.3v14.4h-14.2
				V123.1z"/>
		</g>
	</g>
	<rect x="194.7" y="129.5" fill="#FC1D00" width="10" height="10"/>
</g>
</svg>
