<?xml version="1.0" encoding="utf-8"?>
<!-- Generator: Adobe Illustrator 17.1.0, SVG Export Plug-In . SVG Version: 6.00 Build 0)  -->
<!DOCTYPE svg PUBLIC "-//W3C//DTD SVG 1.1//EN" "http://www.w3.org/Graphics/SVG/1.1/DTD/svg11.dtd">
<svg version="1.1" id="Layer_1" xmlns="http://www.w3.org/2000/svg" xmlns:xlink="http://www.w3.org/1999/xlink" x="0px" y="0px"
	 viewBox="0 0 200 200" enable-background="new 0 0 200 200" xml:space="preserve">
<g>
	<path fill="#333333" d="M180,180H20V20h160V180z M22.2,177.8h155.6V22.2H22.2V177.8z"/>
	<path id="path8999-4-3_1_" inkscape:connector-curvature="0" fill="#333333" d="M85.1,81.2c-0.8,0-1.4,0.7-1.4,1.5V88
		c0,0.8,0.7,1.4,1.4,1.4h5.3c0.8,0,1.5-0.7,1.5-1.4v-5.3c0-0.8-0.7-1.5-1.5-1.5H85.1z M85.1,82.7h5.2v5.2h-5.2V82.7z"/>
	<path id="path9001-2-8_1_" inkscape:connector-curvature="0" fill="#333333" d="M96.3,81.2c-0.8,0-1.4,0.7-1.4,1.5V88
		c0,0.8,0.7,1.4,1.4,1.4h5.3c0.8,0,1.4-0.7,1.4-1.4v-5.3c0-0.8-0.7-1.5-1.4-1.5H96.3z M96.3,82.7h5.2v5.2h-5.2V82.7z"/>
	<path id="path9003-3-7_1_" inkscape:connector-curvature="0" fill="#333333" d="M107.4,81.2c-0.8,0-1.5,0.7-1.5,1.5V88
		c0,0.8,0.7,1.4,1.5,1.4h5.3c0.8,0,1.4-0.7,1.4-1.4v-5.3c0-0.8-0.7-1.5-1.4-1.5H107.4z M107.5,82.7h5.2v5.2h-5.2V82.7z"/>
	<path id="path9005-2-4_1_" inkscape:connector-curvature="0" fill="#333333" d="M118.5,81.2c-0.8,0-1.4,0.7-1.4,1.5V88
		c0,0.8,0.7,1.4,1.4,1.4h5.3c0.8,0,1.5-0.7,1.5-1.4v-5.3c0-0.8-0.7-1.5-1.5-1.5H118.5z M118.6,82.7h5.2v5.2h-5.2V82.7z"/>
	<path id="path9007-2-2_1_" inkscape:connector-curvature="0" fill="#333333" d="M129.7,81.2c-0.8,0-1.4,0.7-1.4,1.5V88
		c0,0.8,0.7,1.4,1.4,1.4h5.3c0.8,0,1.4-0.7,1.4-1.4v-5.3c0-0.8-0.7-1.5-1.4-1.5H129.7z M129.7,82.7h5.2v5.2h-5.2V82.7z"/>
	<path id="path9009-1-7_1_" inkscape:connector-curvature="0" fill="#333333" d="M62.8,93.1c-0.8,0-1.4,0.7-1.4,1.4v5.3
		c0,0.8,0.7,1.4,1.4,1.4h5.3c0.8,0,1.4-0.7,1.4-1.4v-5.3c0-0.8-0.7-1.4-1.4-1.4H62.8z M62.9,94.6h5.2v5.2h-5.2V94.6z"/>
	<path id="path9011-6-7_1_" inkscape:connector-curvature="0" fill="#333333" d="M74,93.1c-0.8,0-1.5,0.7-1.5,1.4v5.3
		c0,0.8,0.7,1.4,1.5,1.4h5.3c0.8,0,1.4-0.7,1.4-1.4v-5.3c0-0.8-0.7-1.4-1.4-1.4H74z M74,94.6h5.2v5.2H74V94.6z"/>
	<path id="path9013-8-9_1_" inkscape:connector-curvature="0" fill="#333333" d="M85.1,93.1c-0.8,0-1.4,0.7-1.4,1.4v5.3
		c0,0.8,0.7,1.4,1.4,1.4h5.3c0.8,0,1.5-0.7,1.5-1.4v-5.3c0-0.8-0.7-1.4-1.5-1.4H85.1z M85.1,94.6h5.2v5.2h-5.2V94.6z"/>
	<path id="path9015-5-3_1_" inkscape:connector-curvature="0" fill="#333333" d="M96.3,93.1c-0.8,0-1.4,0.7-1.4,1.4v5.3
		c0,0.8,0.7,1.4,1.4,1.4h5.3c0.8,0,1.4-0.7,1.4-1.4v-5.3c0-0.8-0.7-1.4-1.4-1.4H96.3z M96.3,94.6h5.2v5.2h-5.2V94.6z"/>
	<path id="path9017-7-1_1_" inkscape:connector-curvature="0" fill="#333333" d="M107.4,93.1c-0.8,0-1.5,0.7-1.5,1.4v5.3
		c0,0.8,0.7,1.4,1.5,1.4h5.3c0.8,0,1.4-0.7,1.4-1.4v-5.3c0-0.8-0.7-1.4-1.4-1.4H107.4z M107.5,94.6h5.2v5.2h-5.2V94.6z"/>
	<path id="path9019-6-9_1_" inkscape:connector-curvature="0" fill="#333333" d="M118.5,93.1c-0.8,0-1.4,0.7-1.4,1.4v5.3
		c0,0.8,0.7,1.4,1.4,1.4h5.3c0.8,0,1.5-0.7,1.5-1.4v-5.3c0-0.8-0.7-1.4-1.5-1.4H118.5z M118.6,94.6h5.2v5.2h-5.2V94.6z"/>
	<path id="path9021-1-8_1_" inkscape:connector-curvature="0" fill="#333333" d="M129.7,93.3c-0.8,0-1.4,0.7-1.4,1.4v5.3
		c0,0.8,0.7,1.4,1.4,1.4h5.3c0.8,0,1.4-0.7,1.4-1.4v-5.3c0-0.8-0.7-1.4-1.4-1.4H129.7z M129.7,94.7h5.2v5.2h-5.2V94.7z"/>
	<path id="path9023-8-6_1_" inkscape:connector-curvature="0" fill="#333333" d="M62.8,104.9c-0.8,0-1.4,0.7-1.4,1.4v5.3
		c0,0.8,0.6,1.4,1.4,1.4h5.3c0.8,0,1.4-0.7,1.4-1.4v-5.3c0-0.8-0.7-1.4-1.4-1.4H62.8z M62.9,106.4h5.2v5.2h-5.2V106.4z"/>
	<path id="path9025-9-5_1_" inkscape:connector-curvature="0" fill="#333333" d="M74,104.9c-0.8,0-1.5,0.7-1.5,1.4v5.3
		c0,0.8,0.7,1.4,1.5,1.4h5.3c0.8,0,1.4-0.7,1.4-1.4v-5.3c0-0.8-0.7-1.4-1.4-1.4H74z M74,106.4h5.2v5.2H74V106.4z"/>
	<path id="path9027-2-0_1_" inkscape:connector-curvature="0" fill="#333333" d="M85.1,104.9c-0.8,0-1.4,0.7-1.4,1.4v5.3
		c0,0.8,0.6,1.4,1.4,1.4h5.3c0.8,0,1.5-0.7,1.5-1.4v-5.3c0-0.8-0.7-1.4-1.5-1.4H85.1z M85.1,106.4h5.2v5.2h-5.2V106.4z"/>
	<path id="path9029-7-2_1_" inkscape:connector-curvature="0" fill="#333333" d="M96.3,104.9c-0.8,0-1.4,0.7-1.4,1.4v5.3
		c0,0.8,0.6,1.4,1.4,1.4h5.3c0.8,0,1.4-0.7,1.4-1.4v-5.3c0-0.8-0.7-1.4-1.4-1.4H96.3z M96.3,106.4h5.2v5.2h-5.2V106.4z"/>
	<path id="path9031-9-8_1_" inkscape:connector-curvature="0" fill="#FC1D00" d="M107.4,104.9c-0.8,0-1.5,0.7-1.5,1.4v5.3
		c0,0.8,0.7,1.4,1.5,1.4h5.3c0.8,0,1.4-0.7,1.4-1.4v-5.3c0-0.8-0.7-1.4-1.4-1.4H107.4z M107.5,106.4h5.2v5.2h-5.2V106.4z"/>
	<path id="path9033-5-6_1_" inkscape:connector-curvature="0" fill="#333333" d="M118.5,104.9c-0.8,0-1.4,0.7-1.4,1.4v5.3
		c0,0.8,0.6,1.4,1.4,1.4h5.3c0.8,0,1.5-0.7,1.5-1.4v-5.3c0-0.8-0.7-1.4-1.5-1.4H118.5z M118.6,106.4h5.2v5.2h-5.2V106.4z"/>
	<path id="path9035-4-0_1_" inkscape:connector-curvature="0" fill="#333333" d="M129.7,104.9c-0.8,0-1.4,0.7-1.4,1.4v5.3
		c0,0.8,0.6,1.4,1.4,1.4h5.3c0.8,0,1.4-0.7,1.4-1.4v-5.3c0-0.8-0.7-1.4-1.4-1.4H129.7z M129.7,106.4h5.2v5.2h-5.2V106.4z"/>
	<path id="path9037-3-2_1_" inkscape:connector-curvature="0" fill="#333333" d="M62.8,116.8c-0.8,0-1.4,0.7-1.4,1.4v5.3
		c0,0.8,0.7,1.5,1.4,1.5h5.3c0.8,0,1.4-0.7,1.4-1.5v-5.3c0-0.8-0.7-1.4-1.4-1.4H62.8z M62.9,118.2h5.2v5.2h-5.2V118.2z"/>
	<path id="path9039-1-4_1_" inkscape:connector-curvature="0" fill="#333333" d="M74,116.8c-0.8,0-1.5,0.7-1.5,1.4v5.3
		c0,0.8,0.7,1.5,1.5,1.5h5.3c0.8,0,1.4-0.7,1.4-1.5v-5.3c0-0.8-0.7-1.4-1.4-1.4H74z M74,118.2h5.2v5.2H74V118.2z"/>
	<path id="path9041-8_1_" inkscape:connector-curvature="0" fill="#333333" d="M85.1,116.8c-0.8,0-1.4,0.7-1.4,1.4v5.3
		c0,0.8,0.7,1.5,1.4,1.5h5.3c0.8,0,1.5-0.7,1.5-1.5v-5.3c0-0.8-0.7-1.4-1.5-1.4H85.1z M85.1,118.2h5.2v5.2h-5.2V118.2z"/>
	<path id="path9043-6_1_" inkscape:connector-curvature="0" fill="#333333" d="M96.3,116.8c-0.8,0-1.4,0.7-1.4,1.4v5.3
		c0,0.8,0.7,1.5,1.4,1.5h5.3c0.8,0,1.4-0.7,1.4-1.5v-5.3c0-0.8-0.7-1.4-1.4-1.4H96.3z M96.3,118.2h5.2v5.2h-5.2V118.2z"/>
	<path id="path9045-5_1_" inkscape:connector-curvature="0" fill="#333333" d="M107.4,116.8c-0.8,0-1.5,0.7-1.5,1.4v5.3
		c0,0.8,0.7,1.5,1.5,1.5h5.3c0.8,0,1.4-0.7,1.4-1.5v-5.3c0-0.8-0.7-1.4-1.4-1.4H107.4z M107.5,118.2h5.2v5.2h-5.2V118.2z"/>
	<path id="path9047-0_1_" inkscape:connector-curvature="0" fill="#333333" d="M118.5,116.8c-0.8,0-1.4,0.7-1.4,1.4v5.3
		c0,0.8,0.7,1.5,1.4,1.5h5.3c0.8,0,1.5-0.7,1.5-1.5v-5.3c0-0.8-0.7-1.4-1.5-1.4H118.5z M118.6,118.2h5.2v5.2h-5.2V118.2z"/>
	<path id="path9049-9_1_" inkscape:connector-curvature="0" fill="#333333" d="M129.7,116.8c-0.8,0-1.4,0.7-1.4,1.4v5.3
		c0,0.8,0.7,1.5,1.4,1.5h5.3c0.8,0,1.4-0.7,1.4-1.5v-5.3c0-0.8-0.7-1.4-1.4-1.4H129.7z M129.7,118.2h5.2v5.2h-5.2V118.2z"/>
	<path id="path9051-0_1_" inkscape:connector-curvature="0" fill="#333333" d="M62.8,128.6c-0.8,0-1.4,0.7-1.4,1.5v5.3
		c0,0.8,0.7,1.4,1.4,1.4h5.3c0.8,0,1.4-0.7,1.4-1.4v-5.3c0-0.8-0.7-1.5-1.4-1.5H62.8z M62.9,130.1h5.2v5.2h-5.2V130.1z"/>
	<path id="path9053-0_1_" inkscape:connector-curvature="0" fill="#333333" d="M74,128.6c-0.8,0-1.5,0.7-1.5,1.5v5.3
		c0,0.8,0.7,1.4,1.5,1.4h5.3c0.8,0,1.4-0.7,1.4-1.4v-5.3c0-0.8-0.7-1.5-1.4-1.5H74z M74,130.1h5.2v5.2H74V130.1z"/>
	<path id="path9055-6_1_" inkscape:connector-curvature="0" fill="#333333" d="M85.1,128.6c-0.8,0-1.4,0.7-1.4,1.5v5.3
		c0,0.8,0.7,1.4,1.4,1.4h5.3c0.8,0,1.5-0.7,1.5-1.4v-5.3c0-0.8-0.7-1.5-1.5-1.5H85.1z M85.1,130.1h5.2v5.2h-5.2V130.1z"/>
	<path id="path9057-1_1_" inkscape:connector-curvature="0" fill="#333333" d="M96.3,128.6c-0.8,0-1.4,0.7-1.4,1.5v5.3
		c0,0.8,0.7,1.4,1.4,1.4h5.3c0.8,0,1.4-0.7,1.4-1.4v-5.3c0-0.8-0.7-1.5-1.4-1.5H96.3z M96.3,130.1h5.2v5.2h-5.2V130.1z"/>
	<path id="path9067-3-8_1_" inkscape:connector-curvature="0" fill="#333333" d="M62.8,75.5v2.1H138v-2.1H62.8z"/>
	<path fill="#333333" d="M143.6,146.1H54.3V63.8h89.3V146.1z M56.5,143.9h84.9V66H56.5V143.9z"/>
	<rect x="105.9" y="104.9" fill="#FC1D00" width="8.2" height="8.2"/>
</g>
</svg>
