<?xml version="1.0" encoding="utf-8"?>
<!-- Generator: Adobe Illustrator 17.1.0, SVG Export Plug-In . SVG Version: 6.00 Build 0)  -->
<!DOCTYPE svg PUBLIC "-//W3C//DTD SVG 1.1//EN" "http://www.w3.org/Graphics/SVG/1.1/DTD/svg11.dtd">
<svg version="1.1" id="Layer_1" xmlns="http://www.w3.org/2000/svg" xmlns:xlink="http://www.w3.org/1999/xlink" x="0px" y="0px"
	 viewBox="0 0 270 270" enable-background="new 0 0 270 270" xml:space="preserve">
<g>
	<g>
		<g>
			<g>
				<rect x="86.1" y="147.8" fill="#333333" width="1.8" height="69.7"/>
				<rect x="84.9" y="146.6" fill="#333333" width="4.3" height="72.2"/>
			</g>
		</g>
	</g>
	<g>
		<g>
			<g>
				<rect x="86.1" y="52.5" fill="#333333" width="1.8" height="81.7"/>
				<rect x="84.9" y="51.2" fill="#333333" width="4.3" height="84.2"/>
			</g>
		</g>
	</g>
	<g>
		<g>
			<g>
				<rect x="132.4" y="91" fill="#333333" width="1.8" height="126.6"/>
				<rect x="131.2" y="89.7" fill="#333333" width="4.3" height="129.1"/>
			</g>
		</g>
	</g>
	<g>
		<g>
			<g>
				<rect x="132.4" y="52.5" fill="#333333" width="1.8" height="25"/>
				<rect x="131.2" y="51.2" fill="#333333" width="4.3" height="27.5"/>
			</g>
		</g>
	</g>
	<g>
		<g>
			<g>
				<rect x="178.7" y="186.8" fill="#333333" width="1.8" height="30.7"/>
				<rect x="177.5" y="185.6" fill="#333333" width="4.3" height="33.2"/>
			</g>
		</g>
	</g>
	<g>
		<g>
			<g>
				<rect x="178.7" y="52.5" fill="#333333" width="1.8" height="123.3"/>
				<rect x="177.5" y="51.2" fill="#333333" width="4.3" height="125.8"/>
			</g>
		</g>
	</g>
	<path fill="#333333" d="M243.3,243.3H26.7V26.7h216.6V243.3z M29.7,240.3h210.6V29.7H29.7V240.3z"/>
	<path fill="#333333" d="M151,90.3H115V75.7H151V90.3z M118.5,86.8h29.1v-7.6h-29.1V86.8z"/>
	<path fill="#FC1D00" d="M197.7,188.6h-36.1V174h36.1V188.6z M165.1,185.1h29.1v-7.6h-29.1V185.1z"/>
	<path fill="#333333" d="M105.1,147H69.1v-14.6h36.1V147z M72.6,143.5h29.1v-7.6H72.6V143.5z"/>
</g>
</svg>
