<?xml version="1.0" encoding="utf-8"?>
<!-- Generator: Adobe Illustrator 17.1.0, SVG Export Plug-In . SVG Version: 6.00 Build 0)  -->
<!DOCTYPE svg PUBLIC "-//W3C//DTD SVG 1.1//EN" "http://www.w3.org/Graphics/SVG/1.1/DTD/svg11.dtd">
<svg version="1.1" id="Layer_1" xmlns="http://www.w3.org/2000/svg" xmlns:xlink="http://www.w3.org/1999/xlink" x="0px" y="0px"
	 viewBox="0 0 270 270" enable-background="new 0 0 270 270" xml:space="preserve">
<g>
	<path fill="#333333" d="M243.3,243.3H26.7V26.7h216.6V243.3z M29.7,240.3h210.6V29.7H29.7V240.3z"/>
	<g>
		<g>
			<path fill="#333333" d="M78.4,124.9H64V56.8h14.3V124.9z M67.3,121.6h7.8V60h-7.8V121.6z"/>
			<path fill="#333333" d="M104.3,124.9H89.9V73.7h14.3V124.9z M93.2,121.6h7.8V77h-7.8V121.6z"/>
			<path fill="#333333" d="M130.2,124.9h-14.3V98.1h14.3V124.9z M119.1,121.6h7.8v-20.2h-7.8V121.6z"/>
		</g>
		<g>
			<path fill="#333333" d="M148.6,174h-14.3v-26.7h14.3V174z M137.5,170.8h7.8v-20.2h-7.8V170.8z"/>
			<path fill="#333333" d="M176.8,198.4h-14.3v-51.1h14.3V198.4z M165.7,195.2h7.8v-44.6h-7.8V195.2z"/>
			<path fill="#333333" d="M205,215.4h-14.3v-68.1H205V215.4z M193.9,212.1h7.8v-61.6h-7.8V212.1z"/>
		</g>
		<rect x="63.8" y="133.4" fill="#FC1D00" width="140.3" height="3.5"/>
	</g>
</g>
</svg>
