<?xml version="1.0" encoding="utf-8"?>
<!-- Generator: Adobe Illustrator 17.1.0, SVG Export Plug-In . SVG Version: 6.00 Build 0)  -->
<!DOCTYPE svg PUBLIC "-//W3C//DTD SVG 1.1//EN" "http://www.w3.org/Graphics/SVG/1.1/DTD/svg11.dtd">
<svg version="1.1" id="Layer_1" xmlns="http://www.w3.org/2000/svg" xmlns:xlink="http://www.w3.org/1999/xlink" x="0px" y="0px"
	 viewBox="0 0 65 65" enable-background="new 0 0 65 65" xml:space="preserve">
<g>
	<g>
		<g>
			<path fill="#FC1D00" d="M57.7,58.7c-0.3,0-0.6-0.1-0.8-0.4L41.5,36.8l-3,2.7c-0.3,0.3-0.6,0.4-1,0.4c-0.5,0-0.8-0.2-1.1-0.5
				l-2.1-2.5l-2,1.8c-0.3,0.3-0.8,0.5-1.2,0.5c-0.5,0-1-0.3-1.4-0.6l-3.3-3.7L22,41.2l10.5,16c0.1,0.2,0.2,0.5,0.1,0.7
				c-0.1,0.3-0.2,0.5-0.4,0.6c-0.1,0.1-0.3,0.1-0.5,0.1c-0.3,0-0.6-0.2-0.8-0.5l-13.1-20l-12.6,20c-0.2,0.3-0.5,0.5-0.8,0.5
				c-0.2,0-0.4-0.1-0.5-0.1c-0.2-0.1-0.4-0.3-0.5-0.6s0-0.5,0.1-0.7L17,36c0.2-0.3,0.5-0.5,0.8-0.5s0.6,0.1,0.8,0.5l2.3,3.5L32,23.7
				c0.3-0.4,0.7-0.6,1.2-0.6s0.9,0.3,1.2,0.6l24,33.6c0.1,0.2,0.2,0.5,0.2,0.7c-0.1,0.3-0.2,0.5-0.4,0.6
				C58.2,58.6,58,58.7,57.7,58.7z M34.5,34.5c0.3,0,0.6,0.1,0.8,0.4l2.3,2.8l2.7-2.5l-7.1-10l-5.6,7.9l3.5,4.1l2.6-2.4
				C34,34.6,34.3,34.5,34.5,34.5z"/>
			<path fill="#FC1D00" d="M58.4,59.1L58.1,59c-0.1,0-0.1,0-0.1,0c-0.1,0-0.2,0-0.3,0c-0.4,0-0.8-0.2-1.1-0.5L41.5,37.3l-2.7,2.4
				c-0.3,0.3-0.8,0.5-1.2,0.5c-0.6,0-1-0.2-1.4-0.7l-1.8-2.2l-1.7,1.5c-0.8,0.8-2.2,0.8-3.2-0.1l-3-3.4l-4.1,5.8L32.8,57
				c0.2,0.3,0.3,0.7,0.2,1c-0.1,0.4-0.3,0.6-0.5,0.8C32.3,59,32,59,31.7,59c-0.4,0-0.9-0.2-1.1-0.6L17.8,38.9L5.6,58.4
				C5.3,58.8,4.9,59,4.4,59c-0.3,0-0.6-0.1-0.7-0.2c-0.4-0.2-0.6-0.5-0.6-0.8c-0.1-0.3,0-0.7,0.2-1l13.4-21.2
				c0.3-0.4,0.7-0.6,1.1-0.6c0.5,0,0.8,0.2,1.1,0.6l2,3l10.8-15.4c0.3-0.5,0.9-0.8,1.5-0.8c0.6,0,1.1,0.3,1.5,0.8l24,33.7
				c0.2,0.3,0.3,0.6,0.3,0.9c-0.1,0.4-0.2,0.6-0.5,0.9L58.4,59.1z M41.6,36.2l15.6,21.9c0.2,0.2,0.5,0.2,0.7,0.2c0.1,0,0.2,0,0.2,0
				c0.1-0.1,0.1-0.2,0.2-0.3c0-0.1-0.1-0.3-0.1-0.4l-24-33.6c-0.3-0.3-0.6-0.5-0.9-0.5c-0.4,0-0.7,0.2-0.9,0.5L20.9,40.2l-2.6-3.9
				C18.1,36,18,36,17.8,36c-0.2,0-0.3,0.1-0.5,0.3L3.9,57.4c-0.1,0.1-0.1,0.3-0.1,0.4c0,0.2,0.2,0.3,0.3,0.4c0,0,0.2,0.1,0.3,0.1
				c0.2,0,0.4-0.1,0.5-0.3l12.9-20.5l13.4,20.5c0.1,0.2,0.3,0.3,0.5,0.3c0.1,0,0.2,0,0.3,0c0.2-0.1,0.2-0.2,0.3-0.4
				c0-0.1,0-0.3-0.1-0.4L21.6,41.2l4.9-7l3.6,4.1c0.6,0.6,1.6,0.7,2.1,0.1l2.3-2.1l2.3,2.8c0.2,0.2,0.5,0.4,0.8,0.4
				c0.2,0,0.5-0.1,0.7-0.3L41.6,36.2z M37.6,38.3l-2.6-3.1c-0.2-0.2-0.3-0.2-0.5-0.2c-0.2,0-0.3,0-0.3,0.1l-3,2.7l-4-4.6l6.1-8.6
				l7.6,10.8L37.6,38.3z M34.5,34.1c0.4,0,0.8,0.2,1.1,0.5l2.1,2.6l2.2-2l-6.6-9.3l-5.1,7.2l3.1,3.5l2.4-2.1
				C33.7,34.3,34.1,34.1,34.5,34.1z"/>
		</g>
	</g>
	<g>
		<g>
			<path fill="#FC1D00" d="M53.1,10.1c-0.3,0-0.5-0.2-0.5-0.5V6.7c0-0.3,0.2-0.5,0.5-0.5c0.3,0,0.5,0.2,0.5,0.5v2.9
				C53.6,9.9,53.4,10.1,53.1,10.1z"/>
			<path fill="#FC1D00" d="M53.1,10.4c-0.4,0-0.8-0.3-0.8-0.8V6.7c0-0.4,0.3-0.8,0.8-0.8s0.8,0.3,0.8,0.8v2.9
				C53.9,10,53.5,10.4,53.1,10.4z M53.1,6.4c-0.1,0-0.3,0.1-0.3,0.3v2.9c0,0.1,0.1,0.3,0.3,0.3s0.3-0.1,0.3-0.3V6.7
				C53.4,6.5,53.3,6.4,53.1,6.4z"/>
		</g>
		<g>
			<path fill="#FC1D00" d="M53.1,23.3c-0.3,0-0.5-0.2-0.5-0.5v-2.9c0-0.3,0.2-0.5,0.5-0.5c0.3,0,0.5,0.2,0.5,0.5v2.9
				C53.6,23.1,53.4,23.3,53.1,23.3z"/>
			<path fill="#FC1D00" d="M53.1,23.5c-0.4,0-0.8-0.3-0.8-0.8v-2.9c0-0.4,0.3-0.8,0.8-0.8s0.8,0.3,0.8,0.8v2.9
				C53.9,23.2,53.5,23.5,53.1,23.5z M53.1,19.6c-0.1,0-0.3,0.1-0.3,0.3v2.9c0,0.1,0.1,0.3,0.3,0.3s0.3-0.1,0.3-0.3v-2.9
				C53.4,19.7,53.3,19.6,53.1,19.6z"/>
		</g>
		<g>
			<path fill="#FC1D00" d="M61.2,15.2h-2.9c-0.3,0-0.5-0.2-0.5-0.5c0-0.3,0.2-0.5,0.5-0.5h2.9c0.3,0,0.5,0.2,0.5,0.5
				C61.7,15,61.4,15.2,61.2,15.2z"/>
			<path fill="#FC1D00" d="M61.2,15.5h-2.9c-0.4,0-0.8-0.3-0.8-0.8s0.3-0.8,0.8-0.8h2.9c0.4,0,0.8,0.3,0.8,0.8S61.6,15.5,61.2,15.5z
				 M58.2,14.4c-0.1,0-0.3,0.1-0.3,0.3s0.1,0.3,0.3,0.3h2.9c0.1,0,0.3-0.1,0.3-0.3s-0.1-0.3-0.3-0.3H58.2z"/>
		</g>
		<g>
			<path fill="#FC1D00" d="M48,15.2h-2.9c-0.3,0-0.5-0.2-0.5-0.5c0-0.3,0.2-0.5,0.5-0.5H48c0.3,0,0.5,0.2,0.5,0.5
				C48.5,15,48.3,15.2,48,15.2z"/>
			<path fill="#FC1D00" d="M48,15.5h-2.9c-0.4,0-0.8-0.3-0.8-0.8s0.3-0.8,0.8-0.8H48c0.4,0,0.8,0.3,0.8,0.8S48.4,15.5,48,15.5z
				 M45.1,14.4c-0.1,0-0.3,0.1-0.3,0.3s0.1,0.3,0.3,0.3H48c0.1,0,0.3-0.1,0.3-0.3s-0.1-0.3-0.3-0.3H45.1z"/>
		</g>
		<g>
			<path fill="#FC1D00" d="M58.8,20.9c-0.1,0-0.3-0.1-0.4-0.2l-2.1-2.1c-0.2-0.2-0.2-0.5,0-0.7c0.2-0.2,0.5-0.2,0.7,0l2.1,2.1
				c0.2,0.2,0.2,0.5,0,0.7C59.1,20.9,58.9,20.9,58.8,20.9z"/>
			<path fill="#FC1D00" d="M58.8,21.2c-0.2,0-0.4-0.1-0.5-0.2l-2.1-2.1c-0.3-0.3-0.3-0.8,0-1.1c0.3-0.3,0.8-0.3,1.1,0l2.1,2.1
				c0.1,0.1,0.2,0.3,0.2,0.5c0,0.2-0.1,0.4-0.2,0.5S59,21.2,58.8,21.2z M56.7,18.1c-0.1,0-0.1,0-0.2,0.1c-0.1,0.1-0.1,0.3,0,0.4
				l2.1,2.1c0.1,0.1,0.3,0.1,0.4,0c0.1-0.1,0.1-0.1,0.1-0.2c0-0.1,0-0.1-0.1-0.2l-2.1-2.1C56.9,18.1,56.8,18.1,56.7,18.1z"/>
		</g>
		<g>
			<path fill="#FC1D00" d="M49.5,11.6c-0.1,0-0.3-0.1-0.4-0.2L47,9.4c-0.2-0.2-0.2-0.5,0-0.7c0.2-0.2,0.5-0.2,0.7,0l2.1,2.1
				c0.2,0.2,0.2,0.5,0,0.7C49.8,11.6,49.6,11.6,49.5,11.6z"/>
			<path fill="#FC1D00" d="M49.5,11.9c-0.2,0-0.4-0.1-0.5-0.2l-2.1-2.1c-0.1-0.1-0.2-0.3-0.2-0.5c0-0.2,0.1-0.4,0.2-0.5
				c0.3-0.3,0.8-0.3,1.1,0l2.1,2.1c0.1,0.1,0.2,0.3,0.2,0.5s-0.1,0.4-0.2,0.5C49.9,11.8,49.7,11.9,49.5,11.9z M47.4,8.7
				c-0.1,0-0.1,0-0.2,0.1S47.1,8.9,47.1,9c0,0.1,0,0.1,0.1,0.2l2.1,2.1c0.1,0.1,0.3,0.1,0.4,0c0.1-0.1,0.1-0.1,0.1-0.2
				c0-0.1,0-0.1-0.1-0.2l-2.1-2.1C47.6,8.8,47.5,8.7,47.4,8.7z"/>
		</g>
		<g>
			<path fill="#FC1D00" d="M47.4,20.9c-0.1,0-0.3-0.1-0.4-0.2c-0.2-0.2-0.2-0.5,0-0.7l2.1-2.1c0.2-0.2,0.5-0.2,0.7,0
				c0.2,0.2,0.2,0.5,0,0.7l-2.1,2.1C47.7,20.9,47.5,20.9,47.4,20.9z"/>
			<path fill="#FC1D00" d="M47.4,21.2c-0.2,0-0.4-0.1-0.5-0.2s-0.2-0.3-0.2-0.5c0-0.2,0.1-0.4,0.2-0.5l2.1-2.1
				c0.3-0.3,0.8-0.3,1.1,0c0.1,0.1,0.2,0.3,0.2,0.5s-0.1,0.4-0.2,0.5L48,21C47.8,21.1,47.6,21.2,47.4,21.2z M49.5,18.1
				c-0.1,0-0.1,0-0.2,0.1l-2.1,2.1c-0.1,0.1-0.1,0.1-0.1,0.2c0,0.1,0,0.1,0.1,0.2c0.1,0.1,0.3,0.1,0.4,0l2.1-2.1
				c0.1-0.1,0.1-0.1,0.1-0.2c0-0.1,0-0.1-0.1-0.2S49.6,18.1,49.5,18.1z"/>
		</g>
		<g>
			<path fill="#FC1D00" d="M56.7,11.6c-0.1,0-0.3-0.1-0.4-0.2c-0.2-0.2-0.2-0.5,0-0.7l2.1-2.1c0.2-0.2,0.5-0.2,0.7,0
				c0.2,0.2,0.2,0.5,0,0.7l-2.1,2.1C57,11.6,56.9,11.6,56.7,11.6z"/>
			<path fill="#FC1D00" d="M56.7,11.9c-0.2,0-0.4-0.1-0.5-0.2c-0.3-0.3-0.3-0.8,0-1.1l2.1-2.1c0.3-0.3,0.8-0.3,1.1,0
				c0.1,0.1,0.2,0.3,0.2,0.5s-0.1,0.4-0.2,0.5l-2.1,2.1C57.1,11.8,56.9,11.9,56.7,11.9z M58.8,8.7c-0.1,0-0.1,0-0.2,0.1l-2.1,2.1
				c-0.1,0.1-0.1,0.3,0,0.4c0.1,0.1,0.3,0.1,0.4,0L59,9.2C59,9.2,59.1,9.1,59.1,9c0-0.1,0-0.1-0.1-0.2S58.9,8.7,58.8,8.7z"/>
		</g>
		<g>
			<path fill="#FC1D00" d="M53.1,18.1c-1.9,0-3.4-1.5-3.4-3.4c0-1.9,1.5-3.4,3.4-3.4c1.9,0,3.4,1.5,3.4,3.4
				C56.5,16.6,55,18.1,53.1,18.1z M53.1,12.4c-1.3,0-2.3,1.1-2.3,2.3c0,1.3,1.1,2.3,2.3,2.3c1.3,0,2.3-1.1,2.3-2.3
				S54.4,12.4,53.1,12.4z"/>
			<path fill="#FC1D00" d="M53.1,18.4c-2,0-3.6-1.6-3.6-3.6c0-2,1.6-3.6,3.6-3.6s3.6,1.6,3.6,3.6C56.7,16.7,55.1,18.4,53.1,18.4z
				 M53.1,11.6c-1.7,0-3.1,1.4-3.1,3.1s1.4,3.1,3.1,3.1s3.1-1.4,3.1-3.1S54.8,11.6,53.1,11.6z M53.1,17.3c-1.4,0-2.6-1.2-2.6-2.6
				c0-1.4,1.2-2.6,2.6-2.6s2.6,1.2,2.6,2.6C55.7,16.1,54.5,17.3,53.1,17.3z M53.1,12.6c-1.2,0-2.1,0.9-2.1,2.1
				c0,1.2,0.9,2.1,2.1,2.1s2.1-0.9,2.1-2.1C55.2,13.6,54.3,12.6,53.1,12.6z"/>
		</g>
	</g>
</g>
</svg>
