<?xml version="1.0" encoding="utf-8"?>
<!-- Generator: Adobe Illustrator 17.1.0, SVG Export Plug-In . SVG Version: 6.00 Build 0)  -->
<!DOCTYPE svg PUBLIC "-//W3C//DTD SVG 1.1//EN" "http://www.w3.org/Graphics/SVG/1.1/DTD/svg11.dtd">
<svg version="1.1" id="Layer_1" xmlns="http://www.w3.org/2000/svg" xmlns:xlink="http://www.w3.org/1999/xlink" x="0px" y="0px"
	 viewBox="0 0 270 270" enable-background="new 0 0 270 270" xml:space="preserve">
<g>
	<path fill="#333333" d="M243.3,243.3H26.7V26.7h216.6V243.3z M29.7,240.3h210.6V29.7H29.7V240.3z"/>
	<g>
		<polygon fill="#333333" points="213.4,200.2 58.1,200.2 58.1,197.2 210.4,197.2 210.4,174.1 56.6,174.1 56.6,145 210.4,145 
			210.4,122 56.6,122 56.6,92.9 210.4,92.9 210.4,69.8 58.1,69.8 58.1,66.8 213.4,66.8 213.4,95.9 59.6,95.9 59.6,119 213.4,119 
			213.4,148 59.6,148 59.6,171.1 213.4,171.1 		"/>
	</g>
	<rect x="62" y="194" fill="#FC1D00" width="10" height="10"/>
</g>
</svg>
