<?xml version="1.0" encoding="utf-8"?>
<!-- Generator: Adobe Illustrator 18.0.0, SVG Export Plug-In . SVG Version: 6.00 Build 0)  -->
<!DOCTYPE svg PUBLIC "-//W3C//DTD SVG 1.1//EN" "http://www.w3.org/Graphics/SVG/1.1/DTD/svg11.dtd">
<svg version="1.1" xmlns="http://www.w3.org/2000/svg" xmlns:xlink="http://www.w3.org/1999/xlink" x="0px" y="0px" width="42px"
	 height="42px" viewBox="0 0 42 42" enable-background="new 0 0 42 42" xml:space="preserve">
<g id="Layer_1">
</g>
<g id="_x32_._What_we_do">
	<g>
		<circle fill="#009BFF" cx="21" cy="21" r="20.5"/>
		<g id="camera_1_">
			<path fill="#FFFFFF" d="M21.4,15.7c-3.1,0-5.6,2.5-5.6,5.6c0,3.1,2.5,5.6,5.6,5.6c3.1,0,5.6-2.5,5.6-5.6S24.5,15.7,21.4,15.7z
				 M24.6,24.1c-1.5,1.8-4.2,2-6,0.5c-1.8-1.5-2-4.2-0.5-6c1.5-1.8,4.2-2,6-0.5C25.9,19.7,26.1,22.4,24.6,24.1z"/>
			<path fill="#FFFFFF" d="M21.4,18.6c-1.6,0-2.8,1.3-2.8,2.8v0c0,0.2,0.2,0.4,0.4,0.4c0.2,0,0.4-0.2,0.4-0.4v0
				c0-1.2,0.9-2.1,2.1-2.1c0.2,0,0.4-0.2,0.4-0.4C21.7,18.7,21.5,18.6,21.4,18.6z"/>
			<path fill="#FFFFFF" d="M30.9,15.1l-3.1-0.5l-1-2.4c-0.3-0.8-1.1-1.3-2-1.3h-7c-0.9,0-1.6,0.5-2,1.3l-1,2.4l-3.1,0.5
				c-1,0.2-1.8,1-1.8,2.1v10.6c0,1.2,0.9,2.1,2.1,2.1h18.3c1.2,0,2.1-0.9,2.1-2.1V17.1C32.6,16.1,31.9,15.2,30.9,15.1z M31.2,27.7
				c0,0.4-0.3,0.7-0.7,0.7H12.2c-0.4,0-0.7-0.3-0.7-0.7V17.1c0-0.3,0.2-0.6,0.6-0.7l3.8-0.6l1.3-3.2c0.1-0.3,0.4-0.4,0.7-0.4h7
				c0.3,0,0.5,0.2,0.7,0.4l1.3,3.2l3.8,0.6c0.3,0.1,0.6,0.4,0.6,0.7V27.7z"/>
		</g>
	</g>
</g>
</svg>
