<?xml version="1.0" encoding="utf-8"?>
<!-- Generator: Adobe Illustrator 18.0.0, SVG Export Plug-In . SVG Version: 6.00 Build 0)  -->
<!DOCTYPE svg PUBLIC "-//W3C//DTD SVG 1.1//EN" "http://www.w3.org/Graphics/SVG/1.1/DTD/svg11.dtd">
<svg version="1.1" xmlns="http://www.w3.org/2000/svg" xmlns:xlink="http://www.w3.org/1999/xlink" x="0px" y="0px" width="42px"
	 height="42px" viewBox="0 0 42 42" enable-background="new 0 0 42 42" xml:space="preserve">
<g id="Layer_1">
</g>
<g id="_x32_._What_we_do">
	<path fill="#009BFF" d="M21,0C9.4,0,0,9.4,0,21s9.4,21,21,21s21-9.4,21-21S32.6,0,21,0z M21.2,31c-1.1,0-2.1-0.9-2.1-2.1
		c0-1.1,0.9-2.1,2.1-2.1s2.1,0.9,2.1,2.1C23.2,30,22.3,31,21.2,31z M22.1,22.7c0,0.5,0.3,1,0.7,1.3l-2.6,0.9
		c-0.7-0.7-1.1-1.5-1.1-2.5c0-3.6,4.8-4,4.8-6.5c0-1.2-0.9-2.1-2.8-2.1c-1.8,0-3.1,0.8-4.1,2.1l-2-2.2c1.5-1.8,3.8-2.9,6.5-2.9
		c3.7,0,6,2,6,4.6C27.4,19.7,22.1,20,22.1,22.7z"/>
</g>
</svg>
