<?xml version="1.0" encoding="utf-8"?>
<!-- Generator: Adobe Illustrator 18.0.0, SVG Export Plug-In . SVG Version: 6.00 Build 0)  -->
<!DOCTYPE svg PUBLIC "-//W3C//DTD SVG 1.1//EN" "http://www.w3.org/Graphics/SVG/1.1/DTD/svg11.dtd">
<svg version="1.1" xmlns="http://www.w3.org/2000/svg" xmlns:xlink="http://www.w3.org/1999/xlink" x="0px" y="0px" width="42px"
	 height="42px" viewBox="0 0 42 42" enable-background="new 0 0 42 42" xml:space="preserve">
<g id="Layer_1">
</g>
<g id="_x32_._What_we_do">
	<g>
		<circle fill="#009BFF" cx="21" cy="21" r="20.5"/>
		<g>
			<g>
				<path fill="#FAFAFA" d="M20.9,7.9c7.3,0,13.3,5.9,13.3,13.3s-5.9,13.3-13.3,13.3c-7.3,0-13.3-5.9-13.3-13.3S13.6,7.9,20.9,7.9
					 M20.9,6.3c-4,0-7.7,1.6-10.6,4.4S6,17.2,6,21.2s1.6,7.7,4.4,10.6c2.8,2.8,6.6,4.4,10.6,4.4s7.7-1.6,10.6-4.4
					c2.8-2.8,4.4-6.6,4.4-10.6s-1.6-7.7-4.4-10.6S24.9,6.3,20.9,6.3L20.9,6.3z"/>
			</g>
			<path fill="#FAFAFA" d="M25.6,26.7c-0.2,0-0.4-0.1-0.6-0.3l-4.9-4.9V10.7c0-0.5,0.4-0.9,0.9-0.9s0.9,0.4,0.9,0.9v10.1l4.4,4.4
				c0.3,0.3,0.3,0.9,0,1.2C26.1,26.6,25.8,26.7,25.6,26.7z"/>
		</g>
	</g>
</g>
</svg>
