<?xml version="1.0" encoding="utf-8"?>
<!-- Generator: Adobe Illustrator 18.0.0, SVG Export Plug-In . SVG Version: 6.00 Build 0)  -->
<!DOCTYPE svg PUBLIC "-//W3C//DTD SVG 1.1//EN" "http://www.w3.org/Graphics/SVG/1.1/DTD/svg11.dtd">
<svg version="1.1" id="Layer_1" xmlns="http://www.w3.org/2000/svg" xmlns:xlink="http://www.w3.org/1999/xlink" x="0px" y="0px"
	 width="1440px" height="980px" viewBox="0 0 1440 980" enable-background="new 0 0 1440 980" xml:space="preserve">
<g id="Layer_1_1_">
	<line fill="none" stroke="#CCCCCC" stroke-miterlimit="10" x1="0" y1="635.1" x2="1440" y2="635.1"/>
	<line fill="none" stroke="#CCCCCC" stroke-miterlimit="10" x1="555.7" y1="634.8" x2="555.7" y2="981.3"/>
	<line fill="none" stroke="#CCCCCC" stroke-miterlimit="10" x1="926.7" y1="635.3" x2="926.7" y2="981.3"/>
</g>
<g id="_x35_._Case_Studies">
	<g>
		<g enable-background="new    ">
			<path fill="#009BFF" d="M304,757.1v-3.6h18v3.6H304z"/>
			<path fill="#009BFF" d="M328.6,748.5c0-11.9,5-25.8,18.5-25.8c13.3,0,18.4,13.9,18.4,25.8c0,11.8-5.1,25.9-18.4,25.9
				C333.6,774.4,328.6,760.3,328.6,748.5z M361,748.5c0-10.3-3.4-21.9-13.9-21.9c-10.6,0-14,11.5-14,21.9c0,10.3,3.4,22,14,22
				C357.6,770.5,361,758.8,361,748.5z"/>
			<path fill="#009BFF" d="M372,770.8c0-1.7,1.6-3.2,3.4-3.2c1.8,0,3.3,1.5,3.3,3.2c0,1.8-1.5,3.3-3.3,3.3
				C373.6,774.1,372,772.6,372,770.8z"/>
			<path fill="#009BFF" d="M391,773.5v-44.2l-8,8.5l-2.6-2.8l11-11.6h3.9v50H391z"/>
			<path fill="#009BFF" d="M404.1,735.1c0-7,4.8-12.4,11.7-12.4c7,0,11.8,5.3,11.8,12.4c0,7-4.8,12.2-11.8,12.2
				C408.9,747.3,404.1,742,404.1,735.1z M424.1,735.1c0-5.2-3.4-9.4-8.3-9.4c-4.9,0-8.2,4.2-8.2,9.4c0,5,3.4,9.3,8.2,9.3
				C420.7,744.4,424.1,740.1,424.1,735.1z M411.1,773.5l31.9-50h3.4l-32,50H411.1z M429.5,762.1c0-7,4.9-12.4,11.8-12.4
				c6.9,0,11.8,5.3,11.8,12.4c0,7-4.9,12.2-11.8,12.2C434.4,774.4,429.5,769.1,429.5,762.1z M449.5,762.1c0-5.2-3.3-9.5-8.2-9.5
				s-8.3,4.3-8.3,9.5c0,5.1,3.4,9.3,8.3,9.3S449.5,767.2,449.5,762.1z"/>
		</g>
		<g enable-background="new    ">
			<path fill="#009BFF" d="M322.1,826.8V843h-3.4v-16.3h-14.8v-3.1h14.8v-15.8h3.4v15.8h14.7v3.1H322.1z"/>
			<path fill="#009BFF" d="M351.6,850.5v-44.2l-8,8.5l-2.6-2.8l11-11.6h3.9v50H351.6z"/>
			<path fill="#009BFF" d="M366.9,847.8c0-1.7,1.6-3.2,3.4-3.2c1.8,0,3.3,1.5,3.3,3.2c0,1.8-1.5,3.3-3.3,3.3
				C368.5,851.1,366.9,849.6,366.9,847.8z"/>
			<path fill="#009BFF" d="M404.8,850.5v-13.6h-23.7V833l22.2-32.5h5.8v32.5h7.3v3.9h-7.3v13.6H404.8z M404.8,804.7l-19.3,28.2h19.3
				V804.7z"/>
			<path fill="#009BFF" d="M421.6,812.1c0-7,4.8-12.4,11.7-12.4c7,0,11.8,5.3,11.8,12.4c0,7-4.8,12.2-11.8,12.2
				C426.4,824.3,421.6,819,421.6,812.1z M441.6,812.1c0-5.2-3.4-9.4-8.3-9.4c-4.9,0-8.2,4.2-8.2,9.4c0,5,3.4,9.3,8.2,9.3
				C438.3,821.4,441.6,817.1,441.6,812.1z M428.7,850.5l31.9-50h3.4l-32,50H428.7z M447,839.1c0-7,4.9-12.4,11.8-12.4
				c6.9,0,11.8,5.3,11.8,12.4c0,7-4.9,12.2-11.8,12.2C451.9,851.4,447,846.1,447,839.1z M467.1,839.1c0-5.2-3.3-9.5-8.2-9.5
				c-5,0-8.3,4.3-8.3,9.5c0,5.1,3.4,9.3,8.3,9.3C463.8,848.4,467.1,844.2,467.1,839.1z"/>
		</g>
	</g>
	<g>
		<g enable-background="new    ">
			<path fill="#4D4D4D" d="M234.5,696.1v-7.3l-2.9,7.3h-0.4l-3-7.3v7.3h-1.1v-8.7h1.5l2.7,6.7l2.7-6.7h1.5v8.7H234.5z"/>
			<path fill="#4D4D4D" d="M237.3,691.7c0-2.6,1.7-4.5,4.3-4.5s4.3,1.9,4.3,4.5c0,2.6-1.8,4.5-4.3,4.5S237.3,694.3,237.3,691.7z
				 M244.8,691.7c0-2-1.3-3.5-3.2-3.5c-2,0-3.2,1.5-3.2,3.5c0,2,1.2,3.5,3.2,3.5C243.5,695.3,244.8,693.8,244.8,691.7z"/>
			<path fill="#4D4D4D" d="M253.7,696.1l-5.1-6.9v6.9h-1.1v-8.7h1.1l5,6.8v-6.8h1.1v8.7H253.7z"/>
			<path fill="#4D4D4D" d="M258.9,696.1v-7.7h-2.7v-1h6.6v1H260v7.7H258.9z"/>
			<path fill="#4D4D4D" d="M270.3,696.1v-4h-5.1v4h-1.1v-8.7h1.1v3.7h5.1v-3.7h1.1v8.7H270.3z"/>
			<path fill="#4D4D4D" d="M273.3,696.1v-8.7h1.1v7.7h4v1H273.3z"/>
			<path fill="#4D4D4D" d="M280.8,696.1v-3.7l-3.4-5h1.3l2.7,4l2.7-4h1.3l-3.4,5v3.7H280.8z"/>
			<path fill="#4D4D4D" d="M289.8,696.1v-8.7h1.1v8.7H289.8z"/>
			<path fill="#4D4D4D" d="M299,696.1l-5.1-6.9v6.9h-1.1v-8.7h1.1l5,6.8v-6.8h1.1v8.7H299z"/>
			<path fill="#4D4D4D" d="M302.1,696.1v-8.7h5.7v1h-4.6v2.8h4.5v1h-4.5v4H302.1z"/>
			<path fill="#4D4D4D" d="M309.1,696.1v-8.7h1.1v7.7h4v1H309.1z"/>
			<path fill="#4D4D4D" d="M321.8,696.1l-0.8-1.9h-4.3l-0.8,1.9h-1.2l3.5-8.7h1.3l3.5,8.7H321.8z M318.9,688.5l-1.8,4.7h3.7
				L318.9,688.5z"/>
			<path fill="#4D4D4D" d="M325.5,696.1v-7.7h-2.7v-1h6.6v1h-2.8v7.7H325.5z"/>
			<path fill="#4D4D4D" d="M330.7,696.1v-8.7h1.1v8.7H330.7z"/>
			<path fill="#4D4D4D" d="M333.5,691.7c0-2.6,1.7-4.5,4.3-4.5s4.3,1.9,4.3,4.5c0,2.6-1.8,4.5-4.3,4.5S333.5,694.3,333.5,691.7z
				 M341,691.7c0-2-1.3-3.5-3.2-3.5c-2,0-3.2,1.5-3.2,3.5c0,2,1.2,3.5,3.2,3.5C339.7,695.3,341,693.8,341,691.7z"/>
			<path fill="#4D4D4D" d="M349.9,696.1l-5.1-6.9v6.9h-1.1v-8.7h1.1l5,6.8v-6.8h1.1v8.7H349.9z"/>
		</g>
	</g>
	<g>
		<g enable-background="new    ">
			<path fill="#009BFF" d="M610.4,771.9v-44.2l-8,8.5l-2.6-2.8l11-11.6h3.9v50H610.4z"/>
			<path fill="#009BFF" d="M647.2,771.9v-13.6h-23.7v-3.8l22.2-32.5h5.8v32.5h7.3v3.9h-7.3v13.6H647.2z M647.2,726.2L628,754.4h19.3
				V726.2z"/>
			<path fill="#009BFF" d="M665.7,771.9v-3.5c17-13.7,28.4-23.5,28.4-33.1c0-7.2-5.9-10.2-11.4-10.2c-6.2,0-11,2.7-13.7,6.5
				l-2.9-2.7c3.5-4.8,9.6-7.7,16.6-7.7c7.3,0,15.8,4.2,15.8,14.1c0,11-11.6,21.1-26.1,32.8h26.3v3.9H665.7z"/>
			<path fill="#009BFF" d="M753.8,771.9v-44.6l-18.2,44.6h-1.7l-18.3-44.6v44.6h-4.3v-50h6.4l17,41.6l16.9-41.6h6.5v50H753.8z"/>
		</g>
		<g enable-background="new    ">
			<path fill="#009BFF" d="M610.4,848.9v-44.2l-8,8.5l-2.6-2.8l11-11.6h3.9v50H610.4z"/>
			<path fill="#009BFF" d="M647.2,848.9v-13.6h-23.7v-3.8l22.2-32.5h5.8v32.5h7.3v3.9h-7.3v13.6H647.2z M647.2,803.2L628,831.4h19.3
				V803.2z"/>
			<path fill="#009BFF" d="M666.4,846.3c0-1.7,1.6-3.2,3.4-3.2c1.8,0,3.3,1.5,3.3,3.2c0,1.8-1.5,3.3-3.3,3.3
				C667.9,849.6,666.4,848.1,666.4,846.3z"/>
			<path fill="#009BFF" d="M683.5,841.6l2.9-2.9c3.2,4.6,7.6,7.1,14,7.1c7.3,0,12.5-5.2,12.5-12.1c0-7.6-5.2-12.2-12.5-12.2
				c-4.6,0-8.5,1.5-12.1,4.9l-3.2-1.4v-26.2h28.9v3.9h-24.6v19.6c2.5-2.4,6.8-4.7,11.9-4.7c8.4,0,16,5.5,16,16
				c0,10-7.6,16.1-16.9,16.1C692,849.8,686.9,846.6,683.5,841.6z"/>
			<path fill="#009BFF" d="M770.2,848.9v-44.6L752,848.9h-1.6l-18.3-44.6v44.6h-4.3v-50h6.4l17,41.6l16.9-41.6h6.4v50H770.2z"/>
		</g>
	</g>
	<g>
		<g enable-background="new    ">
			<path fill="#4D4D4D" d="M598.8,696.1v-8.7h3.5c1.7,0,2.7,1.2,2.7,2.6c0,1.4-1,2.6-2.7,2.6h-2.4v3.4H598.8z M603.9,690
				c0-1-0.7-1.7-1.7-1.7h-2.3v3.3h2.3C603.2,691.7,603.9,691,603.9,690z"/>
			<path fill="#4D4D4D" d="M606.1,691.7c0-2.6,1.7-4.5,4.3-4.5c2.6,0,4.3,1.9,4.3,4.5c0,2.6-1.8,4.5-4.3,4.5
				C607.9,696.2,606.1,694.3,606.1,691.7z M613.6,691.7c0-2-1.3-3.5-3.2-3.5c-2,0-3.2,1.5-3.2,3.5c0,2,1.2,3.5,3.2,3.5
				C612.4,695.3,613.6,693.8,613.6,691.7z"/>
			<path fill="#4D4D4D" d="M616.4,696.1v-8.7h3.5c1.7,0,2.7,1.2,2.7,2.6c0,1.4-1,2.6-2.7,2.6h-2.4v3.4H616.4z M621.5,690
				c0-1-0.7-1.7-1.7-1.7h-2.3v3.3h2.3C620.8,691.7,621.5,691,621.5,690z"/>
			<path fill="#4D4D4D" d="M624,692.7v-5.3h1.1v5.3c0,1.6,0.8,2.6,2.4,2.6c1.6,0,2.5-1,2.5-2.6v-5.3h1.1v5.3c0,2.2-1.2,3.5-3.5,3.5
				C625.2,696.2,624,694.8,624,692.7z"/>
			<path fill="#4D4D4D" d="M633,696.1v-8.7h1.1v7.7h4v1H633z"/>
			<path fill="#4D4D4D" d="M645.7,696.1l-0.8-1.9h-4.3l-0.8,1.9h-1.2l3.5-8.7h1.3l3.5,8.7H645.7z M642.8,688.5l-1.8,4.7h3.7
				L642.8,688.5z"/>
			<path fill="#4D4D4D" d="M649.4,696.1v-7.7h-2.7v-1h6.6v1h-2.8v7.7H649.4z"/>
			<path fill="#4D4D4D" d="M654.7,696.1v-8.7h1.1v8.7H654.7z"/>
			<path fill="#4D4D4D" d="M657.4,691.7c0-2.6,1.7-4.5,4.3-4.5c2.6,0,4.3,1.9,4.3,4.5c0,2.6-1.8,4.5-4.3,4.5
				C659.2,696.2,657.4,694.3,657.4,691.7z M664.9,691.7c0-2-1.3-3.5-3.2-3.5c-2,0-3.2,1.5-3.2,3.5c0,2,1.2,3.5,3.2,3.5
				C663.7,695.3,664.9,693.8,664.9,691.7z"/>
			<path fill="#4D4D4D" d="M673.8,696.1l-5.1-6.9v6.9h-1.1v-8.7h1.1l5,6.8v-6.8h1.1v8.7H673.8z"/>
			<path fill="#4D4D4D" d="M680.1,696.1v-8.7h1.1v7.7h4v1H680.1z"/>
			<path fill="#4D4D4D" d="M686.7,696.1v-8.7h1.1v8.7H686.7z"/>
			<path fill="#4D4D4D" d="M692.4,696.1l-3.5-8.7h1.2l2.9,7.5l2.9-7.5h1.2l-3.5,8.7H692.4z"/>
			<path fill="#4D4D4D" d="M698.3,696.1v-8.7h1.1v8.7H698.3z"/>
			<path fill="#4D4D4D" d="M707.6,696.1l-5.1-6.9v6.9h-1.1v-8.7h1.1l5,6.8v-6.8h1.1v8.7H707.6z"/>
			<path fill="#4D4D4D" d="M710.3,691.7c0-2.7,2-4.5,4.5-4.5c1.5,0,2.6,0.7,3.4,1.6l-0.9,0.5c-0.5-0.7-1.5-1.2-2.5-1.2
				c-1.9,0-3.3,1.4-3.3,3.5c0,2.1,1.4,3.5,3.3,3.5c1,0,1.9-0.5,2.3-0.9v-1.8h-3v-1h4.1v3.1c-0.8,0.9-2,1.5-3.4,1.5
				C712.3,696.2,710.3,694.4,710.3,691.7z"/>
			<path fill="#4D4D4D" d="M722.9,691.7c0-2.6,1.7-4.5,4.3-4.5c2.6,0,4.3,1.9,4.3,4.5c0,2.6-1.8,4.5-4.3,4.5
				C724.7,696.2,722.9,694.3,722.9,691.7z M730.4,691.7c0-2-1.3-3.5-3.2-3.5c-2,0-3.2,1.5-3.2,3.5c0,2,1.2,3.5,3.2,3.5
				C729.2,695.3,730.4,693.8,730.4,691.7z"/>
			<path fill="#4D4D4D" d="M739.4,696.1l-5.1-6.9v6.9h-1.1v-8.7h1.1l5,6.8v-6.8h1.1v8.7H739.4z"/>
			<path fill="#4D4D4D" d="M745.2,692.1v-0.7l5.7-2.8v0.8l-4.9,2.4l4.9,2.4v0.8L745.2,692.1z"/>
			<path fill="#4D4D4D" d="M758.2,696.2c-1.3-0.1-2.3-0.6-3-1.4l0.7-0.8c0.5,0.6,1.3,1.1,2.3,1.2v-3.2c-1.3-0.4-2.7-0.8-2.7-2.4
				c0-1.3,1.1-2.3,2.7-2.4v-1.2h0.8v1.2c1.1,0.1,1.9,0.5,2.6,1.2l-0.6,0.8c-0.5-0.6-1.2-0.9-1.9-1v2.8c1.3,0.4,2.8,0.9,2.8,2.6
				c0,1.2-0.8,2.4-2.8,2.5v1.2h-0.8V696.2z M758.2,690.9v-2.7c-0.9,0.1-1.6,0.6-1.6,1.4C756.6,690.3,757.3,690.6,758.2,690.9z
				 M759,692.3v3c1.2-0.1,1.7-0.9,1.7-1.5C760.6,692.9,759.9,692.6,759,692.3z"/>
			<path fill="#4D4D4D" d="M763.1,696.1v-0.9c3.1-2.4,4.8-3.9,4.8-5.4c0-1.1-0.9-1.6-1.8-1.6c-1,0-1.8,0.4-2.4,1.1l-0.7-0.7
				c0.7-0.9,1.8-1.4,3-1.4c1.4,0,2.9,0.8,2.9,2.5c0,1.8-1.8,3.4-4.2,5.3h4.3v1H763.1z"/>
			<path fill="#4D4D4D" d="M770.8,695.5c0-0.4,0.3-0.7,0.7-0.7c0.4,0,0.7,0.3,0.7,0.7c0,0.4-0.3,0.7-0.7,0.7
				C771.1,696.2,770.8,695.9,770.8,695.5z"/>
			<path fill="#4D4D4D" d="M774.1,695.2l0.5-0.8c0.4,0.5,1,0.9,1.9,0.9c1.8,0,2.4-1.8,2.4-3.4c0-0.1,0-0.2,0-0.3
				c-0.4,0.6-1.3,1.4-2.4,1.4c-1.6,0-2.8-0.9-2.8-2.8c0-1.5,1.1-2.8,3-2.8c2.4,0,3.4,2.1,3.4,4.5c0,2.3-1.1,4.5-3.5,4.5
				C775.4,696.2,774.6,695.8,774.1,695.2z M778.9,690.6c-0.1-1.1-0.7-2.4-2.2-2.4c-1.3,0-2,1-2,1.8c0,1.3,0.9,1.9,2,1.9
				C777.6,691.9,778.4,691.4,778.9,690.6z"/>
			<path fill="#4D4D4D" d="M782.3,696.1l3.5-7.7h-4.7v-1h5.9v0.7l-3.5,7.9H782.3z"/>
			<path fill="#4D4D4D" d="M791.8,692.7v-5.3h1.1v5.3c0,1.6,0.8,2.6,2.4,2.6c1.6,0,2.5-1,2.5-2.6v-5.3h1.1v5.3
				c0,2.2-1.2,3.5-3.5,3.5C793,696.2,791.8,694.8,791.8,692.7z"/>
			<path fill="#4D4D4D" d="M800.4,694.8l0.7-0.8c0.6,0.7,1.5,1.2,2.7,1.2c1.5,0,2-0.8,2-1.5c0-2.2-5.1-1-5.1-4.1
				c0-1.4,1.3-2.4,3-2.4c1.3,0,2.3,0.5,3.1,1.2l-0.6,0.8c-0.7-0.7-1.6-1-2.5-1c-1,0-1.8,0.6-1.8,1.4c0,1.9,5.1,0.8,5.1,4.1
				c0,1.2-0.9,2.5-3.2,2.5C802.2,696.2,801.1,695.7,800.4,694.8z"/>
			<path fill="#4D4D4D" d="M808.5,696.1v-8.7h3c2.7,0,4.4,1.9,4.4,4.3c0,2.5-1.7,4.3-4.4,4.3H808.5z M814.8,691.7
				c0-1.9-1.2-3.4-3.3-3.4h-1.9v6.7h1.9C813.6,695.1,814.8,693.6,814.8,691.7z"/>
			<path fill="#4D4D4D" d="M819.9,696.3l3.1-9.2h0.8l-3.1,9.2H819.9z"/>
			<path fill="#4D4D4D" d="M828.2,696.1v-8.7h3c2.7,0,4.4,1.9,4.4,4.3c0,2.5-1.7,4.3-4.4,4.3H828.2z M834.5,691.7
				c0-1.9-1.2-3.4-3.3-3.4h-1.9v6.7h1.9C833.2,695.1,834.5,693.6,834.5,691.7z"/>
			<path fill="#4D4D4D" d="M843,696.1l-0.8-1.9h-4.3l-0.8,1.9h-1.2l3.5-8.7h1.3l3.5,8.7H843z M840.1,688.5l-1.8,4.7h3.7L840.1,688.5
				z"/>
			<path fill="#4D4D4D" d="M847.1,696.1v-3.7l-3.4-5h1.3l2.7,4l2.7-4h1.3l-3.4,5v3.7H847.1z"/>
		</g>
	</g>
	<g>
		<g enable-background="new    ">
			<path fill="#4D4D4D" d="M982.2,696.1v-8.7h1.1v8.7H982.2z"/>
			<path fill="#4D4D4D" d="M991.5,696.1l-5.1-6.9v6.9h-1.1v-8.7h1.1l5,6.8v-6.8h1.1v8.7H991.5z"/>
			<path fill="#4D4D4D" d="M994.2,691.7c0-2.7,2-4.5,4.5-4.5c1.5,0,2.6,0.7,3.3,1.7l-0.9,0.5c-0.5-0.7-1.4-1.3-2.4-1.3
				c-1.9,0-3.3,1.4-3.3,3.5c0,2.1,1.4,3.5,3.3,3.5c1,0,1.9-0.5,2.4-1.3l0.9,0.5c-0.7,1-1.8,1.7-3.3,1.7
				C996.1,696.2,994.2,694.4,994.2,691.7z"/>
			<path fill="#4D4D4D" d="M1003,691.7c0-2.6,1.7-4.5,4.3-4.5c2.6,0,4.3,1.9,4.3,4.5s-1.8,4.5-4.3,4.5
				C1004.7,696.2,1003,694.3,1003,691.7z M1010.5,691.7c0-2-1.3-3.5-3.2-3.5c-2,0-3.2,1.5-3.2,3.5c0,2,1.2,3.5,3.2,3.5
				C1009.2,695.3,1010.5,693.8,1010.5,691.7z"/>
			<path fill="#4D4D4D" d="M1020.7,696.1v-7.3l-2.9,7.3h-0.4l-3-7.3v7.3h-1.1v-8.7h1.5l2.7,6.7l2.7-6.7h1.5v8.7H1020.7z"/>
			<path fill="#4D4D4D" d="M1023.8,696.1v-8.7h5.7v1h-4.6v2.8h4.5v1h-4.5v3h4.6v1H1023.8z"/>
			<path fill="#4D4D4D" d="M1034,694.8l0.6-0.8c0.6,0.6,1.5,1.2,2.7,1.2c1.5,0,2-0.8,2-1.5c0-2.2-5.1-1-5.1-4.1c0-1.4,1.3-2.4,3-2.4
				c1.3,0,2.3,0.5,3.1,1.2l-0.7,0.8c-0.6-0.7-1.6-1-2.5-1c-1,0-1.8,0.6-1.8,1.4c0,2,5.1,0.8,5.1,4.1c0,1.2-0.9,2.5-3.2,2.5
				C1035.9,696.2,1034.7,695.7,1034,694.8z"/>
			<path fill="#4D4D4D" d="M1042.2,696.1v-8.7h3.5c1.7,0,2.7,1.2,2.7,2.6s-1,2.6-2.7,2.6h-2.4v3.4H1042.2z M1047.3,690
				c0-1-0.7-1.7-1.7-1.7h-2.3v3.3h2.3C1046.5,691.7,1047.3,691,1047.3,690z"/>
			<path fill="#4D4D4D" d="M1049.8,696.1v-8.7h5.7v1h-4.6v2.8h4.5v1h-4.5v3h4.6v1H1049.8z"/>
			<path fill="#4D4D4D" d="M1063.3,696.1l-5.1-6.9v6.9h-1.1v-8.7h1.1l5,6.8v-6.8h1.1v8.7H1063.3z"/>
			<path fill="#4D4D4D" d="M1068.5,696.1v-7.7h-2.7v-1h6.6v1h-2.8v7.7H1068.5z"/>
			<path fill="#4D4D4D" d="M1076.8,691.7c0-2.6,1.7-4.5,4.3-4.5c2.6,0,4.3,1.9,4.3,4.5s-1.8,4.5-4.3,4.5
				C1078.6,696.2,1076.8,694.3,1076.8,691.7z M1084.3,691.7c0-2-1.3-3.5-3.2-3.5c-2,0-3.2,1.5-3.2,3.5c0,2,1.2,3.5,3.2,3.5
				C1083.1,695.3,1084.3,693.8,1084.3,691.7z"/>
			<path fill="#4D4D4D" d="M1093.3,696.1l-5.1-6.9v6.9h-1.1v-8.7h1.1l5,6.8v-6.8h1.1v8.7H1093.3z"/>
			<path fill="#4D4D4D" d="M1099.3,691.7c0-2.7,2-4.5,4.5-4.5c1.5,0,2.6,0.7,3.4,1.6l-0.9,0.5c-0.5-0.7-1.5-1.2-2.5-1.2
				c-1.9,0-3.3,1.4-3.3,3.5c0,2.1,1.4,3.5,3.3,3.5c1,0,1.9-0.5,2.3-0.9v-1.8h-3v-1h4.1v3.1c-0.8,0.9-2,1.5-3.4,1.5
				C1101.3,696.2,1099.3,694.4,1099.3,691.7z"/>
			<path fill="#4D4D4D" d="M1114,696.1l-2.2-3.4h-1.7v3.4h-1.1v-8.7h3.5c1.6,0,2.7,1,2.7,2.6c0,1.6-1.1,2.4-2.3,2.5l2.3,3.5H1114z
				 M1114.1,690c0-1-0.7-1.7-1.7-1.7h-2.3v3.3h2.3C1113.3,691.7,1114.1,691,1114.1,690z"/>
			<path fill="#4D4D4D" d="M1123.1,696.1l-0.8-1.9h-4.3l-0.8,1.9h-1.2l3.5-8.7h1.3l3.5,8.7H1123.1z M1120.1,688.5l-1.8,4.7h3.7
				L1120.1,688.5z"/>
			<path fill="#4D4D4D" d="M1125.4,696.1v-8.7h1.1v8.7H1125.4z"/>
			<path fill="#4D4D4D" d="M1134.7,696.1l-5.1-6.9v6.9h-1.1v-8.7h1.1l5,6.8v-6.8h1.1v8.7H1134.7z"/>
			<path fill="#4D4D4D" d="M1137.2,694.8l0.7-0.8c0.6,0.6,1.5,1.2,2.7,1.2c1.5,0,2-0.8,2-1.5c0-2.2-5.1-1-5.1-4.1
				c0-1.4,1.3-2.4,3-2.4c1.3,0,2.3,0.5,3.1,1.2l-0.6,0.8c-0.7-0.7-1.6-1-2.5-1c-1,0-1.8,0.6-1.8,1.4c0,2,5.1,0.8,5.1,4.1
				c0,1.2-0.9,2.5-3.2,2.5C1139.1,696.2,1137.9,695.7,1137.2,694.8z"/>
		</g>
	</g>
	<g>
		<g enable-background="new    ">
			<path fill="#009BFF" d="M993.8,772.9v-44.2l-8,8.5l-2.6-2.8l11-11.6h3.9v50H993.8z"/>
			<path fill="#009BFF" d="M1008.7,760.4c0-7,6.1-11.5,12.4-13.3c-5.9-1.6-11.6-5.4-11.6-12.1c0-8.8,8.3-12.9,16.2-12.9
				c7.8,0,16.2,4,16.2,12.9c0,6.7-5.7,10.5-11.6,12.1c6.4,1.7,12.5,6.3,12.5,13.3c0,8.1-7.4,13.4-17,13.4
				C1016.1,773.8,1008.7,768.6,1008.7,760.4z M1038.4,760.1c0-7.7-9.7-10.6-12.7-11c-3.1,0.4-12.7,3.4-12.7,11c0,6.1,6,9.8,12.7,9.8
				C1032.3,769.9,1038.4,766.2,1038.4,760.1z M1037.6,735.5c0-6-5.3-9.4-11.8-9.4c-6.5,0-11.8,3.5-11.8,9.4c0,7,8.8,9.2,11.8,9.8
				C1028.8,744.7,1037.6,742.5,1037.6,735.5z"/>
			<path fill="#009BFF" d="M1049.7,734.5c0-7,4.8-12.4,11.7-12.4c7,0,11.8,5.3,11.8,12.4c0,7-4.8,12.2-11.8,12.2
				C1054.5,746.7,1049.7,741.5,1049.7,734.5z M1069.7,734.5c0-5.2-3.4-9.4-8.3-9.4c-4.9,0-8.2,4.2-8.2,9.4c0,5,3.4,9.3,8.2,9.3
				C1066.3,743.8,1069.7,739.5,1069.7,734.5z M1056.7,772.9l31.9-50h3.4l-32,50H1056.7z M1075.1,761.6c0-7,4.9-12.4,11.8-12.4
				c6.9,0,11.8,5.3,11.8,12.4c0,7-4.9,12.2-11.8,12.2C1080,773.8,1075.1,768.6,1075.1,761.6z M1095.1,761.6c0-5.2-3.3-9.5-8.2-9.5
				c-5,0-8.3,4.3-8.3,9.5c0,5.1,3.4,9.3,8.3,9.3C1091.8,770.9,1095.1,766.7,1095.1,761.6z"/>
		</g>
		<g enable-background="new    ">
			<path fill="#009BFF" d="M993.8,849.9v-44.2l-8,8.5l-2.6-2.8l11-11.6h3.9v50H993.8z"/>
			<path fill="#009BFF" d="M1008.5,849.9v-3.5c17-13.7,28.4-23.5,28.4-33.1c0-7.2-5.9-10.2-11.4-10.2c-6.2,0-11,2.7-13.7,6.5
				l-2.9-2.7c3.5-4.8,9.6-7.7,16.6-7.7c7.3,0,15.8,4.2,15.8,14.1c0,11-11.6,21.1-26.1,32.8h26.3v3.9H1008.5z"/>
			<path fill="#009BFF" d="M1050.5,811.5c0-7,4.8-12.4,11.7-12.4c7,0,11.8,5.3,11.8,12.4c0,7-4.8,12.2-11.8,12.2
				C1055.3,823.7,1050.5,818.5,1050.5,811.5z M1070.5,811.5c0-5.2-3.4-9.4-8.3-9.4c-4.9,0-8.2,4.2-8.2,9.4c0,5,3.4,9.3,8.2,9.3
				C1067.2,820.8,1070.5,816.5,1070.5,811.5z M1057.6,849.9l31.9-50h3.4l-32,50H1057.6z M1075.9,838.6c0-7,4.9-12.4,11.8-12.4
				c6.9,0,11.8,5.3,11.8,12.4c0,7-4.9,12.2-11.8,12.2C1080.8,850.8,1075.9,845.6,1075.9,838.6z M1096,838.6c0-5.2-3.3-9.5-8.2-9.5
				c-5,0-8.3,4.3-8.3,9.5c0,5.1,3.4,9.3,8.3,9.3C1092.7,847.9,1096,843.7,1096,838.6z"/>
		</g>
	</g>
	<g>
		<rect x="226" y="798" fill="#2AE3E6" width="55" height="55"/>
		<g enable-background="new    ">
			<path fill="#FFFFFF" d="M238.2,824c0-4.6,3.5-7.7,7.8-7.7c2.9,0,4.8,1.4,6,3.1l-2.1,1.2c-0.8-1.1-2.2-2-3.8-2
				c-2.9,0-5.1,2.2-5.1,5.3s2.2,5.4,5.1,5.4c1.5,0,2.8-0.7,3.5-1.3v-2.3h-4.4v-2.3h7v5.5c-1.5,1.6-3.5,2.7-6.1,2.7
				C241.7,831.7,238.2,828.6,238.2,824z"/>
			<path fill="#FFFFFF" d="M265.1,831.4v-6.5h-7.7v6.5h-2.6v-14.8h2.6v6.1h7.7v-6.1h2.6v14.8H265.1z"/>
		</g>
	</g>
	<g>
		<rect x="226" y="721" opacity="0.9" fill="#0074BF" enable-background="new    " width="55" height="55"/>
		<g enable-background="new    ">
			<path fill="#FFFFFF" d="M249.9,755.2l-7.8-10.7v10.7h-2.6v-15h2.7l7.7,10.4v-10.4h2.6v15H249.9z"/>
			<path fill="#FFFFFF" d="M254.9,747.7c0-4.7,3.5-7.8,7.9-7.8c2.9,0,4.8,1.4,6,3.1l-2.2,1.2c-0.8-1.1-2.2-2-3.9-2
				c-3,0-5.2,2.3-5.2,5.4s2.2,5.4,5.2,5.4c1.5,0,2.9-0.7,3.6-1.3v-2.3h-4.5v-2.3h7.1v5.6c-1.5,1.6-3.6,2.7-6.2,2.7
				C258.5,755.5,254.9,752.4,254.9,747.7z"/>
		</g>
	</g>
</g>
<g id="_x35_._Case_Studt-_Bloomberg">
	<g>
		<polyline fill="none" stroke="#2AE3E6" stroke-width="4" stroke-miterlimit="10" points="1212.7,140.7 1194.8,113.4 1175.8,120.7 
			1156.7,86.7 1137.3,98.1 1119.9,140.4 1100,143.1 1082,193.8 1062.6,201.7 1044.4,246.4 1024.5,209 1005.8,230.1 989.6,260.3 
			967.3,255.5 949,257.3 929.6,253.1 913.3,327.7 894,254.3 875.8,291.5 837.5,280.6 818.7,297.8 799.7,273.1 780,283.1 761.9,265 
			742.9,315 718.1,289 705.7,270.6 687,262.5 650.2,296 629.9,283.1 613.9,291.5 593,286.6 574.6,244.2 555.9,274 536.2,274 
			518.4,261.5 498.8,265.7 481.4,305.9 463.1,301 442.5,316.9 424.5,374.4 403.9,370.6 386.4,347.4 367.7,395.7 348.6,398.1 
			329.3,421.4 294.2,443.1 271.8,436.8 		"/>
		<polyline fill="none" stroke="#009BFF" stroke-width="4" stroke-miterlimit="10" points="271.8,237.5 312.4,259 329.9,259 
			348.9,246.2 369.7,255.8 388.8,257.3 409.6,267.3 424.3,281.1 445,286.1 462.8,273.3 496.1,270.8 518.1,284.8 577.3,260.8 
			614.2,239.5 631.7,240.9 652.3,251.7 669.8,253.7 705.7,240.9 742.1,251.8 755.1,265.8 780.4,271.8 816.2,286.1 854.4,293.7 
			894,310.8 925.4,305 949.6,303.9 968.2,297 988.2,297 1027,319.5 1044.7,314.9 1082,263.2 1100.3,273.2 1119.4,277.1 
			1136.6,264.9 1157.4,273.3 1175.8,272.2 1191.3,266.4 1212.9,264.6 		"/>
		<path fill="none" d="M227.7,435"/>
		<g>
			<g enable-background="new    ">
				<path fill="#4D4D4D" d="M243.6,59.6v-7.3l-1.4,1.5l-0.6-0.7l2.2-2.2h0.9v8.7H243.6z"/>
				<path fill="#4D4D4D" d="M246.3,55.3c0-2.1,0.9-4.5,3.3-4.5c2.4,0,3.3,2.4,3.3,4.5c0,2.1-0.9,4.5-3.3,4.5
					C247.3,59.8,246.3,57.4,246.3,55.3z M251.8,55.3c0-1.7-0.6-3.5-2.2-3.5c-1.7,0-2.2,1.8-2.2,3.5s0.6,3.5,2.2,3.5
					C251.3,58.8,251.8,57,251.8,55.3z"/>
				<path fill="#4D4D4D" d="M255.9,59.6v-7.3l-1.4,1.5l-0.6-0.7l2.2-2.2h0.9v8.7H255.9z"/>
			</g>
			<g enable-background="new    ">
				<path fill="#4D4D4D" d="M228.1,164.6v-7.3l-1.4,1.5l-0.6-0.7l2.2-2.2h0.9v8.7H228.1z"/>
				<path fill="#4D4D4D" d="M230.8,160.3c0-2.1,0.9-4.5,3.3-4.5c2.4,0,3.3,2.4,3.3,4.5c0,2.1-0.9,4.5-3.3,4.5
					C231.8,164.8,230.8,162.4,230.8,160.3z M236.3,160.3c0-1.7-0.6-3.5-2.2-3.5c-1.7,0-2.2,1.8-2.2,3.5s0.6,3.5,2.2,3.5
					C235.8,163.8,236.3,162,236.3,160.3z"/>
				<path fill="#4D4D4D" d="M238.8,160.3c0-2.1,0.9-4.5,3.3-4.5c2.4,0,3.3,2.4,3.3,4.5c0,2.1-0.9,4.5-3.3,4.5
					C239.7,164.8,238.8,162.4,238.8,160.3z M244.3,160.3c0-1.7-0.6-3.5-2.2-3.5c-1.7,0-2.2,1.8-2.2,3.5s0.6,3.5,2.2,3.5
					C243.7,163.8,244.3,162,244.3,160.3z"/>
				<path fill="#4D4D4D" d="M246.4,164c0-0.4,0.3-0.7,0.7-0.7s0.7,0.3,0.7,0.7s-0.3,0.7-0.7,0.7S246.4,164.4,246.4,164z"/>
				<path fill="#4D4D4D" d="M249.5,163.4l0.7-0.7c0.6,0.7,1.3,1.2,2.4,1.2c1.2,0,2-0.8,2-1.9c0-1.1-0.8-1.9-2-1.9
					c-0.8,0-1.4,0.2-2,0.8l-0.8-0.3v-4.7h5.3v1h-4.2v3c0.4-0.4,1.2-0.8,2-0.8c1.5,0,2.8,1,2.8,2.8c0,1.8-1.4,2.9-3.1,2.9
					C251.1,164.8,250.2,164.2,249.5,163.4z"/>
			</g>
			<g enable-background="new    ">
				<path fill="#4D4D4D" d="M240.1,269.6v-7.3l-1.4,1.5l-0.6-0.7l2.2-2.2h0.9v8.7H240.1z"/>
				<path fill="#4D4D4D" d="M242.8,265.3c0-2.1,0.9-4.5,3.3-4.5c2.4,0,3.3,2.4,3.3,4.5c0,2.1-0.9,4.5-3.3,4.5
					C243.8,269.8,242.8,267.4,242.8,265.3z M248.3,265.3c0-1.7-0.6-3.5-2.2-3.5c-1.7,0-2.2,1.8-2.2,3.5s0.6,3.5,2.2,3.5
					C247.8,268.8,248.3,267,248.3,265.3z"/>
				<path fill="#4D4D4D" d="M250.8,265.3c0-2.1,0.9-4.5,3.3-4.5c2.4,0,3.3,2.4,3.3,4.5c0,2.1-0.9,4.5-3.3,4.5
					C251.7,269.8,250.8,267.4,250.8,265.3z M256.3,265.3c0-1.7-0.6-3.5-2.2-3.5c-1.7,0-2.2,1.8-2.2,3.5s0.6,3.5,2.2,3.5
					C255.7,268.8,256.3,267,256.3,265.3z"/>
			</g>
			<g enable-background="new    ">
				<path fill="#4D4D4D" d="M232.4,373.7l0.5-0.8c0.4,0.5,1,0.9,1.9,0.9c1.8,0,2.4-1.8,2.4-3.4c0-0.1,0-0.2,0-0.3
					c-0.4,0.6-1.3,1.4-2.4,1.4c-1.6,0-2.8-0.9-2.8-2.8c0-1.5,1.1-2.8,3-2.8c2.4,0,3.4,2.1,3.4,4.5c0,2.3-1.1,4.5-3.5,4.5
					C233.7,374.8,233,374.3,232.4,373.7z M237.3,369.2c-0.1-1.1-0.7-2.4-2.2-2.4c-1.3,0-2,1-2,1.8c0,1.3,0.9,1.9,2,1.9
					C235.9,370.5,236.8,369.9,237.3,369.2z"/>
				<path fill="#4D4D4D" d="M240.1,373.7l0.5-0.8c0.4,0.5,1,0.9,1.9,0.9c1.8,0,2.4-1.8,2.4-3.4c0-0.1,0-0.2,0-0.3
					c-0.4,0.6-1.3,1.4-2.4,1.4c-1.6,0-2.8-0.9-2.8-2.8c0-1.5,1.1-2.8,3-2.8c2.4,0,3.4,2.1,3.4,4.5c0,2.3-1.1,4.5-3.5,4.5
					C241.4,374.8,240.7,374.3,240.1,373.7z M244.9,369.2c-0.1-1.1-0.7-2.4-2.2-2.4c-1.3,0-2,1-2,1.8c0,1.3,0.9,1.9,2,1.9
					C243.6,370.5,244.5,369.9,244.9,369.2z"/>
				<path fill="#4D4D4D" d="M247.1,374c0-0.4,0.3-0.7,0.7-0.7s0.7,0.3,0.7,0.7s-0.3,0.7-0.7,0.7S247.1,374.4,247.1,374z"/>
				<path fill="#4D4D4D" d="M250.2,373.4l0.7-0.7c0.6,0.7,1.3,1.2,2.4,1.2c1.2,0,2-0.8,2-1.9c0-1.1-0.8-1.9-2-1.9
					c-0.8,0-1.4,0.2-2,0.8l-0.8-0.3v-4.7h5.3v1h-4.2v3c0.4-0.4,1.2-0.8,2-0.8c1.5,0,2.8,1,2.8,2.8c0,1.8-1.4,2.9-3.1,2.9
					C251.8,374.8,250.8,374.2,250.2,373.4z"/>
			</g>
			<g enable-background="new    ">
				<path fill="#4D4D4D" d="M244.4,478.7l0.5-0.8c0.4,0.5,1,0.9,1.9,0.9c1.8,0,2.4-1.8,2.4-3.4c0-0.1,0-0.2,0-0.3
					c-0.4,0.6-1.3,1.4-2.4,1.4c-1.6,0-2.8-0.9-2.8-2.8c0-1.5,1.1-2.8,3-2.8c2.4,0,3.4,2.1,3.4,4.5c0,2.3-1.1,4.5-3.5,4.5
					C245.7,479.8,245,479.3,244.4,478.7z M249.3,474.2c-0.1-1.1-0.7-2.4-2.2-2.4c-1.3,0-2,1-2,1.8c0,1.3,0.9,1.9,2,1.9
					C247.9,475.5,248.8,474.9,249.3,474.2z"/>
				<path fill="#4D4D4D" d="M252.1,478.7l0.5-0.8c0.4,0.5,1,0.9,1.9,0.9c1.8,0,2.4-1.8,2.4-3.4c0-0.1,0-0.2,0-0.3
					c-0.4,0.6-1.3,1.4-2.4,1.4c-1.6,0-2.8-0.9-2.8-2.8c0-1.5,1.1-2.8,3-2.8c2.4,0,3.4,2.1,3.4,4.5c0,2.3-1.1,4.5-3.5,4.5
					C253.4,479.8,252.7,479.3,252.1,478.7z M256.9,474.2c-0.1-1.1-0.7-2.4-2.2-2.4c-1.3,0-2,1-2,1.8c0,1.3,0.9,1.9,2,1.9
					C255.6,475.5,256.5,474.9,256.9,474.2z"/>
			</g>
		</g>
		<g enable-background="new    ">
			<path fill="#4D4D4D" d="M272.7,518.7v-7.3l-1.4,1.5l-0.6-0.7l2.2-2.2h0.9v8.7H272.7z"/>
			<path fill="#4D4D4D" d="M275.5,518.7v-0.9c3.1-2.4,4.8-3.9,4.8-5.4c0-1.1-0.9-1.6-1.8-1.6c-1,0-1.8,0.4-2.4,1.1l-0.7-0.7
				c0.7-0.9,1.8-1.4,3-1.4c1.4,0,2.9,0.8,2.9,2.5c0,1.8-1.8,3.4-4.2,5.3h4.3v1H275.5z"/>
			<path fill="#4D4D4D" d="M282.4,519l3.1-9.2h0.8l-3.1,9.2H282.4z"/>
			<path fill="#4D4D4D" d="M288.6,518.7v-7.3l-1.4,1.5l-0.6-0.7l2.2-2.2h0.9v8.7H288.6z"/>
		</g>
		<g enable-background="new    ">
			<path fill="#4D4D4D" d="M398.5,518.7v-7.3l-1.4,1.5l-0.6-0.7l2.2-2.2h0.9v8.7H398.5z"/>
			<path fill="#4D4D4D" d="M401.3,518.7v-0.9c3.1-2.4,4.8-3.9,4.8-5.4c0-1.1-0.9-1.6-1.8-1.6c-1,0-1.8,0.4-2.4,1.1l-0.7-0.7
				c0.7-0.9,1.8-1.4,3-1.4c1.4,0,2.9,0.8,2.9,2.5c0,1.8-1.8,3.4-4.2,5.3h4.3v1H401.3z"/>
			<path fill="#4D4D4D" d="M408.2,519l3.1-9.2h0.8L409,519H408.2z"/>
			<path fill="#4D4D4D" d="M412.8,516.5c0-1.2,1-2,2.1-2.3c-1-0.3-1.9-0.9-1.9-2.1c0-1.6,1.5-2.2,3-2.2c1.4,0,3,0.7,3,2.2
				c0,1.1-0.9,1.8-1.9,2.1c1.1,0.3,2.1,1.1,2.1,2.3c0,1.5-1.4,2.4-3.1,2.4C414.2,518.9,412.8,518,412.8,516.5z M417.9,516.4
				c0-1.1-1.5-1.6-2-1.7c-0.5,0.1-2,0.5-2,1.7c0,0.9,0.9,1.5,2,1.5C416.9,517.9,417.9,517.3,417.9,516.4z M417.8,512.3
				c0-0.9-0.8-1.4-1.9-1.4c-1.1,0-1.9,0.5-1.9,1.4c0,1.1,1.4,1.4,1.9,1.5C416.4,513.7,417.8,513.3,417.8,512.3z"/>
		</g>
		<g enable-background="new    ">
			<path fill="#4D4D4D" d="M778.4,518.7v-7.3l-1.4,1.5l-0.6-0.7l2.2-2.2h0.9v8.7H778.4z"/>
			<path fill="#4D4D4D" d="M781.2,518.7v-0.9c3.1-2.4,4.8-3.9,4.8-5.4c0-1.1-0.9-1.6-1.8-1.6c-1,0-1.8,0.4-2.4,1.1l-0.7-0.7
				c0.7-0.9,1.8-1.4,3-1.4c1.4,0,2.9,0.8,2.9,2.5c0,1.8-1.8,3.4-4.2,5.3h4.3v1H781.2z"/>
			<path fill="#4D4D4D" d="M788.2,519l3.1-9.2h0.8L789,519H788.2z"/>
			<path fill="#4D4D4D" d="M792.7,518.7v-0.9c3.1-2.4,4.8-3.9,4.8-5.4c0-1.1-0.9-1.6-1.8-1.6c-1,0-1.8,0.4-2.4,1.1l-0.7-0.7
				c0.7-0.9,1.8-1.4,3-1.4c1.4,0,2.9,0.8,2.9,2.5c0,1.8-1.8,3.4-4.2,5.3h4.3v1H792.7z"/>
			<path fill="#4D4D4D" d="M800.8,517.8l0.5-0.8c0.4,0.5,1,0.9,1.9,0.9c1.8,0,2.4-1.8,2.4-3.4c0-0.1,0-0.2,0-0.3
				c-0.4,0.6-1.3,1.4-2.4,1.4c-1.6,0-2.8-0.9-2.8-2.8c0-1.5,1.1-2.8,3-2.8c2.4,0,3.4,2.1,3.4,4.5c0,2.3-1.1,4.5-3.5,4.5
				C802.1,518.8,801.3,518.4,800.8,517.8z M805.6,513.3c-0.1-1.1-0.7-2.4-2.2-2.4c-1.3,0-2,1-2,1.8c0,1.3,0.9,1.9,2,1.9
				C804.3,514.6,805.1,514,805.6,513.3z"/>
		</g>
		<g enable-background="new    ">
			<path fill="#4D4D4D" d="M925.2,518.8v-7.3l-1.4,1.5l-0.6-0.7l2.2-2.2h0.9v8.7H925.2z"/>
			<path fill="#4D4D4D" d="M927.3,519l3.1-9.2h0.8l-3.1,9.2H927.3z"/>
			<path fill="#4D4D4D" d="M932,517.5l0.7-0.7c0.6,0.7,1.3,1.2,2.4,1.2c1.2,0,2-0.8,2-1.9c0-1.1-0.8-1.9-2-1.9c-0.8,0-1.4,0.2-2,0.8
				l-0.8-0.3v-4.7h5.3v1h-4.2v3c0.4-0.4,1.2-0.8,2-0.8c1.5,0,2.8,1,2.8,2.8c0,1.8-1.4,2.9-3.1,2.9
				C933.6,518.9,932.7,518.4,932,517.5z"/>
		</g>
		<g enable-background="new    ">
			<path fill="#009BFF" d="M1201.1,249.4l-4.9-6.7v6.7h-1.6v-9.3h1.7l4.8,6.5v-6.5h1.6v9.3H1201.1z"/>
			<path fill="#009BFF" d="M1204.2,244.8c0-2.9,2.2-4.8,4.9-4.8c1.8,0,3,0.9,3.8,1.9l-1.3,0.8c-0.5-0.7-1.4-1.2-2.4-1.2
				c-1.8,0-3.2,1.4-3.2,3.4c0,2,1.4,3.4,3.2,3.4c1,0,1.8-0.4,2.2-0.8v-1.5h-2.8v-1.4h4.4v3.5c-0.9,1-2.2,1.7-3.9,1.7
				C1206.4,249.6,1204.2,247.7,1204.2,244.8z"/>
		</g>
		<g enable-background="new    ">
			<path fill="#2AE3E6" d="M1194.2,157.9c0-2.9,2.2-4.8,4.9-4.8c1.8,0,3,0.9,3.8,1.9l-1.3,0.8c-0.5-0.7-1.4-1.2-2.4-1.2
				c-1.8,0-3.2,1.4-3.2,3.4c0,2,1.4,3.4,3.2,3.4c1,0,1.8-0.4,2.2-0.8V159h-2.8v-1.4h4.4v3.5c-0.9,1-2.2,1.7-3.9,1.7
				C1196.4,162.8,1194.2,160.8,1194.2,157.9z"/>
			<path fill="#2AE3E6" d="M1211.1,162.6v-4.1h-4.9v4.1h-1.6v-9.3h1.6v3.8h4.9v-3.8h1.6v9.3H1211.1z"/>
		</g>
		<g enable-background="new    ">
			<path fill="#4D4D4D" d="M524.4,518.7v-7.3l-1.4,1.5l-0.7-0.7l2.2-2.2h0.9v8.7H524.4z"/>
			<path fill="#4D4D4D" d="M527.2,518.7v-0.9c3.1-2.4,4.8-3.9,4.8-5.4c0-1.1-0.9-1.6-1.8-1.6c-1,0-1.8,0.4-2.4,1.1l-0.7-0.7
				c0.7-0.9,1.8-1.4,3-1.4c1.4,0,2.9,0.8,2.9,2.5c0,1.8-1.8,3.4-4.2,5.3h4.3v1H527.2z"/>
			<path fill="#4D4D4D" d="M534.1,519l3.1-9.2h0.8l-3.1,9.2H534.1z"/>
			<path fill="#4D4D4D" d="M540.3,518.7v-7.3l-1.4,1.5l-0.6-0.7l2.2-2.2h0.9v8.7H540.3z"/>
			<path fill="#4D4D4D" d="M543.2,517.5l0.7-0.7c0.6,0.7,1.3,1.2,2.4,1.2c1.2,0,2-0.8,2-1.9c0-1.1-0.8-1.9-2-1.9
				c-0.8,0-1.4,0.2-2,0.8l-0.8-0.3V510h5.3v1h-4.2v3c0.4-0.4,1.2-0.8,2-0.8c1.5,0,2.8,1,2.8,2.8c0,1.8-1.4,2.9-3.1,2.9
				C544.8,518.9,543.9,518.3,543.2,517.5z"/>
		</g>
		<g enable-background="new    ">
			<path fill="#4D4D4D" d="M650.2,518.7v-7.3l-1.4,1.5l-0.6-0.7l2.2-2.2h0.9v8.7H650.2z"/>
			<path fill="#4D4D4D" d="M653,518.7v-0.9c3.1-2.4,4.8-3.9,4.8-5.4c0-1.1-0.9-1.6-1.8-1.6c-1,0-1.8,0.4-2.4,1.1l-0.7-0.7
				c0.7-0.9,1.8-1.4,3-1.4c1.4,0,2.9,0.8,2.9,2.5c0,1.8-1.8,3.4-4.2,5.3h4.3v1H653z"/>
			<path fill="#4D4D4D" d="M659.9,519l3.1-9.2h0.8l-3.1,9.2H659.9z"/>
			<path fill="#4D4D4D" d="M664.5,518.7v-0.9c3.1-2.4,4.8-3.9,4.8-5.4c0-1.1-0.9-1.6-1.8-1.6c-1,0-1.8,0.4-2.4,1.1l-0.7-0.7
				c0.7-0.9,1.8-1.4,3-1.4c1.4,0,2.9,0.8,2.9,2.5c0,1.8-1.8,3.4-4.2,5.3h4.3v1H664.5z"/>
			<path fill="#4D4D4D" d="M672.1,518.7v-0.9c3.1-2.4,4.8-3.9,4.8-5.4c0-1.1-0.9-1.6-1.8-1.6c-1,0-1.8,0.4-2.4,1.1l-0.7-0.7
				c0.7-0.9,1.8-1.4,3-1.4c1.4,0,2.9,0.8,2.9,2.5c0,1.8-1.8,3.4-4.2,5.3h4.3v1H672.1z"/>
		</g>
		<g enable-background="new    ">
			<path fill="#4D4D4D" d="M1050.9,518.8v-7.3l-1.4,1.5l-0.7-0.7l2.2-2.2h0.9v8.7H1050.9z"/>
			<path fill="#4D4D4D" d="M1053,519l3.1-9.2h0.8l-3.1,9.2H1053z"/>
			<path fill="#4D4D4D" d="M1059.2,518.8v-7.3l-1.4,1.5l-0.7-0.7l2.2-2.2h0.9v8.7H1059.2z"/>
			<path fill="#4D4D4D" d="M1062,518.8v-0.9c3.1-2.4,4.8-3.9,4.8-5.4c0-1.1-0.9-1.6-1.8-1.6c-1,0-1.8,0.4-2.4,1.1l-0.7-0.7
				c0.7-0.9,1.8-1.4,3-1.4c1.4,0,2.9,0.8,2.9,2.5c0,1.8-1.8,3.4-4.2,5.3h4.3v1H1062z"/>
		</g>
		<g enable-background="new    ">
			<path fill="#4D4D4D" d="M1183,518.8v-7.3l-1.4,1.5l-0.7-0.7l2.2-2.2h0.9v8.7H1183z"/>
			<path fill="#4D4D4D" d="M1185.1,519l3.1-9.2h0.8l-3.1,9.2H1185.1z"/>
			<path fill="#4D4D4D" d="M1189.6,518.8v-0.9c3.1-2.4,4.8-3.9,4.8-5.4c0-1.1-0.9-1.6-1.8-1.6c-1,0-1.8,0.4-2.4,1.1l-0.7-0.7
				c0.7-0.9,1.8-1.4,3-1.4c1.4,0,2.9,0.8,2.9,2.5c0,1.8-1.8,3.4-4.2,5.3h4.3v1H1189.6z"/>
			<path fill="#4D4D4D" d="M1197.2,514.5c0-2.1,0.9-4.5,3.3-4.5c2.4,0,3.3,2.4,3.3,4.5c0,2.1-0.9,4.5-3.3,4.5
				C1198.2,518.9,1197.2,516.6,1197.2,514.5z M1202.8,514.5c0-1.7-0.6-3.5-2.2-3.5s-2.2,1.8-2.2,3.5s0.6,3.5,2.2,3.5
				S1202.8,516.2,1202.8,514.5z"/>
		</g>
		<line fill="none" stroke="#CCCCCC" stroke-miterlimit="10" x1="270" y1="55.5" x2="1216" y2="55.5"/>
		<line fill="none" stroke="#CCCCCC" stroke-miterlimit="10" x1="270" y1="161.5" x2="1216" y2="161.5"/>
		<line fill="none" stroke="#CCCCCC" stroke-miterlimit="10" x1="270" y1="264.5" x2="1216" y2="264.5"/>
		<line fill="none" stroke="#CCCCCC" stroke-miterlimit="10" x1="270" y1="370.5" x2="1216" y2="370.5"/>
		<line fill="none" stroke="#CCCCCC" stroke-miterlimit="10" x1="270" y1="475.5" x2="1216" y2="475.5"/>
	</g>
</g>
</svg>
