<?xml version="1.0" encoding="utf-8"?>
<!-- Generator: Adobe Illustrator 18.0.0, SVG Export Plug-In . SVG Version: 6.00 Build 0)  -->
<!DOCTYPE svg PUBLIC "-//W3C//DTD SVG 1.1//EN" "http://www.w3.org/Graphics/SVG/1.1/DTD/svg11.dtd">
<svg version="1.1" id="Layer_1" xmlns="http://www.w3.org/2000/svg" xmlns:xlink="http://www.w3.org/1999/xlink" x="0px" y="0px"
	 width="720px" height="2566px" viewBox="0 0 720 2566" enable-background="new 0 0 720 2566" xml:space="preserve">
<g id="Background">
</g>
<g id="_x35_._Case_Studies">
	<g id="Footer_5_">
	</g>
	<g id="CTA_copy_2">
	</g>
	<g id="Copy_copy_11">
	</g>
	<g id="Category_copy_8_6_">
	</g>
	<g id="Location_copy_10_10_">
	</g>
	<g id="Category_copy_8_5_">
	</g>
	<g id="Location_copy_10_9_">
	</g>
	<g id="Category_copy_8_3_">
	</g>
	<g id="Location_copy_10_7_">
	</g>
	<g id="Category_copy_8_2_">
	</g>
	<g id="Location_copy_10_6_">
	</g>
	<g id="India_copy">
		<g id="Category_copy_8_1_">
		</g>
		<g id="Location_copy_10_5_">
		</g>
		<g id="Copy_copy_12_5_">
		</g>
	</g>
	<g id="Category_copy_8">
	</g>
	<g id="Location_copy_10_4_">
	</g>
	<g id="stories_grid">
		<g id="Hover_copy_4">
			<g id="background_hover_copy">
			</g>
			<g id="Layer_277_copy">
			</g>
			<g id="Layer_278_copy">
			</g>
			<g id="Location_copy_10">
			</g>
			<g id="Copy_copy_12">
			</g>
		</g>
	</g>
	<g id="Chart">
		<line fill="none" stroke="#CCCCCC" stroke-miterlimit="10" x1="2" y1="1556.8" x2="718.6" y2="1556.8"/>
		<line fill="none" stroke="#CCCCCC" stroke-miterlimit="10" x1="2" y1="1052.3" x2="718.6" y2="1052.3"/>
		<line fill="none" stroke="#CCCCCC" stroke-miterlimit="10" x1="0" y1="2063.2" x2="716.6" y2="2063.2"/>
		<g>
			<g enable-background="new    ">
				<path fill="#4D4D4D" d="M258.4,1141.7v-12.3l-5,12.3h-0.7l-5-12.3v12.3h-1.8v-14.7h2.6l4.6,11.3l4.6-11.3h2.6v14.7H258.4z"/>
				<path fill="#4D4D4D" d="M264,1134.4c0-4.3,2.9-7.6,7.3-7.6s7.3,3.3,7.3,7.6s-3,7.6-7.3,7.6S264,1138.8,264,1134.4z
					 M276.7,1134.4c0-3.4-2.1-6-5.4-6c-3.3,0-5.4,2.5-5.4,6c0,3.4,2.1,6,5.4,6C274.6,1140.4,276.7,1137.8,276.7,1134.4z"/>
				<path fill="#4D4D4D" d="M292.8,1141.7l-8.6-11.7v11.7h-1.8v-14.7h1.9l8.4,11.5v-11.5h1.8v14.7H292.8z"/>
				<path fill="#4D4D4D" d="M302.7,1141.7v-13H298v-1.6h11.1v1.6h-4.7v13H302.7z"/>
				<path fill="#4D4D4D" d="M323,1141.7v-6.7h-8.6v6.7h-1.8v-14.7h1.8v6.3h8.6v-6.3h1.8v14.7H323z"/>
				<path fill="#4D4D4D" d="M329,1141.7v-14.7h1.8v13h6.8v1.6H329z"/>
				<path fill="#4D4D4D" d="M342.6,1141.7v-6.2l-5.8-8.5h2.1l4.6,6.8l4.6-6.8h2.1l-5.8,8.5v6.2H342.6z"/>
				<path fill="#4D4D4D" d="M359.8,1141.7v-14.7h1.8v14.7H359.8z"/>
				<path fill="#4D4D4D" d="M376.4,1141.7l-8.6-11.7v11.7H366v-14.7h1.9l8.4,11.5v-11.5h1.8v14.7H376.4z"/>
				<path fill="#4D4D4D" d="M382.6,1141.7v-14.7h9.6v1.6h-7.8v4.7h7.6v1.6h-7.6v6.7H382.6z"/>
				<path fill="#4D4D4D" d="M395.5,1141.7v-14.7h1.8v13h6.8v1.6H395.5z"/>
				<path fill="#4D4D4D" d="M418,1141.7l-1.3-3.3h-7.3l-1.3,3.3H406l5.9-14.7h2.3l5.9,14.7H418z M413.1,1128.9l-3.1,7.9h6.2
					L413.1,1128.9z"/>
				<path fill="#4D4D4D" d="M425.2,1141.7v-13h-4.6v-1.6h11.1v1.6H427v13H425.2z"/>
				<path fill="#4D4D4D" d="M435.1,1141.7v-14.7h1.8v14.7H435.1z"/>
				<path fill="#4D4D4D" d="M440.7,1134.4c0-4.3,2.9-7.6,7.3-7.6s7.3,3.3,7.3,7.6s-3,7.6-7.3,7.6S440.7,1138.8,440.7,1134.4z
					 M453.4,1134.4c0-3.4-2.1-6-5.4-6c-3.3,0-5.4,2.5-5.4,6c0,3.4,2.1,6,5.4,6C451.3,1140.4,453.4,1137.8,453.4,1134.4z"/>
				<path fill="#4D4D4D" d="M469.5,1141.7L461,1130v11.7h-1.8v-14.7h1.9l8.4,11.5v-11.5h1.8v14.7H469.5z"/>
			</g>
		</g>
	</g>
	<g id="Observations">
		<g id="Photos">
		</g>
		<g id="Copy_16_">
		</g>
	</g>
	<g id="Copy_15_">
	</g>
	<g id="Hero_6_">
		<g id="Photo_3_">
		</g>
		<g id="Type">
		</g>
		<g id="location_2_">
		</g>
		<g id="Headline_3_">
		</g>
	</g>
	<g>
		<g enable-background="new    ">
			<path fill="#009BFF" d="M305.8,26L295,11.2V26h-3.6V5.2h3.7l10.6,14.4V5.2h3.6V26H305.8z"/>
			<path fill="#009BFF" d="M312.8,15.6c0-6.5,4.9-10.7,10.9-10.7c4.1,0,6.7,1.9,8.4,4.3l-3,1.7c-1.1-1.6-3.1-2.8-5.4-2.8
				c-4.1,0-7.2,3.1-7.2,7.5s3.1,7.5,7.2,7.5c2.1,0,4-1,4.9-1.9v-3.2h-6.2v-3.2h9.8v7.8c-2.1,2.3-5,3.8-8.6,3.8
				C317.7,26.4,312.8,22.2,312.8,15.6z"/>
		</g>
		<g enable-background="new    ">
			<path fill="#30D6D9" d="M387.3,15.6c0-6.5,4.9-10.7,10.9-10.7c4,0,6.7,1.9,8.4,4.3l-3,1.7c-1.1-1.6-3.1-2.8-5.4-2.8
				c-4.1,0-7.2,3.1-7.2,7.5s3.1,7.5,7.2,7.5c2.1,0,4-1,4.9-1.9v-3.2h-6.2v-3.2h9.8v7.8c-2.1,2.3-5,3.8-8.6,3.8
				C392.2,26.4,387.3,22.2,387.3,15.6z"/>
			<path fill="#30D6D9" d="M425,26V17h-10.8V26h-3.6V5.2h3.6v8.5H425V5.2h3.6V26H425z"/>
		</g>
	</g>
	<g id="story_grid_copy">
		<g id="story_2_copy">
		</g>
		<g id="story_1_copy">
		</g>
		<g id="more_stories_copy">
		</g>
	</g>
</g>
<g id="Layer_1_1_">
	<g enable-background="new    ">
		<path fill="#009BFF" d="M237.5,1823.9v-76.6l-13.9,14.8l-4.6-4.8l19.1-20.2h6.8v86.7H237.5z"/>
		<path fill="#009BFF" d="M301.3,1823.9v-23.7h-41.1v-6.6l38.5-56.4h10v56.3h12.7v6.8h-12.7v23.7H301.3z M301.3,1744.6l-33.4,48.9
			h33.4V1744.6z"/>
		<path fill="#009BFF" d="M333.3,1823.9v-6.1c29.5-23.8,49.3-40.7,49.3-57.5c0-12.5-10.3-17.7-19.8-17.7c-10.8,0-19.1,4.7-23.8,11.3
			l-5.1-4.7c6.1-8.3,16.6-13.4,28.9-13.4c12.7,0,27.3,7.3,27.3,24.4c0,19.1-20.2,36.5-45.2,56.8h45.6v6.8H333.3z"/>
		<path fill="#009BFF" d="M486,1823.9v-77.4l-31.6,77.4h-2.9l-31.7-77.4v77.4h-7.4v-86.7h11l29.5,72.2l29.4-72.2h11.2v86.7H486z"/>
	</g>
	<g enable-background="new    ">
		<path fill="#009BFF" d="M223.2,1962.4v-76.6l-13.9,14.8l-4.6-4.8l19.1-20.2h6.8v86.7H223.2z"/>
		<path fill="#009BFF" d="M287.1,1962.4v-23.7H246v-6.6l38.5-56.4h10v56.3h12.7v6.8h-12.7v23.7H287.1z M287.1,1883.1l-33.4,48.9
			h33.4V1883.1z"/>
		<path fill="#009BFF" d="M320.2,1957.9c0-3,2.7-5.6,5.9-5.6s5.7,2.6,5.7,5.6c0,3.1-2.6,5.7-5.7,5.7S320.2,1961,320.2,1957.9z"/>
		<path fill="#009BFF" d="M349.9,1949.8l4.9-4.9c5.6,7.9,13.1,12.3,24.3,12.3c12.6,0,21.7-9.1,21.7-20.9c0-13.1-9.1-21.2-21.6-21.2
			c-7.9,0-14.7,2.6-21.1,8.5l-5.6-2.3v-45.5h50.1v6.8H360v33.9c4.3-4.2,11.7-8.1,20.7-8.1c14.6,0,27.7,9.6,27.7,27.7
			c0,17.3-13.3,28-29.3,28C364.7,1964,355.8,1958.4,349.9,1949.8z"/>
		<path fill="#009BFF" d="M500.3,1962.4v-77.4l-31.6,77.4h-2.9l-31.7-77.4v77.4h-7.4v-86.7h11l29.5,72.2l29.4-72.2h11.2v86.7H500.3z
			"/>
	</g>
	<g>
		<g enable-background="new    ">
			<path fill="#4D4D4D" d="M126,1647.6v-14.7h5.9c2.9,0,4.6,2,4.6,4.4c0,2.4-1.7,4.4-4.6,4.4h-4.1v5.8H126z M134.6,1637.3
				c0-1.6-1.2-2.8-2.9-2.8h-3.9v5.6h3.9C133.4,1640.1,134.6,1639,134.6,1637.3z"/>
			<path fill="#4D4D4D" d="M139.3,1640.3c0-4.3,2.9-7.6,7.3-7.6s7.3,3.3,7.3,7.6s-3,7.6-7.3,7.6S139.3,1644.6,139.3,1640.3z
				 M152,1640.3c0-3.4-2.1-6-5.4-6c-3.3,0-5.4,2.5-5.4,6c0,3.4,2.1,6,5.4,6C149.9,1646.2,152,1643.7,152,1640.3z"/>
			<path fill="#4D4D4D" d="M157.8,1647.6v-14.7h5.9c2.9,0,4.6,2,4.6,4.4c0,2.4-1.7,4.4-4.6,4.4h-4.1v5.8H157.8z M166.4,1637.3
				c0-1.6-1.2-2.8-2.9-2.8h-3.9v5.6h3.9C165.2,1640.1,166.4,1639,166.4,1637.3z"/>
			<path fill="#4D4D4D" d="M171.7,1641.9v-9h1.8v8.9c0,2.7,1.4,4.4,4.1,4.4s4.2-1.7,4.2-4.4v-8.9h1.8v9c0,3.7-2,6-6,6
				C173.7,1647.9,171.7,1645.5,171.7,1641.9z"/>
			<path fill="#4D4D4D" d="M187.8,1647.6v-14.7h1.8v13h6.8v1.6H187.8z"/>
			<path fill="#4D4D4D" d="M210.4,1647.6l-1.3-3.3h-7.3l-1.3,3.3h-2.1l5.9-14.7h2.3l5.9,14.7H210.4z M205.4,1634.8l-3.1,7.9h6.2
				L205.4,1634.8z"/>
			<path fill="#4D4D4D" d="M217.5,1647.6v-13h-4.6v-1.6H224v1.6h-4.7v13H217.5z"/>
			<path fill="#4D4D4D" d="M227.4,1647.6v-14.7h1.8v14.7H227.4z"/>
			<path fill="#4D4D4D" d="M233.1,1640.3c0-4.3,2.9-7.6,7.3-7.6s7.3,3.3,7.3,7.6s-3,7.6-7.3,7.6S233.1,1644.6,233.1,1640.3z
				 M245.8,1640.3c0-3.4-2.1-6-5.4-6c-3.3,0-5.4,2.5-5.4,6c0,3.4,2.1,6,5.4,6C243.6,1646.2,245.8,1643.7,245.8,1640.3z"/>
			<path fill="#4D4D4D" d="M261.9,1647.6l-8.6-11.7v11.7h-1.8v-14.7h1.9l8.4,11.5v-11.5h1.8v14.7H261.9z"/>
			<path fill="#4D4D4D" d="M274.5,1647.6v-14.7h1.8v13h6.8v1.6H274.5z"/>
			<path fill="#4D4D4D" d="M286.6,1647.6v-14.7h1.8v14.7H286.6z"/>
			<path fill="#4D4D4D" d="M297.2,1647.6l-5.9-14.7h2.1l5,12.7l5-12.7h2.1l-5.9,14.7H297.2z"/>
			<path fill="#4D4D4D" d="M308.3,1647.6v-14.7h1.8v14.7H308.3z"/>
			<path fill="#4D4D4D" d="M324.9,1647.6l-8.6-11.7v11.7h-1.8v-14.7h1.9l8.4,11.5v-11.5h1.8v14.7H324.9z"/>
			<path fill="#4D4D4D" d="M330.5,1640.3c0-4.6,3.4-7.6,7.5-7.6c2.6,0,4.4,1.1,5.7,2.7l-1.5,0.9c-0.9-1.2-2.5-2-4.2-2
				c-3.2,0-5.7,2.4-5.7,6c0,3.5,2.4,6,5.7,6c1.8,0,3.2-0.8,4-1.6v-3H337v-1.6h6.9v5.3c-1.4,1.5-3.4,2.6-5.8,2.6
				C333.9,1647.9,330.5,1644.8,330.5,1640.3z"/>
			<path fill="#4D4D4D" d="M353.9,1640.3c0-4.3,2.9-7.6,7.3-7.6c4.3,0,7.3,3.3,7.3,7.6s-3,7.6-7.3,7.6
				C356.8,1647.9,353.9,1644.6,353.9,1640.3z M366.6,1640.3c0-3.4-2.1-6-5.4-6c-3.3,0-5.4,2.5-5.4,6c0,3.4,2.1,6,5.4,6
				C364.4,1646.2,366.6,1643.7,366.6,1640.3z"/>
			<path fill="#4D4D4D" d="M382.7,1647.6l-8.6-11.7v11.7h-1.8v-14.7h1.9l8.4,11.5v-11.5h1.8v14.7H382.7z"/>
			<path fill="#4D4D4D" d="M394.5,1640.8v-1.2l9.7-4.8v1.4l-8.3,4l8.3,4v1.4L394.5,1640.8z"/>
			<path fill="#4D4D4D" d="M418.5,1647.8c-2.2-0.1-3.9-1.1-5-2.3l1.1-1.4c0.8,1,2.2,1.9,3.9,2.1v-5.3c-2.2-0.6-4.6-1.4-4.6-4.1
				c0-2.3,1.9-3.9,4.6-4.1v-2h1.3v2c1.8,0.2,3.3,0.9,4.4,2l-1.1,1.3c-0.9-1-2-1.5-3.3-1.7v4.8c2.3,0.6,4.7,1.5,4.7,4.4
				c0,2-1.3,4-4.7,4.3v2h-1.3V1647.8z M418.5,1638.8v-4.5c-1.6,0.1-2.7,1-2.7,2.3C415.8,1637.9,417,1638.4,418.5,1638.8z
				 M419.8,1641.2v5c2.1-0.2,2.8-1.5,2.8-2.5C422.6,1642.2,421.3,1641.6,419.8,1641.2z"/>
			<path fill="#4D4D4D" d="M427.7,1647.6v-1.5c5.3-4.1,8.2-6.6,8.2-9.1c0-1.9-1.6-2.7-3.1-2.7c-1.8,0-3.1,0.7-4,1.8l-1.1-1.2
				c1.1-1.5,3-2.3,5.1-2.3c2.4,0,4.9,1.4,4.9,4.3c0,3-3,5.7-7.1,9h7.2v1.6H427.7z"/>
			<path fill="#4D4D4D" d="M441.8,1646.6c0-0.7,0.6-1.2,1.2-1.2s1.2,0.5,1.2,1.2s-0.5,1.2-1.2,1.2S441.8,1647.3,441.8,1646.6z"/>
			<path fill="#4D4D4D" d="M448.4,1646.1l0.9-1.4c0.7,0.9,1.6,1.5,3.1,1.5c3,0,4.1-3,4.1-5.8c0-0.2,0-0.4,0-0.6
				c-0.6,1-2.3,2.3-4.1,2.3c-2.6,0-4.8-1.6-4.8-4.7c0-2.5,1.9-4.8,5.1-4.8c4.1,0,5.7,3.6,5.7,7.6c0,4-1.9,7.6-6,7.6
				C450.6,1647.8,449.3,1647.1,448.4,1646.1z M456.5,1638.4c-0.2-1.8-1.1-4.1-3.7-4.1c-2.2,0-3.4,1.7-3.4,3.1c0,2.2,1.5,3.2,3.4,3.2
				C454.3,1640.6,455.7,1639.7,456.5,1638.4z"/>
			<path fill="#4D4D4D" d="M463.2,1647.6l5.9-13h-7.9v-1.6h10v1.3l-6,13.4H463.2z"/>
			<path fill="#4D4D4D" d="M481.2,1641.9v-9h1.8v8.9c0,2.7,1.4,4.4,4.1,4.4s4.2-1.7,4.2-4.4v-8.9h1.8v9c0,3.7-2,6-6,6
				C483.3,1647.9,481.2,1645.5,481.2,1641.9z"/>
			<path fill="#4D4D4D" d="M496.8,1645.5l1.1-1.4c0.9,1.1,2.5,2.1,4.6,2.1c2.6,0,3.5-1.4,3.5-2.6c0-3.8-8.7-1.7-8.7-6.9
				c0-2.4,2.2-4.1,5.1-4.1c2.2,0,4,0.8,5.2,2.1l-1.1,1.3c-1.1-1.2-2.6-1.8-4.2-1.8c-1.7,0-3,0.9-3,2.3c0,3.3,8.7,1.4,8.7,6.9
				c0,2.1-1.5,4.3-5.4,4.3C499.9,1647.9,498,1646.9,496.8,1645.5z"/>
			<path fill="#4D4D4D" d="M511.5,1647.6v-14.7h5c4.6,0,7.5,3.2,7.5,7.3c0,4.2-2.9,7.3-7.5,7.3H511.5z M522.2,1640.3
				c0-3.2-2-5.7-5.6-5.7h-3.2v11.4h3.2C520.1,1646,522.2,1643.4,522.2,1640.3z"/>
			<path fill="#4D4D4D" d="M532.9,1648l5.2-15.6h1.3l-5.2,15.6H532.9z"/>
			<path fill="#4D4D4D" d="M548.8,1647.6v-14.7h5c4.6,0,7.5,3.2,7.5,7.3c0,4.2-2.9,7.3-7.5,7.3H548.8z M559.5,1640.3
				c0-3.2-2-5.7-5.6-5.7h-3.2v11.4h3.2C557.4,1646,559.5,1643.4,559.5,1640.3z"/>
			<path fill="#4D4D4D" d="M574.9,1647.6l-1.3-3.3h-7.3l-1.3,3.3h-2.1l5.9-14.7h2.3l5.9,14.7H574.9z M569.9,1634.8l-3.1,7.9h6.2
				L569.9,1634.8z"/>
			<path fill="#4D4D4D" d="M582.7,1647.6v-6.2l-5.8-8.5h2.1l4.6,6.8l4.6-6.8h2.1l-5.8,8.5v6.2H582.7z"/>
		</g>
	</g>
	<g>
		<g enable-background="new    ">
			<path fill="#4D4D4D" d="M209.9,2152.6v-14.7h1.8v14.7H209.9z"/>
			<path fill="#4D4D4D" d="M226.5,2152.6l-8.6-11.7v11.7h-1.8v-14.7h1.9l8.4,11.5v-11.5h1.8v14.7H226.5z"/>
			<path fill="#4D4D4D" d="M232.1,2145.3c0-4.5,3.3-7.6,7.5-7.6c2.6,0,4.4,1.2,5.6,2.9l-1.5,0.9c-0.8-1.3-2.4-2.1-4-2.1
				c-3.2,0-5.7,2.4-5.7,6c0,3.5,2.4,6,5.7,6c1.7,0,3.2-0.9,4-2.1l1.5,0.8c-1.2,1.7-3,2.9-5.6,2.9
				C235.4,2152.9,232.1,2149.8,232.1,2145.3z"/>
			<path fill="#4D4D4D" d="M248,2145.3c0-4.3,2.9-7.6,7.3-7.6s7.3,3.3,7.3,7.6s-3,7.6-7.3,7.6S248,2149.6,248,2145.3z M260.7,2145.3
				c0-3.4-2.1-6-5.4-6c-3.3,0-5.4,2.5-5.4,6c0,3.4,2.1,6,5.4,6C258.5,2151.2,260.7,2148.7,260.7,2145.3z"/>
			<path fill="#4D4D4D" d="M278.9,2152.6v-12.3l-5,12.3h-0.7l-5-12.3v12.3h-1.8v-14.7h2.6l4.6,11.3l4.6-11.3h2.6v14.7H278.9z"/>
			<path fill="#4D4D4D" d="M285.2,2152.6v-14.7h9.6v1.6H287v4.7h7.6v1.6H287v5.1h7.8v1.6H285.2z"/>
			<path fill="#4D4D4D" d="M304.5,2150.5l1.1-1.4c0.9,1.1,2.5,2.1,4.6,2.1c2.6,0,3.5-1.4,3.5-2.6c0-3.8-8.7-1.7-8.7-6.9
				c0-2.4,2.2-4.1,5.1-4.1c2.2,0,4,0.8,5.2,2.1l-1.1,1.3c-1.1-1.2-2.6-1.8-4.2-1.8c-1.7,0-3,0.9-3,2.3c0,3.3,8.7,1.4,8.7,6.9
				c0,2.1-1.5,4.3-5.4,4.3C307.6,2152.9,305.7,2151.9,304.5,2150.5z"/>
			<path fill="#4D4D4D" d="M319.3,2152.6v-14.7h5.9c2.9,0,4.6,2,4.6,4.4c0,2.4-1.7,4.4-4.6,4.4h-4.1v5.8H319.3z M327.9,2142.3
				c0-1.6-1.2-2.8-2.9-2.8h-3.9v5.6h3.9C326.7,2145.1,327.9,2144,327.9,2142.3z"/>
			<path fill="#4D4D4D" d="M333.2,2152.6v-14.7h9.6v1.6H335v4.7h7.6v1.6H335v5.1h7.8v1.6H333.2z"/>
			<path fill="#4D4D4D" d="M357,2152.6l-8.6-11.7v11.7h-1.8v-14.7h1.9l8.4,11.5v-11.5h1.8v14.7H357z"/>
			<path fill="#4D4D4D" d="M366.9,2152.6v-13h-4.6v-1.6h11.1v1.6h-4.7v13H366.9z"/>
			<path fill="#4D4D4D" d="M382.9,2145.3c0-4.3,2.9-7.6,7.3-7.6s7.3,3.3,7.3,7.6s-3,7.6-7.3,7.6S382.9,2149.6,382.9,2145.3z
				 M395.5,2145.3c0-3.4-2.1-6-5.4-6c-3.3,0-5.4,2.5-5.4,6c0,3.4,2.1,6,5.4,6C393.4,2151.2,395.5,2148.7,395.5,2145.3z"/>
			<path fill="#4D4D4D" d="M411.7,2152.6l-8.6-11.7v11.7h-1.8v-14.7h1.9l8.4,11.5v-11.5h1.8v14.7H411.7z"/>
			<path fill="#4D4D4D" d="M423.9,2145.3c0-4.6,3.4-7.6,7.5-7.6c2.6,0,4.4,1.1,5.7,2.7l-1.5,0.9c-0.9-1.2-2.5-2-4.2-2
				c-3.2,0-5.7,2.4-5.7,6c0,3.5,2.4,6,5.7,6c1.8,0,3.2-0.8,4-1.6v-3h-5.1v-1.6h6.9v5.3c-1.4,1.5-3.4,2.6-5.8,2.6
				C427.3,2152.9,423.9,2149.8,423.9,2145.3z"/>
			<path fill="#4D4D4D" d="M449.7,2152.6l-3.7-5.8H443v5.8h-1.8v-14.7h5.9c2.7,0,4.6,1.7,4.6,4.4c0,2.6-1.8,4.1-3.8,4.3l4,6H449.7z
				 M449.8,2142.3c0-1.7-1.2-2.8-2.9-2.8H443v5.6h3.9C448.6,2145.1,449.8,2144,449.8,2142.3z"/>
			<path fill="#4D4D4D" d="M466.1,2152.6l-1.3-3.3h-7.3l-1.3,3.3h-2.1l5.9-14.7h2.3l5.9,14.7H466.1z M461.1,2139.8l-3.1,7.9h6.2
				L461.1,2139.8z"/>
			<path fill="#4D4D4D" d="M471,2152.6v-14.7h1.8v14.7H471z"/>
			<path fill="#4D4D4D" d="M487.7,2152.6l-8.6-11.7v11.7h-1.8v-14.7h1.9l8.4,11.5v-11.5h1.8v14.7H487.7z"/>
			<path fill="#4D4D4D" d="M493,2150.5l1.1-1.4c0.9,1.1,2.5,2.1,4.6,2.1c2.6,0,3.5-1.4,3.5-2.6c0-3.8-8.7-1.7-8.7-6.9
				c0-2.4,2.2-4.1,5.1-4.1c2.2,0,4,0.8,5.2,2.1l-1.1,1.3c-1.1-1.2-2.6-1.8-4.2-1.8c-1.7,0-3,0.9-3,2.3c0,3.3,8.7,1.4,8.7,6.9
				c0,2.1-1.5,4.3-5.4,4.3C496.1,2152.9,494.2,2151.9,493,2150.5z"/>
		</g>
	</g>
	<g enable-background="new    ">
		<path fill="#009BFF" d="M276.2,2331.4v-76.6l-13.9,14.8l-4.6-4.8l19.1-20.2h6.8v86.7H276.2z"/>
		<path fill="#009BFF" d="M302.1,2309.7c0-12.1,10.5-20,21.6-23c-10.3-2.7-20.2-9.4-20.2-20.9c0-15.3,14.4-22.4,28.1-22.4
			c13.5,0,28.1,7,28.1,22.4c0,11.6-9.9,18.2-20.2,20.9c11.1,3,21.6,10.9,21.6,23c0,14-12.9,23.3-29.5,23.3
			C314.8,2333,302.1,2323.9,302.1,2309.7z M353.6,2309.2c0-13.3-16.8-18.5-22-19.1c-5.3,0.7-22,5.9-22,19.1c0,10.5,10.4,17,22,17
			C342.9,2326.2,353.6,2319.7,353.6,2309.2z M352.1,2266.6c0-10.4-9.2-16.4-20.5-16.4c-11.3,0-20.5,6-20.5,16.4
			c0,12.1,15.3,16,20.5,17C336.9,2282.6,352.1,2278.7,352.1,2266.6z"/>
		<path fill="#009BFF" d="M373.1,2264.9c0-12.2,8.3-21.5,20.3-21.5c12.1,0,20.4,9.2,20.4,21.5c0,12.1-8.3,21.2-20.4,21.2
			C381.4,2286.1,373.1,2277,373.1,2264.9z M407.8,2264.9c0-9.1-5.9-16.4-14.4-16.4c-8.5,0-14.3,7.3-14.3,16.4
			c0,8.7,5.9,16.1,14.3,16.1C401.9,2281,407.8,2273.6,407.8,2264.9z M385.3,2331.4l55.4-86.7h6l-55.5,86.7H385.3z M417.1,2311.8
			c0-12.2,8.5-21.5,20.4-21.5c12,0,20.4,9.2,20.4,21.5c0,12.1-8.5,21.2-20.4,21.2C425.6,2333,417.1,2323.9,417.1,2311.8z
			 M451.8,2311.8c0-9-5.7-16.4-14.3-16.4c-8.6,0-14.4,7.4-14.4,16.4c0,8.8,5.8,16.1,14.4,16.1
			C446.1,2327.9,451.8,2320.6,451.8,2311.8z"/>
	</g>
	<g enable-background="new    ">
		<path fill="#009BFF" d="M275.5,2466.9v-76.6l-13.9,14.8l-4.6-4.8l19.1-20.2h6.8v86.7H275.5z"/>
		<path fill="#009BFF" d="M301,2466.9v-6.1c29.5-23.8,49.3-40.7,49.3-57.5c0-12.5-10.3-17.7-19.8-17.7c-10.8,0-19.1,4.7-23.8,11.3
			l-5.1-4.7c6.1-8.3,16.6-13.4,28.9-13.4c12.7,0,27.3,7.3,27.3,24.4c0,19.1-20.2,36.5-45.2,56.8h45.6v6.8H301z"/>
		<path fill="#009BFF" d="M373.8,2400.4c0-12.2,8.3-21.5,20.3-21.5c12.1,0,20.4,9.2,20.4,21.5c0,12.1-8.3,21.2-20.4,21.2
			C382.1,2421.6,373.8,2412.5,373.8,2400.4z M408.5,2400.4c0-9.1-5.8-16.4-14.4-16.4c-8.5,0-14.3,7.3-14.3,16.4
			c0,8.7,5.8,16.1,14.3,16.1C402.6,2416.5,408.5,2409.1,408.5,2400.4z M386,2466.9l55.4-86.7h6l-55.5,86.7H386z M417.9,2447.3
			c0-12.2,8.5-21.5,20.4-21.5c12,0,20.4,9.2,20.4,21.5c0,12.1-8.5,21.2-20.4,21.2C426.3,2468.5,417.9,2459.4,417.9,2447.3z
			 M452.6,2447.3c0-9-5.7-16.4-14.3-16.4s-14.4,7.4-14.4,16.4c0,8.8,5.9,16.1,14.4,16.1S452.6,2456.1,452.6,2447.3z"/>
	</g>
	<g enable-background="new    ">
		<path fill="#009BFF" d="M268.4,1289.9v-6.2h31.2v6.2H268.4z"/>
		<path fill="#009BFF" d="M311,1275c0-20.7,8.7-44.7,32.1-44.7c23.1,0,32,24.1,32,44.7c0,20.5-8.8,44.9-32,44.9
			C319.7,1319.8,311,1295.5,311,1275z M367.2,1275c0-17.9-5.9-38-24.1-38c-18.3,0-24.3,20-24.3,38c0,17.8,6,38.1,24.3,38.1
			C361.2,1313.1,367.2,1292.8,367.2,1275z"/>
		<path fill="#009BFF" d="M386.3,1313.7c0-3,2.7-5.6,5.9-5.6s5.7,2.6,5.7,5.6c0,3.1-2.6,5.7-5.7,5.7S386.3,1316.8,386.3,1313.7z"/>
		<path fill="#009BFF" d="M419.2,1318.3v-76.6l-13.9,14.8l-4.5-4.8l19.1-20.2h6.8v86.7H419.2z"/>
		<path fill="#009BFF" d="M441.8,1251.7c0-12.2,8.3-21.5,20.3-21.5c12.1,0,20.4,9.2,20.4,21.5c0,12.1-8.3,21.2-20.4,21.2
			C450.1,1272.9,441.8,1263.8,441.8,1251.7z M476.5,1251.7c0-9.1-5.8-16.4-14.4-16.4c-8.5,0-14.3,7.3-14.3,16.4
			c0,8.7,5.8,16.1,14.3,16.1C470.6,1267.8,476.5,1260.4,476.5,1251.7z M454,1318.3l55.4-86.7h6l-55.5,86.7H454z M485.9,1298.6
			c0-12.2,8.5-21.5,20.4-21.5c12,0,20.4,9.2,20.4,21.5c0,12.1-8.5,21.2-20.4,21.2C494.3,1319.8,485.9,1310.7,485.9,1298.6z
			 M520.6,1298.6c0-9-5.7-16.4-14.3-16.4s-14.4,7.4-14.4,16.4c0,8.8,5.9,16.1,14.4,16.1S520.6,1307.5,520.6,1298.6z"/>
	</g>
	<g enable-background="new    ">
		<path fill="#009BFF" d="M305.3,1413.5v28.2h-5.9v-28.2h-25.6v-5.5h25.6v-27.4h5.9v27.4h25.5v5.5H305.3z"/>
		<path fill="#009BFF" d="M356.4,1454.6V1378l-13.9,14.8l-4.6-4.8l19.1-20.2h6.8v86.7H356.4z"/>
		<path fill="#009BFF" d="M383,1450c0-3,2.7-5.6,5.8-5.6s5.7,2.6,5.7,5.6c0,3.1-2.6,5.7-5.7,5.7S383,1453.2,383,1450z"/>
		<path fill="#009BFF" d="M448.7,1454.6v-23.7h-41.1v-6.6l38.5-56.4h10v56.3h12.7v6.8h-12.7v23.7H448.7z M448.7,1375.3l-33.4,48.9
			h33.4V1375.3z"/>
		<path fill="#009BFF" d="M477.8,1388c0-12.2,8.3-21.5,20.3-21.5c12.1,0,20.4,9.2,20.4,21.5c0,12.1-8.3,21.2-20.4,21.2
			C486.1,1409.2,477.8,1400.1,477.8,1388z M512.5,1388c0-9.1-5.9-16.4-14.4-16.4c-8.5,0-14.3,7.3-14.3,16.4
			c0,8.7,5.9,16.1,14.3,16.1C506.7,1404.1,512.5,1396.7,512.5,1388z M490,1454.6l55.4-86.7h6l-55.5,86.7H490z M521.9,1435
			c0-12.2,8.5-21.5,20.4-21.5c12,0,20.4,9.2,20.4,21.5c0,12.1-8.5,21.2-20.4,21.2C530.3,1456.1,521.9,1447,521.9,1435z M556.6,1435
			c0-9-5.7-16.4-14.3-16.4c-8.6,0-14.4,7.4-14.4,16.4c0,8.8,5.8,16.1,14.4,16.1C550.9,1451.1,556.6,1443.8,556.6,1435z"/>
	</g>
	<g>
		<rect x="156" y="1368.6" fill="#2AE3E6" width="79.2" height="79.2"/>
		<g enable-background="new    ">
			<path fill="#FFFFFF" d="M173.6,1406c0-6.7,5-11,11.2-11c4.2,0,6.9,2,8.6,4.4l-3.1,1.7c-1.1-1.6-3.1-2.8-5.5-2.8
				c-4.2,0-7.3,3.2-7.3,7.7c0,4.5,3.1,7.7,7.3,7.7c2.2,0,4.1-1,5-1.9v-3.3h-6.4v-3.3h10.1v8c-2.1,2.3-5.1,3.9-8.8,3.9
				C178.6,1417,173.6,1412.7,173.6,1406z"/>
			<path fill="#FFFFFF" d="M212.3,1416.6v-9.3h-11.1v9.3h-3.7v-21.3h3.7v8.7h11.1v-8.7h3.7v21.3H212.3z"/>
		</g>
	</g>
	<g>
		<rect x="156" y="1232.2" opacity="0.9" fill="#0074BF" enable-background="new    " width="79.2" height="79.2"/>
		<g enable-background="new    ">
			<path fill="#FFFFFF" d="M190.4,1281.4l-11.3-15.4v15.4h-3.8v-21.6h3.9l11,15v-15h3.8v21.6H190.4z"/>
			<path fill="#FFFFFF" d="M197.6,1270.7c0-6.8,5.1-11.2,11.3-11.2c4.2,0,7,2,8.7,4.5l-3.1,1.7c-1.1-1.6-3.2-2.9-5.6-2.9
				c-4.3,0-7.4,3.3-7.4,7.8c0,4.5,3.2,7.8,7.4,7.8c2.2,0,4.1-1,5.1-1.9v-3.4h-6.4v-3.3h10.2v8.1c-2.1,2.4-5.1,3.9-8.9,3.9
				C202.7,1281.9,197.6,1277.4,197.6,1270.7z"/>
		</g>
	</g>
	<g>
		<polyline fill="none" stroke="#2AE3E6" stroke-width="4" stroke-miterlimit="10" points="686.3,297 675.4,247.5 663.9,260.8 
			652.3,199.1 640.5,219.8 629.9,296.5 617.8,301.4 606.9,393.3 595.1,407.6 584.1,488.7 572,420.9 560.7,459.1 550.8,513.9 
			537.3,505.2 526.2,508.5 514.4,500.9 504.5,636.1 492.8,503 481.7,570.5 458.5,550.7 447.1,581.9 435.5,537.1 423.6,555.3 
			412.6,522.4 401.1,613.1 386,566 378.5,532.6 367.1,517.9 344.8,578.6 332.5,555.3 322.7,570.5 310.1,561.6 298.9,484.7 
			287.5,538.8 275.6,538.8 264.8,516.1 252.9,523.7 242.3,596.6 231.2,587.7 218.7,616.5 207.8,720.8 195.3,713.9 184.6,671.9 
			173.3,759.4 161.7,763.8 150,806 128.7,845.4 115.1,834 		"/>
		<polyline fill="none" stroke="#009BFF" stroke-width="4" stroke-miterlimit="10" points="115.1,472.6 139.7,511.6 150.3,511.6 
			161.9,488.3 174.5,505.7 186.1,508.5 198.7,526.6 207.6,551.6 220.2,560.7 231,537.5 251.2,533 264.6,558.3 300.5,514.8 
			322.9,476.2 333.5,478.7 346.1,498.3 356.7,501.9 378.5,478.7 400.6,498.5 408.5,523.9 423.8,534.8 445.6,560.7 468.7,574.5 
			492.8,605.5 511.8,595 526.5,593 537.8,580.5 550,580.5 573.5,621.3 584.3,612.9 606.9,519.2 618,537.3 629.6,544.4 640.1,522.3 
			652.7,537.5 663.9,535.5 673.3,525 686.4,521.7 		"/>
	</g>
	<g>
		<g enable-background="new    ">
			<path fill="#4D4D4D" d="M63.9,150v-13.2l-2.5,2.7l-1.2-1.2l3.9-4.1h1.7V150H63.9z"/>
			<path fill="#4D4D4D" d="M68.9,142.1c0-3.8,1.7-8.1,6-8.1c4.3,0,6,4.3,6,8.1c0,3.8-1.7,8.1-6,8.1C70.6,150.3,68.9,146,68.9,142.1z
				 M78.9,142.1c0-3.1-1-6.4-4-6.4s-4,3.2-4,6.4s1,6.4,4,6.4S78.9,145.3,78.9,142.1z"/>
			<path fill="#4D4D4D" d="M86.3,150v-13.2l-2.5,2.7l-1.2-1.2l3.9-4.1h1.7V150H86.3z"/>
		</g>
		<g enable-background="new    ">
			<path fill="#4D4D4D" d="M35.8,340.4v-13.2l-2.5,2.7l-1.2-1.2l3.9-4.1h1.7v15.7H35.8z"/>
			<path fill="#4D4D4D" d="M40.7,332.5c0-3.8,1.7-8.1,6-8.1c4.3,0,6,4.3,6,8.1c0,3.8-1.7,8.1-6,8.1
				C42.4,340.7,40.7,336.4,40.7,332.5z M50.8,332.5c0-3.1-1-6.4-4-6.4s-4,3.2-4,6.4s1,6.4,4,6.4S50.8,335.7,50.8,332.5z"/>
			<path fill="#4D4D4D" d="M55.2,332.5c0-3.8,1.7-8.1,6-8.1c4.3,0,6,4.3,6,8.1c0,3.8-1.7,8.1-6,8.1
				C56.9,340.7,55.2,336.4,55.2,332.5z M65.2,332.5c0-3.1-1-6.4-4-6.4s-4,3.2-4,6.4s1,6.4,4,6.4S65.2,335.7,65.2,332.5z"/>
			<path fill="#4D4D4D" d="M69.1,339.3c0-0.7,0.6-1.3,1.3-1.3c0.7,0,1.3,0.6,1.3,1.3c0,0.7-0.6,1.3-1.3,1.3
				C69.7,340.6,69.1,340,69.1,339.3z"/>
			<path fill="#4D4D4D" d="M74.7,338.2l1.2-1.3c1,1.3,2.4,2.1,4.3,2.1c2.1,0,3.6-1.5,3.6-3.4c0-2.1-1.5-3.4-3.6-3.4
				c-1.4,0-2.6,0.4-3.6,1.5l-1.4-0.5v-8.5h9.6v1.7h-7.7v5.5c0.8-0.8,2.1-1.4,3.7-1.4c2.6,0,5,1.8,5,5c0,3.2-2.5,5.2-5.6,5.2
				C77.6,340.7,75.8,339.7,74.7,338.2z"/>
		</g>
		<g enable-background="new    ">
			<path fill="#4D4D4D" d="M57.5,530.8v-13.2l-2.5,2.7l-1.2-1.2l3.9-4.1h1.7v15.7H57.5z"/>
			<path fill="#4D4D4D" d="M62.5,523c0-3.8,1.7-8.1,6-8.1c4.3,0,6,4.3,6,8.1c0,3.8-1.7,8.1-6,8.1C64.2,531.1,62.5,526.8,62.5,523z
				 M72.5,523c0-3.1-1-6.4-4-6.4s-4,3.2-4,6.4s1,6.4,4,6.4S72.5,526.1,72.5,523z"/>
			<path fill="#4D4D4D" d="M76.9,523c0-3.8,1.7-8.1,6-8.1c4.3,0,6,4.3,6,8.1c0,3.8-1.7,8.1-6,8.1C78.6,531.1,76.9,526.8,76.9,523z
				 M87,523c0-3.1-1-6.4-4-6.4s-4,3.2-4,6.4s1,6.4,4,6.4S87,526.1,87,523z"/>
		</g>
		<g enable-background="new    ">
			<path fill="#4D4D4D" d="M43.7,719.6l1-1.5c0.8,0.9,1.7,1.6,3.4,1.6c3.2,0,4.4-3.2,4.4-6.2c0-0.2,0-0.4,0-0.6
				c-0.7,1.1-2.4,2.5-4.4,2.5c-2.8,0-5.2-1.7-5.2-5c0-2.7,2.1-5.1,5.5-5.1c4.4,0,6.1,3.8,6.1,8.1c0,4.2-2,8.1-6.4,8.1
				C46,721.5,44.7,720.7,43.7,719.6z M52.4,711.3c-0.2-1.9-1.2-4.4-4-4.4c-2.4,0-3.6,1.8-3.6,3.3c0,2.3,1.6,3.4,3.6,3.4
				C50,713.7,51.6,712.7,52.4,711.3z"/>
			<path fill="#4D4D4D" d="M57.6,719.6l1-1.5c0.8,0.9,1.7,1.6,3.4,1.6c3.2,0,4.4-3.2,4.4-6.2c0-0.2,0-0.4,0-0.6
				c-0.7,1.1-2.4,2.5-4.4,2.5c-2.8,0-5.2-1.7-5.2-5c0-2.7,2.1-5.1,5.5-5.1c4.4,0,6.1,3.8,6.1,8.1c0,4.2-2,8.1-6.4,8.1
				C60,721.5,58.6,720.7,57.6,719.6z M66.3,711.3c-0.2-1.9-1.2-4.4-4-4.4c-2.4,0-3.6,1.8-3.6,3.3c0,2.3,1.6,3.4,3.6,3.4
				C64,713.7,65.5,712.7,66.3,711.3z"/>
			<path fill="#4D4D4D" d="M70.3,720.1c0-0.7,0.6-1.3,1.3-1.3c0.7,0,1.3,0.6,1.3,1.3c0,0.7-0.6,1.3-1.3,1.3
				C70.8,721.4,70.3,720.9,70.3,720.1z"/>
			<path fill="#4D4D4D" d="M75.8,719l1.2-1.3c1,1.3,2.4,2.1,4.3,2.1c2.1,0,3.6-1.5,3.6-3.4c0-2.1-1.5-3.4-3.6-3.4
				c-1.4,0-2.6,0.4-3.6,1.5l-1.4-0.5v-8.5H86v1.7h-7.7v5.5c0.8-0.8,2.1-1.4,3.7-1.4c2.6,0,5,1.8,5,5c0,3.2-2.5,5.2-5.6,5.2
				C78.7,721.5,77,720.5,75.8,719z"/>
		</g>
		<g enable-background="new    ">
			<path fill="#4D4D4D" d="M65.5,910l1-1.5c0.8,0.9,1.7,1.6,3.4,1.6c3.2,0,4.4-3.2,4.4-6.2c0-0.2,0-0.4,0-0.6
				c-0.7,1.1-2.4,2.5-4.4,2.5c-2.8,0-5.2-1.7-5.2-5c0-2.7,2.1-5.1,5.5-5.1c4.4,0,6.1,3.8,6.1,8.1c0,4.2-2,8.1-6.4,8.1
				C67.8,911.9,66.4,911.1,65.5,910z M74.2,901.7c-0.2-1.9-1.2-4.4-4-4.4c-2.4,0-3.6,1.8-3.6,3.3c0,2.3,1.6,3.4,3.6,3.4
				C71.8,904.1,73.3,903.1,74.2,901.7z"/>
			<path fill="#4D4D4D" d="M79.4,910l1-1.5c0.8,0.9,1.7,1.6,3.4,1.6c3.2,0,4.4-3.2,4.4-6.2c0-0.2,0-0.4,0-0.6
				c-0.7,1.1-2.4,2.5-4.4,2.5c-2.8,0-5.2-1.7-5.2-5c0-2.7,2.1-5.1,5.5-5.1c4.4,0,6.1,3.8,6.1,8.1c0,4.2-2,8.1-6.4,8.1
				C81.7,911.9,80.4,911.1,79.4,910z M88.1,901.7c-0.2-1.9-1.2-4.4-4-4.4c-2.4,0-3.6,1.8-3.6,3.3c0,2.3,1.6,3.4,3.6,3.4
				C85.7,904.1,87.3,903.1,88.1,901.7z"/>
		</g>
	</g>
	<g enable-background="new    ">
		<path fill="#4D4D4D" d="M116.6,982.5v-13.2l-2.5,2.7l-1.2-1.2l3.9-4.1h1.7v15.7H116.6z"/>
		<path fill="#4D4D4D" d="M121.7,982.5v-1.6c5.7-4.4,8.7-7,8.7-9.8c0-2-1.7-2.9-3.3-2.9c-1.9,0-3.3,0.8-4.3,2l-1.2-1.2
			c1.2-1.6,3.3-2.5,5.5-2.5c2.6,0,5.3,1.5,5.3,4.6c0,3.2-3.3,6.1-7.6,9.6h7.7v1.7H121.7z"/>
		<path fill="#4D4D4D" d="M134.3,983l5.6-16.7h1.4l-5.6,16.7H134.3z"/>
		<path fill="#4D4D4D" d="M145.4,982.5v-13.2l-2.5,2.7l-1.2-1.2l3.9-4.1h1.7v15.7H145.4z"/>
	</g>
	<g enable-background="new    ">
		<path fill="#4D4D4D" d="M185.1,982.5v-13.2l-2.5,2.7l-1.2-1.2l3.9-4.1h1.7v15.7H185.1z"/>
		<path fill="#4D4D4D" d="M190.1,982.5v-1.6c5.7-4.4,8.7-7,8.7-9.8c0-2-1.7-2.9-3.3-2.9c-1.9,0-3.3,0.8-4.3,2l-1.2-1.2
			c1.2-1.6,3.3-2.5,5.5-2.5c2.6,0,5.3,1.5,5.3,4.6c0,3.2-3.3,6.1-7.6,9.6h7.7v1.7H190.1z"/>
		<path fill="#4D4D4D" d="M202.7,983l5.6-16.7h1.4l-5.6,16.7H202.7z"/>
		<path fill="#4D4D4D" d="M210.9,978.5c0-2.1,1.8-3.5,3.7-4.1c-1.8-0.5-3.5-1.7-3.5-3.8c0-2.8,2.8-4.1,5.4-4.1
			c2.6,0,5.4,1.2,5.4,4.1c0,2.1-1.7,3.3-3.5,3.8c2,0.6,3.7,2,3.7,4.1c0,2.7-2.5,4.3-5.6,4.3C213.4,982.8,210.9,981.2,210.9,978.5z
			 M220.2,978.3c0-2.1-2.7-2.9-3.7-3c-1,0.1-3.7,1-3.7,3c0,1.7,1.7,2.7,3.7,2.7C218.5,981,220.2,980,220.2,978.3z M220,970.9
			c0-1.6-1.5-2.6-3.4-2.6c-1.9,0-3.4,1-3.4,2.6c0,1.9,2.5,2.5,3.4,2.7C217.5,973.4,220,972.8,220,970.9z"/>
	</g>
	<g enable-background="new    ">
		<path fill="#4D4D4D" d="M429.7,982.5v-13.2l-2.5,2.7l-1.2-1.2l3.9-4.1h1.7v15.7H429.7z"/>
		<path fill="#4D4D4D" d="M434.8,982.5v-1.6c5.7-4.4,8.7-7,8.7-9.8c0-2-1.7-2.9-3.3-2.9c-1.9,0-3.3,0.8-4.3,2l-1.2-1.2
			c1.2-1.6,3.3-2.5,5.5-2.5c2.6,0,5.3,1.5,5.3,4.6c0,3.2-3.3,6.1-7.6,9.6h7.7v1.7H434.8z"/>
		<path fill="#4D4D4D" d="M447.4,983l5.6-16.7h1.4l-5.6,16.7H447.4z"/>
		<path fill="#4D4D4D" d="M455.7,982.5v-1.6c5.7-4.4,8.7-7,8.7-9.8c0-2-1.7-2.9-3.3-2.9c-1.9,0-3.3,0.8-4.3,2l-1.2-1.2
			c1.2-1.6,3.3-2.5,5.5-2.5c2.6,0,5.3,1.5,5.3,4.6c0,3.2-3.3,6.1-7.6,9.6h7.7v1.7H455.7z"/>
		<path fill="#4D4D4D" d="M470.2,980.9l1-1.5c0.8,0.9,1.7,1.6,3.4,1.6c3.2,0,4.4-3.2,4.4-6.2c0-0.2,0-0.4,0-0.6
			c-0.7,1.1-2.4,2.5-4.4,2.5c-2.8,0-5.2-1.7-5.2-5c0-2.7,2.1-5.1,5.5-5.1c4.4,0,6.1,3.8,6.1,8.1c0,4.2-2,8.1-6.4,8.1
			C472.6,982.7,471.2,982,470.2,980.9z M478.9,972.6c-0.2-1.9-1.2-4.4-4-4.4c-2.4,0-3.6,1.8-3.6,3.3c0,2.3,1.6,3.4,3.6,3.4
			C476.6,975,478.1,974,478.9,972.6z"/>
	</g>
	<g enable-background="new    ">
		<path fill="#4D4D4D" d="M518,982.6v-13.2l-2.5,2.7l-1.2-1.2l3.9-4.1h1.7v15.7H518z"/>
		<path fill="#4D4D4D" d="M521.8,983.1l5.6-16.7h1.4l-5.6,16.7H521.8z"/>
		<path fill="#4D4D4D" d="M530.3,980.4l1.2-1.3c1,1.3,2.4,2.1,4.3,2.1c2.1,0,3.6-1.5,3.6-3.4c0-2.1-1.5-3.4-3.6-3.4
			c-1.4,0-2.6,0.4-3.6,1.5l-1.4-0.5v-8.5h9.6v1.7h-7.7v5.5c0.8-0.8,2.1-1.4,3.7-1.4c2.6,0,5,1.8,5,5c0,3.2-2.5,5.2-5.6,5.2
			C533.2,982.9,531.5,982,530.3,980.4z"/>
	</g>
	<g enable-background="new    ">
		<path fill="#4D4D4D" d="M259.2,982.5v-13.2l-2.5,2.7l-1.2-1.2l3.9-4.1h1.7v15.7H259.2z"/>
		<path fill="#4D4D4D" d="M264.3,982.5v-1.6c5.7-4.4,8.7-7,8.7-9.8c0-2-1.7-2.9-3.3-2.9c-1.9,0-3.3,0.8-4.3,2l-1.2-1.2
			c1.2-1.6,3.3-2.5,5.5-2.5c2.6,0,5.3,1.5,5.3,4.6c0,3.2-3.3,6.1-7.6,9.6h7.7v1.7H264.3z"/>
		<path fill="#4D4D4D" d="M276.9,983l5.6-16.7h1.4l-5.6,16.7H276.9z"/>
		<path fill="#4D4D4D" d="M288.1,982.5v-13.2l-2.5,2.7l-1.2-1.2l3.9-4.1h1.7v15.7H288.1z"/>
		<path fill="#4D4D4D" d="M293.4,980.2l1.2-1.3c1,1.3,2.4,2.1,4.3,2.1c2.1,0,3.6-1.5,3.6-3.4c0-2.1-1.5-3.4-3.6-3.4
			c-1.4,0-2.6,0.4-3.6,1.5l-1.4-0.5v-8.5h9.6v1.7h-7.7v5.5c0.8-0.8,2.1-1.4,3.7-1.4c2.6,0,5,1.8,5,5c0,3.2-2.5,5.2-5.6,5.2
			C296.3,982.8,294.6,981.8,293.4,980.2z"/>
	</g>
	<g enable-background="new    ">
		<path fill="#4D4D4D" d="M341.6,982.5v-13.2l-2.5,2.7l-1.2-1.2l3.9-4.1h1.7v15.7H341.6z"/>
		<path fill="#4D4D4D" d="M346.6,982.5v-1.6c5.7-4.4,8.7-7,8.7-9.8c0-2-1.7-2.9-3.3-2.9c-1.9,0-3.3,0.8-4.3,2l-1.2-1.2
			c1.2-1.6,3.3-2.5,5.5-2.5c2.6,0,5.3,1.5,5.3,4.6c0,3.2-3.3,6.1-7.6,9.6h7.7v1.7H346.6z"/>
		<path fill="#4D4D4D" d="M359.2,983l5.6-16.7h1.4l-5.6,16.7H359.2z"/>
		<path fill="#4D4D4D" d="M367.5,982.5v-1.6c5.7-4.4,8.7-7,8.7-9.8c0-2-1.7-2.9-3.3-2.9c-1.9,0-3.3,0.8-4.3,2l-1.2-1.2
			c1.2-1.6,3.3-2.5,5.5-2.5c2.6,0,5.3,1.5,5.3,4.6c0,3.2-3.3,6.1-7.6,9.6h7.7v1.7H367.5z"/>
		<path fill="#4D4D4D" d="M381.3,982.5v-1.6c5.7-4.4,8.7-7,8.7-9.8c0-2-1.7-2.9-3.3-2.9c-1.9,0-3.3,0.8-4.3,2l-1.2-1.2
			c1.2-1.6,3.3-2.5,5.5-2.5c2.6,0,5.3,1.5,5.3,4.6c0,3.2-3.3,6.1-7.6,9.6h7.7v1.7H381.3z"/>
	</g>
	<g enable-background="new    ">
		<path fill="#4D4D4D" d="M578.5,982.6v-13.2l-2.5,2.7l-1.2-1.2l3.9-4.1h1.7v15.7H578.5z"/>
		<path fill="#4D4D4D" d="M582.3,983.1l5.6-16.7h1.4l-5.6,16.7H582.3z"/>
		<path fill="#4D4D4D" d="M593.5,982.6v-13.2l-2.5,2.7l-1.2-1.2l3.9-4.1h1.7v15.7H593.5z"/>
		<path fill="#4D4D4D" d="M598.5,982.6v-1.6c5.7-4.4,8.7-7,8.7-9.8c0-2-1.7-2.9-3.3-2.9c-1.9,0-3.3,0.8-4.3,2l-1.2-1.2
			c1.2-1.6,3.3-2.5,5.5-2.5c2.6,0,5.3,1.5,5.3,4.6c0,3.2-3.3,6.1-7.6,9.6h7.7v1.7H598.5z"/>
	</g>
	<g enable-background="new    ">
		<path fill="#4D4D4D" d="M646.9,982.6v-13.2l-2.5,2.7l-1.2-1.2l3.9-4.1h1.7v15.7H646.9z"/>
		<path fill="#4D4D4D" d="M650.7,983.1l5.6-16.7h1.4l-5.6,16.7H650.7z"/>
		<path fill="#4D4D4D" d="M659,982.6v-1.6c5.7-4.4,8.7-7,8.7-9.8c0-2-1.7-2.9-3.3-2.9c-1.9,0-3.3,0.8-4.3,2l-1.2-1.2
			c1.2-1.6,3.3-2.5,5.5-2.5c2.6,0,5.3,1.5,5.3,4.6c0,3.2-3.3,6.1-7.6,9.6h7.7v1.7H659z"/>
		<path fill="#4D4D4D" d="M672.8,974.8c0-3.8,1.7-8.1,6-8.1c4.3,0,6,4.3,6,8.1c0,3.8-1.7,8.1-6,8.1
			C674.5,982.9,672.8,978.6,672.8,974.8z M682.8,974.8c0-3.1-1-6.4-4-6.4s-4,3.2-4,6.4s1,6.4,4,6.4S682.8,977.9,682.8,974.8z"/>
	</g>
	<line fill="none" stroke="#CCCCCC" stroke-miterlimit="10" x1="111.8" y1="142.5" x2="686" y2="142.5"/>
	<line fill="none" stroke="#CCCCCC" stroke-miterlimit="10" x1="111.8" y1="334.7" x2="686" y2="334.7"/>
	<line fill="none" stroke="#CCCCCC" stroke-miterlimit="10" x1="111.8" y1="521.5" x2="686" y2="521.5"/>
	<line fill="none" stroke="#CCCCCC" stroke-miterlimit="10" x1="111.8" y1="713.7" x2="686" y2="713.7"/>
	<line fill="none" stroke="#CCCCCC" stroke-miterlimit="10" x1="111.8" y1="904.2" x2="686" y2="904.2"/>
</g>
</svg>
