<?xml version="1.0" encoding="utf-8"?>
<!-- Generator: Adobe Illustrator 18.0.0, SVG Export Plug-In . SVG Version: 6.00 Build 0)  -->
<!DOCTYPE svg PUBLIC "-//W3C//DTD SVG 1.1//EN" "http://www.w3.org/Graphics/SVG/1.1/DTD/svg11.dtd">
<svg version="1.1" xmlns="http://www.w3.org/2000/svg" xmlns:xlink="http://www.w3.org/1999/xlink" x="0px" y="0px" width="16.5px"
	 height="24.3px" viewBox="0 0 16.5 24.3" enable-background="new 0 0 16.5 24.3" xml:space="preserve">
<g id="Layer_1">
</g>
<g id="Isolation_Mode">
	<path fill="#009BFF" d="M8.2,0C3.7,0,0,3.7,0,8.2c0,0.1,0,0.2,0,0.3c0,0.9,0.2,1.7,0.5,2.5c1.8,5.8,7.8,13.3,7.8,13.3
		s6-7.5,7.8-13.3c0.3-0.8,0.4-1.6,0.5-2.5c0-0.1,0-0.2,0-0.3C16.5,3.7,12.8,0,8.2,0z M8.2,12.3c-2.2,0-4-1.8-4-4c0-2.2,1.8-4,4-4
		c2.2,0,4,1.8,4,4C12.3,10.5,10.5,12.3,8.2,12.3z"/>
</g>
</svg>
