<?xml version="1.0" encoding="utf-8"?>
<!-- Generator: Adobe Illustrator 18.0.0, SVG Export Plug-In . SVG Version: 6.00 Build 0)  -->
<!DOCTYPE svg PUBLIC "-//W3C//DTD SVG 1.1//EN" "http://www.w3.org/Graphics/SVG/1.1/DTD/svg11.dtd">
<svg version="1.1" xmlns="http://www.w3.org/2000/svg" xmlns:xlink="http://www.w3.org/1999/xlink" x="0px" y="0px" width="169.6px"
	 height="12px" viewBox="0 0 169.6 12" enable-background="new 0 0 169.6 12" xml:space="preserve">
<g id="Layer_1">
</g>
<g id="_x34_._Our_Team">
	<g enable-background="new    ">
		<path fill="#313233" d="M4.9,0.4l3,9.5C8,10.5,8.2,10.8,8.3,11c0.1,0.2,0.3,0.4,0.4,0.4c0.1,0.1,0.3,0.1,0.5,0.1v0.1H5.9v-0.1
			c0.3,0,0.6,0,0.8-0.1S7,11.2,7,10.9c0-0.2,0-0.4-0.1-0.7c0,0,0-0.1,0-0.1l-0.9-3H2.5L1.7,9.9c-0.1,0.4-0.2,0.7-0.2,0.9
			c0,0.3,0.1,0.5,0.2,0.6c0.1,0.1,0.3,0.2,0.6,0.2v0.1H0v-0.1c0.3,0,0.6-0.2,0.8-0.4C1,10.9,1.2,10.5,1.3,10l2.8-9.6H4.9z M2.6,6.8
			h3.2L4.2,1.5h0L2.6,6.8z"/>
		<path fill="#313233" d="M20.2,0.6v0.1c-0.3,0-0.5,0.1-0.6,0.2c-0.1,0.1-0.3,0.2-0.3,0.4c-0.1,0.2-0.1,0.5-0.1,0.9V12h-0.1
			l-7.7-9.5v6.9c0,0.6,0,1,0.1,1.3c0,0.3,0.1,0.5,0.2,0.6c0.2,0.3,0.5,0.4,0.9,0.4v0.1H10v-0.1c0.3,0,0.5-0.1,0.7-0.2
			c0.2-0.1,0.3-0.3,0.3-0.7c0.1-0.3,0.1-0.8,0.1-1.4V2l-0.3-0.4c-0.3-0.4-0.5-0.6-0.7-0.7C9.9,0.8,9.7,0.7,9.4,0.7V0.6h1.9l7.5,9.4
			V2.8c0-0.5,0-0.9-0.1-1.2c0-0.3-0.1-0.5-0.3-0.6c-0.2-0.2-0.4-0.2-0.8-0.3V0.6H20.2z"/>
		<path fill="#313233" d="M21.2,0.7V0.6H25c0.5,0,1,0.1,1.5,0.2s0.9,0.2,1.2,0.4s0.7,0.4,0.9,0.6c0.3,0.2,0.5,0.4,0.7,0.6
			c0.3,0.4,0.6,0.7,0.8,1.2c0.2,0.4,0.4,0.9,0.5,1.4s0.2,1,0.2,1.5c0,0.5-0.1,1-0.2,1.5s-0.3,0.9-0.5,1.3s-0.4,0.7-0.7,1.1
			c-0.3,0.3-0.6,0.6-1,0.9c-0.3,0.2-0.7,0.4-1.1,0.5c-0.4,0.1-1,0.2-1.7,0.2h-4.5v-0.1h0.1c0.3,0,0.5-0.1,0.7-0.4
			c0.2-0.3,0.2-0.5,0.2-0.8V1.9c0-0.3,0-0.5-0.1-0.7C22,1,21.9,0.9,21.8,0.8c-0.1-0.1-0.3-0.1-0.5-0.1H21.2z M23.3,1.1v8.8
			c0,0.4,0.1,0.8,0.2,1c0.1,0.2,0.3,0.3,0.6,0.4c0.3,0.1,0.6,0.1,1.2,0.1c0.7,0,1.3-0.1,1.8-0.2c0.5-0.2,1-0.5,1.4-1.1
			c0.3-0.4,0.6-0.9,0.8-1.5s0.3-1.3,0.3-2.1c0-0.7-0.1-1.3-0.3-2c-0.2-0.6-0.4-1.2-0.8-1.7c-0.4-0.6-0.9-1-1.5-1.3
			c-0.6-0.3-1.3-0.5-2.2-0.5C24.5,0.9,23.9,1,23.3,1.1z"/>
		<path fill="#313233" d="M32.1,0.7H32V0.6h3.5c0.6,0,1,0.1,1.4,0.3c0.4,0.2,0.7,0.4,0.9,0.7c0.2,0.3,0.4,0.6,0.5,0.9
			c0.1,0.3,0.1,0.7,0.1,1c0,0.4-0.1,0.8-0.2,1.2c-0.2,0.4-0.4,0.7-0.7,1c-0.3,0.3-0.7,0.4-1.2,0.5v0c0.6,0.3,1.1,1,1.7,1.9l0.9,1.7
			c0.4,0.8,0.7,1.2,1,1.4c0.2,0.2,0.5,0.3,0.7,0.3v0.1h-1.8c-0.1-0.1-0.1-0.2-0.2-0.3c-0.1-0.1-0.1-0.2-0.2-0.3
			c0-0.1-0.1-0.2-0.2-0.3c-0.1-0.2-0.1-0.2-0.2-0.3l-1.2-2.2c-0.2-0.4-0.5-0.8-0.7-1.1c-0.3-0.3-0.5-0.5-0.7-0.6s-0.4-0.2-0.6-0.2
			s-0.4,0-0.6,0v4.1c0,0.8,0.4,1.2,1.1,1.2v0.1H32v-0.1c0.2,0,0.4-0.1,0.5-0.1c0.2-0.1,0.3-0.2,0.4-0.4c0.1-0.2,0.2-0.4,0.2-0.7V1.9
			c0-0.4-0.1-0.8-0.3-0.9C32.5,0.8,32.3,0.7,32.1,0.7z M34.1,6h0.6c0.6,0,1.1-0.1,1.5-0.3c0.4-0.2,0.7-0.5,0.8-0.8
			c0.2-0.4,0.3-0.8,0.3-1.3c0-0.4-0.1-0.8-0.2-1.3c-0.2-0.4-0.4-0.8-0.8-1c-0.4-0.3-0.9-0.4-1.5-0.4c-0.3,0-0.5,0-0.6,0.1V6z"/>
		<path fill="#313233" d="M41.1,0.7V0.6H47v1.8h-0.1c0-0.9-0.6-1.4-1.7-1.4h-2.1V6H45c0.4,0,0.7-0.1,1-0.2c0.3-0.1,0.4-0.4,0.5-0.9
			h0.1v2.5h-0.1c0-0.3-0.1-0.5-0.2-0.7c-0.1-0.2-0.2-0.3-0.3-0.3c-0.1,0-0.2-0.1-0.3-0.1c-0.2,0-0.3,0-0.5,0h-1.9v4
			c0,0.3,0.1,0.6,0.2,0.8c0.1,0.2,0.3,0.3,0.7,0.3h1.5c0.4,0,0.7-0.1,0.9-0.2c0.2-0.1,0.4-0.3,0.5-0.5c0.1-0.2,0.2-0.5,0.3-0.7h0.1
			L47,11.7h-5.9v-0.1h0.1c0.2,0,0.4-0.1,0.6-0.3s0.3-0.5,0.3-0.9V2c0-0.3-0.1-0.6-0.2-0.9s-0.4-0.4-0.7-0.4H41.1z"/>
		<path fill="#313233" d="M48.1,0.7V0.6h5.9v1.8H54c0-0.9-0.6-1.4-1.7-1.4h-2.1V6h1.8c0.4,0,0.7-0.1,1-0.2c0.3-0.1,0.4-0.4,0.5-0.9
			h0.1v2.5h-0.1c0-0.3-0.1-0.5-0.2-0.7c-0.1-0.2-0.2-0.3-0.3-0.3c-0.1,0-0.2-0.1-0.3-0.1c-0.2,0-0.3,0-0.5,0h-1.9v4
			c0,0.3,0.1,0.6,0.2,0.8c0.1,0.2,0.3,0.3,0.7,0.3h1.5c0.4,0,0.7-0.1,0.9-0.2c0.2-0.1,0.4-0.3,0.5-0.5c0.1-0.2,0.2-0.5,0.3-0.7h0.1
			l-0.3,1.7h-5.9v-0.1h0.1c0.2,0,0.4-0.1,0.6-0.3s0.3-0.5,0.3-0.9V2c0-0.3-0.1-0.6-0.2-0.9s-0.4-0.4-0.7-0.4H48.1z"/>
		<path fill="#313233" d="M60.4,2.7h-0.1c-0.1-0.5-0.3-1-0.6-1.4c-0.4-0.4-0.8-0.6-1.4-0.6c-0.4,0-0.7,0.1-1,0.3
			c-0.3,0.2-0.5,0.5-0.7,0.8c-0.2,0.3-0.2,0.7-0.2,1.2c0,0.3,0,0.7,0.1,0.9c0.1,0.3,0.2,0.5,0.4,0.7C57,4.8,57.2,5,57.5,5.2
			c0.3,0.2,0.6,0.4,1,0.7c0.7,0.4,1.3,0.9,1.7,1.3c0.4,0.4,0.6,1.1,0.6,1.8c0,0.5-0.1,0.9-0.3,1.4c-0.2,0.4-0.5,0.8-1,1.1
			c-0.4,0.3-1,0.4-1.6,0.4c-0.4,0-0.8,0-1.1-0.1c-0.3-0.1-0.6-0.2-1-0.4c-0.1-0.1-0.2-0.1-0.3-0.1c-0.1,0-0.2,0-0.2,0.1
			c0,0.1-0.1,0.2-0.1,0.5h-0.1V9.1h0.1c0.2,0.8,0.5,1.4,0.9,1.9c0.5,0.4,1,0.6,1.7,0.6c0.5,0,0.9-0.1,1.2-0.3
			c0.3-0.2,0.5-0.5,0.6-0.8s0.2-0.6,0.2-0.9c0-0.6-0.2-1.1-0.5-1.5s-0.9-0.8-1.6-1.2c-0.5-0.3-0.8-0.5-1.1-0.7
			c-0.2-0.2-0.5-0.4-0.7-0.6c-0.2-0.3-0.4-0.6-0.6-0.9c-0.1-0.4-0.2-0.8-0.2-1.2c0-0.5,0.1-1,0.4-1.5c0.2-0.5,0.6-0.9,1.1-1.2
			s1-0.4,1.6-0.4c0.4,0,0.9,0.1,1.3,0.2c0.1,0,0.2,0.1,0.3,0.1c0.1,0,0.3-0.1,0.3-0.3h0.1V2.7z"/>
		<path fill="#313233" d="M66.9,2.7h-0.1c-0.1-0.5-0.3-1-0.6-1.4c-0.4-0.4-0.8-0.6-1.4-0.6c-0.4,0-0.7,0.1-1,0.3
			c-0.3,0.2-0.5,0.5-0.7,0.8c-0.2,0.3-0.2,0.7-0.2,1.2c0,0.3,0,0.7,0.1,0.9c0.1,0.3,0.2,0.5,0.4,0.7C63.5,4.8,63.7,5,64,5.2
			c0.3,0.2,0.6,0.4,1,0.7c0.7,0.4,1.3,0.9,1.7,1.3c0.4,0.4,0.6,1.1,0.6,1.8c0,0.5-0.1,0.9-0.3,1.4s-0.5,0.8-1,1.1s-1,0.4-1.6,0.4
			c-0.4,0-0.8,0-1.1-0.1c-0.3-0.1-0.6-0.2-1-0.4c-0.1-0.1-0.2-0.1-0.3-0.1c-0.1,0-0.2,0-0.2,0.1c0,0.1-0.1,0.2-0.1,0.5h-0.1V9.1h0.1
			c0.2,0.8,0.5,1.4,0.9,1.9c0.5,0.4,1,0.6,1.7,0.6c0.5,0,0.9-0.1,1.2-0.3s0.5-0.5,0.6-0.8c0.1-0.3,0.2-0.6,0.2-0.9
			c0-0.6-0.2-1.1-0.5-1.5s-0.9-0.8-1.6-1.2c-0.5-0.3-0.8-0.5-1.1-0.7s-0.5-0.4-0.7-0.6S62.2,5,62,4.6c-0.1-0.4-0.2-0.8-0.2-1.2
			c0-0.5,0.1-1,0.4-1.5c0.2-0.5,0.6-0.9,1.1-1.2c0.5-0.3,1-0.4,1.6-0.4c0.4,0,0.9,0.1,1.3,0.2c0.1,0,0.2,0.1,0.3,0.1
			c0.1,0,0.3-0.1,0.3-0.3h0.1V2.7z"/>
		<path fill="#313233" d="M68.2,0.7V0.6h5.9v1.8h-0.1c0-0.9-0.6-1.4-1.7-1.4h-2.1V6h1.8c0.4,0,0.7-0.1,1-0.2
			c0.3-0.1,0.4-0.4,0.5-0.9h0.1v2.5h-0.1c0-0.3-0.1-0.5-0.2-0.7c-0.1-0.2-0.2-0.3-0.3-0.3c-0.1,0-0.2-0.1-0.3-0.1
			c-0.2,0-0.3,0-0.5,0h-1.9v4c0,0.3,0.1,0.6,0.2,0.8c0.1,0.2,0.3,0.3,0.7,0.3h1.5c0.4,0,0.7-0.1,0.9-0.2c0.2-0.1,0.4-0.3,0.5-0.5
			c0.1-0.2,0.2-0.5,0.3-0.7h0.1l-0.3,1.7h-5.9v-0.1h0.1c0.2,0,0.4-0.1,0.6-0.3s0.3-0.5,0.3-0.9V2c0-0.3-0.1-0.6-0.2-0.9
			s-0.4-0.4-0.7-0.4H68.2z"/>
		<path fill="#313233" d="M85.7,0.6v0.1c-0.3,0-0.5,0.1-0.6,0.2c-0.1,0.1-0.3,0.2-0.3,0.4c-0.1,0.2-0.1,0.5-0.1,0.9V12h-0.1
			l-7.7-9.5v6.9c0,0.6,0,1,0.1,1.3c0,0.3,0.1,0.5,0.2,0.6c0.2,0.3,0.5,0.4,0.9,0.4v0.1h-2.5v-0.1c0.3,0,0.5-0.1,0.7-0.2
			c0.2-0.1,0.3-0.3,0.3-0.7c0.1-0.3,0.1-0.8,0.1-1.4V2l-0.3-0.4c-0.3-0.4-0.5-0.6-0.7-0.7c-0.2-0.1-0.4-0.2-0.7-0.2V0.6h1.9l7.5,9.4
			V2.8c0-0.5,0-0.9-0.1-1.2s-0.1-0.5-0.3-0.6s-0.4-0.2-0.8-0.3V0.6H85.7z"/>
		<path fill="#313233" d="M99,5.6V1.9c0-0.4-0.1-0.7-0.3-0.9c-0.2-0.2-0.4-0.3-0.8-0.3V0.6h3.2v0.1c-0.4,0-0.6,0.1-0.8,0.3
			c-0.2,0.2-0.3,0.5-0.3,0.9v8.4c0,0.8,0.4,1.2,1.1,1.2v0.1h-3.2v-0.1c0.3,0,0.6-0.1,0.8-0.3c0.2-0.2,0.3-0.5,0.3-0.9V6h-5.7v4.4
			c0,0.4,0.1,0.7,0.3,0.9c0.2,0.2,0.5,0.3,0.8,0.3v0.1h-3.2v-0.1c0.3,0,0.6-0.1,0.8-0.3c0.2-0.2,0.3-0.5,0.3-0.9V1.9
			c0-0.8-0.4-1.2-1.1-1.2V0.6h3.2v0.1c-0.4,0-0.6,0.1-0.8,0.3c-0.2,0.2-0.3,0.5-0.3,0.9v3.7H99z"/>
		<path fill="#313233" d="M112.8,6.1c0,1-0.2,2-0.7,2.9s-1.1,1.6-1.9,2.1c-0.8,0.5-1.7,0.8-2.7,0.8c-1,0-1.9-0.3-2.7-0.8
			c-0.8-0.5-1.5-1.2-1.9-2.2c-0.5-0.9-0.7-1.9-0.7-2.9c0-0.8,0.1-1.6,0.4-2.3c0.3-0.7,0.7-1.3,1.2-1.9s1.1-0.9,1.7-1.2
			c0.6-0.3,1.3-0.4,2-0.4c0.7,0,1.3,0.1,2,0.4c0.6,0.3,1.2,0.7,1.7,1.2s0.9,1.2,1.2,1.9C112.7,4.5,112.8,5.3,112.8,6.1z M111.6,6.2
			c0-1.5-0.2-2.6-0.7-3.5c-0.5-0.8-1-1.4-1.6-1.7c-0.6-0.3-1.2-0.4-1.7-0.4c-0.4,0-0.9,0.1-1.3,0.2c-0.5,0.2-0.9,0.4-1.3,0.8
			s-0.8,1-1.1,1.7s-0.4,1.7-0.4,2.7c0,1,0.1,1.8,0.3,2.5c0.2,0.7,0.5,1.3,0.9,1.7s0.8,0.8,1.3,1c0.5,0.2,1,0.3,1.5,0.3
			c0.5,0,0.9-0.1,1.4-0.3s0.9-0.5,1.3-0.9c0.4-0.4,0.7-1,1-1.7C111.5,8.1,111.6,7.2,111.6,6.2z"/>
		<path fill="#313233" d="M114.2,0.7H114V0.6h3.5c0.6,0,1,0.1,1.4,0.3c0.4,0.2,0.7,0.4,0.9,0.7c0.2,0.3,0.4,0.6,0.5,0.9
			c0.1,0.3,0.1,0.7,0.1,1c0,0.4-0.1,0.8-0.2,1.2c-0.2,0.4-0.4,0.7-0.7,1c-0.3,0.3-0.7,0.4-1.2,0.5v0c0.6,0.3,1.1,1,1.7,1.9l0.9,1.7
			c0.4,0.8,0.7,1.2,1,1.4c0.2,0.2,0.5,0.3,0.7,0.3v0.1h-1.8c-0.1-0.1-0.1-0.2-0.2-0.3c-0.1-0.1-0.1-0.2-0.2-0.3
			c0-0.1-0.1-0.2-0.2-0.3c-0.1-0.2-0.1-0.2-0.2-0.3l-1.2-2.2c-0.2-0.4-0.5-0.8-0.7-1.1c-0.3-0.3-0.5-0.5-0.7-0.6s-0.4-0.2-0.6-0.2
			s-0.4,0-0.6,0v4.1c0,0.8,0.4,1.2,1.1,1.2v0.1H114v-0.1c0.2,0,0.4-0.1,0.5-0.1c0.2-0.1,0.3-0.2,0.4-0.4c0.1-0.2,0.2-0.4,0.2-0.7
			V1.9c0-0.4-0.1-0.8-0.3-0.9C114.6,0.8,114.4,0.7,114.2,0.7z M116.1,6h0.6c0.6,0,1.1-0.1,1.5-0.3c0.4-0.2,0.7-0.5,0.8-0.8
			c0.2-0.4,0.3-0.8,0.3-1.3c0-0.4-0.1-0.8-0.2-1.3c-0.2-0.4-0.4-0.8-0.8-1c-0.4-0.3-0.9-0.4-1.5-0.4c-0.3,0-0.5,0-0.6,0.1V6z"/>
		<path fill="#313233" d="M133.1,6.1c0,1-0.2,2-0.7,2.9s-1.1,1.6-1.9,2.1c-0.8,0.5-1.7,0.8-2.7,0.8c-1,0-1.9-0.3-2.7-0.8
			c-0.8-0.5-1.5-1.2-1.9-2.2s-0.7-1.9-0.7-2.9c0-0.8,0.1-1.6,0.4-2.3c0.3-0.7,0.7-1.3,1.2-1.9s1.1-0.9,1.7-1.2
			c0.6-0.3,1.3-0.4,2-0.4c0.7,0,1.3,0.1,2,0.4c0.6,0.3,1.2,0.7,1.7,1.2s0.9,1.2,1.2,1.9C132.9,4.5,133.1,5.3,133.1,6.1z M131.9,6.2
			c0-1.5-0.2-2.6-0.7-3.5s-1-1.4-1.6-1.7s-1.2-0.4-1.7-0.4c-0.4,0-0.9,0.1-1.3,0.2c-0.5,0.2-0.9,0.4-1.3,0.8s-0.8,1-1.1,1.7
			s-0.4,1.7-0.4,2.7c0,1,0.1,1.8,0.3,2.5c0.2,0.7,0.5,1.3,0.9,1.7c0.4,0.5,0.8,0.8,1.3,1c0.5,0.2,1,0.3,1.5,0.3
			c0.5,0,0.9-0.1,1.4-0.3s0.9-0.5,1.3-0.9c0.4-0.4,0.7-1,1-1.7C131.7,8.1,131.9,7.2,131.9,6.2z"/>
		<path fill="#313233" d="M147.2,0.6v0.1c-0.2,0-0.4,0.1-0.5,0.3c-0.2,0.1-0.3,0.3-0.5,0.6c-0.2,0.3-0.3,0.7-0.5,1.2l-2.8,9.2h-0.1
			l-2.5-9.2h0l-2.8,9.2h-0.1l-2.8-10.1c-0.1-0.4-0.2-0.6-0.4-0.8s-0.3-0.3-0.4-0.3c-0.1,0-0.3-0.1-0.4-0.1V0.6h3.1v0.1
			c-0.3,0-0.5,0.1-0.6,0.3c-0.1,0.2-0.2,0.4-0.2,0.6c0,0.2,0,0.4,0.1,0.7l2.1,7.5h0l2.3-7.5L140,1.9c-0.1-0.3-0.2-0.6-0.4-0.8
			s-0.5-0.4-0.8-0.4V0.6h3.2v0.1c-0.4,0-0.6,0.1-0.7,0.3c-0.1,0.2-0.2,0.4-0.2,0.6c0,0.2,0,0.4,0.1,0.7l2.1,7.5h0l2.1-7
			c0.1-0.2,0.1-0.4,0.2-0.7s0.1-0.5,0.1-0.6c0-0.3-0.1-0.6-0.2-0.6c-0.1-0.1-0.3-0.1-0.6-0.2V0.6H147.2z"/>
		<path fill="#313233" d="M151,0.6v0.1c-0.3,0-0.6,0.1-0.8,0.3S150,1.5,150,1.9v8.5c0,0.4,0.1,0.7,0.3,0.9s0.5,0.3,0.7,0.3v0.1h-3.2
			v-0.1c0.3,0,0.5-0.1,0.7-0.3c0.2-0.2,0.3-0.5,0.3-0.9V1.9c0-0.5-0.1-0.8-0.3-1c-0.2-0.2-0.5-0.3-0.7-0.3V0.6H151z"/>
		<path fill="#313233" d="M160.6,2.7h-0.1c0-0.7-0.2-1.2-0.6-1.4c-0.3-0.2-0.7-0.3-1.2-0.3h-2v9.4c0,0.8,0.4,1.2,1.1,1.2v0.1h-3.2
			v-0.1c0.3,0,0.5-0.1,0.8-0.3c0.2-0.2,0.3-0.5,0.3-0.9V1h-2c-0.5,0-0.9,0.1-1.2,0.3c-0.3,0.2-0.5,0.7-0.6,1.4h-0.1V0h0.1
			c0.1,0.1,0.1,0.2,0.2,0.3c0.1,0.1,0.1,0.1,0.2,0.2c0.1,0,0.2,0.1,0.3,0.1s0.3,0,0.4,0h6.5c0.4,0,0.8-0.2,1-0.6h0.1V2.7z"/>
		<path fill="#313233" d="M167.9,1h-4.8c-0.4,0-0.7,0-1,0.1c-0.2,0.1-0.4,0.3-0.6,0.5c-0.1,0.2-0.3,0.6-0.3,1h-0.1v-2h8.2v0.2
			l-6.9,10.5h4.8c0.5,0,0.9-0.1,1.2-0.2c0.3-0.1,0.5-0.3,0.6-0.5c0.1-0.2,0.3-0.5,0.4-0.8h0.1l-0.5,1.9H161v-0.2L167.9,1z"/>
	</g>
</g>
</svg>
