<?xml version="1.0" encoding="utf-8"?>
<!-- Generator: Adobe Illustrator 18.0.0, SVG Export Plug-In . SVG Version: 6.00 Build 0)  -->
<!DOCTYPE svg PUBLIC "-//W3C//DTD SVG 1.1//EN" "http://www.w3.org/Graphics/SVG/1.1/DTD/svg11.dtd">
<svg version="1.1" xmlns="http://www.w3.org/2000/svg" xmlns:xlink="http://www.w3.org/1999/xlink" x="0px" y="0px" width="169.3px"
	 height="68.6px" viewBox="0 0 169.3 68.6" enable-background="new 0 0 169.3 68.6" xml:space="preserve">
<g id="Layer_1">
</g>
<g id="_x34_._Our_Team">
	<g>
		<g>
			<rect x="0" y="0" fill="#01405C" width="169.3" height="68.6"/>
			<rect x="12.5" y="12.5" fill="#EEEDED" width="52.2" height="43.7"/>
		</g>
		<g>
			<path fill="#EEEDED" d="M83.5,29.2c0,1.1-0.3,2-0.9,2.7c-0.8,1-2.1,1.5-3.8,1.5h-5.6v-15h5.2c2.5,0,3.8,1.3,3.8,3.9
				c0,0.8-0.1,1.4-0.4,2c-0.2,0.4-0.6,0.8-1.1,1.1c1.1,0.2,1.8,0.7,2.2,1.4C83.4,27.6,83.5,28.4,83.5,29.2L83.5,29.2z M79,22.9
				c0-0.7-0.3-1.1-0.8-1.4c-0.2-0.1-0.5-0.1-0.8-0.1h-0.6v2.9h0.6c0.6,0,1-0.2,1.3-0.5C78.9,23.6,79,23.3,79,22.9L79,22.9z M80,29
				c0-0.9-0.4-1.4-1.2-1.5c-0.3,0-0.7-0.1-1.3-0.1h-0.7v3.2h0.8c0.9,0,1.5-0.1,1.9-0.4C79.8,29.9,80,29.5,80,29L80,29z M100.2,26
				c0,2-0.6,3.8-1.8,5.4C96.9,33.2,95,34,92.7,34c-2.4,0-4.3-0.9-5.6-2.6c-1.2-1.5-1.8-3.3-1.8-5.4c0-0.9,0.2-1.9,0.5-2.9
				c0.3-1,0.8-1.8,1.3-2.5c1.4-1.8,3.3-2.6,5.7-2.6s4.3,0.9,5.7,2.6C99.5,22.2,100.2,24,100.2,26L100.2,26z M96.5,26
				c0-1.1-0.3-2-0.9-2.7c-0.8-1-1.8-1.5-2.9-1.5c-0.8,0-1.5,0.3-2.2,0.8c-0.7,0.5-1.1,1.2-1.4,2c-0.2,0.5-0.2,1-0.2,1.5
				c0,1,0.3,1.9,0.9,2.7c0.8,1,1.7,1.5,2.9,1.5c1.2,0,2.2-0.5,2.9-1.5C96.2,28,96.5,27.1,96.5,26L96.5,26z M121.5,18.5l-6.2,15
				l-4.2-8.7l-4.2,8.7l-6-15h3.7l2.3,7l4.3-7l4.1,7l2.6-7L121.5,18.5z M130.6,33.5H123v-15h7.7v3.3h-4.2v2.6h4v3.3h-4v2.7h4.2V33.5
				L130.6,33.5z M144.1,33.5h-4.4l-3.4-5.8v5.8h-3.5v-15h5.5c1.6,0,2.8,0.5,3.5,1.6c0.6,0.9,0.9,1.9,0.9,3c0,1.3-0.4,2.4-1.1,3.2
				c-0.5,0.5-1.1,0.9-1.9,1.1L144.1,33.5L144.1,33.5z M139.2,23.3c0-0.5-0.2-1-0.5-1.3c-0.3-0.3-0.9-0.5-1.6-0.5h-0.7v3.7h0.7
				c0.7,0,1.3-0.2,1.6-0.5C139,24.3,139.2,23.9,139.2,23.3z M157.4,18.5l-5.1,7.8v7.2h-3.5v-7.2l-4.9-7.8h4.2l2.6,4.1l2.5-4.1
				L157.4,18.5z M85.4,49.7c-1.2,0.6-2.7,0.8-4.5,0.8c-2.3,0-4.2-0.7-5.6-2s-2.1-3-2.1-5.1c0-2.3,0.8-4.1,2.4-5.5
				c1.6-1.4,3.6-2.1,6-2.1c1.6,0,2.9,0.2,3.9,0.6v1.8c-1.2-0.6-2.5-0.9-3.9-0.9c-1.9,0-3.4,0.5-4.6,1.6c-1.2,1.1-1.8,2.6-1.8,4.4
				c0,1.7,0.5,3.1,1.6,4.2c1.1,1,2.5,1.5,4.3,1.5c1.7,0,3.1-0.3,4.3-1L85.4,49.7L85.4,49.7z M101.5,50.3h-2.1l-1.7-4h-7l-1.6,4h-2.1
				L94.1,36L101.5,50.3z M97,44.8L94.1,39c-0.2,0.4-2.8,5.8-2.8,5.8H97z M105.8,44.9v5.4h-1.9V36h4.5c1.8,0,3.1,0.4,4.1,1.1
				c1,0.7,1.5,1.8,1.5,3.1c0,1.4-0.5,2.5-1.6,3.3c-1.1,0.9-2.5,1.3-4.4,1.3L105.8,44.9L105.8,44.9z M105.8,37.5v5.9h2
				c1.3,0,2.3-0.3,3-0.8c0.7-0.5,1.1-1.3,1.1-2.2c0-1.9-1.3-2.8-3.9-2.8L105.8,37.5L105.8,37.5z M119,50.3h-1.9V36h1.9V50.3z
				 M133,37.5h-4.8v12.8h-1.9V37.5h-4.7V36H133L133,37.5L133,37.5z M146.6,50.3h-2.1l-1.7-4h-7l-1.6,4H132l6.3-14.3h2L146.6,50.3z
				 M142.1,44.8l-2.6-6.1c-0.1-0.2-0.2-0.5-0.3-1h0c-0.1,0.4-0.2,0.7-0.3,1l-2.6,6.1H142.1z M157.6,50.3H149V36h1.9v12.8h6.6
				L157.6,50.3L157.6,50.3z"/>
		</g>
		<g>
			<path fill="#01405C" d="M33,32.8c4.4,0.6,7.9,2.5,7.9,6.8c0,2.9-1.6,5.1-4.2,6.5c-2.2,1.2-5.3,1.7-8.8,1.7H18v-1.2
				c3.8-0.3,4.1-0.5,4.1-4.1V25.3c0-3.6-0.2-3.8-3.7-4.1V20h11.6c3.4,0,5.3,0.5,6.7,1.5c1.6,1,2.5,2.9,2.5,4.9
				C39.1,30.4,35.6,32,33,32.8L33,32.8L33,32.8z M28,32.3c4.8,0,6.8-1.8,6.8-5.4c0-3-1.7-5.5-5.8-5.5c-1.1,0-2,0.2-2.5,0.5
				C26.1,22.1,26,22.6,26,24v8.3L28,32.3L28,32.3z M26,42.3c0,3.1,0.9,3.9,3.7,3.9c3.5,0,6.7-1.8,6.7-6.3c0-4.3-3.1-6.3-8.5-6.3H26
				V42.3z"/>
			
				<rect x="50.4" y="18" transform="matrix(0.8776 0.4793 -0.4793 0.8776 22.4582 -20.4208)" fill="#01405C" width="1.7" height="31.6"/>
		</g>
	</g>
</g>
</svg>
