<?xml version="1.0" encoding="utf-8"?>
<!-- Generator: Adobe Illustrator 18.0.0, SVG Export Plug-In . SVG Version: 6.00 Build 0)  -->
<!DOCTYPE svg PUBLIC "-//W3C//DTD SVG 1.1//EN" "http://www.w3.org/Graphics/SVG/1.1/DTD/svg11.dtd">
<svg version="1.1" xmlns="http://www.w3.org/2000/svg" xmlns:xlink="http://www.w3.org/1999/xlink" x="0px" y="0px" width="169.1px"
	 height="58.6px" viewBox="0 0 169.1 58.6" enable-background="new 0 0 169.1 58.6" xml:space="preserve">
<g id="Layer_1">
</g>
<g id="_x34_._Our_Team">
	<g>
		<path fill="#48A94A" d="M144.3,29.6c0,0,3.4-11,13.9-14.4c5.1-1.6,8.4-1.3,10.1,1.6c0.4,0.9,0,3.3,0,3.3h-0.7c0,0-1-3.7-9.1,0
			c-3.5,2-8.7,7.2-10.3,13.9c-0.4,2.7,0,3.8,4.2,4.3C150.2,39.2,142.6,40.6,144.3,29.6L144.3,29.6z"/>
		<path fill="#157ABA" d="M168.2,16.8c-0.5,2.3-0.7,4.8-5.3,4.1c-4.7-1.4-12.2-5.1-14.4-14c-0.4-3.1,0.3-4.6,1.1-5.5l-0.5-0.8
			c0,0-1.3-0.2-2.6,0.4c-1.5,0.8-3,2.8-2.5,7.8c0.5,3.6,4.8,10.5,13.3,15c2.8,1.1,8.8,2.9,11.1-1.7
			C170.1,18.9,168.3,17.1,168.2,16.8L168.2,16.8z"/>
		<path fill="#E2203A" d="M148.3,11.9c0,0,2.1-2.2,2.4-5.7s-0.8-5.4-4.1-5.1c1.4-0.8,2.4-1.7,5.5-0.5s3.9,6.3,1.5,11.3
			s-4.7,7.4-8.4,10c-0.5,0.6-5.9,4.7-12.7,2.5c-1.1-0.5-2.2-2.1-2.6-4c0.9-1.9,1.5-1.2,1.5-1.2s2,4,9.8-0.1
			C143.6,17.4,146.5,14.8,148.3,11.9L148.3,11.9z"/>
		<path fill="#F8BD2C" d="M130.6,22.5c0,0-2.6-4.2,1.6-7.6s14.7,3,17.4,5.8s8.9,14.2,2.7,17.6c-2.3-0.4-2.8-0.6-2.8-0.6
			s3-2.2-0.4-8.7l-2.1-3.4c0,0-3-5-10.3-6.8C134.5,18.2,130.7,18,130.6,22.5z"/>
		<path fill="#48A94A" d="M153.8,23.8c0,0-4.1,5-4.9,7.6c-2.8-4.6-3-5.4-3-5.4s3.2-4.7,4.4-5.9C151.8,21.9,153.8,23.8,153.8,23.8z"
			/>
		<path fill="#17532C" d="M160.8,19.1c0,0-3.7-1.2-5.6-2.7l-0.5,0.3c0,0,2.8,2.1,4.7,2.9C160.3,19.3,160.8,19.1,160.8,19.1z"/>
		<path fill="#174372" d="M148.9,8.4c0,0-1.5,4.3-2.8,5.5l0.3,0.5c0,0,2.3-2.4,3.1-4.4C149.2,9.1,148.9,8.4,148.9,8.4z"/>
		<path fill="#174372" d="M148.6,3c0,0,0.2-2-2.3-1.8c0.7-0.1,1.4-0.5,3,0.5C148.9,2.6,148.6,3,148.6,3z"/>
		<path fill="#801521" d="M138.4,20.3c0,0,2.8,0.2,5.5,2.5l0.4-0.3c0,0-2.5-2.1-4.5-2.8C139.1,20,138.4,20.3,138.4,20.3z"/>
		<path fill="#801521" d="M132.5,20.2c0,0-1.8,0.3-1.7,2.6c-0.2-0.3-0.5-1.8,0.8-3.3C132,19.8,132.5,20.2,132.5,20.2L132.5,20.2z"/>
		<path fill="#8E712C" d="M150.2,36.8c0,0,0.1,1.5,2.4,1.3c-1.3,0.3-1.5,0.3-3.1-0.4L150.2,36.8z"/>
		<path fill="#8E712C" d="M150.2,31.3c0,0,0.7-3.6,2.8-5.5l-0.3-0.6c0,0-2.8,4-3.1,4.7C149.9,30.4,150.2,31.3,150.2,31.3z"/>
		<g>
			<path fill="#282828" d="M12.3,22.2v2.2L9.7,25c-0.9,0.2-1.9,0.3-2.9,0.3c-2.3,0-4-0.7-5.2-2.2c-1-1.2-1.5-2.6-1.5-4.3
				c0-1.8,0.6-3.4,1.9-4.6c1.4-1.4,3.1-2,5.3-2c0.9,0,1.8,0.1,2.7,0.4c0.8,0.2,1.6,0.6,2.4,1.1l-1.5,1.4l-0.6,0.1l0.4-0.7
				c-1.2-1.1-2.4-1.7-3.8-1.7c-1.4,0-2.6,0.5-3.5,1.5c-0.9,1-1.4,2.2-1.4,3.8c0,1.8,0.6,3.3,1.7,4.5c1.2,1.3,2.7,2,4.6,2
				c0.8,0,1.5-0.1,2.3-0.4v-2.9l-2.7,0.1l1.4-0.8h3.8l-0.5,0.4c-0.1,0.1-0.2,0.2-0.2,0.3C12.3,21.6,12.3,21.9,12.3,22.2z M22.9,20.9
				c0,1.1-0.4,2.1-1.2,3c-0.9,0.9-2,1.4-3.3,1.4c-1.3,0-2.4-0.5-3.2-1.4c-0.7-0.8-1.1-1.8-1.1-2.8c0-1.2,0.4-2.2,1.3-3.1
				c0.9-0.8,2-1.3,3.3-1.3c1.3,0,2.3,0.4,3.1,1.3C22.5,18.9,22.9,19.8,22.9,20.9z M18.8,24.7c0.8,0,1.4-0.3,1.8-0.9
				c0.4-0.5,0.5-1.1,0.5-2c0-1-0.2-2-0.6-2.9c-0.6-1.1-1.3-1.7-2.3-1.7c-0.6,0-1.2,0.2-1.6,0.6c-0.5,0.5-0.8,1.2-0.8,2.2
				c0,1.1,0.2,2.1,0.7,3C17,24.2,17.8,24.7,18.8,24.7z M32.9,20.9c0,1.1-0.4,2.1-1.2,3c-0.9,0.9-2,1.4-3.3,1.4
				c-1.3,0-2.4-0.5-3.2-1.4c-0.7-0.8-1.1-1.8-1.1-2.8c0-1.2,0.4-2.2,1.3-3.1c0.9-0.8,2-1.3,3.3-1.3c1.3,0,2.3,0.4,3.1,1.3
				C32.5,18.9,32.9,19.8,32.9,20.9z M28.8,24.7c0.8,0,1.4-0.3,1.8-0.9c0.4-0.5,0.5-1.1,0.5-2c0-1-0.2-2-0.6-2.9
				c-0.6-1.1-1.3-1.7-2.3-1.7c-0.6,0-1.2,0.2-1.6,0.6c-0.5,0.5-0.8,1.2-0.8,2.2c0,1.1,0.2,2.1,0.7,3C27,24.2,27.8,24.7,28.8,24.7z
				 M40.8,17.6h-1.1c0.8,0.7,1.3,1.5,1.3,2.4c0,0.6-0.2,1.1-0.5,1.5c-0.2,0.3-0.5,0.6-1,1c-0.3,0.3-0.5,0.6-0.5,0.9
				c0,0.3,0.2,0.5,0.5,0.8l0.6,0.5c0.5,0.4,0.8,0.7,1.1,1c0.3,0.4,0.4,0.9,0.4,1.5c0,0.9-0.4,1.7-1.2,2.3c-0.9,0.7-2,1.1-3.5,1.1
				c-1.2,0-2.2-0.3-2.9-0.8C33.4,29.3,33,28.7,33,28c0-0.9,0.5-1.6,1.4-2.2c0.7-0.4,1.9-0.7,3.4-0.8c-0.4-0.5-0.5-0.9-0.5-1.2
				c0-0.2,0.1-0.4,0.2-0.7h-0.6c-0.9,0-1.6-0.3-2.2-0.9c-0.5-0.5-0.8-1.2-0.8-1.9c0-0.9,0.4-1.7,1.1-2.4c0.8-0.6,1.8-1,3.2-1h3.7
				L40.8,17.6L40.8,17.6z M40.4,27.9c0-0.4-0.2-0.8-0.5-1.2c-0.2-0.3-0.7-0.7-1.5-1.2c-0.1,0-0.2,0-0.4,0c-0.7,0-1.3,0.1-1.9,0.3
				c-1,0.4-1.5,1-1.5,1.8c0,0.6,0.3,1.2,0.9,1.6c0.6,0.4,1.3,0.6,2.3,0.6c0.8,0,1.5-0.2,2-0.6C40.1,28.9,40.4,28.4,40.4,27.9z
				 M37.7,22.6c0.5,0,0.9-0.2,1.2-0.5c0.3-0.3,0.4-0.7,0.4-1.3c0-0.7-0.2-1.5-0.6-2.1c-0.4-0.8-1-1.2-1.7-1.2
				c-0.6,0-1.1,0.3-1.4,0.8c-0.2,0.3-0.3,0.7-0.3,1.1c0,0.7,0.2,1.4,0.5,2C36.5,22.3,37,22.6,37.7,22.6z M46.7,24.7L46,25h-3.2
				c0.3-0.4,0.5-0.7,0.5-0.9v-2.9c0-1.6,0-3.4,0.1-5.2c0-0.7,0.1-1.6,0.1-2.9h-1.4l1.3-0.6H46c-0.3,0.2-0.5,0.3-0.6,0.4
				c-0.1,0.1-0.2,0.3-0.2,0.6c-0.1,1-0.2,3-0.2,6.1v4.1c0,0.3,0,0.5,0.1,0.6c0.1,0.1,0.3,0.2,0.6,0.2C46,24.6,46.3,24.6,46.7,24.7
				L46.7,24.7z M54.4,23.8l-0.9,0.9c-0.2,0.1-0.6,0.3-1.2,0.5c-0.3,0.1-0.7,0.1-1.1,0.1c-0.9,0-1.7-0.2-2.4-0.7
				c-0.6-0.4-1.1-1-1.4-1.7c-0.3-0.7-0.4-1.3-0.4-2c0-1.3,0.5-2.3,1.4-3.1c0.8-0.7,1.7-1,2.7-1c0.7,0,1.3,0.2,1.8,0.5
				c0.6,0.4,1,1,1.2,1.8L50,20.7l-1.4,0.1c0.2,1.1,0.7,2,1.4,2.6c0.7,0.6,1.4,0.9,2.3,0.9C52.9,24.4,53.6,24.2,54.4,23.8L54.4,23.8z
				 M48.6,20.8l3.2-1.4c0.3-0.2,0.5-0.3,0.5-0.5c0-0.4-0.2-0.7-0.5-1c-0.4-0.3-0.8-0.5-1.2-0.5c-0.5,0-0.9,0.2-1.3,0.5
				c-0.5,0.5-0.8,1.1-0.8,2L48.6,20.8z"/>
		</g>
		<g>
			<path fill="#282828" d="M4.2,37.9h2.4l5.6,17.7h0.1l5.5-17.7h2.2L13.4,58h-2.3L4.2,37.9z M23.5,48.6c0,3.6,1.7,7.9,5.9,7.9
				c3.2,0,4.9-2.1,5.6-5.2h2.2c-0.9,4.6-3.3,7.2-7.8,7.2c-5.7,0-8.1-4.9-8.1-10.7c0-5.3,2.4-10.7,8.1-10.7c5.7,0,8,5.7,7.8,11.3
				L23.5,48.6L23.5,48.6z M35,46.6c-0.1-3.7-2.1-7.2-5.7-7.2c-3.6,0-5.5,3.5-5.9,7.2H35z M40.1,37.9h2.2v3.5h0.1
				c0.8-2.4,3.2-4.1,5.7-4.1c5,0,6.5,3,6.5,7.8v13h-2.2V45.5c0-3.5-1-6.1-4.5-6.1c-3.5,0-5.5,3-5.6,6.9V58h-2.2L40.1,37.9L40.1,37.9
				z M62.2,37.9h3.6V40h-3.6v13.6c0,1.6,0.2,2.5,1.8,2.7c0.6,0,1.2,0,1.9-0.1v2.1l-1.9,0.1c-2.9,0-3.9-1.1-3.9-4.5V40h-3.1v-2.1H60
				v-6.1h2.2V37.9z M83.4,58h-2v-3.6h-0.1c-1.1,2.7-3.5,4.2-6.2,4.2c-4.5,0-6.3-3-6.3-7.7V37.9h2.2V51c0.1,3.6,1.3,5.5,4.8,5.5
				c3.7,0,5.4-4,5.4-8.1V37.9h2.2V58L83.4,58z M87.5,37.9h2v4.7h0.1c1.1-3.2,3.5-5.2,6.7-5v2.5c-3.9-0.2-6.6,3-6.6,7.2V58h-2.2
				L87.5,37.9L87.5,37.9z M99,48.6c0,3.6,1.7,7.9,5.9,7.9c3.2,0,4.9-2.1,5.6-5.2h2.2c-0.9,4.6-3.3,7.2-7.8,7.2
				c-5.7,0-8.1-4.9-8.1-10.7c0-5.3,2.4-10.7,8.1-10.7c5.7,0,8,5.7,7.8,11.3L99,48.6L99,48.6z M110.6,46.6c-0.1-3.7-2.1-7.2-5.7-7.2
				c-3.6,0-5.5,3.5-5.9,7.2H110.6L110.6,46.6z M126.4,43.8c-0.1-3-2.2-4.4-4.7-4.4c-1.9,0-4.2,0.9-4.2,3.5c0,2.2,2.2,3,3.7,3.4
				l2.9,0.7c2.5,0.4,5.1,2.1,5.1,5.6c0,4.4-3.8,6.1-7.2,6.1c-4.1,0-7-2.2-7.3-7.1h2.2c0.2,3.3,2.4,5,5.3,5c2,0,4.9-1,4.9-3.8
				c0-2.3-1.9-3.1-3.9-3.7l-2.8-0.7c-2.8-0.9-5-2-5-5.4c0-4.1,3.6-5.7,6.7-5.7c3.6,0,6.4,2.1,6.5,6.5L126.4,43.8L126.4,43.8z"/>
		</g>
	</g>
</g>
</svg>
