<?xml version="1.0" encoding="utf-8"?>
<!-- Generator: Adobe Illustrator 18.0.0, SVG Export Plug-In . SVG Version: 6.00 Build 0)  -->
<!DOCTYPE svg PUBLIC "-//W3C//DTD SVG 1.1//EN" "http://www.w3.org/Graphics/SVG/1.1/DTD/svg11.dtd">
<svg version="1.1" xmlns="http://www.w3.org/2000/svg" xmlns:xlink="http://www.w3.org/1999/xlink" x="0px" y="0px" width="51.6px"
	 height="72.4px" viewBox="0 0 51.6 72.4" enable-background="new 0 0 51.6 72.4" xml:space="preserve">
<g id="Layer_1">
</g>
<g id="_x34_._Our_Team">
	<g>
		<circle fill="none" stroke="#724821" stroke-miterlimit="10" cx="25.8" cy="25.8" r="22.9"/>
		<circle fill="none" stroke="#724821" stroke-miterlimit="10" cx="25.8" cy="25.8" r="25.3"/>
		<path fill="none" stroke="#724821" stroke-miterlimit="10" d="M28,29.7c0,0,2.8-3.7,0.7-6.3S21.6,16,21.6,16s0.9-6.7-5.6-5.1
			c0,0,1,1.9,1.6,2.1c0.6,0.1,0.9,0.9-0.1,1.7c-0.4,0.3-1.2,0.4-1.7-0.8c-0.6-0.7-1.8-1.6-1.8-1.6s-1.2,3.1,0.4,4.7
			c1.6,1.6,2.7,1.2,4.6,1.4c1.5,1.6,5.6,5.5,5.6,5.5s1.1,1.2,1.3,2.4c0.1,0.3-0.4,0.8-0.4,1"/>
		<path fill="none" stroke="#724821" stroke-miterlimit="10" d="M22.9,22.4c0,0-3.3,4.5-0.5,7.3c2.2,2.2,5,4.7,6.1,5.7
			c0.6,0.6,0.4,1.4,0.4,1.4"/>
		<path fill="none" stroke="#724821" stroke-miterlimit="10" d="M31.3,32.9l-5.9-5.6c0,0-0.6-0.4,0.3-1.8"/>
		<line fill="none" stroke="#724821" stroke-miterlimit="10" x1="25.4" y1="19.7" x2="29.1" y2="15.5"/>
		<circle fill="none" stroke="#724821" stroke-miterlimit="10" cx="33.3" cy="37.5" r="1.8"/>
		<circle fill="none" stroke="#724821" stroke-miterlimit="10" cx="17.5" cy="37.5" r="1.8"/>
		<path fill="none" stroke="#724821" stroke-miterlimit="10" d="M22.1,29.7l-3,2.9c0,0-0.1,0.1-0.6,0.6c-0.5,0.4-3-0.2-4.3,2.1
			c-1.3,2.3-0.1,4.1,0.5,4.9c0.6,0.8,2.4,1.7,4.4,1c1.5-0.6,2.5-1.7,2.4-3.8c0-0.5,0-0.8,0-1c0-0.5,3.2-3.3,3.9-4"/>
		<line fill="none" stroke="#724821" stroke-miterlimit="10" x1="32.3" y1="18.6" x2="28.4" y2="22.6"/>
		<path fill="none" stroke="#724821" stroke-miterlimit="10" d="M28.9,15.3l3.6,3.2c0,0,0.8,0.2,1.7-0.6c0.9-0.9,2.5-2.6,2.5-2.6
			s0.4-1.1-0.4-1.9c-0.8-0.8-2.7-2.3-2.7-2.3s-0.6-0.7-1.8,0.4c-1.2,1.1-2.9,2.8-2.9,2.8S28.2,14.7,28.9,15.3z"/>
		<path fill="none" stroke="#724821" stroke-miterlimit="10" d="M38.2,17.4l-3,2.7c0,0-0.2,0.7,0.3,1.2c0.5,0.5,0.4,1.2,1.3,0.3
			l3.4-3.1C40.2,18.6,39.4,17.4,38.2,17.4z"/>
		<line fill="none" stroke="#724821" stroke-miterlimit="10" x1="36.4" y1="16.2" x2="37.8" y2="17.4"/>
		<line fill="none" stroke="#724821" stroke-miterlimit="10" x1="35.4" y1="19.7" x2="33.8" y2="18.2"/>
		<path fill="none" stroke="#724821" stroke-miterlimit="10" d="M30.7,12.5c0,0-0.5-1.7-1.6-2.3c-1.1,0-2.1-1-1.9-1.8
			c0.2-0.7,2-0.8,2.6-0.5c0.7,0.4,2.6,1.6,2.8,3"/>
		<path fill="none" stroke="#724821" stroke-miterlimit="10" d="M29,36.4c0,0-0.7,2.4,1,3.9c1.7,1.5,3.2,1.9,5.1,1.1
			c1.9-0.7,2.5-2.8,2.5-2.9c0-0.1,0.7-2.4-0.9-3.9c-1.6-1.5-2.8-1.6-3.8-1.6s-1.2,0.3-1.7-0.3L30,31.7"/>
		<g>
			<path fill="#724821" d="M1.2,63.8v-7h1.4v2.8h2.7v-2.8h1.4v7H5.3v-3.1H2.6v3.1H1.2z M14.2,63.8h-1.5l-0.6-1.6H9.4l-0.6,1.6H7.4
				l2.7-7h1.5L14.2,63.8z M11.7,61l-0.9-2.6L9.8,61H11.7z M14.9,63.8v-7h2.9c0.7,0,1.3,0.1,1.6,0.2c0.3,0.1,0.6,0.3,0.8,0.7
				c0.2,0.3,0.3,0.7,0.3,1.1c0,0.5-0.2,1-0.5,1.3c-0.3,0.3-0.7,0.6-1.3,0.6c0.3,0.2,0.5,0.4,0.7,0.6c0.2,0.2,0.5,0.6,0.8,1.1
				l0.8,1.4h-1.6l-1-1.5c-0.4-0.5-0.6-0.9-0.7-1c-0.1-0.1-0.3-0.2-0.4-0.3c-0.1-0.1-0.4-0.1-0.7-0.1h-0.3v2.9L14.9,63.8L14.9,63.8z
				 M16.3,59.8h1c0.7,0,1.1,0,1.2-0.1c0.2-0.1,0.3-0.2,0.4-0.3s0.1-0.3,0.1-0.5c0-0.2-0.1-0.4-0.2-0.6c-0.1-0.1-0.3-0.2-0.5-0.3
				c-0.1,0-0.4,0-1,0h-1.1L16.3,59.8L16.3,59.8z M21.8,63.8v-7h2.9c0.7,0,1.3,0.1,1.6,0.2c0.3,0.1,0.6,0.3,0.8,0.7
				c0.2,0.3,0.3,0.7,0.3,1.1c0,0.5-0.2,1-0.5,1.3c-0.3,0.3-0.7,0.6-1.3,0.6c0.3,0.2,0.5,0.4,0.7,0.6c0.2,0.2,0.5,0.6,0.8,1.1
				l0.8,1.4h-1.6l-1-1.5c-0.4-0.5-0.6-0.9-0.7-1c-0.1-0.1-0.3-0.2-0.4-0.3c-0.1-0.1-0.4-0.1-0.7-0.1h-0.3v2.9L21.8,63.8L21.8,63.8z
				 M23.2,59.8h1c0.7,0,1.1,0,1.2-0.1c0.2-0.1,0.3-0.2,0.4-0.3s0.1-0.3,0.1-0.5c0-0.2-0.1-0.4-0.2-0.6c-0.1-0.1-0.3-0.2-0.5-0.3
				c-0.1,0-0.4,0-1,0h-1.1L23.2,59.8L23.2,59.8z M28.6,63.8v-7H30v7H28.6z M31,61.5l1.3-0.1c0.1,0.5,0.2,0.8,0.5,1
				c0.2,0.2,0.6,0.3,1,0.3c0.4,0,0.8-0.1,1-0.3c0.2-0.2,0.3-0.4,0.3-0.7c0-0.2,0-0.3-0.1-0.4c-0.1-0.1-0.3-0.2-0.5-0.3
				c-0.2-0.1-0.5-0.2-1.1-0.3c-0.7-0.2-1.3-0.4-1.6-0.7c-0.4-0.4-0.6-0.9-0.6-1.4c0-0.4,0.1-0.7,0.3-1c0.2-0.3,0.5-0.5,0.9-0.7
				s0.8-0.2,1.3-0.2c0.9,0,1.5,0.2,1.9,0.6c0.4,0.4,0.7,0.9,0.7,1.5l-1.4,0.1c-0.1-0.4-0.2-0.6-0.4-0.8c-0.2-0.2-0.5-0.2-0.9-0.2
				c-0.4,0-0.7,0.1-0.9,0.3c-0.1,0.1-0.2,0.3-0.2,0.4c0,0.2,0.1,0.3,0.2,0.4c0.2,0.1,0.6,0.3,1.3,0.5c0.7,0.2,1.2,0.3,1.5,0.5
				c0.3,0.2,0.6,0.4,0.8,0.7c0.2,0.3,0.3,0.7,0.3,1.1c0,0.4-0.1,0.8-0.3,1.1c-0.2,0.4-0.5,0.6-0.9,0.8c-0.4,0.2-0.9,0.3-1.5,0.3
				c-0.9,0-1.5-0.2-2-0.6C31.3,62.9,31.1,62.3,31,61.5L31,61.5z M37.4,60.4c0-0.7,0.1-1.3,0.3-1.8c0.2-0.4,0.4-0.7,0.6-1
				c0.3-0.3,0.6-0.5,0.9-0.6c0.4-0.2,0.9-0.3,1.5-0.3c1,0,1.8,0.3,2.4,1c0.6,0.6,0.9,1.5,0.9,2.7c0,1.1-0.3,2-0.9,2.7
				c-0.6,0.6-1.4,1-2.4,1c-1,0-1.8-0.3-2.4-1C37.7,62.3,37.4,61.5,37.4,60.4L37.4,60.4z M38.8,60.3c0,0.8,0.2,1.4,0.5,1.8
				c0.4,0.4,0.8,0.6,1.4,0.6c0.5,0,1-0.2,1.4-0.6c0.4-0.4,0.5-1,0.5-1.8c0-0.8-0.2-1.4-0.5-1.8c-0.3-0.4-0.8-0.6-1.4-0.6
				s-1,0.2-1.4,0.6S38.8,59.5,38.8,60.3z M45.1,63.8v-7h1.3l2.8,4.7v-4.7h1.3v7h-1.4l-2.7-4.6v4.6H45.1z"/>
		</g>
		<path fill="#724821" d="M10.4,72.4v-5h2.4l0.4,2.1l0,0.2l0,0.4l0,0.3l0,0.3l0-0.3l0-0.3l0-0.4c0-0.1,0-0.2,0-0.2l0.4-2.1h2.4v5
			h-1.5v-2.4l0.1-0.7v-0.7l-0.1,0.3l-0.1,0.4l-0.1,0.7l-0.6,2.4h-1.5L12.1,70l0-0.1L12,69.3L11.9,69l-0.1-0.4l0,0.7l0,0.7v2.4
			L10.4,72.4z"/>
		<path fill="#724821" d="M18.9,72.4v-5h3.4v1.2h-1.7v0.7h1.6v1.2h-1.6v0.7h1.7v1.2L18.9,72.4L18.9,72.4z"/>
		<path fill="#724821" d="M24.9,68.7v-1.2h3.5v1.2h-1v3.7h-1.6v-3.7H24.9z"/>
		<path fill="#724821" d="M30.3,72.4l1-5h2.5l1,5h-1.7L33,71.6h-0.8L32,72.4H30.3z M32.7,69.2l-0.1-0.4l0-0.2l0-0.2l0,0.2l0,0.2
			l-0.1,0.4l-0.3,1.3h0.7L32.7,69.2L32.7,69.2z"/>
		<path fill="#724821" d="M37.3,72.4v-5H39v3.7h1.4v1.2L37.3,72.4L37.3,72.4z"/>
	</g>
</g>
</svg>
