<?xml version="1.0" encoding="utf-8"?>
<!-- Generator: Adobe Illustrator 18.0.0, SVG Export Plug-In . SVG Version: 6.00 Build 0)  -->
<!DOCTYPE svg PUBLIC "-//W3C//DTD SVG 1.1//EN" "http://www.w3.org/Graphics/SVG/1.1/DTD/svg11.dtd">
<svg version="1.1" xmlns="http://www.w3.org/2000/svg" xmlns:xlink="http://www.w3.org/1999/xlink" x="0px" y="0px" width="87.7px"
	 height="71.7px" viewBox="0 0 87.7 71.7" enable-background="new 0 0 87.7 71.7" xml:space="preserve">
<g id="Layer_1">
</g>
<g id="_x34_._Our_Team">
	<g>
		<g>
			<path fill="#58585A" d="M31.1,52.5c0-2.8-0.6-4.9-1.9-6.5c-1.3-1.5-3.5-3.1-6.8-4.6c-7-2.6-12.3-5.4-15.7-8.5
				c-3.4-3.1-5.1-7.6-5.1-13.5c0-5.8,2-10.5,6-14c4-3.5,9.2-5.3,15.6-5.3s11.6,2,15.5,6s5.9,9.1,5.9,15.5H31.2
				c0-3.3-0.7-5.9-2.1-7.8c-1.4-1.9-3.5-2.9-6.2-2.9c-2.6,0-4.5,0.8-5.9,2.4c-1.4,1.6-2.1,3.7-2.1,6.2c0,2.3,0.8,4.2,2.3,5.7
				c1.5,1.5,4.3,3.1,8.2,4.9c6.4,2.3,11.2,5.1,14.3,8.4c3.1,3.3,4.7,8,4.7,14c0,6.2-1.9,10.9-5.6,14.2c-3.8,3.3-8.9,5-15.4,5
				c-6.5,0-12-1.9-16.6-5.7C2.3,62.1,0,56.4,0,48.9h13.4c0,4.4,0.8,7.6,2.4,9.4c1.6,1.8,4.1,2.7,7.7,2.7c2.7,0,4.6-0.7,5.9-2.2
				C30.5,57.2,31.1,55.1,31.1,52.5z"/>
		</g>
		<g>
			<path fill="#58585A" d="M87.7,46c0,3.7,0.1,7.5-0.8,10.9c-0.9,3.8-2.9,7.2-4.9,9.2c-3.8,3.7-9.2,5.6-16.4,5.6
				c-7,0-12.3-2.1-16.1-6.4c-3.7-4.3-5.6-10.6-5.6-19V25.5c0-8.3,1.9-14.6,5.8-18.9c3.8-4.4,9.2-6.5,15.9-6.5
				C72.9,0.1,78.4,2,82,5.8c2.1,2.2,4.2,5.3,5.2,9.8c0.7,3.2,0.5,7.4,0.6,10.7H74.4c0.2-4.4-0.4-10.6-1.7-12.4
				c-1.3-1.8-3.6-2.8-7.1-2.8c-2.9,0-5,1.2-6.4,3.5c-1.4,2.3-2,6-2,11v20.9c0,5.2,0.6,8.9,1.9,11.1c1.3,2.3,3.4,3.4,6.5,3.4
				c3.2,0,5.5-0.9,6.9-2.7c1.4-1.8,2-7.9,1.8-12.2L87.7,46L87.7,46z"/>
		</g>
		<g>
			<rect x="37.6" y="21.4" fill="#00BCE5" width="8.8" height="30.6"/>
			<rect x="26.8" y="32.3" fill="#00BCE5" width="30.6" height="8.8"/>
		</g>
	</g>
</g>
</svg>
