<?xml version="1.0" encoding="utf-8"?>
<!-- Generator: Adobe Illustrator 18.0.0, SVG Export Plug-In . SVG Version: 6.00 Build 0)  -->
<!DOCTYPE svg PUBLIC "-//W3C//DTD SVG 1.1//EN" "http://www.w3.org/Graphics/SVG/1.1/DTD/svg11.dtd">
<svg version="1.1" xmlns="http://www.w3.org/2000/svg" xmlns:xlink="http://www.w3.org/1999/xlink" x="0px" y="0px" width="1440px"
	 height="792px" viewBox="0 0 1440 792" enable-background="new 0 0 1440 792" xml:space="preserve">
<pattern  width="72" height="72" patternUnits="userSpaceOnUse" id="New_Pattern_Swatch_2" viewBox="72.2 -144.2 72 72" overflow="visible">
	<g>
		<polygon fill="none" points="72.2,-144.2 144.2,-144.2 144.2,-72.2 72.2,-72.2 		"/>
		<g>
			<line fill="none" stroke="#FFFFFF" x1="126.2" y1="-72.5" x2="126.2" y2="0"/>
			<line fill="none" stroke="#FFFFFF" x1="90.2" y1="-72.5" x2="90.2" y2="0"/>
		</g>
		<g>
			<line fill="none" stroke="#FFFFFF" x1="144" y1="-126.2" x2="216.5" y2="-126.2"/>
			<line fill="none" stroke="#FFFFFF" x1="144" y1="-90.2" x2="216.5" y2="-90.2"/>
		</g>
		<g>
			<line fill="none" stroke="#FFFFFF" x1="72" y1="-126.2" x2="144.5" y2="-126.2"/>
			<line fill="none" stroke="#FFFFFF" x1="126.2" y1="-144.5" x2="126.2" y2="-72"/>
			<line fill="none" stroke="#FFFFFF" x1="72" y1="-90.2" x2="144.5" y2="-90.2"/>
			<line fill="none" stroke="#FFFFFF" x1="90.2" y1="-144.5" x2="90.2" y2="-72"/>
		</g>
		<g>
			<line fill="none" stroke="#FFFFFF" x1="0" y1="-126.2" x2="72.5" y2="-126.2"/>
			<line fill="none" stroke="#FFFFFF" x1="0" y1="-90.2" x2="72.5" y2="-90.2"/>
		</g>
		<g>
			<line fill="none" stroke="#FFFFFF" x1="126.2" y1="-216.5" x2="126.2" y2="-144"/>
			<line fill="none" stroke="#FFFFFF" x1="90.2" y1="-216.5" x2="90.2" y2="-144"/>
		</g>
	</g>
</pattern>
<g id="Layer_1">
</g>
<g id="_x31_._Home">
	<g id="Hero-_grid">
		<pattern  id="SVGID_1_" xlink:href="#New_Pattern_Swatch_2" patternTransform="matrix(1 0 0 1 -677 244)">
		</pattern>
		<rect y="1.2" opacity="0.13" fill="url(#SVGID_1_)" width="1438.8" height="790.9"/>
	</g>
</g>
</svg>
