<?xml version="1.0" encoding="utf-8"?>
<!-- Generator: Adobe Illustrator 18.0.0, SVG Export Plug-In . SVG Version: 6.00 Build 0)  -->
<!DOCTYPE svg PUBLIC "-//W3C//DTD SVG 1.1//EN" "http://www.w3.org/Graphics/SVG/1.1/DTD/svg11.dtd">
<svg version="1.1" xmlns="http://www.w3.org/2000/svg" xmlns:xlink="http://www.w3.org/1999/xlink" x="0px" y="0px" width="145px"
	 height="30px" viewBox="0 0 145 30" enable-background="new 0 0 145 30" xml:space="preserve">
<g id="Layer_1">
</g>
<g id="Isolation_Mode">
	<g>
		<g>
			<g>
				<path d="M44.1,15.7v6h-3.5V4.7h6.7c1,0,1.9,0.1,2.7,0.4c0.8,0.3,1.5,0.7,2,1.2s1,1.1,1.3,1.8c0.3,0.7,0.4,1.4,0.4,2.3
					c0,0.8-0.1,1.6-0.4,2.2c-0.3,0.7-0.7,1.2-1.3,1.7s-1.2,0.8-2,1.1s-1.7,0.4-2.7,0.4H44.1z M44.1,12.9h3.1c0.5,0,0.9-0.1,1.3-0.2
					c0.4-0.1,0.7-0.3,0.9-0.5c0.2-0.2,0.4-0.5,0.5-0.8c0.1-0.3,0.2-0.7,0.2-1S50.1,9.6,50,9.3c-0.1-0.3-0.3-0.6-0.5-0.9
					c-0.2-0.3-0.5-0.5-0.9-0.6c-0.4-0.2-0.8-0.2-1.3-0.2h-3.1V12.9z"/>
				<path d="M63.4,15.5h-2.8v6.3h-3.5V4.7h6.3c1,0,1.9,0.1,2.7,0.3c0.8,0.2,1.4,0.6,2,1c0.5,0.4,1,1,1.2,1.6
					c0.3,0.6,0.4,1.4,0.4,2.2c0,0.6-0.1,1.2-0.2,1.7c-0.1,0.5-0.3,0.9-0.6,1.3c-0.3,0.4-0.6,0.7-1,1c-0.4,0.3-0.8,0.5-1.3,0.8l3.7,7
					v0.2h-3.8L63.4,15.5z M60.6,12.7h2.8c0.5,0,0.9-0.1,1.2-0.2c0.3-0.1,0.6-0.3,0.9-0.5s0.4-0.5,0.5-0.8s0.2-0.7,0.2-1
					c0-0.8-0.2-1.4-0.7-1.9c-0.5-0.5-1.2-0.7-2.1-0.7h-2.8V12.7z"/>
				<path d="M83.6,14.4h-6.8v4.6h7.9v2.8H73.4V4.7h11.4v2.9h-7.9v4.1h6.8V14.4z"/>
				<path d="M92.4,4.7l4.4,12.4l4.4-12.4h4.6v17.1h-3.5v-4.7l0.4-8.1L98,21.8h-2.4L91,9l0.4,8v4.7h-3.5V4.7H92.4z"/>
				<path d="M113.6,21.8h-3.5V4.7h3.5V21.8z"/>
				<path d="M126.7,17.3c0-0.3,0-0.6-0.1-0.8c-0.1-0.2-0.3-0.5-0.5-0.7c-0.2-0.2-0.6-0.4-1-0.6c-0.4-0.2-1-0.4-1.7-0.6
					c-0.8-0.2-1.5-0.5-2.2-0.8s-1.3-0.7-1.8-1.1c-0.5-0.4-0.9-0.9-1.2-1.5s-0.5-1.2-0.5-1.9c0-0.7,0.2-1.4,0.5-2
					c0.3-0.6,0.7-1.1,1.3-1.5c0.6-0.4,1.2-0.7,2-1c0.8-0.2,1.6-0.3,2.5-0.3c0.9,0,1.8,0.1,2.6,0.4c0.8,0.3,1.4,0.6,2,1.1
					c0.5,0.5,1,1,1.3,1.7c0.3,0.6,0.4,1.4,0.4,2.1h-3.5c0-0.4-0.1-0.7-0.2-1c-0.1-0.3-0.3-0.6-0.5-0.8c-0.2-0.2-0.5-0.4-0.9-0.5
					c-0.4-0.1-0.8-0.2-1.2-0.2c-0.5,0-0.9,0.1-1.2,0.2c-0.3,0.1-0.6,0.2-0.8,0.4c-0.2,0.2-0.4,0.4-0.5,0.6s-0.2,0.5-0.2,0.8
					c0,0.6,0.3,1,0.9,1.4c0.6,0.4,1.4,0.7,2.5,1.1c0.9,0.3,1.8,0.6,2.5,1c0.7,0.4,1.3,0.8,1.8,1.2c0.5,0.4,0.8,0.9,1.1,1.5
					c0.2,0.6,0.4,1.2,0.4,1.9c0,0.8-0.1,1.4-0.4,2c-0.3,0.6-0.7,1.1-1.2,1.5s-1.2,0.7-2,0.9S125,22,124,22c-0.6,0-1.1,0-1.7-0.1
					c-0.6-0.1-1.1-0.2-1.6-0.5c-0.5-0.2-1-0.5-1.4-0.8c-0.4-0.3-0.8-0.7-1.1-1.1c-0.3-0.4-0.6-0.9-0.8-1.4c-0.2-0.5-0.3-1.1-0.3-1.8
					h3.5c0,0.5,0.1,1,0.2,1.3c0.2,0.4,0.4,0.7,0.7,0.9c0.3,0.2,0.6,0.4,1.1,0.5c0.4,0.1,0.9,0.2,1.4,0.2c0.5,0,0.8,0,1.2-0.1
					c0.3-0.1,0.6-0.2,0.8-0.4s0.4-0.4,0.5-0.6C126.6,17.8,126.7,17.6,126.7,17.3z"/>
				<path d="M143.8,14.4h-6.8v4.6h7.9v2.8h-11.5V4.7H145v2.9h-7.9v4.1h6.8V14.4z"/>
			</g>
		</g>
		<rect x="0.8" y="0.1" fill="#FC1D00" width="29" height="29"/>
		<rect x="1" y="14" fill="#FFFFFF" width="16" height="16"/>
		<path d="M30,30H0V0h30V30z M1,29h28V1H1V29z"/>
	</g>
</g>
</svg>
