<?xml version="1.0" encoding="utf-8"?>
<!-- Generator: Adobe Illustrator 18.0.0, SVG Export Plug-In . SVG Version: 6.00 Build 0)  -->
<!DOCTYPE svg PUBLIC "-//W3C//DTD SVG 1.1//EN" "http://www.w3.org/Graphics/SVG/1.1/DTD/svg11.dtd">
<svg version="1.1" xmlns="http://www.w3.org/2000/svg" xmlns:xlink="http://www.w3.org/1999/xlink" x="0px" y="0px" width="889.4px"
	 height="525.6px" viewBox="0 0 889.4 525.6" enable-background="new 0 0 889.4 525.6" xml:space="preserve">
<g id="Layer_1">
</g>
<g id="_x36_._Contact">
	<g id="map_1_">
		<g>
			<defs>
				<rect id="SVGID_1_" x="0" y="0" width="889.4" height="525.6"/>
			</defs>
			<clipPath id="SVGID_2_">
				<use xlink:href="#SVGID_1_"  overflow="visible"/>
			</clipPath>
			<rect x="-9.2" y="-5.5" clip-path="url(#SVGID_2_)" fill="#009BFF" width="907.9" height="536.6"/>
			<g clip-path="url(#SVGID_2_)">
				<path opacity="0.5" fill="#333333" d="M928.9,206.7l-20.6-20.4L657.3,440L415.6,198.7l78.5-79.5l117.2,117.5
					c0.8,0.8,1.8,1.2,2.8,1.2c1,0,2-0.4,2.8-1.2c1.6-1.6,1.6-4.1,0-5.7L499.8,113.5L639.9-28.3l-20.6-20.4L395.1,178.2l-216.3-216
					l-20.5,20.5l216.4,216.1L53.2,524.3l20.6,20.4l321.4-325.4L637,460.6L364.2,736.3l20.6,20.4l272.6-275.6l81.8,81.7l20.5-20.5
					l-81.9-81.8L928.9,206.7z"/>
				<g>
					<text transform="matrix(1 0 0 1 559.7975 269.5436)" fill="#FAFAFA" font-family="'ProximaNova-Light'" font-size="20">Premise HQ</text>
					<path fill="#FFFFFF" d="M543.6,250.7c-4.6,0-8.2,3.7-8.2,8.2c0,0.1,0,0.2,0,0.3c0,0.9,0.2,1.7,0.5,2.5
						c1.8,5.8,7.8,13.3,7.8,13.3s6-7.5,7.8-13.3c0.3-0.8,0.4-1.6,0.5-2.5c0-0.1,0-0.2,0-0.3C551.9,254.4,548.2,250.7,543.6,250.7z
						 M543.6,263c-2.2,0-4-1.8-4-4c0-2.2,1.8-4,4-4c2.2,0,4,1.8,4,4C547.7,261.1,545.9,263,543.6,263z"/>
				</g>
				
					<text transform="matrix(0.6881 -0.7256 0.7256 0.6881 722.8865 404.1436)" fill="#FFFFFF" font-family="'ProximaNovaCond-Bold'" font-size="16">TOWNSEND ST</text>
				
					<text transform="matrix(0.7029 -0.7113 0.7113 0.7029 462.4764 139.6466)" fill="#FFFFFF" font-family="'ProximaNovaCond-Bold'" font-size="16">BRANNAN ST</text>
				
					<text transform="matrix(0.7 0.7141 -0.7141 0.7 477.7106 286.7647)" fill="#FFFFFF" font-family="'ProximaNovaCond-Bold'" font-size="16">7TH ST</text>
				
					<text transform="matrix(0.7 0.7141 -0.7141 0.7 546.9606 140.0147)" fill="#FFFFFF" font-family="'ProximaNovaCond-Bold'" font-size="16">GILBERT ST</text>
			</g>
		</g>
	</g>
</g>
</svg>
