<?xml version="1.0" encoding="utf-8"?>
<!-- Generator: Adobe Illustrator 18.0.0, SVG Export Plug-In . SVG Version: 6.00 Build 0)  -->
<!DOCTYPE svg PUBLIC "-//W3C//DTD SVG 1.1//EN" "http://www.w3.org/Graphics/SVG/1.1/DTD/svg11.dtd">
<svg version="1.1" xmlns="http://www.w3.org/2000/svg" xmlns:xlink="http://www.w3.org/1999/xlink" x="0px" y="0px" width="357.6px"
	 height="356.9px" viewBox="0 0 357.6 356.9" enable-background="new 0 0 357.6 356.9" xml:space="preserve">
<g id="Layer_1">
</g>
<g id="_x31_._Home">
	<g id="icon_4_">
		<g>
			<g>
				<path fill="#DDDDDD" d="M178.8,349.1c-45.6,0-88.5-17.8-120.7-50s-50-75.1-50-120.7s17.8-88.5,50-120.7s75.1-50,120.7-50
					s88.5,17.8,120.7,50s50,75.1,50,120.7s-17.8,88.5-50,120.7S224.4,349.1,178.8,349.1z M178.8,9.2c-45.2,0-87.7,17.6-119.6,49.6
					c-32,32-49.6,74.4-49.6,119.6S27.2,266.1,59.2,298c32,32,74.4,49.6,119.6,49.6S266.5,330,298.5,298c32-32,49.6-74.4,49.6-119.6
					s-17.6-87.7-49.6-119.6C266.5,26.8,224,9.2,178.8,9.2z"/>
			</g>
			<path fill="#FFFFFF" stroke="#231F20" stroke-width="2" stroke-miterlimit="10" d="M302.3,115.7"/>
			<g>
				<g>
					<line fill="#DDDDDD" x1="173.2" y1="37.4" x2="200.8" y2="9.8"/>
					
						<rect x="186.2" y="4.1" transform="matrix(0.7072 0.7071 -0.7071 0.7072 71.4494 -125.2914)" fill="#DDDDDD" width="1.5" height="39"/>
				</g>
				<g>
					<line fill="#DDDDDD" x1="57.8" y1="153.8" x2="10.2" y2="201.4"/>
					
						<rect x="33.2" y="143.9" transform="matrix(0.7071 0.7071 -0.7071 0.7071 135.4984 27.9675)" fill="#DDDDDD" width="1.5" height="67.3"/>
				</g>
				<g>
					<line fill="#DDDDDD" x1="93.5" y1="221.1" x2="38.8" y2="275.7"/>
					
						<rect x="65.4" y="209.7" transform="matrix(0.7071 0.7071 -0.7071 0.7071 195.0215 25.9592)" fill="#DDDDDD" width="1.5" height="77.3"/>
				</g>
				<g>
					<line fill="#DDDDDD" x1="158.2" y1="219.9" x2="263.5" y2="325.3"/>
					
						<rect x="136.3" y="271.8" transform="matrix(0.7071 0.7071 -0.7071 0.7071 254.5034 -69.2293)" fill="#DDDDDD" width="149" height="1.5"/>
				</g>
				<g>
					<line fill="#DDDDDD" x1="188.3" y1="219.9" x2="281.9" y2="313.6"/>
					
						<rect x="168.9" y="266" transform="matrix(0.7071 0.7071 -0.7071 0.7071 257.4789 -88.1054)" fill="#DDDDDD" width="132.4" height="1.5"/>
				</g>
				<g>
					<line fill="#DDDDDD" x1="261.1" y1="219.9" x2="317.5" y2="276.4"/>
					
						<rect x="249.4" y="247.4" transform="matrix(0.7071 0.7071 -0.7071 0.7071 260.2101 -131.8708)" fill="#DDDDDD" width="79.9" height="1.5"/>
				</g>
				<g>
					<line fill="#DDDDDD" x1="300.6" y1="161.9" x2="346.3" y2="207.8"/>
					
						<rect x="291.1" y="184.1" transform="matrix(0.7053 0.7089 -0.7089 0.7053 226.3292 -174.8149)" fill="#DDDDDD" width="64.7" height="1.5"/>
				</g>
				<g>
					<line fill="#DDDDDD" x1="202.9" y1="37.4" x2="225.4" y2="14.9"/>
					
						<rect x="213.3" y="10.2" transform="matrix(0.7071 0.7071 -0.7071 0.7071 81.1826 -143.7377)" fill="#DDDDDD" width="1.5" height="31.8"/>
				</g>
				<g>
					<line fill="#DDDDDD" x1="348.7" y1="188.3" x2="188.3" y2="348.7"/>
					
						<rect x="267.7" y="155.1" transform="matrix(0.7072 0.7071 -0.7071 0.7072 268.4596 -111.2024)" fill="#DDDDDD" width="1.5" height="226.8"/>
				</g>
			</g>
			<rect x="57.3" y="38.5" fill="#FFFFFF" width="245" height="181.4"/>
			<g>
				<path fill="none" stroke="#1A6799" stroke-width="2" stroke-miterlimit="10" d="M282,240.9"/>
				
					<rect x="150.9" y="99.7" transform="matrix(0.7041 0.7101 -0.7101 0.7041 142.2717 -140.4917)" fill="#1A6799" width="177.7" height="1.5"/>
				
					<rect x="114.7" y="13.6" transform="matrix(0.7101 0.7041 -0.7041 0.7101 100.7829 -53.6125)" fill="#1A6799" width="1.5" height="163.9"/>
				
					<rect x="40.8" y="128.5" transform="matrix(0.7065 0.7078 -0.7078 0.7065 141.5191 -82.7509)" fill="#1A6799" width="259.5" height="1.5"/>
				
					<rect x="135.2" y="119.9" transform="matrix(0.7004 0.7138 -0.7138 0.7004 168.7895 -43.2845)" fill="#1A6799" width="1.5" height="118.9"/>
				
					<rect x="265.2" y="100.7" transform="matrix(0.7103 0.7039 -0.7039 0.7103 184.2971 -143.0782)" fill="#1A6799" width="1.5" height="103.3"/>
				
					<rect x="119.7" y="203.9" transform="matrix(0.7076 0.7066 -0.7066 0.7076 186.3933 -41.1051)" fill="#1A6799" width="46.4" height="1.5"/>
				
					<rect x="69" y="170.1" transform="matrix(0.7041 0.7101 -0.7101 0.7041 162.6553 -48.5929)" fill="#1A6799" width="141.3" height="1.5"/>
				
					<rect x="170.8" y="24.3" transform="matrix(0.7022 0.712 -0.712 0.7022 99.6661 -101.8693)" fill="#1A6799" width="1.5" height="87.8"/>
			</g>
			<g>
				<g>
					<path fill="#FFFFFF" d="M315.5,25.1H42.1c-6.3,0-11.4,5.1-11.4,11.4V222c0,6.3,5.1,11.4,11.4,11.4h273.4
						c6.3,0,11.4-5.1,11.4-11.4V36.4C326.9,30.2,321.8,25.1,315.5,25.1z M301.2,37.4c0.6,0,1.1,0.5,1.1,1.1v181.4
						c0,0.6-0.5,1.1-1.1,1.1H58.4c-0.6,0-1.1-0.5-1.1-1.1V38.5c0-0.6,0.5-1.1,1.1-1.1H301.2z"/>
					<path fill="#231F20" d="M315.5,234.1H42.1c-6.7,0-12.1-5.4-12.1-12.1V36.4c0-6.7,5.4-12.1,12.1-12.1h273.4
						c6.7,0,12.1,5.4,12.1,12.1V222C327.7,228.7,322.2,234.1,315.5,234.1z M42.1,25.8c-5.8,0-10.6,4.8-10.6,10.6V222
						c0,5.8,4.8,10.6,10.6,10.6h273.4c5.8,0,10.6-4.8,10.6-10.6V36.4c0-5.8-4.8-10.6-10.6-10.6H42.1z M301.2,221.8H58.4
						c-1,0-1.9-0.9-1.9-1.9V38.5c0-1,0.9-1.9,1.9-1.9h242.8c1,0,1.9,0.9,1.9,1.9v181.4C303.1,221,302.2,221.8,301.2,221.8z
						 M58.4,38.2c-0.2,0-0.4,0.2-0.4,0.4v181.4c0,0.2,0.2,0.4,0.4,0.4h242.8c0.2,0,0.4-0.2,0.4-0.4V38.5c0-0.2-0.2-0.4-0.4-0.4H58.4
						z"/>
				</g>
				<g>
					<path fill="#FFFFFF" d="M43.8,120.7c4.7,0,8.5,3.8,8.5,8.5c0,4.7-3.8,8.5-8.5,8.5c-4.7,0-8.5-3.8-8.5-8.5
						C35.3,124.5,39.1,120.7,43.8,120.7z"/>
					<path fill="#231F20" d="M43.8,138.5c-5.1,0-9.3-4.2-9.3-9.3c0-5.1,4.2-9.3,9.3-9.3c5.1,0,9.3,4.2,9.3,9.3
						S48.9,138.5,43.8,138.5z M43.8,121.5c-4.3,0-7.8,3.5-7.8,7.8c0,4.3,3.5,7.8,7.8,7.8s7.8-3.5,7.8-7.8S48.1,121.5,43.8,121.5z"/>
				</g>
				<g>
					<path fill="#FFFFFF" d="M42.5,125.4h2.6c1.4,0,2.5,1.1,2.5,2.5v2.6c0,1.4-1.1,2.5-2.5,2.5h-2.6c-1.4,0-2.5-1.1-2.5-2.5v-2.6
						C40,126.5,41.1,125.4,42.5,125.4z"/>
					<path fill="#231F20" d="M45.1,133.8h-2.6c-1.8,0-3.3-1.5-3.3-3.3v-2.6c0-1.8,1.5-3.3,3.3-3.3h2.6c1.8,0,3.3,1.5,3.3,3.3v2.6
						C48.4,132.3,46.9,133.8,45.1,133.8z M42.5,126.2c-1,0-1.7,0.8-1.7,1.7v2.6c0,1,0.8,1.7,1.7,1.7h2.6c1,0,1.7-0.8,1.7-1.7v-2.6
						c0-1-0.8-1.7-1.7-1.7H42.5z"/>
				</g>
				<g>
					<circle fill="#FFFFFF" cx="312.7" cy="129.2" r="2.8"/>
					<path fill="#231F20" d="M312.7,132.8c-2,0-3.6-1.6-3.6-3.6s1.6-3.6,3.6-3.6c2,0,3.6,1.6,3.6,3.6S314.7,132.8,312.7,132.8z
						 M312.7,127.2c-1.1,0-2.1,0.9-2.1,2.1s0.9,2.1,2.1,2.1c1.1,0,2.1-0.9,2.1-2.1S313.8,127.2,312.7,127.2z"/>
				</g>
			</g>
			<g id="Layer_6_6_">
				<g>
					<path fill="#019BFF" d="M234.4,69.5c-7.4,0-13.4,6-13.4,13.4c0,7.4,13.4,26.7,13.4,26.7s13.4-19.3,13.4-26.7
						C247.7,75.4,241.7,69.5,234.4,69.5z M234.4,89.8c-3.7,0-6.7-3-6.7-6.7c0-3.7,3-6.7,6.7-6.7c3.7,0,6.7,3,6.7,6.7
						C241,86.8,238.1,89.8,234.4,89.8z"/>
					<path d="M234.4,110.9l-0.6-0.9c-0.6-0.8-13.5-19.6-13.5-27.2c0-7.8,6.3-14.1,14.1-14.1c7.8,0,14.1,6.3,14.1,14.1
						c0,7.5-12.9,26.4-13.5,27.2L234.4,110.9z M234.4,70.2c-6.9,0-12.6,5.7-12.6,12.6c0,6.2,10,21.4,12.6,25.4
						C237,104.3,247,89,247,82.8C247,75.9,241.3,70.2,234.4,70.2z M234.4,90.6c-4.1,0-7.4-3.3-7.4-7.4s3.3-7.4,7.4-7.4
						s7.4,3.3,7.4,7.4S238.5,90.6,234.4,90.6z M234.4,77.2c-3.3,0-5.9,2.7-5.9,5.9s2.7,5.9,5.9,5.9c3.3,0,5.9-2.7,5.9-5.9
						S237.6,77.2,234.4,77.2z"/>
				</g>
			</g>
			<g id="Layer_6_2_">
				<g>
					<path fill="#019BFF" d="M114.1,112c-7.4,0-13.4,6-13.4,13.4c0,7.4,13.4,26.7,13.4,26.7s13.4-19.3,13.4-26.7
						C127.5,118,121.5,112,114.1,112z M114.1,132.3c-3.7,0-6.7-3-6.7-6.7c0-3.7,3-6.7,6.7-6.7c3.7,0,6.7,3,6.7,6.7
						C120.8,129.4,117.8,132.3,114.1,132.3z"/>
					<path d="M114.1,153.5l-0.6-0.9c-0.6-0.8-13.5-19.6-13.5-27.2c0-7.8,6.3-14.1,14.1-14.1s14.1,6.3,14.1,14.1
						c0,7.5-12.9,26.4-13.5,27.2L114.1,153.5z M114.1,112.8c-6.9,0-12.6,5.6-12.6,12.6c0,6.2,10,21.4,12.6,25.4
						c2.6-3.9,12.6-19.2,12.6-25.4C126.7,118.4,121.1,112.8,114.1,112.8z M114.1,133.1c-4.1,0-7.4-3.3-7.4-7.4
						c0-4.1,3.3-7.4,7.4-7.4s7.4,3.3,7.4,7.4C121.6,129.8,118.2,133.1,114.1,133.1z M114.1,119.8c-3.3,0-5.9,2.7-5.9,5.9
						s2.7,5.9,5.9,5.9s5.9-2.7,5.9-5.9S117.4,119.8,114.1,119.8z"/>
				</g>
			</g>
			<g id="Layer_6_1_">
				<g>
					<path fill="#019BFF" d="M216.2,150.8c-7.4,0-13.4,6-13.4,13.4c0,7.4,13.4,26.7,13.4,26.7s13.4-19.3,13.4-26.7
						C229.6,156.8,223.6,150.8,216.2,150.8z M216.2,171.2c-3.7,0-6.7-3-6.7-6.7c0-3.7,3-6.7,6.7-6.7c3.7,0,6.7,3,6.7,6.7
						C222.9,168.2,219.9,171.2,216.2,171.2z"/>
					<path d="M216.2,192.3l-0.6-0.9c-0.6-0.8-13.5-19.6-13.5-27.2c0-7.8,6.3-14.1,14.1-14.1c7.8,0,14.1,6.3,14.1,14.1
						c0,7.5-12.9,26.4-13.5,27.2L216.2,192.3z M216.2,151.6c-6.9,0-12.6,5.6-12.6,12.6c0,6.2,10,21.4,12.6,25.4
						c2.6-3.9,12.6-19.2,12.6-25.4C228.8,157.3,223.2,151.6,216.2,151.6z M216.2,171.9c-4.1,0-7.4-3.3-7.4-7.4s3.3-7.4,7.4-7.4
						c4.1,0,7.4,3.3,7.4,7.4S220.3,171.9,216.2,171.9z M216.2,158.6c-3.3,0-5.9,2.7-5.9,5.9s2.7,5.9,5.9,5.9s5.9-2.7,5.9-5.9
						S219.5,158.6,216.2,158.6z"/>
				</g>
			</g>
		</g>
	</g>
</g>
</svg>
