<?xml version="1.0" encoding="utf-8"?>
<!-- Generator: Adobe Illustrator 18.0.0, SVG Export Plug-In . SVG Version: 6.00 Build 0)  -->
<!DOCTYPE svg PUBLIC "-//W3C//DTD SVG 1.1//EN" "http://www.w3.org/Graphics/SVG/1.1/DTD/svg11.dtd">
<svg version="1.1" xmlns="http://www.w3.org/2000/svg" xmlns:xlink="http://www.w3.org/1999/xlink" x="0px" y="0px" width="357.6px"
	 height="356.9px" viewBox="0 0 357.6 356.9" enable-background="new 0 0 357.6 356.9" xml:space="preserve">
<g id="Layer_1">
</g>
<g id="_x31_._Home">
	<g id="icon_4_">
		<g>
			<g>
				<path fill="#DDDDDD" d="M178.8,352.7c-45.6,0-88.5-17.8-120.7-50s-50-75.1-50-120.7s17.8-88.5,50-120.7s75.1-50,120.7-50
					s88.5,17.8,120.7,50s50,75.1,50,120.7s-17.8,88.5-50,120.7S224.4,352.7,178.8,352.7z M178.8,12.7c-45.2,0-87.7,17.6-119.6,49.6
					c-32,32-49.6,74.4-49.6,119.6s17.6,87.7,49.6,119.6c32,32,74.4,49.6,119.6,49.6s87.7-17.6,119.6-49.6
					c32-32,49.6-74.4,49.6-119.6s-17.6-87.7-49.6-119.6C266.5,30.3,224,12.7,178.8,12.7z"/>
			</g>
			<path fill="#FFFFFF" stroke="#231F20" stroke-width="2" stroke-miterlimit="10" d="M300.2,119.2"/>
			<g>
				<defs>
					<circle id="SVGID_1_" cx="178.1" cy="181.9" r="170"/>
				</defs>
				<clipPath id="SVGID_2_">
					<use xlink:href="#SVGID_1_"  overflow="visible"/>
				</clipPath>
				<g opacity="0.5" clip-path="url(#SVGID_2_)">
					<g>
						<rect x="-0.4" y="280.7" fill="#DDDDDD" width="356.9" height="1.5"/>
						<rect x="-0.4" y="210.3" fill="#DDDDDD" width="356.9" height="1.5"/>
						<rect x="-0.4" y="139.8" fill="#DDDDDD" width="356.9" height="1.5"/>
						<rect x="-0.4" y="69.4" fill="#DDDDDD" width="356.9" height="1.5"/>
						<g>
							<path fill="#DDDDDD" d="M61.3,134.6H7.8V77.8h53.5V134.6z M9.3,133.1h50.4V79.4H9.3V133.1z"/>
							<path fill="#DDDDDD" d="M118.7,134.6H65.2V77.8h53.5V134.6z M66.7,133.1h50.4V79.4H66.7V133.1z"/>
							<path fill="#DDDDDD" d="M176.1,134.6h-53.5V77.8h53.5V134.6z M124.1,133.1h50.4V79.4h-50.4V133.1z"/>
							<path fill="#DDDDDD" d="M233.5,134.6H180V77.8h53.5V134.6z M181.5,133.1H232V79.4h-50.4V133.1z"/>
							<path fill="#DDDDDD" d="M290.9,134.6h-53.5V77.8h53.5V134.6z M239,133.1h50.4V79.4H239V133.1z"/>
							<path fill="#DDDDDD" d="M348.3,134.6h-53.5V77.8h53.5V134.6z M296.4,133.1h50.4V79.4h-50.4V133.1z"/>
						</g>
						<g>
							<path fill="#DDDDDD" d="M61.3,203.9H7.8v-56.8h53.5V203.9z M9.3,202.3h50.4v-53.7H9.3V202.3z"/>
							<path fill="#DDDDDD" d="M118.7,203.9H65.2v-56.8h53.5V203.9z M66.7,202.3h50.4v-53.7H66.7V202.3z"/>
							<path fill="#DDDDDD" d="M176.1,203.9h-53.5v-56.8h53.5V203.9z M124.1,202.3h50.4v-53.7h-50.4V202.3z"/>
							<path fill="#DDDDDD" d="M233.5,203.9H180v-56.8h53.5V203.9z M181.5,202.3H232v-53.7h-50.4V202.3z"/>
							<path fill="#DDDDDD" d="M290.9,203.9h-53.5v-56.8h53.5V203.9z M239,202.3h50.4v-53.7H239V202.3z"/>
							<path fill="#DDDDDD" d="M348.3,203.9h-53.5v-56.8h53.5V203.9z M296.4,202.3h50.4v-53.7h-50.4V202.3z"/>
						</g>
						<g>
							<path fill="#DDDDDD" d="M64,274.4H10.5v-56.8H64V274.4z M12,272.9h50.4v-53.7H12V272.9z"/>
							<path fill="#DDDDDD" d="M121.4,274.4H67.9v-56.8h53.5V274.4z M69.4,272.9h50.4v-53.7H69.4V272.9z"/>
							<path fill="#DDDDDD" d="M178.8,274.4h-53.5v-56.8h53.5V274.4z M126.9,272.9h50.4v-53.7h-50.4V272.9z"/>
							<path fill="#DDDDDD" d="M236.2,274.4h-53.5v-56.8h53.5V274.4z M184.3,272.9h50.4v-53.7h-50.4V272.9z"/>
							<path fill="#DDDDDD" d="M293.7,274.4h-53.5v-56.8h53.5V274.4z M241.7,272.9h50.4v-53.7h-50.4V272.9z"/>
							<path fill="#DDDDDD" d="M351.1,274.4h-53.5v-56.8h53.5V274.4z M299.1,272.9h50.4v-53.7h-50.4V272.9z"/>
						</g>
						<rect x="-0.4" y="-1.5" fill="#DDDDDD" width="356.9" height="1.5"/>
						<g>
							<path fill="#DDDDDD" d="M61.3,63.8H7.8V7h53.5V63.8z M9.3,62.3h50.4V8.5H9.3V62.3z"/>
							<path fill="#DDDDDD" d="M118.7,63.8H65.2V7h53.5V63.8z M66.7,62.3h50.4V8.5H66.7V62.3z"/>
							<path fill="#DDDDDD" d="M176.1,63.8h-53.5V7h53.5V63.8z M124.1,62.3h50.4V8.5h-50.4V62.3z"/>
							<path fill="#DDDDDD" d="M233.5,63.8H180V7h53.5V63.8z M181.5,62.3H232V8.5h-50.4V62.3z"/>
							<path fill="#DDDDDD" d="M290.9,63.8h-53.5V7h53.5V63.8z M239,62.3h50.4V8.5H239V62.3z"/>
							<path fill="#DDDDDD" d="M348.3,63.8h-53.5V7h53.5V63.8z M296.4,62.3h50.4V8.5h-50.4V62.3z"/>
						</g>
						<rect x="-0.4" y="352.1" fill="#DDDDDD" width="356.9" height="1.5"/>
						<g>
							<path fill="#DDDDDD" d="M64,345.8H10.5V289H64V345.8z M12,344.3h50.4v-53.7H12V344.3z"/>
							<path fill="#DDDDDD" d="M121.4,345.8H67.9V289h53.5V345.8z M69.4,344.3h50.4v-53.7H69.4V344.3z"/>
							<path fill="#DDDDDD" d="M178.8,345.8h-53.5V289h53.5V345.8z M126.9,344.3h50.4v-53.7h-50.4V344.3z"/>
							<path fill="#DDDDDD" d="M236.2,345.8h-53.5V289h53.5V345.8z M184.3,344.3h50.4v-53.7h-50.4V344.3z"/>
							<path fill="#DDDDDD" d="M293.7,345.8h-53.5V289h53.5V345.8z M241.7,344.3h50.4v-53.7h-50.4V344.3z"/>
							<path fill="#DDDDDD" d="M351.1,345.8h-53.5V289h53.5V345.8z M299.1,344.3h50.4v-53.7h-50.4V344.3z"/>
						</g>
					</g>
				</g>
			</g>
			<rect x="55.1" y="42.1" fill="#FFFFFF" width="245" height="181.4"/>
			<g>
				<g>
					<path fill="#FFFFFF" d="M313.4,28.6H40c-6.3,0-11.4,5.1-11.4,11.4v185.6c0,6.3,5.1,11.4,11.4,11.4h273.4
						c6.3,0,11.4-5.1,11.4-11.4V40C324.8,33.7,319.7,28.6,313.4,28.6z M299,40.9c0.6,0,1.1,0.5,1.1,1.1v181.4c0,0.6-0.5,1.1-1.1,1.1
						H56.3c-0.6,0-1.1-0.5-1.1-1.1V42.1c0-0.6,0.5-1.1,1.1-1.1H299z"/>
					<path fill="#231F20" d="M313.4,237.7H40c-6.7,0-12.1-5.4-12.1-12.1V40c0-6.7,5.4-12.1,12.1-12.1h273.4
						c6.7,0,12.1,5.4,12.1,12.1v185.6C325.6,232.2,320.1,237.7,313.4,237.7z M40,29.4c-5.8,0-10.6,4.8-10.6,10.6v185.6
						c0,5.8,4.8,10.6,10.6,10.6h273.4c5.8,0,10.6-4.8,10.6-10.6V40c0-5.8-4.8-10.6-10.6-10.6H40z M299,225.4H56.3
						c-1,0-1.9-0.9-1.9-1.9V42.1c0-1,0.9-1.9,1.9-1.9H299c1,0,1.9,0.9,1.9,1.9v181.4C300.9,224.5,300.1,225.4,299,225.4z M56.3,41.7
						c-0.2,0-0.4,0.2-0.4,0.4v181.4c0,0.2,0.2,0.4,0.4,0.4H299c0.2,0,0.4-0.2,0.4-0.4V42.1c0-0.2-0.2-0.4-0.4-0.4H56.3z"/>
				</g>
				<g>
					<path fill="#FFFFFF" d="M41.7,124.2c4.7,0,8.5,3.8,8.5,8.5c0,4.7-3.8,8.5-8.5,8.5c-4.7,0-8.5-3.8-8.5-8.5
						C33.2,128.1,37,124.2,41.7,124.2z"/>
					<path fill="#231F20" d="M41.7,142.1c-5.1,0-9.3-4.2-9.3-9.3c0-5.1,4.2-9.3,9.3-9.3c5.1,0,9.3,4.2,9.3,9.3
						S46.8,142.1,41.7,142.1z M41.7,125c-4.3,0-7.8,3.5-7.8,7.8c0,4.3,3.5,7.8,7.8,7.8s7.8-3.5,7.8-7.8S46,125,41.7,125z"/>
				</g>
				<g>
					<path fill="#FFFFFF" d="M40.4,129H43c1.4,0,2.5,1.1,2.5,2.5v2.6c0,1.4-1.1,2.5-2.5,2.5h-2.6c-1.4,0-2.5-1.1-2.5-2.5v-2.6
						C37.9,130.1,39,129,40.4,129z"/>
					<path fill="#231F20" d="M43,137.3h-2.6c-1.8,0-3.3-1.5-3.3-3.3v-2.6c0-1.8,1.5-3.3,3.3-3.3H43c1.8,0,3.3,1.5,3.3,3.3v2.6
						C46.3,135.9,44.8,137.3,43,137.3z M40.4,129.7c-1,0-1.7,0.8-1.7,1.7v2.6c0,1,0.8,1.7,1.7,1.7H43c1,0,1.7-0.8,1.7-1.7v-2.6
						c0-1-0.8-1.7-1.7-1.7H40.4z"/>
				</g>
				<g>
					<circle fill="#FFFFFF" cx="310.6" cy="132.8" r="2.8"/>
					<path fill="#231F20" d="M310.6,136.4c-2,0-3.6-1.6-3.6-3.6s1.6-3.6,3.6-3.6c2,0,3.6,1.6,3.6,3.6S312.6,136.4,310.6,136.4z
						 M310.6,130.7c-1.1,0-2.1,0.9-2.1,2.1s0.9,2.1,2.1,2.1c1.1,0,2.1-0.9,2.1-2.1S311.7,130.7,310.6,130.7z"/>
				</g>
			</g>
			<g>
				<defs>
					<rect id="SVGID_3_" x="55.8" y="42.1" width="243.3" height="181.4"/>
				</defs>
				<clipPath id="SVGID_4_">
					<use xlink:href="#SVGID_3_"  overflow="visible"/>
				</clipPath>
			</g>
			<g>
				<defs>
					<rect id="SVGID_5_" x="55.8" y="42.1" width="243.3" height="181.4"/>
				</defs>
				<clipPath id="SVGID_6_">
					<use xlink:href="#SVGID_5_"  overflow="visible"/>
				</clipPath>
				<g clip-path="url(#SVGID_6_)">
					<rect x="-1.7" y="280.7" fill="#DDDDDD" width="356.9" height="1.5"/>
					<rect x="-1.7" y="210.3" fill="#DDDDDD" width="356.9" height="1.5"/>
					<rect x="-1.7" y="139.8" fill="#DDDDDD" width="356.9" height="1.5"/>
					<rect x="-1.7" y="69.4" fill="#DDDDDD" width="356.9" height="1.5"/>
					<g>
						<path fill="#DDDDDD" d="M59.9,134.6H6.4V77.8h53.5V134.6z M8,133.1h50.4V79.4H8V133.1z"/>
						<path fill="#DDDDDD" d="M117.3,134.6H63.8V77.8h53.5V134.6z M65.4,133.1h50.4V79.4H65.4V133.1z"/>
						<path fill="#DDDDDD" d="M174.7,134.6h-53.5V77.8h53.5V134.6z M122.8,133.1h50.4V79.4h-50.4V133.1z"/>
						<path fill="#DDDDDD" d="M232.2,134.6h-53.5V77.8h53.5V134.6z M180.2,133.1h50.4V79.4h-50.4V133.1z"/>
						<path fill="#DDDDDD" d="M289.6,134.6h-53.5V77.8h53.5V134.6z M237.6,133.1H288V79.4h-50.4V133.1z"/>
						<path fill="#DDDDDD" d="M347,134.6h-53.5V77.8H347V134.6z M295,133.1h50.4V79.4H295V133.1z"/>
					</g>
					<g>
						<path fill="#DDDDDD" d="M59.9,203.9H6.4v-56.8h53.5V203.9z M8,202.3h50.4v-53.7H8V202.3z"/>
						<path fill="#DDDDDD" d="M117.3,203.9H63.8v-56.8h53.5V203.9z M65.4,202.3h50.4v-53.7H65.4V202.3z"/>
						<path fill="#DDDDDD" d="M174.7,203.9h-53.5v-56.8h53.5V203.9z M122.8,202.3h50.4v-53.7h-50.4V202.3z"/>
						<path fill="#DDDDDD" d="M232.2,203.9h-53.5v-56.8h53.5V203.9z M180.2,202.3h50.4v-53.7h-50.4V202.3z"/>
						<path fill="#DDDDDD" d="M289.6,203.9h-53.5v-56.8h53.5V203.9z M237.6,202.3H288v-53.7h-50.4V202.3z"/>
						<path fill="#DDDDDD" d="M347,203.9h-53.5v-56.8H347V203.9z M295,202.3h50.4v-53.7H295V202.3z"/>
					</g>
					<g>
						<path fill="#DDDDDD" d="M62.6,274.4H9.1v-56.8h53.5V274.4z M10.7,272.9h50.4v-53.7H10.7V272.9z"/>
						<path fill="#DDDDDD" d="M120.1,274.4H66.6v-56.8h53.5V274.4z M68.1,272.9h50.4v-53.7H68.1V272.9z"/>
						<path fill="#DDDDDD" d="M177.5,274.4H124v-56.8h53.5V274.4z M125.5,272.9h50.4v-53.7h-50.4V272.9z"/>
						<path fill="#DDDDDD" d="M234.9,274.4h-53.5v-56.8h53.5V274.4z M182.9,272.9h50.4v-53.7h-50.4V272.9z"/>
						<path fill="#DDDDDD" d="M292.3,274.4h-53.5v-56.8h53.5V274.4z M240.3,272.9h50.4v-53.7h-50.4V272.9z"/>
						<path fill="#DDDDDD" d="M349.7,274.4h-53.5v-56.8h53.5V274.4z M297.8,272.9h50.4v-53.7h-50.4V272.9z"/>
					</g>
					<rect x="-1.7" y="-1.5" fill="#DDDDDD" width="356.9" height="1.5"/>
					<g>
						<path fill="#DDDDDD" d="M59.9,63.8H6.4V7h53.5V63.8z M8,62.3h50.4V8.5H8V62.3z"/>
						<path fill="#DDDDDD" d="M117.3,63.8H63.8V7h53.5V63.8z M65.4,62.3h50.4V8.5H65.4V62.3z"/>
						<path fill="#DDDDDD" d="M174.8,63.8h-53.5V7h53.5V63.8z M122.8,62.3h50.4V8.5h-50.4V62.3z"/>
						<path fill="#DDDDDD" d="M232.2,63.8h-53.5V7h53.5V63.8z M180.2,62.3h50.4V8.5h-50.4V62.3z"/>
						<path fill="#DDDDDD" d="M289.6,63.8h-53.5V7h53.5V63.8z M237.6,62.3H288V8.5h-50.4V62.3z"/>
						<path fill="#DDDDDD" d="M347,63.8h-53.5V7H347V63.8z M295,62.3h50.4V8.5H295V62.3z"/>
					</g>
					<rect x="-1.7" y="352.1" fill="#DDDDDD" width="356.9" height="1.5"/>
					<g>
						<path fill="#DDDDDD" d="M62.6,345.8H9.1V289h53.5V345.8z M10.7,344.3h50.4v-53.7H10.7V344.3z"/>
						<path fill="#DDDDDD" d="M120.1,345.8H66.6V289h53.5V345.8z M68.1,344.3h50.4v-53.7H68.1V344.3z"/>
						<path fill="#DDDDDD" d="M177.5,345.8H124V289h53.5V345.8z M125.5,344.3h50.4v-53.7h-50.4V344.3z"/>
						<path fill="#DDDDDD" d="M234.9,345.8h-53.5V289h53.5V345.8z M182.9,344.3h50.4v-53.7h-50.4V344.3z"/>
						<path fill="#DDDDDD" d="M292.3,345.8h-53.5V289h53.5V345.8z M240.3,344.3h50.4v-53.7h-50.4V344.3z"/>
						<path fill="#DDDDDD" d="M349.7,345.8h-53.5V289h53.5V345.8z M297.8,344.3h50.4v-53.7h-50.4V344.3z"/>
					</g>
				</g>
			</g>
			<g>
				<rect x="179.4" y="78.6" fill="#019BFF" width="52" height="55.3"/>
				<path fill="#019BFF" d="M231.8,134.2h-52.7v-56h52.7V134.2z M179.8,133.5H231V79h-51.2V133.5z"/>
			</g>
		</g>
	</g>
</g>
</svg>
