<?xml version="1.0" encoding="utf-8"?>
<!-- Generator: Adobe Illustrator 17.1.0, SVG Export Plug-In . SVG Version: 6.00 Build 0)  -->
<!DOCTYPE svg PUBLIC "-//W3C//DTD SVG 1.1//EN" "http://www.w3.org/Graphics/SVG/1.1/DTD/svg11.dtd">
<svg version="1.1" id="Layer_1" xmlns="http://www.w3.org/2000/svg" xmlns:xlink="http://www.w3.org/1999/xlink" x="0px" y="0px"
	 viewBox="0 0 276 421" enable-background="new 0 0 276 421" xml:space="preserve">
<g>
	<g>
		<defs>
			<rect id="SVGID_1_" x="6.9" y="-6.9" width="262.2" height="427.3"/>
		</defs>
		<clipPath id="SVGID_2_">
			<use xlink:href="#SVGID_1_"  overflow="visible"/>
		</clipPath>
		<g clip-path="url(#SVGID_2_)">
			<path fill="#CCCCCC" d="M238.5,3.7h-43.6c-1.9,1.2-4.2,1.9-6.7,1.9c-2.5,0-4.8-0.7-6.7-1.9H37.3C20.5,3.7,6.9,17.3,6.9,34.1
				v468.3c0,16.8,13.6,30.7,30.4,30.7h201.1c16.8,0,30.6-14,30.6-30.7V34.1C269.1,17.3,255.2,3.7,238.5,3.7z"/>
			<path fill="#999999" d="M266.6,502.2c0,15.7-12.8,28.5-28.5,28.5H37.2c-15.7,0-28.5-12.8-28.5-28.5V34
				c0-15.8,12.8-28.5,28.5-28.5h200.9c15.7,0,28.5,12.8,28.5,28.5V502.2L266.6,502.2z"/>
			<path fill="#CCCCCC" d="M264.1,502.3c0,14-11.3,25.2-25.2,25.2H37.1c-14,0-25.2-11.3-25.2-25.2V33.9c0-14,11.3-25.2,25.2-25.2
				h201.8c14,0,25.2,11.3,25.2,25.2V502.3z"/>
			<rect x="8.8" y="43.5" fill="#4D4D4D" width="257.9" height="449.7"/>
			<g>
				<rect x="8.8" y="43.5" fill="#4D4D4D" width="3.1" height="449.7"/>
				<rect x="263.5" y="43.5" fill="#4D4D4D" width="3.1" height="449.7"/>
			</g>
			<rect x="24.3" y="54.1" fill="#CCCCCC" width="228" height="404.9"/>
			<circle fill="#4D4D4D" cx="232.6" cy="30.1" r="8.5"/>
			<circle fill="#4D4D4D" cx="52.7" cy="32.3" r="3"/>
			<circle fill="#4D4D4D" cx="43.1" cy="32.3" r="3"/>
			<g>
				<g>
					<circle fill="#4D4D4D" cx="66.4" cy="25.5" r="0.9"/>
					<circle fill="#4D4D4D" cx="66.4" cy="28.8" r="0.9"/>
					<circle fill="#4D4D4D" cx="66.4" cy="31.3" r="0.9"/>
					<circle fill="#4D4D4D" cx="66.4" cy="34.6" r="0.9"/>
				</g>
				<g>
					<circle fill="#4D4D4D" cx="69.6" cy="25.5" r="0.9"/>
					<circle fill="#4D4D4D" cx="69.6" cy="28.8" r="0.9"/>
					<circle fill="#4D4D4D" cx="69.6" cy="31.3" r="0.9"/>
					<circle fill="#4D4D4D" cx="69.6" cy="34.6" r="0.9"/>
				</g>
				<g>
					<circle fill="#4D4D4D" cx="72.8" cy="25.5" r="0.9"/>
					<circle fill="#4D4D4D" cx="72.8" cy="28.8" r="0.9"/>
					<circle fill="#4D4D4D" cx="72.8" cy="31.3" r="0.9"/>
					<circle fill="#4D4D4D" cx="72.8" cy="34.6" r="0.9"/>
				</g>
				<g>
					<circle fill="#4D4D4D" cx="75.5" cy="25.5" r="0.9"/>
					<circle fill="#4D4D4D" cx="75.5" cy="28.8" r="0.9"/>
					<circle fill="#4D4D4D" cx="75.5" cy="31.3" r="0.9"/>
					<circle fill="#4D4D4D" cx="75.5" cy="34.6" r="0.9"/>
				</g>
				<g>
					<circle fill="#4D4D4D" cx="78.7" cy="25.5" r="0.9"/>
					<circle fill="#4D4D4D" cx="78.7" cy="28.8" r="0.9"/>
					<circle fill="#4D4D4D" cx="78.7" cy="31.3" r="0.9"/>
					<circle fill="#4D4D4D" cx="78.7" cy="34.6" r="0.9"/>
				</g>
				<g>
					<circle fill="#4D4D4D" cx="81.9" cy="25.5" r="0.9"/>
					<circle fill="#4D4D4D" cx="81.9" cy="28.8" r="0.9"/>
					<circle fill="#4D4D4D" cx="81.9" cy="31.3" r="0.9"/>
					<circle fill="#4D4D4D" cx="81.9" cy="34.6" r="0.9"/>
				</g>
				<g>
					<circle fill="#4D4D4D" cx="85.1" cy="25.5" r="0.9"/>
					<circle fill="#4D4D4D" cx="85.1" cy="28.8" r="0.9"/>
					<circle fill="#4D4D4D" cx="85.1" cy="31.3" r="0.9"/>
					<circle fill="#4D4D4D" cx="85.1" cy="34.6" r="0.9"/>
				</g>
				<g>
					<circle fill="#4D4D4D" cx="87.9" cy="25.5" r="0.9"/>
					<circle fill="#4D4D4D" cx="87.9" cy="28.8" r="0.9"/>
					<circle fill="#4D4D4D" cx="87.9" cy="31.3" r="0.9"/>
					<circle fill="#4D4D4D" cx="87.9" cy="34.6" r="0.9"/>
				</g>
				<g>
					<circle fill="#4D4D4D" cx="91" cy="25.5" r="0.9"/>
					<circle fill="#4D4D4D" cx="91" cy="28.8" r="0.9"/>
					<circle fill="#4D4D4D" cx="91" cy="31.3" r="0.9"/>
					<circle fill="#4D4D4D" cx="91" cy="34.6" r="0.9"/>
				</g>
				<g>
					<circle fill="#4D4D4D" cx="94.2" cy="25.5" r="0.9"/>
					<circle fill="#4D4D4D" cx="94.2" cy="28.8" r="0.9"/>
					<circle fill="#4D4D4D" cx="94.2" cy="31.3" r="0.9"/>
					<circle fill="#4D4D4D" cx="94.2" cy="34.6" r="0.9"/>
				</g>
				<g>
					<circle fill="#4D4D4D" cx="97.5" cy="25.5" r="0.9"/>
					<circle fill="#4D4D4D" cx="97.5" cy="28.8" r="0.9"/>
					<circle fill="#4D4D4D" cx="97.5" cy="31.3" r="0.9"/>
					<circle fill="#4D4D4D" cx="97.5" cy="34.6" r="0.9"/>
				</g>
				<g>
					<circle fill="#4D4D4D" cx="100.2" cy="25.5" r="0.9"/>
					<circle fill="#4D4D4D" cx="100.2" cy="28.8" r="0.9"/>
					<circle fill="#4D4D4D" cx="100.2" cy="31.3" r="0.9"/>
					<circle fill="#4D4D4D" cx="100.2" cy="34.6" r="0.9"/>
				</g>
				<g>
					<circle fill="#4D4D4D" cx="103.2" cy="25.5" r="0.9"/>
					<circle fill="#4D4D4D" cx="103.2" cy="28.8" r="0.9"/>
					<circle fill="#4D4D4D" cx="103.2" cy="31.3" r="0.9"/>
					<circle fill="#4D4D4D" cx="103.2" cy="34.6" r="0.9"/>
				</g>
				<g>
					<circle fill="#4D4D4D" cx="106.5" cy="25.5" r="0.9"/>
					<circle fill="#4D4D4D" cx="106.5" cy="28.8" r="0.9"/>
					<circle fill="#4D4D4D" cx="106.5" cy="31.3" r="0.9"/>
					<circle fill="#4D4D4D" cx="106.5" cy="34.6" r="0.9"/>
				</g>
				<g>
					<circle fill="#4D4D4D" cx="109.7" cy="25.5" r="0.9"/>
					<circle fill="#4D4D4D" cx="109.7" cy="28.8" r="0.9"/>
					<circle fill="#4D4D4D" cx="109.7" cy="31.3" r="0.9"/>
					<circle fill="#4D4D4D" cx="109.7" cy="34.6" r="0.9"/>
				</g>
				<g>
					<circle fill="#4D4D4D" cx="112.3" cy="25.5" r="0.9"/>
					<circle fill="#4D4D4D" cx="112.3" cy="28.8" r="0.9"/>
					<circle fill="#4D4D4D" cx="112.3" cy="31.3" r="0.9"/>
					<circle fill="#4D4D4D" cx="112.3" cy="34.6" r="0.9"/>
				</g>
				<g>
					<circle fill="#4D4D4D" cx="115.6" cy="25.5" r="0.9"/>
					<circle fill="#4D4D4D" cx="115.6" cy="28.8" r="0.9"/>
					<circle fill="#4D4D4D" cx="115.6" cy="31.3" r="0.9"/>
					<circle fill="#4D4D4D" cx="115.6" cy="34.6" r="0.9"/>
				</g>
				<g>
					<circle fill="#4D4D4D" cx="118.8" cy="25.5" r="0.9"/>
					<circle fill="#4D4D4D" cx="118.8" cy="28.8" r="0.9"/>
					<circle fill="#4D4D4D" cx="118.8" cy="31.3" r="0.9"/>
					<circle fill="#4D4D4D" cx="118.8" cy="34.6" r="0.9"/>
				</g>
				<g>
					<circle fill="#4D4D4D" cx="122" cy="25.5" r="0.9"/>
					<circle fill="#4D4D4D" cx="122" cy="28.8" r="0.9"/>
					<circle fill="#4D4D4D" cx="122" cy="31.3" r="0.9"/>
					<circle fill="#4D4D4D" cx="122" cy="34.6" r="0.9"/>
				</g>
				<g>
					<circle fill="#4D4D4D" cx="124.7" cy="25.5" r="0.9"/>
					<circle fill="#4D4D4D" cx="124.7" cy="28.8" r="0.9"/>
					<circle fill="#4D4D4D" cx="124.7" cy="31.3" r="0.9"/>
					<circle fill="#4D4D4D" cx="124.7" cy="34.6" r="0.9"/>
				</g>
				<g>
					<circle fill="#4D4D4D" cx="127.8" cy="25.5" r="0.9"/>
					<circle fill="#4D4D4D" cx="127.8" cy="28.8" r="0.9"/>
					<circle fill="#4D4D4D" cx="127.8" cy="31.3" r="0.9"/>
					<circle fill="#4D4D4D" cx="127.8" cy="34.6" r="0.9"/>
				</g>
				<g>
					<circle fill="#4D4D4D" cx="131.1" cy="25.5" r="0.9"/>
					<circle fill="#4D4D4D" cx="131.1" cy="28.8" r="0.9"/>
					<circle fill="#4D4D4D" cx="131.1" cy="31.3" r="0.9"/>
					<circle fill="#4D4D4D" cx="131.1" cy="34.6" r="0.9"/>
				</g>
				<g>
					<circle fill="#4D4D4D" cx="134.3" cy="25.5" r="0.9"/>
					<circle fill="#4D4D4D" cx="134.3" cy="28.8" r="0.9"/>
					<circle fill="#4D4D4D" cx="134.3" cy="31.3" r="0.9"/>
					<circle fill="#4D4D4D" cx="134.3" cy="34.6" r="0.9"/>
				</g>
				<g>
					<circle fill="#4D4D4D" cx="137.1" cy="25.5" r="0.9"/>
					<circle fill="#4D4D4D" cx="137.1" cy="28.8" r="0.9"/>
					<circle fill="#4D4D4D" cx="137.1" cy="31.3" r="0.9"/>
					<circle fill="#4D4D4D" cx="137.1" cy="34.6" r="0.9"/>
				</g>
				<g>
					<circle fill="#4D4D4D" cx="140.1" cy="25.5" r="0.9"/>
					<circle fill="#4D4D4D" cx="140.1" cy="28.8" r="0.9"/>
					<circle fill="#4D4D4D" cx="140.1" cy="31.3" r="0.9"/>
					<circle fill="#4D4D4D" cx="140.1" cy="34.6" r="0.9"/>
				</g>
				<g>
					<circle fill="#4D4D4D" cx="143.4" cy="25.5" r="0.9"/>
					<circle fill="#4D4D4D" cx="143.4" cy="28.8" r="0.9"/>
					<circle fill="#4D4D4D" cx="143.4" cy="31.3" r="0.9"/>
					<circle fill="#4D4D4D" cx="143.4" cy="34.6" r="0.9"/>
				</g>
				<g>
					<circle fill="#4D4D4D" cx="146.6" cy="25.5" r="0.9"/>
					<circle fill="#4D4D4D" cx="146.6" cy="28.8" r="0.9"/>
					<circle fill="#4D4D4D" cx="146.6" cy="31.3" r="0.9"/>
					<circle fill="#4D4D4D" cx="146.6" cy="34.6" r="0.9"/>
				</g>
				<g>
					<circle fill="#4D4D4D" cx="149.1" cy="25.5" r="0.9"/>
					<circle fill="#4D4D4D" cx="149.1" cy="28.8" r="0.9"/>
					<circle fill="#4D4D4D" cx="149.1" cy="31.3" r="0.9"/>
					<circle fill="#4D4D4D" cx="149.1" cy="34.6" r="0.9"/>
				</g>
				<g>
					<circle fill="#4D4D4D" cx="152.4" cy="25.5" r="0.9"/>
					<circle fill="#4D4D4D" cx="152.4" cy="28.8" r="0.9"/>
					<circle fill="#4D4D4D" cx="152.4" cy="31.3" r="0.9"/>
					<circle fill="#4D4D4D" cx="152.4" cy="34.6" r="0.9"/>
				</g>
				<g>
					<circle fill="#4D4D4D" cx="155.6" cy="25.5" r="0.9"/>
					<circle fill="#4D4D4D" cx="155.6" cy="28.8" r="0.9"/>
					<circle fill="#4D4D4D" cx="155.6" cy="31.3" r="0.9"/>
					<circle fill="#4D4D4D" cx="155.6" cy="34.6" r="0.9"/>
				</g>
				<g>
					<circle fill="#4D4D4D" cx="158.9" cy="25.5" r="0.9"/>
					<circle fill="#4D4D4D" cx="158.9" cy="28.8" r="0.9"/>
					<circle fill="#4D4D4D" cx="158.9" cy="31.3" r="0.9"/>
					<circle fill="#4D4D4D" cx="158.9" cy="34.6" r="0.9"/>
				</g>
				<g>
					<circle fill="#4D4D4D" cx="161.6" cy="25.5" r="0.9"/>
					<circle fill="#4D4D4D" cx="161.6" cy="28.8" r="0.9"/>
					<circle fill="#4D4D4D" cx="161.6" cy="31.3" r="0.9"/>
					<circle fill="#4D4D4D" cx="161.6" cy="34.6" r="0.9"/>
				</g>
				<g>
					<circle fill="#4D4D4D" cx="164.7" cy="25.5" r="0.9"/>
					<circle fill="#4D4D4D" cx="164.7" cy="28.8" r="0.9"/>
					<circle fill="#4D4D4D" cx="164.7" cy="31.3" r="0.9"/>
					<circle fill="#4D4D4D" cx="164.7" cy="34.6" r="0.9"/>
				</g>
				<g>
					<circle fill="#4D4D4D" cx="168" cy="25.5" r="0.9"/>
					<circle fill="#4D4D4D" cx="168" cy="28.8" r="0.9"/>
					<circle fill="#4D4D4D" cx="168" cy="31.3" r="0.9"/>
					<circle fill="#4D4D4D" cx="168" cy="34.6" r="0.9"/>
				</g>
				<g>
					<circle fill="#4D4D4D" cx="171.2" cy="25.5" r="0.9"/>
					<circle fill="#4D4D4D" cx="171.2" cy="28.8" r="0.9"/>
					<circle fill="#4D4D4D" cx="171.2" cy="31.3" r="0.9"/>
					<circle fill="#4D4D4D" cx="171.2" cy="34.6" r="0.9"/>
				</g>
				<g>
					<circle fill="#4D4D4D" cx="173.9" cy="25.5" r="0.9"/>
					<circle fill="#4D4D4D" cx="173.9" cy="28.8" r="0.9"/>
					<circle fill="#4D4D4D" cx="173.9" cy="31.3" r="0.9"/>
					<circle fill="#4D4D4D" cx="173.9" cy="34.6" r="0.9"/>
				</g>
				<g>
					<circle fill="#4D4D4D" cx="177" cy="25.5" r="0.9"/>
					<circle fill="#4D4D4D" cx="177" cy="28.8" r="0.9"/>
					<circle fill="#4D4D4D" cx="177" cy="31.3" r="0.9"/>
					<circle fill="#4D4D4D" cx="177" cy="34.6" r="0.9"/>
				</g>
				<g>
					<circle fill="#4D4D4D" cx="180.2" cy="25.5" r="0.9"/>
					<circle fill="#4D4D4D" cx="180.2" cy="28.8" r="0.9"/>
					<circle fill="#4D4D4D" cx="180.2" cy="31.3" r="0.9"/>
					<circle fill="#4D4D4D" cx="180.2" cy="34.6" r="0.9"/>
				</g>
				<g>
					<circle fill="#4D4D4D" cx="183.5" cy="25.5" r="0.9"/>
					<circle fill="#4D4D4D" cx="183.5" cy="28.8" r="0.9"/>
					<circle fill="#4D4D4D" cx="183.5" cy="31.3" r="0.9"/>
					<circle fill="#4D4D4D" cx="183.5" cy="34.6" r="0.9"/>
				</g>
				<g>
					<circle fill="#4D4D4D" cx="186" cy="25.5" r="0.9"/>
					<circle fill="#4D4D4D" cx="186" cy="28.8" r="0.9"/>
					<circle fill="#4D4D4D" cx="186" cy="31.3" r="0.9"/>
					<circle fill="#4D4D4D" cx="186" cy="34.6" r="0.9"/>
				</g>
				<g>
					<circle fill="#4D4D4D" cx="189.3" cy="25.5" r="0.9"/>
					<circle fill="#4D4D4D" cx="189.3" cy="28.8" r="0.9"/>
					<circle fill="#4D4D4D" cx="189.3" cy="31.3" r="0.9"/>
					<circle fill="#4D4D4D" cx="189.3" cy="34.6" r="0.9"/>
				</g>
				<g>
					<circle fill="#4D4D4D" cx="192.5" cy="25.5" r="0.9"/>
					<circle fill="#4D4D4D" cx="192.5" cy="28.8" r="0.9"/>
					<circle fill="#4D4D4D" cx="192.5" cy="31.3" r="0.9"/>
					<circle fill="#4D4D4D" cx="192.5" cy="34.6" r="0.9"/>
				</g>
				<g>
					<circle fill="#4D4D4D" cx="195.7" cy="25.5" r="0.9"/>
					<circle fill="#4D4D4D" cx="195.7" cy="28.8" r="0.9"/>
					<circle fill="#4D4D4D" cx="195.7" cy="31.3" r="0.9"/>
					<circle fill="#4D4D4D" cx="195.7" cy="34.6" r="0.9"/>
				</g>
				<g>
					<circle fill="#4D4D4D" cx="198.5" cy="25.5" r="0.9"/>
					<circle fill="#4D4D4D" cx="198.5" cy="28.8" r="0.9"/>
					<circle fill="#4D4D4D" cx="198.5" cy="31.3" r="0.9"/>
					<circle fill="#4D4D4D" cx="198.5" cy="34.6" r="0.9"/>
				</g>
				<g>
					<circle fill="#4D4D4D" cx="201.6" cy="25.5" r="0.9"/>
					<circle fill="#4D4D4D" cx="201.6" cy="28.8" r="0.9"/>
					<circle fill="#4D4D4D" cx="201.6" cy="31.3" r="0.9"/>
					<circle fill="#4D4D4D" cx="201.6" cy="34.6" r="0.9"/>
				</g>
				<g>
					<circle fill="#4D4D4D" cx="204.8" cy="25.5" r="0.9"/>
					<circle fill="#4D4D4D" cx="204.8" cy="28.8" r="0.9"/>
					<circle fill="#4D4D4D" cx="204.8" cy="31.3" r="0.9"/>
					<circle fill="#4D4D4D" cx="204.8" cy="34.6" r="0.9"/>
				</g>
				<g>
					<circle fill="#4D4D4D" cx="208" cy="25.5" r="0.9"/>
					<circle fill="#4D4D4D" cx="208" cy="28.8" r="0.9"/>
					<circle fill="#4D4D4D" cx="208" cy="31.3" r="0.9"/>
					<circle fill="#4D4D4D" cx="208" cy="34.6" r="0.9"/>
				</g>
				<g>
					<circle fill="#4D4D4D" cx="210.8" cy="25.5" r="0.9"/>
					<circle fill="#4D4D4D" cx="210.8" cy="28.8" r="0.9"/>
					<circle fill="#4D4D4D" cx="210.8" cy="31.3" r="0.9"/>
					<circle fill="#4D4D4D" cx="210.8" cy="34.6" r="0.9"/>
				</g>
				<g>
					<circle fill="#4D4D4D" cx="213.9" cy="25.5" r="0.9"/>
					<circle fill="#4D4D4D" cx="213.9" cy="28.8" r="0.9"/>
					<circle fill="#4D4D4D" cx="213.9" cy="31.3" r="0.9"/>
					<circle fill="#4D4D4D" cx="213.9" cy="34.6" r="0.9"/>
				</g>
			</g>
			<g>
				<g>
					<circle fill="#4D4D4D" cx="66.4" cy="502.2" r="0.9"/>
					<circle fill="#4D4D4D" cx="66.4" cy="505.5" r="0.9"/>
					<circle fill="#4D4D4D" cx="66.4" cy="508" r="0.9"/>
					<circle fill="#4D4D4D" cx="66.4" cy="511.3" r="0.9"/>
				</g>
				<g>
					<circle fill="#4D4D4D" cx="69.6" cy="502.2" r="0.9"/>
					<circle fill="#4D4D4D" cx="69.6" cy="505.5" r="0.9"/>
					<circle fill="#4D4D4D" cx="69.6" cy="508" r="0.9"/>
					<circle fill="#4D4D4D" cx="69.6" cy="511.3" r="0.9"/>
				</g>
				<g>
					<circle fill="#4D4D4D" cx="72.8" cy="502.2" r="0.9"/>
					<circle fill="#4D4D4D" cx="72.8" cy="505.5" r="0.9"/>
					<circle fill="#4D4D4D" cx="72.8" cy="508" r="0.9"/>
					<circle fill="#4D4D4D" cx="72.8" cy="511.3" r="0.9"/>
				</g>
				<g>
					<circle fill="#4D4D4D" cx="75.5" cy="502.2" r="0.9"/>
					<circle fill="#4D4D4D" cx="75.5" cy="505.5" r="0.9"/>
					<circle fill="#4D4D4D" cx="75.5" cy="508" r="0.9"/>
					<circle fill="#4D4D4D" cx="75.5" cy="511.3" r="0.9"/>
				</g>
				<g>
					<circle fill="#4D4D4D" cx="78.7" cy="502.2" r="0.9"/>
					<circle fill="#4D4D4D" cx="78.7" cy="505.5" r="0.9"/>
					<circle fill="#4D4D4D" cx="78.7" cy="508" r="0.9"/>
					<circle fill="#4D4D4D" cx="78.7" cy="511.3" r="0.9"/>
				</g>
				<g>
					<circle fill="#4D4D4D" cx="81.9" cy="502.2" r="0.9"/>
					<circle fill="#4D4D4D" cx="81.9" cy="505.5" r="0.9"/>
					<circle fill="#4D4D4D" cx="81.9" cy="508" r="0.9"/>
					<circle fill="#4D4D4D" cx="81.9" cy="511.3" r="0.9"/>
				</g>
				<g>
					<circle fill="#4D4D4D" cx="85.1" cy="502.2" r="0.9"/>
					<circle fill="#4D4D4D" cx="85.1" cy="505.5" r="0.9"/>
					<circle fill="#4D4D4D" cx="85.1" cy="508" r="0.9"/>
					<circle fill="#4D4D4D" cx="85.1" cy="511.3" r="0.9"/>
				</g>
				<g>
					<circle fill="#4D4D4D" cx="87.9" cy="502.2" r="0.9"/>
					<circle fill="#4D4D4D" cx="87.9" cy="505.5" r="0.9"/>
					<circle fill="#4D4D4D" cx="87.9" cy="508" r="0.9"/>
					<circle fill="#4D4D4D" cx="87.9" cy="511.3" r="0.9"/>
				</g>
				<g>
					<circle fill="#4D4D4D" cx="91" cy="502.2" r="0.9"/>
					<circle fill="#4D4D4D" cx="91" cy="505.5" r="0.9"/>
					<circle fill="#4D4D4D" cx="91" cy="508" r="0.9"/>
					<circle fill="#4D4D4D" cx="91" cy="511.3" r="0.9"/>
				</g>
				<g>
					<circle fill="#4D4D4D" cx="94.2" cy="502.2" r="0.9"/>
					<circle fill="#4D4D4D" cx="94.2" cy="505.5" r="0.9"/>
					<circle fill="#4D4D4D" cx="94.2" cy="508" r="0.9"/>
					<circle fill="#4D4D4D" cx="94.2" cy="511.3" r="0.9"/>
				</g>
				<g>
					<circle fill="#4D4D4D" cx="97.5" cy="502.2" r="0.9"/>
					<circle fill="#4D4D4D" cx="97.5" cy="505.5" r="0.9"/>
					<circle fill="#4D4D4D" cx="97.5" cy="508" r="0.9"/>
					<circle fill="#4D4D4D" cx="97.5" cy="511.3" r="0.9"/>
				</g>
				<g>
					<circle fill="#4D4D4D" cx="100.2" cy="502.2" r="0.9"/>
					<circle fill="#4D4D4D" cx="100.2" cy="505.5" r="0.9"/>
					<circle fill="#4D4D4D" cx="100.2" cy="508" r="0.9"/>
					<circle fill="#4D4D4D" cx="100.2" cy="511.3" r="0.9"/>
				</g>
				<g>
					<circle fill="#4D4D4D" cx="103.2" cy="502.2" r="0.9"/>
					<circle fill="#4D4D4D" cx="103.2" cy="505.5" r="0.9"/>
					<circle fill="#4D4D4D" cx="103.2" cy="508" r="0.9"/>
					<circle fill="#4D4D4D" cx="103.2" cy="511.3" r="0.9"/>
				</g>
				<g>
					<circle fill="#4D4D4D" cx="106.5" cy="502.2" r="0.9"/>
					<circle fill="#4D4D4D" cx="106.5" cy="505.5" r="0.9"/>
					<circle fill="#4D4D4D" cx="106.5" cy="508" r="0.9"/>
					<circle fill="#4D4D4D" cx="106.5" cy="511.3" r="0.9"/>
				</g>
				<g>
					<circle fill="#4D4D4D" cx="109.7" cy="502.2" r="0.9"/>
					<circle fill="#4D4D4D" cx="109.7" cy="505.5" r="0.9"/>
					<circle fill="#4D4D4D" cx="109.7" cy="508" r="0.9"/>
					<circle fill="#4D4D4D" cx="109.7" cy="511.3" r="0.9"/>
				</g>
				<g>
					<circle fill="#4D4D4D" cx="112.3" cy="502.2" r="0.9"/>
					<circle fill="#4D4D4D" cx="112.3" cy="505.5" r="0.9"/>
					<circle fill="#4D4D4D" cx="112.3" cy="508" r="0.9"/>
					<circle fill="#4D4D4D" cx="112.3" cy="511.3" r="0.9"/>
				</g>
				<g>
					<circle fill="#4D4D4D" cx="115.6" cy="502.2" r="0.9"/>
					<circle fill="#4D4D4D" cx="115.6" cy="505.5" r="0.9"/>
					<circle fill="#4D4D4D" cx="115.6" cy="508" r="0.9"/>
					<circle fill="#4D4D4D" cx="115.6" cy="511.3" r="0.9"/>
				</g>
				<g>
					<circle fill="#4D4D4D" cx="118.8" cy="502.2" r="0.9"/>
					<circle fill="#4D4D4D" cx="118.8" cy="505.5" r="0.9"/>
					<circle fill="#4D4D4D" cx="118.8" cy="508" r="0.9"/>
					<circle fill="#4D4D4D" cx="118.8" cy="511.3" r="0.9"/>
				</g>
				<g>
					<circle fill="#4D4D4D" cx="122" cy="502.2" r="0.9"/>
					<circle fill="#4D4D4D" cx="122" cy="505.5" r="0.9"/>
					<circle fill="#4D4D4D" cx="122" cy="508" r="0.9"/>
					<circle fill="#4D4D4D" cx="122" cy="511.3" r="0.9"/>
				</g>
				<g>
					<circle fill="#4D4D4D" cx="124.7" cy="502.2" r="0.9"/>
					<circle fill="#4D4D4D" cx="124.7" cy="505.5" r="0.9"/>
					<circle fill="#4D4D4D" cx="124.7" cy="508" r="0.9"/>
					<circle fill="#4D4D4D" cx="124.7" cy="511.3" r="0.9"/>
				</g>
				<g>
					<circle fill="#4D4D4D" cx="127.8" cy="502.2" r="0.9"/>
					<circle fill="#4D4D4D" cx="127.8" cy="505.5" r="0.9"/>
					<circle fill="#4D4D4D" cx="127.8" cy="508" r="0.9"/>
					<circle fill="#4D4D4D" cx="127.8" cy="511.3" r="0.9"/>
				</g>
				<g>
					<circle fill="#4D4D4D" cx="131.1" cy="502.2" r="0.9"/>
					<circle fill="#4D4D4D" cx="131.1" cy="505.5" r="0.9"/>
					<circle fill="#4D4D4D" cx="131.1" cy="508" r="0.9"/>
					<circle fill="#4D4D4D" cx="131.1" cy="511.3" r="0.9"/>
				</g>
				<g>
					<circle fill="#4D4D4D" cx="134.3" cy="502.2" r="0.9"/>
					<circle fill="#4D4D4D" cx="134.3" cy="505.5" r="0.9"/>
					<circle fill="#4D4D4D" cx="134.3" cy="508" r="0.9"/>
					<circle fill="#4D4D4D" cx="134.3" cy="511.3" r="0.9"/>
				</g>
				<g>
					<circle fill="#4D4D4D" cx="137.1" cy="502.2" r="0.9"/>
					<circle fill="#4D4D4D" cx="137.1" cy="505.5" r="0.9"/>
					<circle fill="#4D4D4D" cx="137.1" cy="508" r="0.9"/>
					<circle fill="#4D4D4D" cx="137.1" cy="511.3" r="0.9"/>
				</g>
				<g>
					<circle fill="#4D4D4D" cx="140.1" cy="502.2" r="0.9"/>
					<circle fill="#4D4D4D" cx="140.1" cy="505.5" r="0.9"/>
					<circle fill="#4D4D4D" cx="140.1" cy="508" r="0.9"/>
					<circle fill="#4D4D4D" cx="140.1" cy="511.3" r="0.9"/>
				</g>
				<g>
					<circle fill="#4D4D4D" cx="143.4" cy="502.2" r="0.9"/>
					<circle fill="#4D4D4D" cx="143.4" cy="505.5" r="0.9"/>
					<circle fill="#4D4D4D" cx="143.4" cy="508" r="0.9"/>
					<circle fill="#4D4D4D" cx="143.4" cy="511.3" r="0.9"/>
				</g>
				<g>
					<circle fill="#4D4D4D" cx="146.6" cy="502.2" r="0.9"/>
					<circle fill="#4D4D4D" cx="146.6" cy="505.5" r="0.9"/>
					<circle fill="#4D4D4D" cx="146.6" cy="508" r="0.9"/>
					<circle fill="#4D4D4D" cx="146.6" cy="511.3" r="0.9"/>
				</g>
				<g>
					<circle fill="#4D4D4D" cx="149.1" cy="502.2" r="0.9"/>
					<circle fill="#4D4D4D" cx="149.1" cy="505.5" r="0.9"/>
					<circle fill="#4D4D4D" cx="149.1" cy="508" r="0.9"/>
					<circle fill="#4D4D4D" cx="149.1" cy="511.3" r="0.9"/>
				</g>
				<g>
					<circle fill="#4D4D4D" cx="152.4" cy="502.2" r="0.9"/>
					<circle fill="#4D4D4D" cx="152.4" cy="505.5" r="0.9"/>
					<circle fill="#4D4D4D" cx="152.4" cy="508" r="0.9"/>
					<circle fill="#4D4D4D" cx="152.4" cy="511.3" r="0.9"/>
				</g>
				<g>
					<circle fill="#4D4D4D" cx="155.6" cy="502.2" r="0.9"/>
					<circle fill="#4D4D4D" cx="155.6" cy="505.5" r="0.9"/>
					<circle fill="#4D4D4D" cx="155.6" cy="508" r="0.9"/>
					<circle fill="#4D4D4D" cx="155.6" cy="511.3" r="0.9"/>
				</g>
				<g>
					<circle fill="#4D4D4D" cx="158.9" cy="502.2" r="0.9"/>
					<circle fill="#4D4D4D" cx="158.9" cy="505.5" r="0.9"/>
					<circle fill="#4D4D4D" cx="158.9" cy="508" r="0.9"/>
					<circle fill="#4D4D4D" cx="158.9" cy="511.3" r="0.9"/>
				</g>
				<g>
					<circle fill="#4D4D4D" cx="161.6" cy="502.2" r="0.9"/>
					<circle fill="#4D4D4D" cx="161.6" cy="505.5" r="0.9"/>
					<circle fill="#4D4D4D" cx="161.6" cy="508" r="0.9"/>
					<circle fill="#4D4D4D" cx="161.6" cy="511.3" r="0.9"/>
				</g>
				<g>
					<circle fill="#4D4D4D" cx="164.7" cy="502.2" r="0.9"/>
					<circle fill="#4D4D4D" cx="164.7" cy="505.5" r="0.9"/>
					<circle fill="#4D4D4D" cx="164.7" cy="508" r="0.9"/>
					<circle fill="#4D4D4D" cx="164.7" cy="511.3" r="0.9"/>
				</g>
				<g>
					<circle fill="#4D4D4D" cx="168" cy="502.2" r="0.9"/>
					<circle fill="#4D4D4D" cx="168" cy="505.5" r="0.9"/>
					<circle fill="#4D4D4D" cx="168" cy="508" r="0.9"/>
					<circle fill="#4D4D4D" cx="168" cy="511.3" r="0.9"/>
				</g>
				<g>
					<circle fill="#4D4D4D" cx="171.2" cy="502.2" r="0.9"/>
					<circle fill="#4D4D4D" cx="171.2" cy="505.5" r="0.9"/>
					<circle fill="#4D4D4D" cx="171.2" cy="508" r="0.9"/>
					<circle fill="#4D4D4D" cx="171.2" cy="511.3" r="0.9"/>
				</g>
				<g>
					<circle fill="#4D4D4D" cx="173.9" cy="502.2" r="0.9"/>
					<circle fill="#4D4D4D" cx="173.9" cy="505.5" r="0.9"/>
					<circle fill="#4D4D4D" cx="173.9" cy="508" r="0.9"/>
					<circle fill="#4D4D4D" cx="173.9" cy="511.3" r="0.9"/>
				</g>
				<g>
					<circle fill="#4D4D4D" cx="177" cy="502.2" r="0.9"/>
					<circle fill="#4D4D4D" cx="177" cy="505.5" r="0.9"/>
					<circle fill="#4D4D4D" cx="177" cy="508" r="0.9"/>
					<circle fill="#4D4D4D" cx="177" cy="511.3" r="0.9"/>
				</g>
				<g>
					<circle fill="#4D4D4D" cx="180.2" cy="502.2" r="0.9"/>
					<circle fill="#4D4D4D" cx="180.2" cy="505.5" r="0.9"/>
					<circle fill="#4D4D4D" cx="180.2" cy="508" r="0.9"/>
					<circle fill="#4D4D4D" cx="180.2" cy="511.3" r="0.9"/>
				</g>
				<g>
					<circle fill="#4D4D4D" cx="183.5" cy="502.2" r="0.9"/>
					<circle fill="#4D4D4D" cx="183.5" cy="505.5" r="0.9"/>
					<circle fill="#4D4D4D" cx="183.5" cy="508" r="0.9"/>
					<circle fill="#4D4D4D" cx="183.5" cy="511.3" r="0.9"/>
				</g>
				<g>
					<circle fill="#4D4D4D" cx="186" cy="502.2" r="0.9"/>
					<circle fill="#4D4D4D" cx="186" cy="505.5" r="0.9"/>
					<circle fill="#4D4D4D" cx="186" cy="508" r="0.9"/>
					<circle fill="#4D4D4D" cx="186" cy="511.3" r="0.9"/>
				</g>
				<g>
					<circle fill="#4D4D4D" cx="189.3" cy="502.2" r="0.9"/>
					<circle fill="#4D4D4D" cx="189.3" cy="505.5" r="0.9"/>
					<circle fill="#4D4D4D" cx="189.3" cy="508" r="0.9"/>
					<circle fill="#4D4D4D" cx="189.3" cy="511.3" r="0.9"/>
				</g>
				<g>
					<circle fill="#4D4D4D" cx="192.5" cy="502.2" r="0.9"/>
					<circle fill="#4D4D4D" cx="192.5" cy="505.5" r="0.9"/>
					<circle fill="#4D4D4D" cx="192.5" cy="508" r="0.9"/>
					<circle fill="#4D4D4D" cx="192.5" cy="511.3" r="0.9"/>
				</g>
				<g>
					<circle fill="#4D4D4D" cx="195.7" cy="502.2" r="0.9"/>
					<circle fill="#4D4D4D" cx="195.7" cy="505.5" r="0.9"/>
					<circle fill="#4D4D4D" cx="195.7" cy="508" r="0.9"/>
					<circle fill="#4D4D4D" cx="195.7" cy="511.3" r="0.9"/>
				</g>
				<g>
					<circle fill="#4D4D4D" cx="198.5" cy="502.2" r="0.9"/>
					<circle fill="#4D4D4D" cx="198.5" cy="505.5" r="0.9"/>
					<circle fill="#4D4D4D" cx="198.5" cy="508" r="0.9"/>
					<circle fill="#4D4D4D" cx="198.5" cy="511.3" r="0.9"/>
				</g>
				<g>
					<circle fill="#4D4D4D" cx="201.6" cy="502.2" r="0.9"/>
					<circle fill="#4D4D4D" cx="201.6" cy="505.5" r="0.9"/>
					<circle fill="#4D4D4D" cx="201.6" cy="508" r="0.9"/>
					<circle fill="#4D4D4D" cx="201.6" cy="511.3" r="0.9"/>
				</g>
				<g>
					<circle fill="#4D4D4D" cx="204.8" cy="502.2" r="0.9"/>
					<circle fill="#4D4D4D" cx="204.8" cy="505.5" r="0.9"/>
					<circle fill="#4D4D4D" cx="204.8" cy="508" r="0.9"/>
					<circle fill="#4D4D4D" cx="204.8" cy="511.3" r="0.9"/>
				</g>
				<g>
					<circle fill="#4D4D4D" cx="208" cy="502.2" r="0.9"/>
					<circle fill="#4D4D4D" cx="208" cy="505.5" r="0.9"/>
					<circle fill="#4D4D4D" cx="208" cy="508" r="0.9"/>
					<circle fill="#4D4D4D" cx="208" cy="511.3" r="0.9"/>
				</g>
				<g>
					<circle fill="#4D4D4D" cx="210.8" cy="502.2" r="0.9"/>
					<circle fill="#4D4D4D" cx="210.8" cy="505.5" r="0.9"/>
					<circle fill="#4D4D4D" cx="210.8" cy="508" r="0.9"/>
					<circle fill="#4D4D4D" cx="210.8" cy="511.3" r="0.9"/>
				</g>
				<g>
					<circle fill="#4D4D4D" cx="213.9" cy="502.2" r="0.9"/>
					<circle fill="#4D4D4D" cx="213.9" cy="505.5" r="0.9"/>
					<circle fill="#4D4D4D" cx="213.9" cy="508" r="0.9"/>
					<circle fill="#4D4D4D" cx="213.9" cy="511.3" r="0.9"/>
				</g>
			</g>
			<rect x="45.5" y="3.7" fill="#4D4D4D" width="37.4" height="1.9"/>
		</g>
	</g>
	<g>
		<defs>
			<rect id="SVGID_3_" x="6.9" y="-6.9" width="262.2" height="427.3"/>
		</defs>
		<clipPath id="SVGID_4_">
			<use xlink:href="#SVGID_3_"  overflow="visible"/>
		</clipPath>
	</g>
</g>
</svg>
