<?xml version="1.0" encoding="utf-8"?>
<!-- Generator: Adobe Illustrator 18.0.0, SVG Export Plug-In . SVG Version: 6.00 Build 0)  -->
<!DOCTYPE svg PUBLIC "-//W3C//DTD SVG 1.1//EN" "http://www.w3.org/Graphics/SVG/1.1/DTD/svg11.dtd">
<svg version="1.1" xmlns="http://www.w3.org/2000/svg" xmlns:xlink="http://www.w3.org/1999/xlink" x="0px" y="0px" width="50.1px"
	 height="50.1px" viewBox="0 0 50.1 50.1" enable-background="new 0 0 50.1 50.1" xml:space="preserve">
<g id="Layer_1">
</g>
<g id="_x31_._Home">
	<g id="icon_4_">
	</g>
	<g>
		<rect x="1" y="1" fill="none" stroke="#FFFFFF" stroke-width="2" stroke-miterlimit="10" width="48.1" height="48.1"/>
		<g>
			<path fill="#FFFFFF" d="M32,13.7h-14c-2.4,0-4.4,2-4.4,4.4v4.6V32c0,2.4,2,4.4,4.4,4.4h14c2.4,0,4.4-2,4.4-4.4v-9.3v-4.6
				C36.4,15.6,34.5,13.7,32,13.7z M33.3,16.3l0.5,0v0.5v3.4l-3.8,0l0-3.9L33.3,16.3z M21.8,22.7c0.7-1,1.9-1.7,3.2-1.7
				c1.3,0,2.5,0.7,3.2,1.7c0.5,0.7,0.8,1.5,0.8,2.3c0,2.2-1.8,4-4,4c-2.2,0-4-1.8-4-4C21,24.2,21.3,23.4,21.8,22.7z M34.2,32
				c0,1.2-1,2.2-2.2,2.2h-14c-1.2,0-2.2-1-2.2-2.2v-9.3h3.4c-0.3,0.7-0.5,1.5-0.5,2.3c0,3.4,2.8,6.2,6.2,6.2c3.4,0,6.2-2.8,6.2-6.2
				c0-0.8-0.2-1.6-0.5-2.3h3.4V32z"/>
		</g>
	</g>
</g>
</svg>
