<?xml version="1.0" encoding="utf-8"?>
<!-- Generator: Adobe Illustrator 18.0.0, SVG Export Plug-In . SVG Version: 6.00 Build 0)  -->
<!DOCTYPE svg PUBLIC "-//W3C//DTD SVG 1.1//EN" "http://www.w3.org/Graphics/SVG/1.1/DTD/svg11.dtd">
<svg version="1.1" xmlns="http://www.w3.org/2000/svg" xmlns:xlink="http://www.w3.org/1999/xlink" x="0px" y="0px" width="50.1px"
	 height="50.1px" viewBox="0 0 50.1 50.1" enable-background="new 0 0 50.1 50.1" xml:space="preserve">
<g id="Layer_1">
</g>
<g id="_x31_._Home">
	<g id="icon_4_">
	</g>
	<g>
		<rect x="1" y="1" fill="none" stroke="#FFFFFF" stroke-width="2" stroke-miterlimit="10" width="48.1" height="48.1"/>
		<g>
			<path fill="#FFFFFF" d="M35.8,16.1c-0.9,0.5-1.9,0.9-3,1.1c-0.9-0.9-2.1-1.5-3.4-1.5c-2.6,0-4.7,2.1-4.7,4.7c0,0.4,0,0.7,0.1,1.1
				c-3.9-0.2-7.3-2.1-9.6-4.9c-0.4,0.7-0.6,1.5-0.6,2.3c0,1.6,0.8,3.1,2.1,3.9c-0.8,0-1.5-0.2-2.1-0.6c0,0,0,0,0,0.1
				c0,2.3,1.6,4.2,3.7,4.6c-0.4,0.1-0.8,0.2-1.2,0.2c-0.3,0-0.6,0-0.9-0.1c0.6,1.9,2.3,3.2,4.4,3.2c-1.6,1.3-3.6,2-5.8,2
				c-0.4,0-0.7,0-1.1-0.1c2.1,1.3,4.5,2.1,7.2,2.1c8.6,0,13.3-7.1,13.3-13.3c0-0.2,0-0.4,0-0.6c0.9-0.7,1.7-1.5,2.3-2.4
				c-0.8,0.4-1.7,0.6-2.7,0.7C34.7,18.1,35.4,17.2,35.8,16.1z"/>
		</g>
	</g>
</g>
</svg>
