<?xml version="1.0" encoding="utf-8"?>
<!-- Generator: Adobe Illustrator 18.0.0, SVG Export Plug-In . SVG Version: 6.00 Build 0)  -->
<!DOCTYPE svg PUBLIC "-//W3C//DTD SVG 1.1//EN" "http://www.w3.org/Graphics/SVG/1.1/DTD/svg11.dtd">
<svg version="1.1" id="Layer_1" xmlns="http://www.w3.org/2000/svg" xmlns:xlink="http://www.w3.org/1999/xlink" x="0px" y="0px"
	 width="889.4px" height="525.6px" viewBox="0 0 889.4 525.6" enable-background="new 0 0 889.4 525.6" xml:space="preserve">
<g id="Layer_1_1_">
</g>
<g>
	<defs>
		<rect id="SVGID_1_" width="889.4" height="525.6"/>
	</defs>
	<clipPath id="SVGID_2_">
		<use xlink:href="#SVGID_1_"  overflow="visible"/>
	</clipPath>
	<rect x="-9.2" y="-5.5" clip-path="url(#SVGID_2_)" fill="#009BFF" width="907.9" height="536.6"/>
</g>
<g>
	<defs>
		<rect id="SVGID_3_" width="889.4" height="525.6"/>
	</defs>
	<clipPath id="SVGID_4_">
		<use xlink:href="#SVGID_3_"  overflow="visible"/>
	</clipPath>
	<path opacity="0.5" clip-path="url(#SVGID_4_)" fill="#333333" enable-background="new    " d="M928.9,206.7l-20.6-20.4L657.3,440
		L415.6,198.7l78.5-79.5l117.2,117.5c0.8,0.8,1.8,1.2,2.8,1.2s2-0.4,2.8-1.2c1.6-1.6,1.6-4.1,0-5.7L499.8,113.5L639.9-28.3
		l-20.6-20.4L395.1,178.2l-216.3-216l-20.5,20.5l216.4,216.1L53.2,524.3l20.6,20.4l321.4-325.4L637,460.6L364.2,736.3l20.6,20.4
		l272.6-275.6l81.8,81.7l20.5-20.5l-81.9-81.8L928.9,206.7z"/>
	<g clip-path="url(#SVGID_4_)">
		<g enable-background="new    ">
			<path fill="#FAFAFA" d="M561.5,269.5v-13.3h5c2.6,0,4,1.8,4,3.9c0,2.1-1.5,3.9-4,3.9h-3.9v5.5H561.5z M569.3,260.1
				c0-1.7-1.2-2.9-2.9-2.9h-3.7v5.7h3.7C568.1,263,569.3,261.8,569.3,260.1z"/>
			<path fill="#FAFAFA" d="M572.8,269.5v-9.7h1v1.7c0.8-1.1,1.9-1.9,3.3-1.9v1.1c-0.2,0-0.3,0-0.5,0c-1,0-2.3,0.9-2.7,1.7v7H572.8z"
				/>
			<path fill="#FAFAFA" d="M578.6,264.7c0-2.8,2-5.1,4.6-5.1c2.9,0,4.6,2.3,4.6,5.1v0.3h-8.1c0.1,2.1,1.5,3.8,3.8,3.8
				c1.2,0,2.3-0.5,3.2-1.3l0.5,0.7c-1,1-2.2,1.6-3.8,1.6C580.6,269.8,578.6,267.7,578.6,264.7z M583.3,260.5c-2.3,0-3.4,2-3.5,3.7h7
				C586.8,262.6,585.7,260.5,583.3,260.5z"/>
			<path fill="#FAFAFA" d="M602,269.5v-6.8c0-1.4-0.6-2.2-1.9-2.2c-1,0-2.2,0.8-2.8,1.6v7.3h-1.1v-6.8c0-1.4-0.6-2.2-1.9-2.2
				c-1,0-2.2,0.8-2.8,1.7v7.3h-1v-9.7h1v1.5c0.4-0.6,1.7-1.7,3.1-1.7c1.5,0,2.3,0.9,2.5,1.8c0.5-0.9,1.8-1.8,3.2-1.8
				c1.8,0,2.6,1,2.6,2.9v7H602z"/>
			<path fill="#FAFAFA" d="M606,257.6c0-0.4,0.4-0.8,0.8-0.8c0.4,0,0.8,0.3,0.8,0.8s-0.4,0.8-0.8,0.8C606.4,258.4,606,258,606,257.6
				z M606.3,269.5v-9.7h1v9.7H606.3z"/>
			<path fill="#FAFAFA" d="M609.7,268.2l0.6-0.8c0.6,0.8,1.8,1.4,3.1,1.4c1.6,0,2.6-0.8,2.6-2c0-2.6-6.1-1.1-6.1-4.6
				c0-1.5,1.3-2.7,3.4-2.7c1.7,0,2.8,0.6,3.5,1.4l-0.6,0.7c-0.6-0.8-1.6-1.3-2.9-1.3c-1.5,0-2.4,0.8-2.4,1.8c0,2.4,6.1,0.9,6.1,4.7
				c0,1.6-1.2,2.8-3.6,2.8C611.9,269.8,610.7,269.3,609.7,268.2z"/>
			<path fill="#FAFAFA" d="M619.2,264.7c0-2.8,2-5.1,4.6-5.1c2.9,0,4.6,2.3,4.6,5.1v0.3h-8.1c0.1,2.1,1.5,3.8,3.8,3.8
				c1.2,0,2.3-0.5,3.2-1.3l0.5,0.7c-1,1-2.2,1.6-3.8,1.6C621.2,269.8,619.2,267.7,619.2,264.7z M623.8,260.5c-2.3,0-3.4,2-3.5,3.7h7
				C627.3,262.6,626.3,260.5,623.8,260.5z"/>
			<path fill="#FAFAFA" d="M645.9,269.5v-6.3h-8.5v6.3h-1.1v-13.3h1.1v6h8.5v-6h1.1v13.3H645.9z"/>
			<path fill="#FAFAFA" d="M649.9,262.9c0-3.9,2.6-6.9,6.5-6.9c3.9,0,6.5,3,6.5,6.9c0,2-0.7,3.8-1.9,5l1.4,1.5l-0.8,0.7l-1.4-1.5
				c-1,0.7-2.3,1.2-3.8,1.2C652.4,269.8,649.9,266.8,649.9,262.9z M659.4,267.8l-2.1-2.1l0.8-0.7l2.1,2.2c0.9-1.1,1.5-2.5,1.5-4.2
				c0-3.4-2.1-5.9-5.3-5.9c-3.2,0-5.3,2.5-5.3,5.9c0,3.4,2.1,5.9,5.3,5.9C657.5,268.7,658.6,268.4,659.4,267.8z"/>
		</g>
		<path fill="#FFFFFF" d="M543.6,250.7c-4.6,0-8.2,3.7-8.2,8.2c0,0.1,0,0.2,0,0.3c0,0.9,0.2,1.7,0.5,2.5c1.8,5.8,7.8,13.3,7.8,13.3
			s6-7.5,7.8-13.3c0.3-0.8,0.4-1.6,0.5-2.5c0-0.1,0-0.2,0-0.3C551.9,254.4,548.2,250.7,543.6,250.7z M543.6,263c-2.2,0-4-1.8-4-4
			s1.8-4,4-4s4,1.8,4,4C547.7,261.1,545.9,263,543.6,263z"/>
	</g>
	<g clip-path="url(#SVGID_4_)" enable-background="new    ">
		<path fill="#FFFFFF" d="M724,401.6l-6.3-6.2l-1.7,1.7l-1.4-1.3l4.8-4.9l1.3,1.3l-1.7,1.7l6.3,6.2L724,401.6z"/>
		<path fill="#FFFFFF" d="M725,393.1c-2.3-2.2-2.8-5.1-0.8-7.1c2-2,4.8-1.6,7.1,0.7c2.3,2.2,2.8,5.1,0.8,7.1
			C730.1,395.8,727.2,395.3,725,393.1z M729.7,388.3c-1.5-1.4-3.2-2-4.2-0.9c-1,1.1-0.5,2.7,1,4.2c1.5,1.4,3.1,2,4.2,0.9
			C731.7,391.4,731.2,389.7,729.7,388.3z"/>
		<path fill="#FFFFFF" d="M741.7,383.7l-6-4l4.1,6l-1.6,1.6l-9.3-5.7l1.6-1.6l6.3,4.2l-4.2-6.3l1.2-1.2l6.4,4.1l-4.3-6.2l1.6-1.6
			l5.9,9.2L741.7,383.7z"/>
		<path fill="#FFFFFF" d="M750.9,374.3l-7.2-1.9l4.6,4.6l-1.5,1.5l-7.6-7.5l1.5-1.6l7,1.9l-4.5-4.4l1.5-1.5l7.6,7.5L750.9,374.3z"/>
		<path fill="#FFFFFF" d="M753.4,370l-0.5-1.9c0.9,0,1.9-0.3,2.6-1c0.7-0.7,0.7-1.4,0.2-1.9c-1.3-1.3-4.2,2.6-6.8,0
			c-1.2-1.2-1.3-3.1,0.2-4.7c0.9-0.9,2-1.4,3.1-1.5l0.5,1.9c-0.9,0-1.7,0.4-2.3,1c-0.6,0.6-0.6,1.2-0.1,1.7c1.2,1.2,4.2-2.6,6.8-0.1
			c1.3,1.3,1.4,3.2-0.2,4.9C755.8,369.5,754.6,370,753.4,370z"/>
		<path fill="#FFFFFF" d="M761.5,363.5l-7.6-7.5l4.3-4.4l1.4,1.3l-2.8,2.8l1.7,1.7l2.7-2.8l1.3,1.3l-2.7,2.8l1.9,1.8l2.8-2.8
			l1.3,1.3L761.5,363.5z"/>
		<path fill="#FFFFFF" d="M772.1,352.7l-7.2-2l4.6,4.6l-1.5,1.5l-7.6-7.5l1.5-1.6l7,1.9l-4.5-4.4l1.5-1.5l7.6,7.5L772.1,352.7z"/>
		<path fill="#FFFFFF" d="M775.9,348.8l-7.6-7.5l2.4-2.5c2.1-2.1,4.9-1.8,7.1,0.4c2.2,2.2,2.6,4.9,0.5,7.1L775.9,348.8z
			 M776.3,340.8c-1.5-1.5-3.1-1.8-4.2-0.7l-0.9,0.9l4.9,4.8l0.9-0.9C778.1,343.8,777.7,342.2,776.3,340.8z"/>
		<path fill="#FFFFFF" d="M785.9,336.9l-0.5-1.9c0.9,0,1.9-0.3,2.6-1c0.7-0.7,0.7-1.4,0.2-1.9c-1.3-1.3-4.2,2.6-6.8,0
			c-1.2-1.2-1.3-3.1,0.2-4.7c0.9-0.9,2-1.4,3.1-1.5l0.5,1.9c-0.9,0-1.7,0.4-2.3,1c-0.5,0.6-0.6,1.2-0.1,1.7c1.2,1.2,4.2-2.6,6.8,0
			c1.3,1.3,1.4,3.2-0.2,4.9C788.3,336.4,787.1,336.9,785.9,336.9z"/>
		<path fill="#FFFFFF" d="M795.1,329.3l-6.3-6.2l-1.7,1.7l-1.4-1.3l4.8-4.9l1.3,1.3l-1.7,1.7l6.3,6.2L795.1,329.3z"/>
	</g>
	<g clip-path="url(#SVGID_4_)" enable-background="new    ">
		<path fill="#FFFFFF" d="M462.9,138.8l-7.5-7.6l3.1-3.1c1.4-1.4,2.9-1.1,3.9-0.1c0.9,0.9,1,2.1,0.5,3c0.9-0.6,2.3-0.4,3.2,0.5
			c1.2,1.2,1.4,2.7,0,4.1L462.9,138.8z M461.1,129.8c-0.5-0.5-1.1-0.6-1.7,0l-1.3,1.3l1.7,1.7l1.3-1.3
			C461.7,131,461.6,130.4,461.1,129.8z M464.4,132.8c-0.5-0.5-1.2-0.6-1.8,0l-1.3,1.3l1.8,1.8l1.3-1.3
			C465,134.1,464.9,133.4,464.4,132.8z"/>
		<path fill="#FFFFFF" d="M473.9,127.8l-3.9-1.6l-0.8,0.8l2.7,2.7l-1.5,1.5l-7.5-7.6l2.8-2.8c1.4-1.4,3.3-1.3,4.7,0.1
			c1.3,1.3,1.3,2.7,0.8,3.5l4.4,1.6L473.9,127.8z M468.8,122.6c-0.7-0.7-1.5-0.7-2.1-0.1l-1.1,1.1l2.2,2.2l1.1-1.1
			C469.5,124.1,469.5,123.3,468.8,122.6z"/>
		<path fill="#FFFFFF" d="M481.8,119.9l-1.7-1l-2.3,2.3l1,1.7l-1.6,1.6l-5.3-9.8l1.8-1.8l9.8,5.3L481.8,119.9z M474.3,115.5l2.4,4.2
			l1.8-1.8L474.3,115.5z"/>
		<path fill="#FFFFFF" d="M489.3,112.4l-7.2-2l4.6,4.6l-1.5,1.5l-7.5-7.6l1.5-1.5l6.9,1.9l-4.4-4.4l1.5-1.5l7.5,7.6L489.3,112.4z"/>
		<path fill="#FFFFFF" d="M497.3,104.4l-7.2-2l4.6,4.6l-1.5,1.5l-7.5-7.6l1.5-1.5l6.9,1.9l-4.4-4.4l1.5-1.5l7.5,7.6L497.3,104.4z"/>
		<path fill="#FFFFFF" d="M505.2,96.5l-1.7-1l-2.3,2.3l1,1.7l-1.6,1.6l-5.3-9.8l1.8-1.8l9.8,5.3L505.2,96.5z M497.8,92.1l2.4,4.2
			l1.8-1.8L497.8,92.1z"/>
		<path fill="#FFFFFF" d="M512.8,88.9l-7.2-2l4.6,4.6l-1.5,1.5l-7.5-7.6l1.5-1.5l6.9,1.9l-4.4-4.4l1.5-1.5l7.5,7.6L512.8,88.9z"/>
		<path fill="#FFFFFF" d="M518.9,81.2l-0.4-1.9c0.9,0.1,1.9-0.3,2.6-1c0.7-0.7,0.7-1.4,0.2-1.9c-1.3-1.3-4.2,2.5-6.8,0
			c-1.2-1.2-1.3-3.1,0.3-4.7c0.9-0.9,2-1.4,3.1-1.5l0.4,1.9c-0.9,0-1.7,0.4-2.3,1c-0.6,0.6-0.6,1.2-0.1,1.7c1.2,1.2,4.2-2.5,6.8,0
			c1.3,1.3,1.4,3.2-0.3,4.9C521.3,80.7,520.1,81.2,518.9,81.2z"/>
		<path fill="#FFFFFF" d="M528.1,73.6l-6.2-6.2l-1.7,1.7l-1.3-1.3l4.9-4.9l1.3,1.3l-1.7,1.7l6.2,6.2L528.1,73.6z"/>
	</g>
	<g clip-path="url(#SVGID_4_)" enable-background="new    ">
		<path fill="#FFFFFF" d="M478.8,287.9l8.6-3.8l-3.1-3.2l1.3-1.3l4.8,4.9l-1.1,1l-8.9,4L478.8,287.9z"/>
		<path fill="#FFFFFF" d="M486,295.2l6.3-6.2l-1.7-1.7l1.3-1.3l4.8,4.9l-1.3,1.3l-1.7-1.7l-6.3,6.2L486,295.2z"/>
		<path fill="#FFFFFF" d="M495.2,304.6l3.2-3.2l-2.5-2.6l-3.2,3.2l-1.5-1.5l7.6-7.5l1.5,1.5l-3,3l2.5,2.6l3-3l1.5,1.5l-7.6,7.5
			L495.2,304.6z"/>
		<path fill="#FFFFFF" d="M503,310.9l1.9-0.4c-0.1,0.9,0.3,1.9,1,2.7c0.7,0.7,1.4,0.7,1.9,0.2c1.3-1.3-2.5-4.3,0.1-6.8
			c1.2-1.2,3.1-1.2,4.7,0.3c0.9,0.9,1.4,2,1.4,3.2l-1.9,0.4c0-0.9-0.4-1.7-1-2.3c-0.5-0.6-1.2-0.6-1.7-0.2c-1.2,1.2,2.5,4.2-0.1,6.8
			c-1.3,1.3-3.2,1.4-4.9-0.3C503.4,313.3,503,312.1,503,310.9z"/>
		<path fill="#FFFFFF" d="M510.5,320.2l6.3-6.2l-1.7-1.7l1.3-1.3l4.8,4.9l-1.3,1.3l-1.7-1.7l-6.3,6.2L510.5,320.2z"/>
	</g>
	<g clip-path="url(#SVGID_4_)" enable-background="new    ">
		<path fill="#FFFFFF" d="M551.1,136.7c2.4-2.3,5.2-2.6,7.1-0.6c1.3,1.3,1.3,2.9,0.7,4.3l-1.8-0.7c0.3-0.8,0.3-1.6-0.3-2.3
			c-1-1-2.6-0.8-4.2,0.9c-1.6,1.6-1.9,3.2-0.9,4.2c0.5,0.5,1.1,0.7,1.6,0.7l1.1-1.1l-1.4-1.5l1.3-1.3l2.8,2.9l-3.1,3
			c-1.4,0.1-2.7-0.3-3.8-1.4C548.4,141.8,548.8,139,551.1,136.7z"/>
		<path fill="#FFFFFF" d="M555.3,148.6l7.6-7.5l1.5,1.5l-7.6,7.5L555.3,148.6z"/>
		<path fill="#FFFFFF" d="M559.2,152.5l7.6-7.5l1.5,1.5l-6.3,6.2l2.5,2.6l-1.3,1.3L559.2,152.5z"/>
		<path fill="#FFFFFF" d="M565.3,158.8l7.6-7.5l3.1,3.2c1.3,1.4,1.1,2.9,0,3.9c-0.9,0.9-2.1,1-3,0.5c0.6,0.9,0.4,2.3-0.5,3.2
			c-1.2,1.1-2.7,1.4-4.1,0L565.3,158.8z M571.3,160.3c0.5-0.5,0.6-1.2,0.1-1.8l-1.3-1.3l-1.9,1.8l1.3,1.3
			C570.1,160.9,570.7,160.9,571.3,160.3z M574.3,157.1c0.5-0.5,0.6-1.1,0.1-1.7l-1.2-1.3l-1.7,1.7l1.2,1.3
			C573.2,157.7,573.8,157.6,574.3,157.1z"/>
		<path fill="#FFFFFF" d="M572.7,166.3l7.6-7.5l4.3,4.4l-1.3,1.3l-2.8-2.8l-1.7,1.7l2.7,2.8l-1.3,1.3l-2.7-2.8l-1.9,1.8l2.8,2.8
			l-1.3,1.3L572.7,166.3z"/>
		<path fill="#FFFFFF" d="M582.7,176.5l1.6-3.9l-0.8-0.8l-2.8,2.7l-1.5-1.5l7.6-7.5l2.8,2.8c1.4,1.4,1.3,3.3-0.1,4.7
			c-1.3,1.3-2.7,1.2-3.5,0.8l-1.7,4.4L582.7,176.5z M588,171.5c0.7-0.6,0.7-1.5,0.1-2.1l-1.1-1.1l-2.2,2.1l1.1,1.1
			C586.5,172.1,587.3,172.1,588,171.5z"/>
		<path fill="#FFFFFF" d="M587.7,181.6l6.3-6.2l-1.7-1.7l1.3-1.3l4.8,4.9l-1.3,1.3l-1.7-1.7l-6.3,6.2L587.7,181.6z"/>
		<path fill="#FFFFFF" d="M596.7,189.1l1.9-0.4c-0.1,0.9,0.3,1.9,1,2.7c0.7,0.7,1.4,0.7,1.9,0.2c1.3-1.3-2.5-4.3,0.1-6.8
			c1.2-1.2,3.1-1.2,4.7,0.3c0.9,0.9,1.4,2,1.4,3.1l-1.9,0.4c0-0.9-0.4-1.7-1-2.3c-0.5-0.6-1.2-0.6-1.7-0.2c-1.2,1.2,2.5,4.2-0.1,6.8
			c-1.3,1.3-3.2,1.4-4.9-0.3C597.2,191.5,596.7,190.3,596.7,189.1z"/>
		<path fill="#FFFFFF" d="M604.2,198.4l6.3-6.2l-1.7-1.7l1.3-1.3l4.8,4.9l-1.3,1.3l-1.7-1.7l-6.3,6.2L604.2,198.4z"/>
	</g>
</g>
</svg>
