<?xml version="1.0" encoding="utf-8"?>
<!-- Generator: Adobe Illustrator 18.0.0, SVG Export Plug-In . SVG Version: 6.00 Build 0)  -->
<!DOCTYPE svg PUBLIC "-//W3C//DTD SVG 1.1//EN" "http://www.w3.org/Graphics/SVG/1.1/DTD/svg11.dtd">
<svg version="1.1" xmlns="http://www.w3.org/2000/svg" xmlns:xlink="http://www.w3.org/1999/xlink" x="0px" y="0px" width="357.6px"
	 height="356.9px" viewBox="0 0 357.6 356.9" enable-background="new 0 0 357.6 356.9" xml:space="preserve">
<g id="Layer_1">
</g>
<g id="_x31_._Home">
	<g id="icon_4_">
		<g>
			<g>
				<path fill="#DDDDDD" d="M181,349.2c-45.6,0-88.5-17.8-120.7-50s-50-75.1-50-120.7S28,90,60.3,57.7s75.1-50,120.7-50
					s88.5,17.8,120.7,50s50,75.1,50,120.7s-17.8,88.5-50,120.7S226.6,349.2,181,349.2z M181,9.2c-45.2,0-87.7,17.6-119.6,49.6
					c-32,32-49.6,74.4-49.6,119.6s17.6,87.7,49.6,119.6c32,32,74.4,49.6,119.6,49.6s87.7-17.6,119.6-49.6
					c32-32,49.6-74.4,49.6-119.6s-17.6-87.7-49.6-119.6C268.7,26.8,226.2,9.2,181,9.2z"/>
			</g>
			<g opacity="0.3">
				<defs>
					<circle id="SVGID_1_" opacity="0.3" cx="179.1" cy="178.4" r="170"/>
				</defs>
				<clipPath id="SVGID_2_">
					<use xlink:href="#SVGID_1_"  overflow="visible"/>
				</clipPath>
				<g clip-path="url(#SVGID_2_)">
					<g>
						<rect x="21.3" y="0" fill="#DDDDDD" width="1.5" height="356.9"/>
						<rect x="56.5" y="0" fill="#DDDDDD" width="1.5" height="356.9"/>
						<rect x="91.7" y="0" fill="#DDDDDD" width="1.5" height="356.9"/>
						<rect x="127" y="0" fill="#DDDDDD" width="1.5" height="356.9"/>
						<rect x="162.2" y="0" fill="#DDDDDD" width="1.5" height="356.9"/>
						<rect x="197.4" y="0" fill="#DDDDDD" width="1.5" height="356.9"/>
						<rect x="232.6" y="0" fill="#DDDDDD" width="1.5" height="356.9"/>
						<rect x="267.9" y="0" fill="#DDDDDD" width="1.5" height="356.9"/>
						<rect x="303.1" y="0" fill="#DDDDDD" width="1.5" height="356.9"/>
						<rect x="338.3" y="0" fill="#DDDDDD" width="1.5" height="356.9"/>
					</g>
					<g>
						<rect x="0.6" y="335.2" fill="#DDDDDD" width="356.9" height="1.5"/>
						<rect x="0.6" y="300" fill="#DDDDDD" width="356.9" height="1.5"/>
						<rect x="0.6" y="264.7" fill="#DDDDDD" width="356.9" height="1.5"/>
						<rect x="0.6" y="229.5" fill="#DDDDDD" width="356.9" height="1.5"/>
						<rect x="0.6" y="194.3" fill="#DDDDDD" width="356.9" height="1.5"/>
						<rect x="0.6" y="159" fill="#DDDDDD" width="356.9" height="1.5"/>
						<rect x="0.6" y="123.8" fill="#DDDDDD" width="356.9" height="1.5"/>
						<rect x="0.6" y="88.6" fill="#DDDDDD" width="356.9" height="1.5"/>
						<rect x="0.6" y="53.4" fill="#DDDDDD" width="356.9" height="1.5"/>
						<rect x="0.6" y="18.1" fill="#DDDDDD" width="356.9" height="1.5"/>
					</g>
				</g>
			</g>
			<path fill="#FFFFFF" stroke="#231F20" stroke-width="2" stroke-miterlimit="10" d="M302.6,115.7"/>
			<rect x="57.5" y="38.6" fill="#FFFFFF" width="245" height="181.4"/>
			<g>
				<g>
					<path fill="#FFFFFF" d="M315.8,25.1H42.4c-6.3,0-11.4,5.1-11.4,11.4v185.6c0,6.3,5.1,11.4,11.4,11.4h273.4
						c6.3,0,11.4-5.1,11.4-11.4V36.5C327.2,30.2,322.1,25.1,315.8,25.1z M301.4,37.4c0.6,0,1.1,0.5,1.1,1.1V220
						c0,0.6-0.5,1.1-1.1,1.1H58.7c-0.6,0-1.1-0.5-1.1-1.1V38.6c0-0.6,0.5-1.1,1.1-1.1H301.4z"/>
					<path fill="#231F20" d="M315.8,234.2H42.4c-6.7,0-12.1-5.4-12.1-12.1V36.5c0-6.7,5.4-12.1,12.1-12.1h273.4
						c6.7,0,12.1,5.4,12.1,12.1v185.6C327.9,228.8,322.5,234.2,315.8,234.2z M42.4,25.9c-5.8,0-10.6,4.8-10.6,10.6v185.6
						c0,5.8,4.8,10.6,10.6,10.6h273.4c5.8,0,10.6-4.8,10.6-10.6V36.5c0-5.8-4.8-10.6-10.6-10.6H42.4z M301.4,221.9H58.7
						c-1,0-1.9-0.9-1.9-1.9V38.6c0-1,0.9-1.9,1.9-1.9h242.8c1,0,1.9,0.9,1.9,1.9V220C303.3,221,302.5,221.9,301.4,221.9z M58.7,38.2
						c-0.2,0-0.4,0.2-0.4,0.4V220c0,0.2,0.2,0.4,0.4,0.4h242.8c0.2,0,0.4-0.2,0.4-0.4V38.6c0-0.2-0.2-0.4-0.4-0.4H58.7z"/>
				</g>
				<g>
					<path fill="#FFFFFF" d="M44.1,120.8c4.7,0,8.5,3.8,8.5,8.5c0,4.7-3.8,8.5-8.5,8.5c-4.7,0-8.5-3.8-8.5-8.5
						C35.6,124.6,39.4,120.8,44.1,120.8z"/>
					<path fill="#231F20" d="M44.1,138.6c-5.1,0-9.3-4.2-9.3-9.3c0-5.1,4.2-9.3,9.3-9.3c5.1,0,9.3,4.2,9.3,9.3
						S49.2,138.6,44.1,138.6z M44.1,121.5c-4.3,0-7.8,3.5-7.8,7.8c0,4.3,3.5,7.8,7.8,7.8c4.3,0,7.8-3.5,7.8-7.8
						S48.4,121.5,44.1,121.5z"/>
				</g>
				<g>
					<path fill="#FFFFFF" d="M42.8,125.5h2.6c1.4,0,2.5,1.1,2.5,2.5v2.6c0,1.4-1.1,2.5-2.5,2.5h-2.6c-1.4,0-2.5-1.1-2.5-2.5V128
						C40.3,126.6,41.4,125.5,42.8,125.5z"/>
					<path fill="#231F20" d="M45.4,133.9h-2.6c-1.8,0-3.3-1.5-3.3-3.3V128c0-1.8,1.5-3.3,3.3-3.3h2.6c1.8,0,3.3,1.5,3.3,3.3v2.6
						C48.6,132.4,47.2,133.9,45.4,133.9z M42.8,126.2c-1,0-1.7,0.8-1.7,1.7v2.6c0,1,0.8,1.7,1.7,1.7h2.6c1,0,1.7-0.8,1.7-1.7V128
						c0-1-0.8-1.7-1.7-1.7H42.8z"/>
				</g>
				<g>
					<circle fill="#FFFFFF" cx="313" cy="129.3" r="2.8"/>
					<path fill="#231F20" d="M313,132.9c-2,0-3.6-1.6-3.6-3.6s1.6-3.6,3.6-3.6c2,0,3.6,1.6,3.6,3.6S315,132.9,313,132.9z M313,127.2
						c-1.1,0-2.1,0.9-2.1,2.1s0.9,2.1,2.1,2.1c1.1,0,2.1-0.9,2.1-2.1S314.1,127.2,313,127.2z"/>
				</g>
			</g>
			<g>
				<defs>
					<rect id="SVGID_3_" x="58.1" y="38.6" width="243.3" height="181.4"/>
				</defs>
				<clipPath id="SVGID_4_">
					<use xlink:href="#SVGID_3_"  overflow="visible"/>
				</clipPath>
				<g clip-path="url(#SVGID_4_)">
					<g>
						<rect x="20.7" y="1.6" fill="#EFEFEF" width="1.5" height="352.5"/>
						<rect x="56" y="1.6" fill="#EFEFEF" width="1.5" height="352.5"/>
						<rect x="91.3" y="1.6" fill="#EFEFEF" width="1.5" height="352.5"/>
						<rect x="126.6" y="1.6" fill="#EFEFEF" width="1.5" height="352.5"/>
						<rect x="161.9" y="1.6" fill="#EFEFEF" width="1.5" height="352.5"/>
						<rect x="197.2" y="1.6" fill="#EFEFEF" width="1.5" height="352.5"/>
						<rect x="232.5" y="1.6" fill="#EFEFEF" width="1.5" height="352.5"/>
						<rect x="267.8" y="1.6" fill="#EFEFEF" width="1.5" height="352.5"/>
						<rect x="303.1" y="1.6" fill="#EFEFEF" width="1.5" height="352.5"/>
						<rect x="338.4" y="1.6" fill="#EFEFEF" width="1.5" height="352.5"/>
					</g>
					<g>
						<rect x="0" y="332.6" fill="#DDDDDD" width="357.6" height="1.5"/>
						<rect x="0" y="297.8" fill="#DDDDDD" width="357.6" height="1.5"/>
						<rect x="0" y="263" fill="#DDDDDD" width="357.6" height="1.5"/>
						<rect x="0" y="228.3" fill="#DDDDDD" width="357.6" height="1.5"/>
						<rect x="0" y="193.5" fill="#DDDDDD" width="357.6" height="1.5"/>
						<rect x="0" y="158.7" fill="#DDDDDD" width="357.6" height="1.5"/>
						<rect x="0" y="123.9" fill="#DDDDDD" width="357.6" height="1.5"/>
						<rect x="0" y="89.1" fill="#DDDDDD" width="357.6" height="1.5"/>
						<rect x="0" y="54.3" fill="#DDDDDD" width="357.6" height="1.5"/>
						<rect x="0" y="19.5" fill="#DDDDDD" width="357.6" height="1.5"/>
					</g>
				</g>
			</g>
			<polygon fill="#231F20" points="94.9,191.4 83.4,189.2 76.1,174.3 66.1,171.2 58.2,171.2 58.2,169.7 66.5,169.7 77.2,173 
				84.4,187.8 93.7,189.6 111.4,117.5 129,117.5 139.5,124.8 147.4,124.8 157.4,128.9 166.1,143.2 173.1,142.5 188.3,102.6 
				198.6,92.7 216.5,114.3 226.9,114.3 235,100.2 244.7,102.8 251.4,110.6 261.5,95.4 270.2,96.3 281.3,105.4 301.8,100.3 
				302.1,101.8 280.9,107.1 269.6,97.8 262.2,97 251.5,113.2 243.8,104.1 235.8,101.9 227.8,115.9 215.8,115.9 198.5,95 
				189.6,103.5 174.2,143.9 165.3,144.8 156.3,130.1 147.1,126.3 139,126.3 128.6,119.1 112.6,119.1 			"/>
			<polygon fill="#019BFF" points="165.3,144.8 156.3,130.1 147.1,126.3 139,126.3 128.6,119.1 112,119.1 112,117.5 129,117.5 
				139.5,124.8 147.4,124.8 157.4,128.9 166.1,143.2 173.1,142.5 188.3,102.6 198,93.3 199.1,94.4 189.6,103.5 174.2,143.9 			"/>
			<g>
				<circle fill="#FFFFFF" cx="197.6" cy="94.8" r="2.3"/>
				<path fill="#019BFF" d="M197.6,97.8c-1.7,0-3-1.4-3-3c0-1.7,1.4-3,3-3s3,1.4,3,3C200.6,96.4,199.3,97.8,197.6,97.8z M197.6,93.3
					c-0.8,0-1.5,0.7-1.5,1.5c0,0.8,0.7,1.5,1.5,1.5s1.5-0.7,1.5-1.5C199.1,93.9,198.4,93.3,197.6,93.3z"/>
			</g>
			<g>
				<circle fill="#FFFFFF" cx="188.9" cy="103" r="2.3"/>
				<path fill="#019BFF" d="M188.9,106c-1.7,0-3-1.4-3-3c0-1.7,1.4-3,3-3c1.7,0,3,1.4,3,3C191.9,104.6,190.6,106,188.9,106z
					 M188.9,101.4c-0.8,0-1.5,0.7-1.5,1.5c0,0.8,0.7,1.5,1.5,1.5c0.8,0,1.5-0.7,1.5-1.5C190.4,102.1,189.7,101.4,188.9,101.4z"/>
			</g>
			<g>
				<circle fill="#FFFFFF" cx="174.4" cy="142.2" r="2.3"/>
				<path fill="#019BFF" d="M174.4,145.2c-1.7,0-3-1.4-3-3c0-1.7,1.4-3,3-3c1.7,0,3,1.4,3,3C177.4,143.9,176,145.2,174.4,145.2z
					 M174.4,140.7c-0.8,0-1.5,0.7-1.5,1.5c0,0.8,0.7,1.5,1.5,1.5c0.8,0,1.5-0.7,1.5-1.5C175.9,141.3,175.2,140.7,174.4,140.7z"/>
			</g>
			<g>
				<circle fill="#FFFFFF" cx="165.4" cy="144" r="2.3"/>
				<path fill="#019BFF" d="M165.4,147c-1.7,0-3-1.4-3-3s1.4-3,3-3s3,1.4,3,3S167,147,165.4,147z M165.4,142.5
					c-0.8,0-1.5,0.7-1.5,1.5s0.7,1.5,1.5,1.5s1.5-0.7,1.5-1.5S166.2,142.5,165.4,142.5z"/>
			</g>
			<g>
				<circle fill="#FFFFFF" cx="155.2" cy="129.8" r="2.3"/>
				<path fill="#019BFF" d="M155.2,132.9c-1.7,0-3-1.4-3-3c0-1.7,1.4-3,3-3c1.7,0,3,1.4,3,3C158.3,131.5,156.9,132.9,155.2,132.9z
					 M155.2,128.3c-0.8,0-1.5,0.7-1.5,1.5c0,0.8,0.7,1.5,1.5,1.5c0.8,0,1.5-0.7,1.5-1.5C156.8,129,156.1,128.3,155.2,128.3z"/>
			</g>
			<g>
				<circle fill="#FFFFFF" cx="147.5" cy="125.5" r="2.3"/>
				<path fill="#019BFF" d="M147.5,128.5c-1.7,0-3-1.4-3-3c0-1.7,1.4-3,3-3c1.7,0,3,1.4,3,3C150.5,127.2,149.2,128.5,147.5,128.5z
					 M147.5,124c-0.8,0-1.5,0.7-1.5,1.5c0,0.8,0.7,1.5,1.5,1.5c0.8,0,1.5-0.7,1.5-1.5C149,124.6,148.3,124,147.5,124z"/>
			</g>
			<g>
				<circle fill="#FFFFFF" cx="139.1" cy="125.5" r="2.3"/>
				<path fill="#019BFF" d="M139.1,128.5c-1.7,0-3-1.4-3-3c0-1.7,1.4-3,3-3c1.7,0,3,1.4,3,3C142.1,127.2,140.7,128.5,139.1,128.5z
					 M139.1,124c-0.8,0-1.5,0.7-1.5,1.5c0,0.8,0.7,1.5,1.5,1.5c0.8,0,1.5-0.7,1.5-1.5C140.6,124.6,139.9,124,139.1,124z"/>
			</g>
			<g>
				<circle fill="#FFFFFF" cx="128.3" cy="118" r="2.3"/>
				<path fill="#019BFF" d="M128.3,121c-1.7,0-3-1.4-3-3c0-1.7,1.4-3,3-3c1.7,0,3,1.4,3,3C131.3,119.7,130,121,128.3,121z
					 M128.3,116.5c-0.8,0-1.5,0.7-1.5,1.5c0,0.8,0.7,1.5,1.5,1.5c0.8,0,1.5-0.7,1.5-1.5C129.8,117.2,129.1,116.5,128.3,116.5z"/>
			</g>
			<g>
				<circle fill="#FFFFFF" cx="112" cy="118.9" r="2.3"/>
				<path fill="#019BFF" d="M112,121.9c-1.7,0-3-1.4-3-3c0-1.7,1.4-3,3-3c1.7,0,3,1.4,3,3C115,120.6,113.6,121.9,112,121.9z
					 M112,117.4c-0.8,0-1.5,0.7-1.5,1.5c0,0.8,0.7,1.5,1.5,1.5c0.8,0,1.5-0.7,1.5-1.5C113.5,118.1,112.8,117.4,112,117.4z"/>
			</g>
		</g>
	</g>
</g>
</svg>
