<?xml version="1.0" encoding="utf-8"?>
<!-- Generator: Adobe Illustrator 18.0.0, SVG Export Plug-In . SVG Version: 6.00 Build 0)  -->
<!DOCTYPE svg PUBLIC "-//W3C//DTD SVG 1.1//EN" "http://www.w3.org/Graphics/SVG/1.1/DTD/svg11.dtd">
<svg version="1.1" id="Layer_1" xmlns="http://www.w3.org/2000/svg" xmlns:xlink="http://www.w3.org/1999/xlink" x="0px" y="0px"
	 width="720px" height="2184px" viewBox="0 0 720 2184" enable-background="new 0 0 720 2184" xml:space="preserve">
<g id="Background">
</g>
<g id="_x35_._Case_Studies">
	<g id="Footer_5_">
	</g>
	<g id="CTA_copy_2">
	</g>
	<g id="Copy_copy_11">
	</g>
	<g id="Category_copy_8_6_">
	</g>
	<g id="Location_copy_10_10_">
	</g>
	<g id="Category_copy_8_5_">
	</g>
	<g id="Location_copy_10_9_">
	</g>
	<g id="Category_copy_8_3_">
	</g>
	<g id="Location_copy_10_7_">
	</g>
	<g id="Category_copy_8_2_">
	</g>
	<g id="Location_copy_10_6_">
	</g>
	<g id="India_copy">
		<g id="Category_copy_8_1_">
		</g>
		<g id="Location_copy_10_5_">
		</g>
		<g id="Copy_copy_12_5_">
		</g>
	</g>
	<g id="Category_copy_8">
	</g>
	<g id="Location_copy_10_4_">
	</g>
	<g id="stories_grid">
		<g id="Hover_copy_4">
			<g id="background_hover_copy">
			</g>
			<g id="Layer_277_copy">
			</g>
			<g id="Layer_278_copy">
			</g>
			<g id="Location_copy_10">
			</g>
			<g id="Copy_copy_12">
			</g>
		</g>
	</g>
	<g id="Chart">
		<line fill="none" stroke="#CCCCCC" stroke-miterlimit="10" x1="2" y1="1556.8" x2="718.6" y2="1556.8"/>
		<g>
			<g enable-background="new    ">
				<path fill="#009BFF" d="M219.9,1770.7l5.1-4.4c4.8,6.9,13.3,12.1,24.3,12.1c13.4,0,21.8-7,21.8-18.5c0-12.5-10.3-17.7-23.3-17.7
					c-3.5,0-6.8,0.1-8.1,0.3v-7c1.3,0.1,4.6,0.1,8.1,0.1c11.6,0,22-4.9,22-16.5c0-10.8-9.6-16.8-20.8-16.8c-9.9,0-16.9,3.9-23.3,11
					l-4.7-4.7c6.1-7.4,15.7-13.1,28.3-13.1c15.1,0,28,8.2,28,22.9c0,13.3-11.2,19-18.6,20.3c7.5,0.8,19.9,7.3,19.9,21.6
					c0,14.3-10.8,24.8-29.3,24.8C235.2,1785.2,224.9,1778.5,219.9,1770.7z"/>
				<path fill="#009BFF" d="M297.7,1799.5l-3.8-3.1c4.2-2.9,7.3-7.9,7.5-12c0,0-0.9,0.1-1.3,0.1c-3.1,0-5.3-2.3-5.3-5.5
					c0-3,2.5-5.6,5.6-5.6c3.5,0,6.6,3,6.6,8.3C307.1,1789.1,302.8,1796,297.7,1799.5z"/>
				<path fill="#009BFF" d="M327.8,1783.6V1707l-13.9,14.8l-4.5-4.8l19.1-20.2h6.8v86.7H327.8z"/>
				<path fill="#009BFF" d="M353.5,1740.3c0-20.7,8.7-44.7,32.1-44.7c23.1,0,32,24.1,32,44.7c0,20.5-8.8,44.9-32,44.9
					C362.2,1785.2,353.5,1760.9,353.5,1740.3z M409.7,1740.3c0-17.9-5.9-38-24.1-38c-18.3,0-24.3,20-24.3,38
					c0,17.8,6,38.1,24.3,38.1C403.7,1778.4,409.7,1758.1,409.7,1740.3z"/>
				<path fill="#009BFF" d="M470.6,1783.6v-23.7h-41.1v-6.6l38.5-56.4h10v56.3h12.7v6.8H478v23.7H470.6z M470.6,1704.3l-33.4,48.9
					h33.4V1704.3z"/>
			</g>
		</g>
		<g>
			<g enable-background="new    ">
				<path fill="#4D4D4D" d="M201.9,1640.8v-13h-4.6v-1.6h11.1v1.6h-4.7v13H201.9z"/>
				<path fill="#4D4D4D" d="M210.6,1633.4c0-4.3,2.9-7.6,7.3-7.6s7.3,3.3,7.3,7.6s-3,7.6-7.3,7.6S210.6,1637.8,210.6,1633.4z
					 M223.3,1633.4c0-3.4-2.1-6-5.4-6c-3.3,0-5.4,2.5-5.4,6c0,3.4,2.1,6,5.4,6C221.1,1639.4,223.3,1636.8,223.3,1633.4z"/>
				<path fill="#4D4D4D" d="M232,1640.8v-13h-4.6v-1.6h11.1v1.6h-4.7v13H232z"/>
				<path fill="#4D4D4D" d="M250.9,1640.8l-1.3-3.3h-7.3l-1.3,3.3h-2.1l5.9-14.7h2.3l5.9,14.7H250.9z M246,1628l-3.1,7.9h6.2
					L246,1628z"/>
				<path fill="#4D4D4D" d="M255.7,1640.8v-14.7h1.8v13h6.8v1.6H255.7z"/>
				<path fill="#4D4D4D" d="M274.5,1640.8v-14.7h5.9c2.9,0,4.6,2,4.6,4.4c0,2.4-1.7,4.4-4.6,4.4h-4.1v5.8H274.5z M283.1,1630.5
					c0-1.6-1.2-2.8-2.9-2.8h-3.9v5.6h3.9C281.9,1633.3,283.1,1632.2,283.1,1630.5z"/>
				<path fill="#4D4D4D" d="M296.9,1640.8l-3.7-5.8h-2.9v5.8h-1.8v-14.7h5.9c2.7,0,4.6,1.7,4.6,4.4c0,2.6-1.8,4.1-3.8,4.3l4,6H296.9
					z M297,1630.5c0-1.7-1.2-2.8-2.9-2.8h-3.9v5.6h3.9C295.8,1633.3,297,1632.2,297,1630.5z"/>
				<path fill="#4D4D4D" d="M302.2,1633.4c0-4.3,2.9-7.6,7.3-7.6s7.3,3.3,7.3,7.6s-3,7.6-7.3,7.6S302.2,1637.8,302.2,1633.4z
					 M314.8,1633.4c0-3.4-2.1-6-5.4-6c-3.3,0-5.4,2.5-5.4,6c0,3.4,2.1,6,5.4,6C312.7,1639.4,314.8,1636.8,314.8,1633.4z"/>
				<path fill="#4D4D4D" d="M320.6,1640.8v-14.7h5c4.6,0,7.5,3.2,7.5,7.3c0,4.2-2.9,7.3-7.5,7.3H320.6z M331.2,1633.4
					c0-3.2-2-5.7-5.6-5.7h-3.2v11.4h3.2C329.1,1639.1,331.2,1636.6,331.2,1633.4z"/>
				<path fill="#4D4D4D" d="M337,1635.1v-9h1.8v8.9c0,2.7,1.4,4.4,4.1,4.4s4.2-1.7,4.2-4.4v-8.9h1.8v9c0,3.7-2,6-6,6
					C339,1641,337,1638.7,337,1635.1z"/>
				<path fill="#4D4D4D" d="M352.8,1633.4c0-4.5,3.3-7.6,7.5-7.6c2.6,0,4.4,1.2,5.6,2.9l-1.5,0.9c-0.8-1.3-2.4-2.1-4-2.1
					c-3.2,0-5.7,2.4-5.7,6c0,3.5,2.4,6,5.7,6c1.7,0,3.2-0.9,4-2.1l1.5,0.8c-1.2,1.7-3,2.9-5.6,2.9
					C356.1,1641,352.8,1637.9,352.8,1633.4z"/>
				<path fill="#4D4D4D" d="M372.9,1640.8v-13h-4.6v-1.6h11.1v1.6h-4.7v13H372.9z"/>
				<path fill="#4D4D4D" d="M381.8,1638.7l1.1-1.4c0.9,1.1,2.5,2.1,4.6,2.1c2.6,0,3.5-1.4,3.5-2.6c0-3.8-8.7-1.7-8.7-6.9
					c0-2.4,2.2-4.1,5.1-4.1c2.2,0,4,0.8,5.2,2.1l-1.1,1.3c-1.1-1.2-2.6-1.8-4.2-1.8c-1.7,0-3,0.9-3,2.3c0,3.3,8.7,1.4,8.7,6.9
					c0,2.1-1.5,4.3-5.4,4.3C384.9,1641,383,1640.1,381.8,1638.7z"/>
				<path fill="#4D4D4D" d="M402.7,1633.4c0-4.5,3.3-7.6,7.5-7.6c2.6,0,4.4,1.2,5.6,2.9l-1.5,0.9c-0.8-1.3-2.4-2.1-4-2.1
					c-3.2,0-5.7,2.4-5.7,6c0,3.5,2.4,6,5.7,6c1.7,0,3.2-0.9,4-2.1l1.5,0.8c-1.2,1.7-3,2.9-5.6,2.9
					C406,1641,402.7,1637.9,402.7,1633.4z"/>
				<path fill="#4D4D4D" d="M429.5,1640.8l-1.3-3.3h-7.3l-1.3,3.3h-2.1l5.9-14.7h2.3l5.9,14.7H429.5z M424.6,1628l-3.1,7.9h6.2
					L424.6,1628z"/>
				<path fill="#4D4D4D" d="M434.5,1640.8v-14.7h5.9c2.9,0,4.6,2,4.6,4.4c0,2.4-1.7,4.4-4.6,4.4h-4.1v5.8H434.5z M443.1,1630.5
					c0-1.6-1.2-2.8-2.9-2.8h-3.8v5.6h3.8C441.9,1633.3,443.1,1632.2,443.1,1630.5z"/>
				<path fill="#4D4D4D" d="M452.1,1640.8v-13h-4.6v-1.6h11.1v1.6h-4.7v13H452.1z"/>
				<path fill="#4D4D4D" d="M462,1635.1v-9h1.8v8.9c0,2.7,1.4,4.4,4.1,4.4s4.2-1.7,4.2-4.4v-8.9h1.8v9c0,3.7-2,6-6,6
					C464,1641,462,1638.7,462,1635.1z"/>
				<path fill="#4D4D4D" d="M486.9,1640.8l-3.7-5.8h-2.9v5.8h-1.8v-14.7h5.9c2.7,0,4.6,1.7,4.6,4.4c0,2.6-1.8,4.1-3.8,4.3l4,6H486.9
					z M487,1630.5c0-1.7-1.2-2.8-2.9-2.8h-3.8v5.6h3.8C485.8,1633.3,487,1632.2,487,1630.5z"/>
				<path fill="#4D4D4D" d="M492.8,1640.8v-14.7h9.6v1.6h-7.8v4.7h7.6v1.6h-7.6v5.1h7.8v1.6H492.8z"/>
				<path fill="#4D4D4D" d="M506.3,1640.8v-14.7h5c4.6,0,7.5,3.2,7.5,7.3c0,4.2-2.9,7.3-7.5,7.3H506.3z M516.9,1633.4
					c0-3.2-2-5.7-5.6-5.7h-3.2v11.4h3.2C514.8,1639.1,516.9,1636.6,516.9,1633.4z"/>
			</g>
		</g>
		<line fill="none" stroke="#CCCCCC" stroke-miterlimit="10" x1="2" y1="1870.7" x2="718.6" y2="1870.7"/>
		<g>
			<g enable-background="new    ">
				<path fill="#4D4D4D" d="M211.2,1947.9c0-4.3,2.9-7.6,7.3-7.6s7.3,3.3,7.3,7.6s-3,7.6-7.3,7.6S211.2,1952.2,211.2,1947.9z
					 M223.9,1947.9c0-3.4-2.1-6-5.4-6c-3.3,0-5.4,2.5-5.4,6c0,3.4,2.1,6,5.4,6C221.8,1953.9,223.9,1951.3,223.9,1947.9z"/>
				<path fill="#4D4D4D" d="M229.7,1955.2v-14.7h6.5c2.6,0,4.1,1.5,4.1,3.7c0,1.8-1.2,3.1-2.6,3.4c1.6,0.2,2.9,1.8,2.9,3.6
					c0,2.4-1.6,4-4.2,4H229.7z M238.4,1944.6c0-1.3-0.9-2.4-2.5-2.4h-4.4v4.7h4.4C237.5,1946.9,238.4,1945.9,238.4,1944.6z
					 M238.7,1951.1c0-1.3-0.9-2.5-2.7-2.5h-4.5v5.1h4.5C237.7,1953.6,238.7,1952.6,238.7,1951.1z"/>
				<path fill="#4D4D4D" d="M243.6,1953.2l1.1-1.4c0.9,1.1,2.5,2.1,4.6,2.1c2.6,0,3.5-1.4,3.5-2.6c0-3.8-8.7-1.7-8.7-6.9
					c0-2.4,2.2-4.1,5.1-4.1c2.2,0,4,0.8,5.2,2.1l-1.1,1.3c-1.1-1.2-2.6-1.8-4.2-1.8c-1.7,0-3,0.9-3,2.3c0,3.3,8.7,1.4,8.7,6.9
					c0,2.1-1.5,4.3-5.4,4.3C246.7,1955.5,244.8,1954.5,243.6,1953.2z"/>
				<path fill="#4D4D4D" d="M258.4,1955.2v-14.7h9.6v1.6h-7.8v4.7h7.6v1.6h-7.6v5.1h7.8v1.6H258.4z"/>
				<path fill="#4D4D4D" d="M280.4,1955.2l-3.7-5.8h-2.9v5.8h-1.8v-14.7h5.9c2.7,0,4.6,1.7,4.6,4.4c0,2.6-1.8,4.1-3.8,4.3l4,6H280.4
					z M280.5,1945c0-1.7-1.2-2.8-2.9-2.8h-3.9v5.6h3.9C279.3,1947.8,280.5,1946.6,280.5,1945z"/>
				<path fill="#4D4D4D" d="M290.4,1955.2l-5.9-14.7h2.1l5,12.7l5-12.7h2.1l-5.9,14.7H290.4z"/>
				<path fill="#4D4D4D" d="M310.8,1955.2l-1.3-3.3h-7.3l-1.3,3.3h-2.1l5.9-14.7h2.3l5.9,14.7H310.8z M305.8,1942.4l-3.1,7.9h6.2
					L305.8,1942.4z"/>
				<path fill="#4D4D4D" d="M317.9,1955.2v-13h-4.6v-1.6h11.1v1.6h-4.7v13H317.9z"/>
				<path fill="#4D4D4D" d="M327.8,1955.2v-14.7h1.8v14.7H327.8z"/>
				<path fill="#4D4D4D" d="M333.5,1947.9c0-4.3,2.9-7.6,7.3-7.6s7.3,3.3,7.3,7.6s-3,7.6-7.3,7.6S333.5,1952.2,333.5,1947.9z
					 M346.2,1947.9c0-3.4-2.1-6-5.4-6c-3.3,0-5.4,2.5-5.4,6c0,3.4,2.1,6,5.4,6C344.1,1953.9,346.2,1951.3,346.2,1947.9z"/>
				<path fill="#4D4D4D" d="M362.3,1955.2l-8.6-11.7v11.7h-1.8v-14.7h1.9l8.4,11.5v-11.5h1.8v14.7H362.3z"/>
				<path fill="#4D4D4D" d="M367.6,1953.2l1.1-1.4c0.9,1.1,2.5,2.1,4.6,2.1c2.6,0,3.5-1.4,3.5-2.6c0-3.8-8.7-1.7-8.7-6.9
					c0-2.4,2.2-4.1,5.1-4.1c2.2,0,4,0.8,5.2,2.1l-1.1,1.3c-1.1-1.2-2.6-1.8-4.2-1.8c-1.7,0-3,0.9-3,2.3c0,3.3,8.7,1.4,8.7,6.9
					c0,2.1-1.5,4.3-5.4,4.3C370.7,1955.5,368.8,1954.5,367.6,1953.2z"/>
				<path fill="#4D4D4D" d="M391.4,1959.6c-2-2.7-3.1-6.2-3.1-9.7c0-3.5,1.1-7,3.1-9.7l1,0.7c-1.4,2.8-2.3,5.3-2.3,9
					c0,3.7,0.9,6.2,2.3,9L391.4,1959.6z"/>
				<path fill="#4D4D4D" d="M408,1955.2v-12.3l-5,12.3h-0.7l-5-12.3v12.3h-1.8v-14.7h2.6l4.6,11.3l4.6-11.3h2.6v14.7H408z"/>
				<path fill="#4D4D4D" d="M413.7,1947.9c0-4.3,2.9-7.6,7.3-7.6s7.3,3.3,7.3,7.6s-3,7.6-7.3,7.6S413.7,1952.2,413.7,1947.9z
					 M426.4,1947.9c0-3.4-2.1-6-5.4-6c-3.3,0-5.4,2.5-5.4,6c0,3.4,2.1,6,5.4,6C424.2,1953.9,426.4,1951.3,426.4,1947.9z"/>
				<path fill="#4D4D4D" d="M442.5,1955.2l-8.6-11.7v11.7h-1.8v-14.7h1.9l8.4,11.5v-11.5h1.8v14.7H442.5z"/>
				<path fill="#4D4D4D" d="M452.3,1955.2v-13h-4.6v-1.6h11.1v1.6h-4.7v13H452.3z"/>
				<path fill="#4D4D4D" d="M472.6,1955.2v-6.7H464v6.7h-1.8v-14.7h1.8v6.3h8.6v-6.3h1.8v14.7H472.6z"/>
				<path fill="#4D4D4D" d="M478.6,1955.2v-14.7h1.8v13h6.8v1.6H478.6z"/>
				<path fill="#4D4D4D" d="M492.2,1955.2v-6.2l-5.8-8.5h2.1l4.6,6.8l4.6-6.8h2.1l-5.8,8.5v6.2H492.2z"/>
				<path fill="#4D4D4D" d="M501.4,1958.8c1.4-2.8,2.3-5.3,2.3-9c0-3.7-0.9-6.2-2.3-9l1-0.7c2,2.7,3.1,6.2,3.1,9.7
					c0,3.5-1.1,7-3.1,9.7L501.4,1958.8z"/>
			</g>
		</g>
		<g>
			<g enable-background="new    ">
				<path fill="#009BFF" d="M233.3,2100.1v-23.7h-41.1v-6.6l38.5-56.4h10v56.3h12.7v6.8h-12.7v23.7H233.3z M233.3,2020.8l-33.4,48.9
					h33.4V2020.8z"/>
				<path fill="#009BFF" d="M303.6,2100.1v-23.7h-41.1v-6.6l38.5-56.4h10v56.3h12.7v6.8H311v23.7H303.6z M303.6,2020.8l-33.4,48.9
					h33.4V2020.8z"/>
				<path fill="#009BFF" d="M339.6,2115.9l-3.8-3.1c4.2-2.9,7.3-7.9,7.5-12c0,0-0.9,0.1-1.3,0.1c-3.1,0-5.3-2.3-5.3-5.5
					c0-3,2.5-5.6,5.6-5.6c3.5,0,6.6,3,6.6,8.3C349,2105.5,344.7,2112.4,339.6,2115.9z"/>
				<path fill="#009BFF" d="M364.4,2100.1l36.4-80h-48v-6.8h56.8v5.2l-37.1,81.5H364.4z"/>
				<path fill="#009BFF" d="M459.5,2100.1v-23.7h-41.1v-6.6l38.5-56.4h10v56.3h12.7v6.8h-12.7v23.7H459.5z M459.5,2020.8l-33.4,48.9
					h33.4V2020.8z"/>
				<path fill="#009BFF" d="M506,2100.1v-76.6l-13.9,14.8l-4.5-4.8l19.1-20.2h6.8v86.7H506z"/>
			</g>
		</g>
		<line fill="none" stroke="#CCCCCC" stroke-miterlimit="10" x1="2" y1="1052.3" x2="718.6" y2="1052.3"/>
		<g enable-background="new    ">
			<path fill="#4D4D4D" d="M280.5,1184.5v-19.1h4.1v1.2h-2.8v16.7h2.8v1.2H280.5z"/>
			<path fill="#4D4D4D" d="M291.9,1180.4v-6.2l-5.8-8.5h2.1l4.6,6.8l4.6-6.8h2.1l-5.8,8.5v6.2H291.9z"/>
			<path fill="#4D4D4D" d="M300.7,1180.8l5.2-15.6h1.3l-5.2,15.6H300.7z"/>
			<path fill="#4D4D4D" d="M314.2,1180.4v-6.2l-5.8-8.5h2.1l4.6,6.8l4.6-6.8h2.1l-5.8,8.5v6.2H314.2z"/>
			<path fill="#4D4D4D" d="M329.9,1178.9l1-1.4c0.6,0.8,1.5,1.5,2.8,1.5c1.8,0,2.9-1.3,2.9-3.1v-10.2h1.8v10.3c0,3.2-2,4.7-4.7,4.7
				C332.2,1180.6,330.9,1180.1,329.9,1178.9z"/>
			<path fill="#4D4D4D" d="M352.7,1180.4l-1.3-3.3h-7.3l-1.3,3.3h-2.1l5.9-14.7h2.3l5.9,14.7H352.7z M347.7,1167.6l-3.1,7.9h6.2
				L347.7,1167.6z"/>
			<path fill="#4D4D4D" d="M368.1,1180.4l-8.6-11.7v11.7h-1.8v-14.7h1.9l8.4,11.5v-11.5h1.8v14.7H368.1z"/>
			<path fill="#4D4D4D" d="M374.3,1174.7v-9h1.8v8.9c0,2.7,1.4,4.4,4.1,4.4s4.2-1.7,4.2-4.4v-8.9h1.8v9c0,3.7-2,6-6,6
				C376.3,1180.6,374.3,1178.3,374.3,1174.7z"/>
			<path fill="#4D4D4D" d="M400.6,1180.4l-1.3-3.3H392l-1.3,3.3h-2.1l5.9-14.7h2.3l5.9,14.7H400.6z M395.6,1167.6l-3.1,7.9h6.2
				L395.6,1167.6z"/>
			<path fill="#4D4D4D" d="M414.1,1180.4l-3.7-5.8h-2.9v5.8h-1.8v-14.7h5.9c2.7,0,4.6,1.7,4.6,4.4c0,2.6-1.8,4.1-3.8,4.3l4,6H414.1z
				 M414.2,1170.1c0-1.7-1.2-2.8-2.9-2.8h-3.8v5.6h3.8C413,1172.9,414.2,1171.8,414.2,1170.1z"/>
			<path fill="#4D4D4D" d="M423.9,1180.4v-6.2l-5.8-8.5h2.1l4.6,6.8l4.6-6.8h2.1l-5.8,8.5v6.2H423.9z"/>
			<path fill="#4D4D4D" d="M433,1184.5v-1.2h2.8v-16.7H433v-1.2h4.1v19.1H433z"/>
		</g>
		<g>
			<g enable-background="new    ">
				<path fill="#4D4D4D" d="M195.2,1142.7v-14.7h1.8v14.7H195.2z"/>
				<path fill="#4D4D4D" d="M211.8,1142.7l-8.6-11.7v11.7h-1.8v-14.7h1.9l8.4,11.5v-11.5h1.8v14.7H211.8z"/>
				<path fill="#4D4D4D" d="M218,1142.7v-14.7h9.6v1.6h-7.8v4.7h7.6v1.6h-7.6v6.7H218z"/>
				<path fill="#4D4D4D" d="M230.9,1142.7v-14.7h1.8v13h6.8v1.6H230.9z"/>
				<path fill="#4D4D4D" d="M253.4,1142.7l-1.3-3.3h-7.3l-1.3,3.3h-2.1l5.9-14.7h2.3l5.9,14.7H253.4z M248.5,1129.9l-3.1,7.9h6.2
					L248.5,1129.9z"/>
				<path fill="#4D4D4D" d="M260.6,1142.7v-13h-4.6v-1.6h11.1v1.6h-4.7v13H260.6z"/>
				<path fill="#4D4D4D" d="M270.5,1142.7v-14.7h1.8v14.7H270.5z"/>
				<path fill="#4D4D4D" d="M276.1,1135.4c0-4.3,2.9-7.6,7.3-7.6s7.3,3.3,7.3,7.6c0,4.3-3,7.6-7.3,7.6S276.1,1139.8,276.1,1135.4z
					 M288.8,1135.4c0-3.4-2.1-6-5.4-6c-3.3,0-5.4,2.5-5.4,6c0,3.4,2.1,6,5.4,6C286.7,1141.4,288.8,1138.8,288.8,1135.4z"/>
				<path fill="#4D4D4D" d="M304.9,1142.7l-8.6-11.7v11.7h-1.8v-14.7h1.9l8.4,11.5v-11.5h1.8v14.7H304.9z"/>
				<path fill="#4D4D4D" d="M328.2,1142.7v-6.7h-8.6v6.7h-1.8v-14.7h1.8v6.3h8.6v-6.3h1.8v14.7H328.2z"/>
				<path fill="#4D4D4D" d="M334.5,1142.7v-14.7h1.8v14.7H334.5z"/>
				<path fill="#4D4D4D" d="M340.1,1135.4c0-4.6,3.4-7.6,7.5-7.6c2.6,0,4.4,1.1,5.7,2.7l-1.5,0.9c-0.9-1.2-2.5-2-4.2-2
					c-3.2,0-5.7,2.4-5.7,6c0,3.5,2.4,6,5.7,6c1.8,0,3.2-0.8,4-1.6v-3h-5.1v-1.6h6.9v5.3c-1.4,1.5-3.4,2.6-5.8,2.6
					C343.5,1143,340.1,1140,340.1,1135.4z"/>
				<path fill="#4D4D4D" d="M367.8,1142.7v-6.7h-8.6v6.7h-1.8v-14.7h1.8v6.3h8.6v-6.3h1.8v14.7H367.8z"/>
				<path fill="#4D4D4D" d="M374,1142.7v-14.7h9.6v1.6h-7.8v4.7h7.6v1.6h-7.6v5.1h7.8v1.6H374z"/>
				<path fill="#4D4D4D" d="M386.7,1140.7l1.1-1.4c0.9,1.1,2.5,2.1,4.6,2.1c2.6,0,3.5-1.4,3.5-2.6c0-3.8-8.7-1.7-8.7-6.9
					c0-2.4,2.2-4.1,5.1-4.1c2.2,0,4,0.8,5.2,2.1l-1.1,1.3c-1.1-1.2-2.6-1.8-4.2-1.8c-1.7,0-3,0.9-3,2.3c0,3.3,8.7,1.4,8.7,6.9
					c0,2.1-1.5,4.3-5.4,4.3C389.8,1143,387.9,1142,386.7,1140.7z"/>
				<path fill="#4D4D4D" d="M404.9,1142.7v-13h-4.6v-1.6h11.1v1.6h-4.7v13H404.9z"/>
				<path fill="#4D4D4D" d="M419.8,1143.2l5.2-15.6h1.3l-5.2,15.6H419.8z"/>
				<path fill="#4D4D4D" d="M435.5,1142.7v-14.7h1.8v13h6.8v1.6H435.5z"/>
				<path fill="#4D4D4D" d="M446.2,1135.4c0-4.3,2.9-7.6,7.3-7.6s7.3,3.3,7.3,7.6c0,4.3-3,7.6-7.3,7.6S446.2,1139.8,446.2,1135.4z
					 M458.9,1135.4c0-3.4-2.1-6-5.4-6c-3.3,0-5.4,2.5-5.4,6c0,3.4,2.1,6,5.4,6C456.8,1141.4,458.9,1138.8,458.9,1135.4z"/>
				<path fill="#4D4D4D" d="M475.4,1142.7l-3.2-11.8l-3.2,11.8h-2l-4.2-14.7h2l3.3,12.2l3.4-12.2h1.5l3.4,12.2l3.2-12.2h2l-4.2,14.7
					H475.4z"/>
				<path fill="#4D4D4D" d="M484.6,1142.7v-14.7h9.6v1.6h-7.8v4.7h7.6v1.6h-7.6v5.1h7.8v1.6H484.6z"/>
				<path fill="#4D4D4D" d="M497.2,1140.7l1.1-1.4c0.9,1.1,2.5,2.1,4.6,2.1c2.6,0,3.5-1.4,3.5-2.6c0-3.8-8.7-1.7-8.7-6.9
					c0-2.4,2.2-4.1,5.1-4.1c2.2,0,4,0.8,5.2,2.1l-1.1,1.3c-1.1-1.2-2.6-1.8-4.2-1.8c-1.7,0-3,0.9-3,2.3c0,3.3,8.7,1.4,8.7,6.9
					c0,2.1-1.5,4.3-5.4,4.3C500.3,1143,498.4,1142,497.2,1140.7z"/>
				<path fill="#4D4D4D" d="M515.5,1142.7v-13h-4.6v-1.6H522v1.6h-4.7v13H515.5z"/>
			</g>
		</g>
		<g>
			<g>
				<g enable-background="new    ">
					<path fill="#009BFF" d="M287.6,1318.7v-6.1c29.5-23.8,49.3-40.7,49.3-57.5c0-12.5-10.3-17.7-19.8-17.7
						c-10.8,0-19.1,4.7-23.8,11.3l-5.1-4.7c6.1-8.3,16.6-13.4,28.9-13.4c12.7,0,27.3,7.3,27.3,24.4c0,19.1-20.2,36.5-45.2,56.8h45.6
						v6.8H287.6z"/>
					<path fill="#009BFF" d="M364.4,1314.1c0-3,2.7-5.6,5.9-5.6c3.1,0,5.7,2.6,5.7,5.6c0,3.1-2.6,5.7-5.7,5.7
						C367.1,1319.8,364.4,1317.2,364.4,1314.1z"/>
					<path fill="#009BFF" d="M430.1,1318.7V1295H389v-6.6l38.5-56.4h10v56.3h12.7v6.8h-12.7v23.7H430.1z M430.1,1239.3l-33.4,48.9
						h33.4V1239.3z"/>
					<path fill="#009BFF" d="M459.2,1252.1c0-12.2,8.3-21.5,20.3-21.5c12.1,0,20.4,9.2,20.4,21.5c0,12.1-8.3,21.2-20.4,21.2
						C467.5,1273.3,459.2,1264.2,459.2,1252.1z M493.9,1252.1c0-9.1-5.8-16.4-14.4-16.4c-8.5,0-14.3,7.3-14.3,16.4
						c0,8.7,5.8,16.1,14.3,16.1C488,1268.2,493.9,1260.8,493.9,1252.1z M471.4,1318.7l55.4-86.7h6l-55.5,86.7H471.4z M503.3,1299
						c0-12.2,8.4-21.5,20.4-21.5s20.4,9.2,20.4,21.5c0,12.1-8.5,21.2-20.4,21.2S503.3,1311.1,503.3,1299z M538,1299
						c0-9-5.7-16.4-14.3-16.4s-14.4,7.4-14.4,16.4c0,8.8,5.8,16.1,14.4,16.1S538,1307.9,538,1299z"/>
				</g>
			</g>
			<g>
				<rect x="165.6" y="1232.1" opacity="0.9" fill="#FC1D00" enable-background="new    " width="80" height="80"/>
				<g enable-background="new    ">
					<path fill="#FFFFFF" d="M202.1,1280.8l-1.5-4H191l-1.5,4h-4.2l8.2-20.9h4.6l8.2,20.9H202.1z M195.8,1263.6l-3.8,10h7.5
						L195.8,1263.6z"/>
					<path fill="#FFFFFF" d="M220.5,1280.8l-4.6-7.8h-3.6v7.8h-3.7v-20.9h9.2c4.1,0,6.8,2.7,6.8,6.6c0,3.7-2.4,5.7-5,6.1l5.1,8.2
						H220.5z M220.8,1266.4c0-2-1.5-3.3-3.6-3.3h-5v6.7h5C219.3,1269.7,220.8,1268.4,220.8,1266.4z"/>
				</g>
			</g>
		</g>
		<g>
			<g>
				<g enable-background="new    ">
					<path fill="#009BFF" d="M270.1,1456.6v-6.1c29.5-23.8,49.3-40.7,49.3-57.5c0-12.5-10.3-17.7-19.8-17.7
						c-10.8,0-19.1,4.7-23.8,11.3l-5.1-4.7c6.1-8.3,16.6-13.4,28.9-13.4c12.7,0,27.3,7.3,27.3,24.4c0,19.1-20.2,36.5-45.2,56.8h45.6
						v6.8H270.1z"/>
					<path fill="#009BFF" d="M354.3,1456.6l36.4-80h-48v-6.8h56.8v5.2l-37.1,81.5H354.3z"/>
					<path fill="#009BFF" d="M399.3,1452.1c0-3,2.7-5.6,5.9-5.6s5.7,2.6,5.7,5.6c0,3.1-2.6,5.7-5.7,5.7S399.3,1455.2,399.3,1452.1z"
						/>
					<path fill="#009BFF" d="M432.2,1456.6v-76.6l-13.9,14.8l-4.5-4.8l19.1-20.2h6.8v86.7H432.2z"/>
					<path fill="#009BFF" d="M454.8,1390.1c0-12.2,8.3-21.5,20.3-21.5c12.1,0,20.4,9.2,20.4,21.5c0,12.1-8.3,21.2-20.4,21.2
						C463.2,1411.3,454.8,1402.2,454.8,1390.1z M489.5,1390.1c0-9.1-5.8-16.4-14.4-16.4c-8.5,0-14.3,7.3-14.3,16.4
						c0,8.7,5.8,16.1,14.3,16.1C483.7,1406.2,489.5,1398.8,489.5,1390.1z M467.1,1456.6l55.4-86.7h6l-55.5,86.7H467.1z M498.9,1437
						c0-12.2,8.5-21.5,20.4-21.5c12,0,20.4,9.2,20.4,21.5c0,12.1-8.5,21.2-20.4,21.2C507.4,1458.2,498.9,1449.1,498.9,1437z
						 M533.6,1437c0-9-5.7-16.4-14.3-16.4s-14.4,7.4-14.4,16.4c0,8.8,5.9,16.1,14.4,16.1S533.6,1445.9,533.6,1437z"/>
				</g>
			</g>
			<g>
				<rect x="165.1" y="1370.6" fill="#F900DC" width="80" height="80"/>
				<g enable-background="new    ">
					<path fill="#FFFFFF" d="M186.7,1411v-12.7h3.7v12.5c0,3.3,1.9,5.5,5.4,5.5c3.5,0,5.3-2.2,5.3-5.5v-12.5h3.7v12.6
						c0,5.2-3,8.7-9,8.7C189.7,1419.6,186.7,1416.2,186.7,1411z"/>
					<path fill="#FFFFFF" d="M207.9,1416.3l2-2.8c1.4,1.5,3.7,2.9,6.6,2.9c3,0,4.2-1.5,4.2-2.9c0-4.4-12.2-1.7-12.2-9.4
						c0-3.5,3-6.1,7.6-6.1c3.3,0,5.9,1,7.8,2.9l-2.1,2.7c-1.6-1.6-3.9-2.4-6.1-2.4c-2.2,0-3.5,1-3.5,2.6c0,3.9,12.2,1.5,12.2,9.3
						c0,3.5-2.4,6.5-8.1,6.5C212.6,1419.6,209.8,1418.3,207.9,1416.3z"/>
				</g>
			</g>
		</g>
	</g>
	<g id="Observations">
		<g id="Photos">
		</g>
		<g id="Copy_16_">
		</g>
	</g>
	<g id="Copy_15_">
	</g>
	<g id="Hero_6_">
		<g id="Photo_3_">
		</g>
		<g id="Type">
		</g>
		<g id="location_2_">
		</g>
		<g id="Headline_3_">
		</g>
	</g>
	<line fill="none" stroke="#CCCCCC" stroke-miterlimit="10" x1="79" y1="161.5" x2="681" y2="161.5"/>
	<line fill="none" stroke="#CCCCCC" stroke-miterlimit="10" x1="79" y1="250.5" x2="681" y2="250.5"/>
	<line fill="none" stroke="#CCCCCC" stroke-miterlimit="10" x1="79" y1="339.5" x2="681" y2="339.5"/>
	<line fill="none" stroke="#CCCCCC" stroke-miterlimit="10" x1="79" y1="511.5" x2="681" y2="511.5"/>
	<line fill="none" stroke="#CCCCCC" stroke-miterlimit="10" x1="79" y1="603.5" x2="681" y2="603.5"/>
	<line fill="none" stroke="#CCCCCC" stroke-miterlimit="10" x1="79" y1="689.5" x2="681" y2="689.5"/>
	<line fill="none" stroke="#CCCCCC" stroke-miterlimit="10" x1="79" y1="777.5" x2="681" y2="777.5"/>
	<line fill="none" stroke="#CCCCCC" stroke-miterlimit="10" x1="79" y1="424.5" x2="681" y2="424.5"/>
	<path fill="none" d="M79.2,592.5"/>
	<g>
		<g enable-background="new    ">
			<path fill="#4D4D4D" d="M75.2,856.7l1-1.4c0.6,0.8,1.5,1.5,2.9,1.5c1.9,0,3.1-1.3,3.1-3.2v-10.7h1.9v10.7c0,3.3-2.1,4.9-4.9,4.9
				C77.6,858.5,76.3,858,75.2,856.7z"/>
			<path fill="#4D4D4D" d="M99,858.2l-1.4-3.4H90l-1.4,3.4h-2.2l6.2-15.3H95l6.2,15.3H99z M93.8,844.8l-3.2,8.3h6.5L93.8,844.8z"/>
			<path fill="#4D4D4D" d="M115.1,858.2l-8.9-12.2v12.2h-1.9v-15.3h2l8.8,12v-12h1.9v15.3H115.1z"/>
			<path fill="#4D4D4D" d="M129.6,842.6l0.9,0.7c-0.7,0.5-1.4,1.4-1.5,2.1c0,0,0.2,0,0.3,0c0.6,0,1.1,0.5,1.1,1.2
				c0,0.7-0.5,1.2-1.2,1.2c-0.8,0-1.4-0.6-1.4-1.7C127.7,844.7,128.5,843.4,129.6,842.6z"/>
			<path fill="#4D4D4D" d="M137,858.2v-12.8l-2.5,2.6l-1.1-1.2l3.8-4h1.7v15.3H137z"/>
			<path fill="#4D4D4D" d="M149.7,858.2v-3.9h-7.3v-1.6l6.6-9.9h2.6v9.8h2.2v1.7h-2.2v3.9H149.7z M149.7,844.6l-5.4,8h5.4V844.6z"/>
		</g>
	</g>
	<g>
		<g enable-background="new    ">
			<path fill="#4D4D4D" d="M218.8,858.2l-1.4-3.4h-7.6l-1.4,3.4h-2.2l6.2-15.3h2.4l6.2,15.3H218.8z M213.6,844.8l-3.2,8.3h6.5
				L213.6,844.8z"/>
			<path fill="#4D4D4D" d="M223.9,858.2v-15.3h6.2c3.1,0,4.8,2.1,4.8,4.6c0,2.5-1.7,4.6-4.8,4.6h-4.3v6.1H223.9z M232.9,847.5
				c0-1.7-1.2-2.9-3.1-2.9h-4v5.8h4C231.7,850.4,232.9,849.2,232.9,847.5z"/>
			<path fill="#4D4D4D" d="M247.3,858.2l-3.9-6.1h-3.1v6.1h-1.9v-15.3h6.2c2.8,0,4.8,1.8,4.8,4.6c0,2.8-1.9,4.3-4,4.5l4.1,6.3H247.3
				z M247.4,847.5c0-1.7-1.3-2.9-3.1-2.9h-4v5.9h4C246.2,850.4,247.4,849.2,247.4,847.5z"/>
			<path fill="#4D4D4D" d="M261.5,842.6l0.9,0.7c-0.7,0.5-1.4,1.4-1.5,2.1c0,0,0.2,0,0.3,0c0.6,0,1.1,0.5,1.1,1.2
				c0,0.7-0.5,1.2-1.2,1.2c-0.8,0-1.4-0.6-1.4-1.7C259.7,844.7,260.5,843.4,261.5,842.6z"/>
			<path fill="#4D4D4D" d="M268.9,858.2v-12.8l-2.5,2.6l-1.1-1.2l3.8-4h1.7v15.3H268.9z"/>
			<path fill="#4D4D4D" d="M281.7,858.2v-3.9h-7.3v-1.6l6.6-9.9h2.6v9.8h2.2v1.7h-2.2v3.9H281.7z M281.7,844.6l-5.4,8h5.4V844.6z"/>
		</g>
	</g>
	<g>
		<g enable-background="new    ">
			<path fill="#4D4D4D" d="M466.8,850.6c0-4.5,3.1-7.9,7.6-7.9c4.5,0,7.6,3.4,7.6,7.9s-3.1,7.9-7.6,7.9
				C469.9,858.6,466.8,855.2,466.8,850.6z M480.1,850.6c0-3.6-2.2-6.2-5.7-6.2c-3.4,0-5.6,2.6-5.6,6.2c0,3.6,2.2,6.2,5.6,6.2
				C477.9,856.9,480.1,854.2,480.1,850.6z"/>
			<path fill="#4D4D4D" d="M485.4,850.6c0-4.7,3.5-7.9,7.9-7.9c2.7,0,4.6,1.3,5.8,3l-1.6,0.9c-0.9-1.3-2.5-2.2-4.2-2.2
				c-3.4,0-5.9,2.6-5.9,6.2c0,3.6,2.6,6.2,5.9,6.2c1.7,0,3.4-0.9,4.2-2.2l1.6,0.9c-1.3,1.8-3.1,3.1-5.8,3.1
				C488.9,858.6,485.4,855.4,485.4,850.6z"/>
			<path fill="#4D4D4D" d="M506.4,858.3v-13.6h-4.9V843h11.6v1.7h-4.9v13.6H506.4z"/>
			<path fill="#4D4D4D" d="M524.8,842.7l0.9,0.7c-0.7,0.5-1.4,1.4-1.5,2.1c0,0,0.2,0,0.3,0c0.6,0,1.1,0.5,1.1,1.2
				c0,0.7-0.5,1.2-1.2,1.2c-0.8,0-1.4-0.6-1.4-1.7C522.9,844.8,523.7,843.5,524.8,842.7z"/>
			<path fill="#4D4D4D" d="M532.2,858.3v-12.8l-2.5,2.6l-1.2-1.2l3.8-4h1.7v15.3H532.2z"/>
			<path fill="#4D4D4D" d="M544.9,858.3v-3.9h-7.3v-1.6l6.6-9.9h2.6v9.8h2.2v1.7h-2.2v3.9H544.9z M544.9,844.7l-5.4,8h5.4V844.7z"/>
		</g>
	</g>
	<g>
		<polyline fill="none" stroke="#009BFF" stroke-width="4" stroke-miterlimit="10" points="73.2,690.7 80.2,698.8 81.7,706.3 
			91.6,714.4 104.9,694.2 111,702.9 127.5,698.8 132.3,704.6 143.4,706.3 149.3,717.3 170.6,706.9 176.2,709.7 179.2,696.9 
			185,694.2 190,699.4 201.8,687.2 214.2,689 224,699.4 231.1,676.8 238.6,669.9 242.9,657.2 251.9,667 258.9,666.4 266.1,642.2 
			274.7,640.4 276.3,646.2 286.8,635.8 291.4,641.6 300.8,637 307.7,643.9 315.3,635 318.8,639.3 330.3,639.7 331.8,632 339.7,632 
			342.3,622.9 351.2,620.1 353.2,613.8 361.5,617.6 364.6,624.4 370.7,617.9 385,613.3 389.6,602.3 399,600.5 413,586.7 
			418.3,590.7 452.3,584.4 464.7,544.5 481.5,564.7 504.1,560.1 512.3,547.9 520.1,552.6 545.1,526 559.6,514.1 572,520.4 
			590.9,509 595.8,517.3 614.7,514.1 628,520.4 638.4,509 658.4,523.6 668.1,535.2 675.9,523.6 680.4,535.2 		"/>
		<polyline fill="none" stroke="#FC1D00" stroke-width="4" stroke-miterlimit="10" points="74.3,684.2 78,684.2 88.6,682.5 
			96.1,672.5 100.3,661.8 111.9,656.6 116,642.3 122.6,642.3 152.7,583.6 183.4,557.4 199.1,530.7 225,539 233.4,536.7 244.8,528.5 
			248,528.5 271.8,500.7 275.1,488.8 286.3,487.9 295,478.1 302.5,484.6 367,452.2 379.7,423.1 401.1,406.3 413,412.2 431.2,405 
			453.7,363.7 463.2,363.7 475.5,344.9 485.2,351.3 493,329.1 522.2,301.5 533.1,305.1 547.7,286.6 588.4,255.4 591.7,246.9 
			613.6,230.3 634.9,230.3 635.1,216.9 656.9,198.9 666.9,205.1 672.3,195 679.2,195 		"/>
		<polyline fill="none" stroke="#30D6D9" stroke-width="4" stroke-miterlimit="10" points="74.1,689.3 83,685.3 88.7,669.5 
			108.7,663.1 118.4,639.3 127.3,648.8 143.4,607.2 149.3,616.8 166.6,610 175.6,622.3 190,600 217.6,609.6 221.7,616 233.5,616 
			250.7,640.6 256.9,631.9 271.8,653.9 321.8,634.9 394.7,645.6 435.2,632.9 478.5,645.6 545.4,624.3 566.2,627.4 571.2,641.6 
			578.3,630.4 585.2,643 615,643 625.7,620.1 656,604 681,604 		"/>
		
			<polyline opacity="0.9" fill="none" stroke="#000000" stroke-width="4" stroke-miterlimit="10" enable-background="new    " points="
			73,692.7 91.6,689 108.8,689 127.3,684.9 147.7,689.9 266.1,649.9 312.7,639 351,642.7 372.5,638.6 403.2,639.3 479.8,627.5 
			510.6,616.8 555.7,606 560.9,615.1 579.5,610 593.3,610 610.3,593.1 659.2,576.2 680.4,565.2 		"/>
		<polyline fill="none" stroke="#F900DC" stroke-width="4" stroke-miterlimit="10" points="73.9,685.6 94.6,684.4 96.7,677.1 
			108.6,672.5 135,691.9 140.1,688.7 159.4,698.2 183.4,685.6 200.8,690.7 217,674 254,660.4 269.4,672.5 325.7,645.6 384.4,657.2 
			393,650.8 428.8,651.4 466.3,661.8 515.6,647.4 610.3,637.5 678.8,643.9 		"/>
	</g>
	<g>
		<g enable-background="new    ">
			<path fill="#4D4D4D" d="M338.2,856.7l1-1.4c0.6,0.8,1.5,1.5,2.9,1.5c1.9,0,3.1-1.3,3.1-3.2v-10.7h1.9v10.7c0,3.3-2.1,4.9-4.9,4.9
				C340.6,858.5,339.3,858,338.2,856.7z"/>
			<path fill="#4D4D4D" d="M351.7,852.3v-9.4h1.9v9.3c0,2.8,1.5,4.6,4.3,4.6c2.8,0,4.3-1.8,4.3-4.6v-9.3h1.9v9.4
				c0,3.8-2.1,6.3-6.3,6.3C353.8,858.5,351.7,856,351.7,852.3z"/>
			<path fill="#4D4D4D" d="M368.5,858.2v-15.3h1.9v13.6h7.1v1.7H368.5z"/>
			<path fill="#4D4D4D" d="M389.2,842.6l0.9,0.7c-0.7,0.5-1.4,1.4-1.5,2.1c0,0,0.2,0,0.3,0c0.6,0,1.1,0.5,1.1,1.2
				c0,0.7-0.5,1.2-1.2,1.2c-0.8,0-1.4-0.6-1.4-1.7C387.4,844.7,388.2,843.4,389.2,842.6z"/>
			<path fill="#4D4D4D" d="M396.6,858.2v-12.8l-2.5,2.6l-1.1-1.2l3.8-4h1.7v15.3H396.6z"/>
			<path fill="#4D4D4D" d="M409.4,858.2v-3.9h-7.3v-1.6l6.6-9.9h2.6v9.8h2.2v1.7h-2.2v3.9H409.4z M409.4,844.6l-5.4,8h5.4V844.6z"/>
		</g>
	</g>
	<g>
		<g enable-background="new    ">
			<path fill="#4D4D4D" d="M601.5,856.8l1-1.4c0.6,0.8,1.5,1.5,2.9,1.5c1.9,0,3.1-1.3,3.1-3.2V843h1.9v10.7c0,3.3-2.1,4.9-4.9,4.9
				C603.9,858.6,602.5,858,601.5,856.8z"/>
			<path fill="#4D4D4D" d="M625.3,858.3l-1.4-3.4h-7.6l-1.4,3.4h-2.2l6.2-15.3h2.4l6.2,15.3H625.3z M620.1,844.9l-3.2,8.3h6.5
				L620.1,844.9z"/>
			<path fill="#4D4D4D" d="M641.3,858.3l-8.9-12.2v12.2h-1.9V843h2l8.8,12v-12h1.9v15.3H641.3z"/>
			<path fill="#4D4D4D" d="M655.8,842.7l0.9,0.7c-0.7,0.5-1.4,1.4-1.5,2.1c0,0,0.2,0,0.3,0c0.6,0,1.1,0.5,1.1,1.2
				c0,0.7-0.5,1.2-1.2,1.2c-0.8,0-1.4-0.6-1.4-1.7C654,844.8,654.8,843.5,655.8,842.7z"/>
			<path fill="#4D4D4D" d="M663.3,858.3v-12.8l-2.5,2.6l-1.1-1.2l3.8-4h1.7v15.3H663.3z"/>
			<path fill="#4D4D4D" d="M669.5,856.1l1.2-1.3c1,1.3,2.4,2,4.2,2c2.1,0,3.5-1.4,3.5-3.3c0-2-1.4-3.3-3.5-3.3
				c-1.3,0-2.5,0.4-3.5,1.4l-1.4-0.5V843h9.4v1.7h-7.5v5.3c0.8-0.7,2-1.4,3.6-1.4c2.6,0,4.9,1.7,4.9,4.9c0,3.1-2.4,5.1-5.5,5.1
				C672.3,858.6,670.6,857.6,669.5,856.1z"/>
		</g>
	</g>
	<g>
		<g enable-background="new    ">
			<path fill="#009BFF" d="M240.2,26V5.2h3.6V26H240.2z"/>
			<path fill="#009BFF" d="M262.8,26l-10.8-14.8V26h-3.6V5.2h3.7l10.6,14.4V5.2h3.6V26H262.8z"/>
		</g>
		<g enable-background="new    ">
			<path fill="#FC1D00" d="M149.4,26l-1.5-4h-9.5l-1.5,4h-4.1l8.2-20.8h4.5l8.2,20.8H149.4z M143.1,8.9l-3.7,9.9h7.5L143.1,8.9z"/>
			<path fill="#FC1D00" d="M167.7,26l-4.6-7.8h-3.6V26h-3.6V5.2h9.1c4.1,0,6.8,2.7,6.8,6.5c0,3.7-2.4,5.7-4.9,6.1l5.1,8.2H167.7z
				 M168,11.8c0-2-1.5-3.3-3.6-3.3h-5v6.6h5C166.5,15.1,168,13.7,168,11.8z"/>
		</g>
		<g enable-background="new    ">
			<path fill="#F900DC" d="M548.6,17.8V5.2h3.7v12.5c0,3.3,1.8,5.5,5.3,5.5c3.5,0,5.3-2.2,5.3-5.5V5.2h3.7v12.6c0,5.2-3,8.6-9,8.6
				C551.6,26.4,548.6,22.9,548.6,17.8z"/>
			<path fill="#F900DC" d="M569.7,23.1l2-2.8c1.4,1.5,3.7,2.9,6.6,2.9c3,0,4.2-1.5,4.2-2.8c0-4.4-12.1-1.7-12.1-9.3
				c0-3.4,3-6.1,7.6-6.1c3.2,0,5.9,1,7.8,2.9l-2.1,2.7c-1.6-1.6-3.8-2.4-6-2.4c-2.1,0-3.5,1-3.5,2.6c0,3.9,12.1,1.5,12.1,9.2
				c0,3.5-2.4,6.4-8,6.4C574.3,26.4,571.5,25.1,569.7,23.1z"/>
		</g>
		<g opacity="0.9" enable-background="new    ">
			<path d="M335.6,26V5.2h10.2c3.8,0,5.9,2.4,5.9,5.3c0,2.6-1.7,4.4-3.6,4.8c2.2,0.3,4,2.6,4,5.1c0,3.2-2.1,5.6-6,5.6H335.6z
				 M348,11.2c0-1.6-1.1-2.7-2.9-2.7h-5.8v5.4h5.8C346.9,13.8,348,12.7,348,11.2z M348.4,19.9c0-1.6-1.1-2.9-3.2-2.9h-6v5.8h6
				C347.2,22.8,348.4,21.7,348.4,19.9z"/>
			<path d="M367.6,26l-4.6-7.8h-3.6V26h-3.6V5.2h9.1c4.1,0,6.8,2.7,6.8,6.5c0,3.7-2.4,5.7-4.9,6.1l5.1,8.2H367.6z M367.9,11.8
				c0-2-1.5-3.3-3.6-3.3h-5v6.6h5C366.4,15.1,367.9,13.7,367.9,11.8z"/>
		</g>
		<g enable-background="new    ">
			<path fill="#30D6D9" d="M439.2,15.6c0-6.4,4.8-10.7,10.9-10.7c4.2,0,6.8,2.2,8.4,4.7l-3.1,1.6c-1-1.7-3-3-5.2-3
				c-4.1,0-7.2,3.1-7.2,7.5s3.1,7.5,7.2,7.5c2.2,0,4.2-1.3,5.2-3l3.1,1.6c-1.6,2.5-4.1,4.7-8.4,4.7C444,26.4,439.2,22,439.2,15.6z"
				/>
			<path fill="#30D6D9" d="M475.9,26L465,11.2V26h-3.6V5.2h3.7l10.6,14.4V5.2h3.6V26H475.9z"/>
		</g>
	</g>
	<g>
		<g enable-background="new    ">
			<path fill="#4D4D4D" d="M33.2,168.6l1.1-1.2c0.9,1.2,2.5,2,4.3,2c2.2,0,3.6-1.1,3.6-2.9c0-1.9-1.6-2.7-3.8-2.7
				c-0.6,0-1.4,0-1.6,0v-1.7c0.3,0,1,0,1.6,0c1.9,0,3.6-0.8,3.6-2.5c0-1.7-1.6-2.6-3.4-2.6c-1.7,0-2.9,0.6-4,1.9l-1.1-1.2
				c1.1-1.4,2.9-2.4,5.3-2.4c2.9,0,5.2,1.5,5.2,4.1c0,2.2-1.9,3.3-3.3,3.6c1.4,0.1,3.5,1.3,3.5,3.8c0,2.6-2.1,4.4-5.4,4.4
				C36,171.2,34.1,170,33.2,168.6z"/>
			<path fill="#4D4D4D" d="M47.5,163.2c0-3.7,1.7-7.9,5.9-7.9c4.2,0,5.9,4.2,5.9,7.9c0,3.7-1.7,7.9-5.9,7.9
				C49.2,171.2,47.5,167,47.5,163.2z M57.3,163.2c0-3.1-1-6.2-3.9-6.2s-3.9,3.2-3.9,6.2s1,6.2,3.9,6.2S57.3,166.3,57.3,163.2z"/>
			<path fill="#4D4D4D" d="M62.1,159.1c0-2.2,1.5-3.8,3.7-3.8c2.2,0,3.7,1.6,3.7,3.8c0,2.1-1.5,3.7-3.7,3.7
				C63.6,162.9,62.1,161.3,62.1,159.1z M68.1,159.1c0-1.5-0.9-2.6-2.3-2.6c-1.4,0-2.3,1.1-2.3,2.6c0,1.4,1,2.6,2.3,2.6
				C67.2,161.7,68.1,160.6,68.1,159.1z M64.3,170.9l9.8-15.3h1.3l-9.8,15.3H64.3z M70.1,167.4c0-2.1,1.5-3.8,3.7-3.8
				s3.7,1.7,3.7,3.8s-1.5,3.8-3.7,3.8S70.1,169.5,70.1,167.4z M76.1,167.4c0-1.5-0.9-2.6-2.3-2.6c-1.4,0-2.3,1.1-2.3,2.6
				c0,1.5,0.9,2.6,2.3,2.6C75.2,170,76.1,168.9,76.1,167.4z"/>
		</g>
		<g enable-background="new    ">
			<path fill="#4D4D4D" d="M33.8,258.9v-1.5c5.5-4.3,8.5-6.9,8.5-9.5c0-2-1.6-2.8-3.2-2.8c-1.8,0-3.3,0.8-4.2,1.9l-1.2-1.2
				c1.2-1.6,3.2-2.4,5.3-2.4c2.6,0,5.2,1.4,5.2,4.5c0,3.1-3.2,6-7.5,9.4h7.5v1.7H33.8z"/>
			<path fill="#4D4D4D" d="M48.6,256.7l1.2-1.3c1,1.3,2.4,2,4.2,2c2.1,0,3.5-1.4,3.5-3.3c0-2-1.4-3.3-3.5-3.3
				c-1.3,0-2.5,0.4-3.5,1.4l-1.4-0.5v-8.3h9.4v1.7h-7.5v5.3c0.8-0.7,2-1.4,3.6-1.4c2.6,0,4.9,1.7,4.9,4.9c0,3.1-2.4,5.1-5.5,5.1
				C51.4,259.2,49.7,258.2,48.6,256.7z"/>
			<path fill="#4D4D4D" d="M62.3,247.1c0-2.2,1.5-3.8,3.7-3.8c2.2,0,3.7,1.6,3.7,3.8c0,2.1-1.5,3.7-3.7,3.7
				C63.8,250.9,62.3,249.3,62.3,247.1z M68.3,247.1c0-1.5-0.9-2.6-2.3-2.6c-1.4,0-2.3,1.1-2.3,2.6c0,1.4,1,2.6,2.3,2.6
				C67.4,249.7,68.3,248.6,68.3,247.1z M64.5,258.9l9.8-15.3h1.3l-9.8,15.3H64.5z M70.3,255.4c0-2.1,1.5-3.8,3.7-3.8
				s3.7,1.7,3.7,3.8s-1.5,3.8-3.7,3.8S70.3,257.5,70.3,255.4z M76.3,255.4c0-1.5-0.9-2.6-2.3-2.6c-1.4,0-2.3,1.1-2.3,2.6
				c0,1.5,0.9,2.6,2.3,2.6C75.4,258,76.3,256.9,76.3,255.4z"/>
		</g>
		<g enable-background="new    ">
			<path fill="#4D4D4D" d="M33.8,346.9v-1.5c5.5-4.3,8.5-6.9,8.5-9.5c0-2-1.6-2.8-3.2-2.8c-1.8,0-3.3,0.8-4.2,1.9l-1.2-1.2
				c1.2-1.6,3.2-2.4,5.3-2.4c2.6,0,5.2,1.4,5.2,4.5c0,3.1-3.2,6-7.5,9.4h7.5v1.7H33.8z"/>
			<path fill="#4D4D4D" d="M48.2,339.2c0-3.7,1.7-7.9,5.9-7.9c4.2,0,5.9,4.2,5.9,7.9c0,3.7-1.7,7.9-5.9,7.9
				C49.9,347.2,48.2,343,48.2,339.2z M58,339.2c0-3.1-1-6.2-3.9-6.2s-3.9,3.2-3.9,6.2s1,6.2,3.9,6.2S58,342.3,58,339.2z"/>
			<path fill="#4D4D4D" d="M62.8,335.1c0-2.2,1.5-3.8,3.7-3.8c2.2,0,3.7,1.6,3.7,3.8c0,2.1-1.5,3.7-3.7,3.7
				C64.3,338.9,62.8,337.3,62.8,335.1z M68.8,335.1c0-1.5-0.9-2.6-2.3-2.6c-1.4,0-2.3,1.1-2.3,2.6c0,1.4,1,2.6,2.3,2.6
				C67.9,337.7,68.8,336.6,68.8,335.1z M65,346.9l9.8-15.3h1.3l-9.8,15.3H65z M70.8,343.4c0-2.1,1.5-3.8,3.7-3.8s3.7,1.7,3.7,3.8
				s-1.5,3.8-3.7,3.8S70.8,345.5,70.8,343.4z M76.8,343.4c0-1.5-0.9-2.6-2.3-2.6c-1.4,0-2.3,1.1-2.3,2.6c0,1.5,0.9,2.6,2.3,2.6
				C75.9,346,76.8,344.9,76.8,343.4z"/>
		</g>
		<g enable-background="new    ">
			<path fill="#4D4D4D" d="M36.6,434.9v-12.8l-2.5,2.6l-1.1-1.2l3.8-4h1.7v15.3H36.6z"/>
			<path fill="#4D4D4D" d="M42.8,432.7l1.2-1.3c1,1.3,2.4,2,4.2,2c2.1,0,3.5-1.4,3.5-3.3c0-2-1.4-3.3-3.5-3.3
				c-1.3,0-2.5,0.4-3.5,1.4l-1.4-0.5v-8.3h9.4v1.7h-7.5v5.3c0.8-0.7,2-1.4,3.6-1.4c2.6,0,4.9,1.7,4.9,4.9c0,3.1-2.4,5.1-5.5,5.1
				C45.7,435.2,44,434.2,42.8,432.7z"/>
			<path fill="#4D4D4D" d="M56.6,423.1c0-2.2,1.5-3.8,3.7-3.8c2.2,0,3.7,1.6,3.7,3.8c0,2.1-1.5,3.7-3.7,3.7
				C58.1,426.9,56.6,425.3,56.6,423.1z M62.6,423.1c0-1.5-0.9-2.6-2.3-2.6c-1.4,0-2.3,1.1-2.3,2.6c0,1.4,1,2.6,2.3,2.6
				C61.7,425.7,62.6,424.6,62.6,423.1z M58.8,434.9l9.8-15.3h1.3l-9.8,15.3H58.8z M64.6,431.4c0-2.1,1.5-3.8,3.7-3.8
				s3.7,1.7,3.7,3.8s-1.5,3.8-3.7,3.8S64.6,433.5,64.6,431.4z M70.6,431.4c0-1.5-0.9-2.6-2.3-2.6c-1.4,0-2.3,1.1-2.3,2.6
				c0,1.5,0.9,2.6,2.3,2.6C69.7,434,70.6,432.9,70.6,431.4z"/>
		</g>
		<g enable-background="new    ">
			<path fill="#4D4D4D" d="M36.6,522.9v-12.8l-2.5,2.6l-1.1-1.2l3.8-4h1.7v15.3H36.6z"/>
			<path fill="#4D4D4D" d="M42.5,515.2c0-3.7,1.7-7.9,5.9-7.9c4.2,0,5.9,4.2,5.9,7.9c0,3.7-1.7,7.9-5.9,7.9
				C44.1,523.2,42.5,519,42.5,515.2z M52.3,515.2c0-3.1-1-6.2-3.9-6.2s-3.9,3.2-3.9,6.2s1,6.2,3.9,6.2S52.3,518.3,52.3,515.2z"/>
			<path fill="#4D4D4D" d="M57.1,511.1c0-2.2,1.5-3.8,3.7-3.8c2.2,0,3.7,1.6,3.7,3.8c0,2.1-1.5,3.7-3.7,3.7
				C58.6,514.9,57.1,513.3,57.1,511.1z M63.1,511.1c0-1.5-0.9-2.6-2.3-2.6c-1.4,0-2.3,1.1-2.3,2.6c0,1.4,1,2.6,2.3,2.6
				C62.2,513.7,63.1,512.6,63.1,511.1z M59.3,522.9l9.8-15.3h1.3l-9.8,15.3H59.3z M65.1,519.4c0-2.1,1.5-3.8,3.7-3.8
				s3.7,1.7,3.7,3.8s-1.5,3.8-3.7,3.8S65.1,521.5,65.1,519.4z M71.1,519.4c0-1.5-0.9-2.6-2.3-2.6c-1.4,0-2.3,1.1-2.3,2.6
				c0,1.5,0.9,2.6,2.3,2.6C70.2,522,71.1,520.9,71.1,519.4z"/>
		</g>
		<g enable-background="new    ">
			<path fill="#4D4D4D" d="M34,608.7l1.2-1.3c1,1.3,2.4,2,4.2,2c2.1,0,3.5-1.4,3.5-3.3c0-2-1.4-3.3-3.5-3.3c-1.3,0-2.5,0.4-3.5,1.4
				l-1.4-0.5v-8.3h9.4v1.7h-7.5v5.3c0.8-0.7,2-1.4,3.6-1.4c2.6,0,4.9,1.7,4.9,4.9c0,3.1-2.4,5.1-5.5,5.1
				C36.9,611.2,35.2,610.2,34,608.7z"/>
			<path fill="#4D4D4D" d="M47.8,599.1c0-2.2,1.5-3.8,3.7-3.8c2.2,0,3.7,1.6,3.7,3.8c0,2.1-1.5,3.7-3.7,3.7
				C49.3,602.9,47.8,601.3,47.8,599.1z M53.8,599.1c0-1.5-0.9-2.6-2.3-2.6c-1.4,0-2.3,1.1-2.3,2.6c0,1.4,1,2.6,2.3,2.6
				C52.9,601.7,53.8,600.6,53.8,599.1z M50,610.9l9.8-15.3h1.3l-9.8,15.3H50z M55.8,607.4c0-2.1,1.5-3.8,3.7-3.8s3.7,1.7,3.7,3.8
				s-1.5,3.8-3.7,3.8S55.8,609.5,55.8,607.4z M61.8,607.4c0-1.5-0.9-2.6-2.3-2.6c-1.4,0-2.3,1.1-2.3,2.6c0,1.5,0.9,2.6,2.3,2.6
				C60.9,610,61.8,608.9,61.8,607.4z"/>
		</g>
		<g enable-background="new    ">
			<path fill="#4D4D4D" d="M33.7,691.2c0-3.7,1.7-7.9,5.9-7.9c4.2,0,5.9,4.2,5.9,7.9c0,3.7-1.7,7.9-5.9,7.9
				C35.4,699.2,33.7,695,33.7,691.2z M43.5,691.2c0-3.1-1-6.2-3.9-6.2s-3.9,3.2-3.9,6.2s1,6.2,3.9,6.2S43.5,694.3,43.5,691.2z"/>
			<path fill="#4D4D4D" d="M48.3,687.1c0-2.2,1.5-3.8,3.7-3.8c2.2,0,3.7,1.6,3.7,3.8c0,2.1-1.5,3.7-3.7,3.7
				C49.8,690.9,48.3,689.3,48.3,687.1z M54.3,687.1c0-1.5-0.9-2.6-2.3-2.6c-1.4,0-2.3,1.1-2.3,2.6c0,1.4,1,2.6,2.3,2.6
				C53.4,689.7,54.3,688.6,54.3,687.1z M50.5,698.9l9.8-15.3h1.3l-9.8,15.3H50.5z M56.3,695.4c0-2.1,1.5-3.8,3.7-3.8
				s3.7,1.7,3.7,3.8s-1.5,3.8-3.7,3.8S56.3,697.5,56.3,695.4z M62.3,695.4c0-1.5-0.9-2.6-2.3-2.6c-1.4,0-2.3,1.1-2.3,2.6
				c0,1.5,0.9,2.6,2.3,2.6C61.4,698,62.3,696.9,62.3,695.4z"/>
		</g>
		<g enable-background="new    ">
			<path fill="#4D4D4D" d="M33.2,782.1v-1.5h5.5v1.5H33.2z"/>
			<path fill="#4D4D4D" d="M41.9,784.7l1.2-1.3c1,1.3,2.4,2,4.2,2c2.1,0,3.5-1.4,3.5-3.3c0-2-1.4-3.3-3.5-3.3
				c-1.3,0-2.5,0.4-3.5,1.4l-1.4-0.5v-8.3h9.4v1.7h-7.5v5.3c0.8-0.7,2-1.4,3.6-1.4c2.6,0,4.9,1.7,4.9,4.9c0,3.1-2.4,5.1-5.5,5.1
				C44.8,787.2,43.1,786.2,41.9,784.7z"/>
			<path fill="#4D4D4D" d="M55.7,775.1c0-2.2,1.5-3.8,3.7-3.8c2.2,0,3.7,1.6,3.7,3.8c0,2.1-1.5,3.7-3.7,3.7
				C57.2,778.9,55.7,777.3,55.7,775.1z M61.7,775.1c0-1.5-0.9-2.6-2.3-2.6c-1.4,0-2.3,1.1-2.3,2.6c0,1.4,1,2.6,2.3,2.6
				C60.8,777.7,61.7,776.6,61.7,775.1z M57.9,786.9l9.8-15.3H69l-9.8,15.3H57.9z M63.7,783.4c0-2.1,1.5-3.8,3.7-3.8s3.7,1.7,3.7,3.8
				s-1.5,3.8-3.7,3.8S63.7,785.5,63.7,783.4z M69.7,783.4c0-1.5-0.9-2.6-2.3-2.6c-1.4,0-2.3,1.1-2.3,2.6c0,1.5,0.9,2.6,2.3,2.6
				C68.8,786,69.7,784.9,69.7,783.4z"/>
		</g>
	</g>
	<g id="story_grid_copy">
		<g id="story_2_copy">
		</g>
		<g id="story_1_copy">
		</g>
		<g id="more_stories_copy">
		</g>
	</g>
</g>
<g id="Layer_1_1_">
</g>
</svg>
