<?xml version="1.0" encoding="utf-8"?>
<!-- Generator: Adobe Illustrator 18.0.0, SVG Export Plug-In . SVG Version: 6.00 Build 0)  -->
<!DOCTYPE svg PUBLIC "-//W3C//DTD SVG 1.1//EN" "http://www.w3.org/Graphics/SVG/1.1/DTD/svg11.dtd">
<svg version="1.1" id="Layer_1" xmlns="http://www.w3.org/2000/svg" xmlns:xlink="http://www.w3.org/1999/xlink" x="0px" y="0px"
	 width="1440px" height="980px" viewBox="0 0 1440 980" enable-background="new 0 0 1440 980" xml:space="preserve">
<g id="Layer_1_1_">
	<g id="_x35_._Case_Study-_Bloomberg">
		<g id="chart">
			<g>
				<line fill="none" stroke="#CCCCCC" stroke-miterlimit="10" x1="269" y1="6.3" x2="1182" y2="6.3"/>
				<line fill="none" stroke="#CCCCCC" stroke-miterlimit="10" x1="269" y1="75.3" x2="1182" y2="75.3"/>
				<line fill="none" stroke="#CCCCCC" stroke-miterlimit="10" x1="269" y1="142.3" x2="1182" y2="142.3"/>
				<line fill="none" stroke="#CCCCCC" stroke-miterlimit="10" x1="269" y1="275.3" x2="1182" y2="275.3"/>
				<line fill="none" stroke="#CCCCCC" stroke-miterlimit="10" x1="269" y1="344.3" x2="1182" y2="344.3"/>
				<line fill="none" stroke="#CCCCCC" stroke-miterlimit="10" x1="269" y1="410.3" x2="1182" y2="410.3"/>
				<line fill="none" stroke="#CCCCCC" stroke-miterlimit="10" x1="269" y1="481.3" x2="1182" y2="481.3"/>
				<line fill="none" stroke="#CCCCCC" stroke-miterlimit="10" x1="269" y1="209.3" x2="1182" y2="209.3"/>
				<path fill="none" d="M226.4,432.5"/>
				<g>
					<text transform="matrix(1 0 0 1 302.9817 519.665)" fill="#4D4D4D" font-family="'ProximaNova-Regular'" font-size="13">JAN ‘14</text>
				</g>
				<g>
					<text transform="matrix(1 0 0 1 512.7079 519.665)" fill="#4D4D4D" font-family="'ProximaNova-Regular'" font-size="13">APR ‘14</text>
				</g>
				<g>
					<text transform="matrix(1 0 0 1 930.9272 519.7529)" fill="#4D4D4D" font-family="'ProximaNova-Regular'" font-size="13">OCT ‘14</text>
				</g>
				<g>
					<polyline fill="none" stroke="#009BFF" stroke-width="4" stroke-miterlimit="10" points="257.3,413.9 267.9,420.1 270.2,425.9 
						285.4,432 305.6,416.6 315,423.2 340.1,420.1 347.5,424.5 364.5,425.9 373.5,434.3 405.9,426.3 414.5,428.5 419,418.7 
						427.9,416.6 435.5,420.6 453.5,411.3 472.5,412.6 487.4,420.6 498.3,403.3 509.7,398 516.2,388.3 530,395.8 540.6,395.4 
						551.6,376.8 564.7,375.5 567.2,379.9 583.2,371.9 590.3,376.4 604.7,372.8 615.1,378.1 626.8,371.4 632.1,374.6 649.6,374.8 
						651.9,368.8 663.9,368.8 668,362 681.5,359.9 684.5,355.1 697.2,358 702,363.2 711.2,358.2 733,354.7 740.2,346.3 754.5,345 
						775.8,334.4 783.8,337.5 835.8,332.6 854.6,302.1 880.4,317.6 914.9,314.1 927.3,304.8 939.3,308.3 977.4,288 999.4,278.9 
						1018.4,283.7 1047.3,275 1054.7,281.4 1083.6,278.9 1103.9,283.7 1119.7,275 1150.3,286.1 1165,295.1 1177,286.1 1183.9,295.1 
											"/>
					<polyline fill="none" stroke="#FC1D00" stroke-width="4" stroke-miterlimit="10" points="259,408.8 264.7,408.8 280.8,407.6 
						292.3,399.9 298.7,391.8 316.4,387.7 322.6,376.8 332.8,376.8 378.5,331.9 425.4,311.9 449.4,291.6 489,298 501.7,296.1 
						519.2,289.8 524,289.8 560.4,268.5 565.4,259.5 582.4,258.9 595.8,251.4 607.2,256.3 705.6,231.5 725,209.3 757.6,196.5 
						775.8,201 803.6,195.4 837.9,163.8 852.3,163.8 871.2,149.4 886,154.4 897.9,137.5 942.4,116.4 959,119.1 981.3,105 
						1043.5,81.1 1048.5,74.5 1081.8,61.8 1114.4,61.8 1114.7,51.6 1148,37.9 1163.2,42.5 1171.5,34.8 1182,34.8 					"/>
					<polyline fill="none" stroke="#30D6D9" stroke-width="4" stroke-miterlimit="10" points="258.3,412.9 272,409.8 280.8,397.7 
						311.4,392.8 326.3,374.6 339.8,381.9 364.5,350.1 373.5,357.4 399.9,352.2 413.6,361.6 435.5,344.5 477.6,351.9 483.9,356.8 
						502,356.8 528.2,375.6 537.6,368.9 560.4,385.7 636.7,371.2 747.8,379.4 809.6,369.7 875.8,379.4 977.9,363.1 1009.6,365.6 
						1017.3,376.4 1028,367.5 1038.6,376.8 1084.1,376.8 1100.3,359.6 1146.6,347.8 1184,347.8 					"/>
					
						<polyline opacity="0.9" fill="none" stroke="#000000" stroke-width="4" stroke-miterlimit="10" enable-background="new    " points="
						257.1,415.5 285.4,412.8 311.6,412.8 339.8,409.6 371,413.3 551.6,382.8 622.8,374.4 681.3,377.2 713.9,374.1 760.8,374.7 
						877.7,365.6 924.8,357.4 993.5,349.2 1001.5,355.9 1029.8,351.8 1051,351.8 1076.8,339.1 1151.4,326.2 1183.9,318 					"/>
					<polyline fill="none" stroke="#F900DC" stroke-width="4" stroke-miterlimit="10" points="258.5,410 289.9,409.1 293.2,403.5 
						311.4,400 351.6,414.8 359.4,412.4 388.9,419.7 425.4,410 451.9,413.9 476.7,401.1 533.2,390.7 556.7,400 642.6,379.4 
						732.1,388.3 745.3,383.4 799.9,383.9 857.1,391.8 932.4,380.8 1076.8,373.3 1181.4,378.1 					"/>
				</g>
				
					<text transform="matrix(1 0 0 1 1193.6372 296.2129)" fill="#009BFF" font-family="'ProximaNova-Semibold'" font-size="14.2431">IN</text>
				<g>
					
						<text transform="matrix(1 0 0 1 1193.6372 41.0811)" fill="#FC1D00" font-family="'ProximaNova-Semibold'" font-size="14.2431">AR</text>
				</g>
				<g>
					<text transform="matrix(1 0 0 1 723.6699 519.665)" fill="#4D4D4D" font-family="'ProximaNova-Regular'" font-size="13">JUL ‘14</text>
				</g>
				<g>
					<text transform="matrix(1 0 0 1 1142.229 519.7529)" fill="#4D4D4D" font-family="'ProximaNova-Regular'" font-size="13">JAN ‘15</text>
				</g>
				<g>
					
						<text transform="matrix(1 0 0 1 1193.6372 382.7998)" fill="#F900DC" font-family="'ProximaNova-Semibold'" font-size="14.2431">US</text>
				</g>
				
					<text transform="matrix(1 0 0 1 1193.6372 324.2148)" opacity="0.9" enable-background="new    " font-family="'ProximaNova-Semibold'" font-size="14.2431">BR</text>
				
					<text transform="matrix(1 0 0 1 1193.6372 354.6182)" fill="#30D6D9" font-family="'ProximaNova-Semibold'" font-size="14.2431">CN</text>
				<g>
					<text transform="matrix(1 0 0 1 227.0424 10.835)" fill="#4D4D4D" font-family="'ProximaNova-Regular'" font-size="13">30%</text>
					<text transform="matrix(1 0 0 1 227.0424 78.835)" fill="#4D4D4D" font-family="'ProximaNova-Regular'" font-size="13">25%</text>
					<text transform="matrix(1 0 0 1 227.0424 146.835)" fill="#4D4D4D" font-family="'ProximaNova-Regular'" font-size="13">20%</text>
					<text transform="matrix(1 0 0 1 227.0424 214.835)" fill="#4D4D4D" font-family="'ProximaNova-Regular'" font-size="13">15%</text>
					<text transform="matrix(1 0 0 1 227.0424 282.835)" fill="#4D4D4D" font-family="'ProximaNova-Regular'" font-size="13">10%</text>
					<text transform="matrix(1 0 0 1 227.0424 350.835)" fill="#4D4D4D" font-family="'ProximaNova-Regular'" font-size="13">5%</text>
					<text transform="matrix(1 0 0 1 227.0424 418.835)" fill="#4D4D4D" font-family="'ProximaNova-Regular'" font-size="13">0%</text>
					<text transform="matrix(1 0 0 1 227.0424 486.835)" fill="#4D4D4D" font-family="'ProximaNova-Regular'" font-size="13">-5%</text>
				</g>
			</g>
		</g>
	</g>
</g>
<line fill="none" stroke="#CCCCCC" stroke-miterlimit="10" x1="0" y1="635.1" x2="1440" y2="635.1"/>
<line fill="none" stroke="#CCCCCC" stroke-miterlimit="10" x1="555.7" y1="634.8" x2="555.7" y2="981.3"/>
<line fill="none" stroke="#CCCCCC" stroke-miterlimit="10" x1="884.7" y1="635.3" x2="884.7" y2="981.3"/>
<g>
	<rect x="226" y="798.5" fill="#F900DC" width="55" height="55"/>
	<text transform="matrix(1 0 0 1 237.9575 833.6436)" fill="#FFFFFF" font-family="'ProximaNova-Semibold'" font-size="22.1859">US</text>
</g>
<g>
	<rect x="226" y="721" fill="#FC1D00" width="55" height="55"/>
	<text transform="matrix(1 0 0 1 237.7168 753.6367)" fill="#FFFFFF" font-family="'ProximaNova-Semibold'" font-size="22.4797">AR</text>
</g>
<text transform="matrix(1 0 0 1 226.0002 913.6686)" fill="#4D4D4D" font-family="'ProximaNova-Regular'" font-size="13">[Y/Y JANUARY]</text>
<text transform="matrix(1 0 0 1 298.2729 772.4078)" fill="#009BFF" font-family="'ProximaNova-Light'" font-size="75">27.1%</text>
<text transform="matrix(1 0 0 1 298.2728 849.4078)" fill="#009BFF" font-family="'ProximaNova-Light'" font-size="75">2.4%</text>
<g>
	<text transform="matrix(1 0 0 1 226.0001 694.5713)" fill="#4D4D4D" font-family="'ProximaNova-Regular'" font-size="13">INFLATION HIGHEST / LOWEST</text>
</g>
<g>
	<text transform="matrix(1 0 0 1 596.8244 772.4084)" fill="#009BFF" font-family="'ProximaNova-Light'" font-size="75">3,104</text>
</g>
<g>
	<text transform="matrix(1 0 0 1 599.4114 694.5714)" fill="#4D4D4D" font-family="'ProximaNova-Regular'" font-size="13">TOTAL PRODUCTS CAPTURED</text>
</g>
<g>
	<text transform="matrix(1 0 0 1 940.8059 694.5713)" fill="#4D4D4D" font-family="'ProximaNova-Regular'" font-size="13">OBSERVATIONS (MONTHLY)</text>
</g>
<g>
	<text transform="matrix(1 0 0 1 938.4441 772.4084)" fill="#009BFF" font-family="'ProximaNova-Light'" font-size="75">44,741</text>
</g>
</svg>
