<?xml version="1.0" encoding="utf-8"?>
<!-- Generator: Adobe Illustrator 18.0.0, SVG Export Plug-In . SVG Version: 6.00 Build 0)  -->
<!DOCTYPE svg PUBLIC "-//W3C//DTD SVG 1.1//EN" "http://www.w3.org/Graphics/SVG/1.1/DTD/svg11.dtd">
<svg version="1.1" id="Layer_1" xmlns="http://www.w3.org/2000/svg" xmlns:xlink="http://www.w3.org/1999/xlink" x="0px" y="0px"
	 width="96px" height="96px" viewBox="0 0 96 96" enable-background="new 0 0 96 96" xml:space="preserve">
<g id="Layer_1_1_">
</g>
<g id="Isolation_Mode">
	<g>
		<path fill="#4D4D4D" d="M73.4,53.9h-1.6c-0.5-1.5-1.1-3-2-4.3c0.2-0.4,0.7-1.5,2.4-3.8c0.3-0.4,0.3-0.9,0.1-1.3
			c-0.2-0.4-0.6-0.7-1-0.8c-0.2,0-0.5,0-0.7,0c-2,0-3.9,0.7-5,1.2c-3.2-2.6-7.2-4.3-11.5-5c0.5-0.9,0.8-2,0.8-3.1
			c0-3-2.2-5.5-5.1-6.1c0.1-0.5,0.2-1.1,0.2-1.6c0-1.4-0.5-2.7-1.2-3.7c3.4,0,6.1-2.8,6.1-6.1c0-3.4-2.8-6.2-6.2-6.2
			s-6.2,2.8-6.2,6.2c0,1.4,0.5,2.7,1.2,3.7c-3.4,0-6.1,2.8-6.1,6.1c0,3,2.2,5.5,5.1,6.1c-0.1,0.5-0.2,1.1-0.2,1.6
			c0,1.2,0.4,2.3,1,3.3c-9.9,2.1-17.3,9.5-17.3,18.2c0,0.7,0,1.4,0.1,2.1v0.1l4.4,17.2c0.1,0.6,0.6,0.6,1.2,0.6l0,0l6.8,0.3
			c0.7,0,1-0.2,1-0.9v-2.1c3,1,6.1,1.5,9.2,1.5c2.2,0,4.6-0.3,6.9-0.8l1.2,1.8c0.2,0.4,0.7,0.3,1.2,0.3h6.7c0.7,0,1.3-0.3,1.3-1
			c0-0.2,0-0.2-0.1-0.3l-1.6-4.8c3-2.2,5.3-5,6.5-8h2.1c1.6,0,2.9-1.3,2.9-2.9v-4.8C76.3,54.8,75,53.9,73.4,53.9z M52.4,36.7
			c0,2-1.6,3.6-3.6,3.6s-3.6-1.6-3.6-3.6s1.6-3.6,3.6-3.6S52.4,34.7,52.4,36.7z M48.8,15.6c2,0,3.6,1.6,3.6,3.6s-1.6,3.6-3.6,3.6
			s-3.6-1.6-3.6-3.6S46.8,15.6,48.8,15.6z M44,32.7c-2,0-3.6-1.6-3.6-3.6s1.6-3.6,3.6-3.6s3.6,1.6,3.6,3.6c0,0.6-0.2,1.2-0.5,1.8
			c-1.1,0.3-2.1,1-2.9,1.8C44.1,32.7,44.1,32.7,44,32.7z M73.3,61.3c0,0.3,0.2,0.7,0.1,0.7h-3c-0.5,0-1,0.2-1.2,0.7
			c-1.1,3.2-3.4,5.9-6.6,8.1c-0.5,0.3-0.7,0.7-0.5,1.2l1.4,4.1h-4.2L58,74c-0.3-0.5-0.9-0.7-1.4-0.5c-2.5,0.7-4.8,1-7.1,1
			c-3.5,0-6.9-0.7-9.7-1.9c-0.4-0.2-0.9-0.1-1.3,0.1c-0.4,0.2-0.7,0.6-0.7,1.1v2.7h-4.7L29,59.9c-0.1-0.6-0.1-1.1-0.1-1.7
			c0-8,7.4-14.7,17.1-16c0.6,0.3,1.2,0.5,1.9,0.6c-1.8,0.1-3.9,0.6-6.1,1.7c-0.6,0.3-0.9,1.1-0.6,1.7c0.2,0.4,0.7,0.7,1.1,0.7
			c0.2,0,0.4,0,0.6-0.1c6.3-3.1,11.4-0.2,11.6,0c0.6,0.4,1.4,0.2,1.7-0.4c0.4-0.6,0.2-1.4-0.4-1.7c-0.2-0.1-2.5-1.5-6.1-1.7
			c0.8-0.1,1.5-0.4,2.1-0.7c4.9,0.5,9.5,2.3,12.8,5.3c0.4,0.4,1,0.4,1.5,0.1c0,0,1-0.6,2.4-1c-1.3,1.9-1.7,3.1-1,4
			c0,0.1,0.1,0.1,0.1,0.1c0.9,1.4,1.6,3,2,4.4c0.1,0.6,0.6,1,1.2,1h2.6c0.2,0-0.1,0.1-0.1,0.4L73.3,61.3z M53,48.4
			c-0.4,0.6-1.1,0.8-1.7,0.4c-0.1-0.1-2.4-1.4-5.2,0c-0.2,0.1-0.4,0.1-0.6,0.1c-0.5,0-0.9-0.3-1.1-0.7c-0.3-0.6-0.1-1.4,0.6-1.7
			c4.1-2,7.5,0,7.6,0C53.2,47.1,53.4,47.8,53,48.4z M65.8,52.2c-1.2,0-2.2,1-2.2,2.2s1,2.2,2.2,2.2s2.2-1,2.2-2.2S67,52.2,65.8,52.2
			z M65.8,54.7c-0.2,0-0.4-0.2-0.4-0.4s0.2-0.4,0.4-0.4c0.2,0,0.4,0.2,0.4,0.4C66.1,54.6,66,54.7,65.8,54.7z M36.5,70.1
			c0.2,0.7-0.2,1.4-0.9,1.5c-0.1,0-0.2,0-0.3,0c-0.6,0-1.1-0.4-1.2-1l-3.2-13.2c-0.2-0.7,0.2-1.4,0.9-1.5c0.7-0.2,1.4,0.2,1.5,0.9
			L36.5,70.1z M43.9,31.7L43.9,31.7c-0.7,0-1.3-0.6-1.3-1.3v-3.3c0-0.7,0.6-1.3,1.3-1.3l0,0c0.7,0,1.3,0.7,1.2,1.4v3.3
			C45.2,31.1,44.6,31.7,43.9,31.7z M46.9,21.3c-0.5-0.5-0.5-1.3,0-1.8l2.3-2.2c0.5-0.5,1.3-0.5,1.8,0s0.5,1.3,0,1.8l-2.3,2.2
			c-0.2,0.2-0.6,0.3-0.9,0.3C47.5,21.7,47.1,21.5,46.9,21.3z M47.7,34.9l3.1,1c0.7,0.2,1,0.9,0.8,1.6c-0.2,0.5-0.7,0.9-1.2,0.9
			c-0.1,0-0.3,0-0.4-0.1l-3.1-1c-0.7-0.2-1-0.9-0.8-1.6C46.3,35.1,47,34.7,47.7,34.9z"/>
	</g>
</g>
<circle fill="none" stroke="#4D4D4D" stroke-width="2" stroke-miterlimit="10" cx="48" cy="48" r="46"/>
</svg>
