<?xml version="1.0" encoding="utf-8"?>
<!-- Generator: Adobe Illustrator 18.0.0, SVG Export Plug-In . SVG Version: 6.00 Build 0)  -->
<!DOCTYPE svg PUBLIC "-//W3C//DTD SVG 1.1//EN" "http://www.w3.org/Graphics/SVG/1.1/DTD/svg11.dtd">
<svg version="1.1" id="Layer_1" xmlns="http://www.w3.org/2000/svg" xmlns:xlink="http://www.w3.org/1999/xlink" x="0px" y="0px"
	 width="96px" height="96px" viewBox="0 0 96 96" enable-background="new 0 0 96 96" xml:space="preserve">
<g id="Layer_1_1_">
</g>
<g id="Isolation_Mode">
	<g>
		<g>
			<path fill="#4D4D4D" d="M2.3,46.4c1,0,5.1,0.6,5.1,1.5s-2.2,1.5-5.1,1.5"/>
			<path fill="#4D4D4D" d="M49.6,93.7c0-2.8-0.6-5.1-1.5-5.1c-0.8,0-1.5,2.2-1.5,5.1"/>
			<path fill="#4D4D4D" d="M9.2,72.2c2.4-1.4,4-3.2,3.6-3.8c-0.4-0.7-4.3,0.7-5.2,1.3"/>
			<path fill="#4D4D4D" d="M26.6,88.5c1.4-2.4,1.9-4.8,1.3-5.2c-0.7-0.4-3.4,2.9-3.8,3.6"/>
			<path fill="#4D4D4D" d="M93.7,46.5c-1,0-5.1,0.6-5.1,1.5c0,0.8,2.2,1.5,5.1,1.5"/>
			<path fill="#4D4D4D" d="M88.4,69.4c-0.7-0.4-4.8-1.9-5.2-1.3c-0.4,0.7,1.2,2.4,3.6,3.9"/>
			<path fill="#4D4D4D" d="M72.2,86.8c-0.4-0.7-3.2-4-3.8-3.6c-0.7,0.4-0.2,2.8,1.3,5.2"/>
			<path fill="#4D4D4D" d="M46.6,2.3c0,2.8,0.6,5.1,1.5,5.1s1.5-2.2,1.5-5.1"/>
			<path fill="#4D4D4D" d="M7.6,26.4c0.7,0.4,4.8,1.9,5.2,1.3c0.4-0.7-1.2-2.4-3.6-3.9"/>
			<path fill="#4D4D4D" d="M23.8,9.1c0.4,0.7,3.2,4,3.8,3.6c0.7-0.4,0.2-2.8-1.3-5.2"/>
			<path fill="#4D4D4D" d="M86.9,23.9c-2.4,1.4-4,3.2-3.6,3.9c0.4,0.7,4.3-0.7,5.2-1.3"/>
			<path fill="#4D4D4D" d="M69.6,7.7c-1.4,2.4-1.9,4.8-1.3,5.2c0.7,0.4,3.4-2.9,3.8-3.6"/>
			<path fill="#4D4D4D" d="M68.5,12.8L48.1,48h40.7C88.8,33,80.5,19.9,68.5,12.8z"/>
			<g>
				<path fill="#4D4D4D" d="M48.1,7.3v4h2V7.6V7.3l0,0l0,0C49.4,7.3,48.7,7.3,48.1,7.3L48.1,7.3z M50.1,14.4h-2v4h2V14.4L50.1,14.4z
					 M50.1,21.4h-2v4h2V21.4L50.1,21.4z M50.1,28.5h-2v4h2V28.5L50.1,28.5z M50.1,35.6h-2v4h2V35.6L50.1,35.6z M50.1,42.7h-2v4H50
					v1.2h4v-2h-3.9L50.1,42.7L50.1,42.7z M61.1,46h-4v2h4V46L61.1,46z M68.2,46h-4v2h4V46L68.2,46z M71.9,42.1L69,45l1.5,1.4
					l2.5-2.8l0,0l0,0l0,0l0,0l0,0l0,0l0,0l0,0l0,0l0,0l0,0l0,0l0,0l0,0l0,0l0,0l0,0l0,0l0,0l0,0l0,0l0,0l0,0l0,0l0,0l0,0
					c0.1-0.1,0.1-0.1,0.1-0.1L71.9,42.1L71.9,42.1z M76.7,36.9l-2.8,3l1.5,1.4l2.8-3L76.7,36.9L76.7,36.9z M80.4,27.7L78.8,29
					l2.4,3.1l-2.5,2.6l1.5,1.4l2.8-3l-1.3-1.2l1.3-1L80.4,27.7L80.4,27.7z M76,22.2l-1.6,1.3l2.5,3.2l1.6-1.3L76,22.2L76,22.2z
					 M71.5,16.7L70,18l2.5,3.2l1.6-1.3L71.5,16.7L71.5,16.7z M66.6,11.7l-1,1.8c0.5,0.2,1,0.5,1.5,0.7l1,1.2l1.6-1.3l-1.2-1.5l0,0
					l0,0l0,0l0,0l0,0l0,0l0,0l0,0l0,0l0,0l0,0l0,0l0,0l0,0l0,0l0,0l0,0l0,0l0,0l0,0l0,0c-0.3-0.2-0.6-0.3-1-0.5l0,0l0,0l0,0l0,0l0,0
					l0,0l0,0l0,0l0,0l0,0l0,0l0,0l0,0l0,0l0,0l0,0l0,0l0,0l0,0l0,0l0,0l0,0l0,0l0,0l0,0l0,0l0,0l0,0l0,0l0,0l0,0l0,0l0,0l0,0l0,0
					l0,0l0,0l0,0l0,0l0,0l0,0l0,0l0,0l0,0l0,0l0,0l0,0l0,0l0,0l0,0l0,0l0,0C66.9,11.9,66.8,11.8,66.6,11.7L66.6,11.7z M60,9.1
					L59.4,11c1.3,0.4,2.4,0.8,3.6,1.3l0.7-1.9C62.5,9.9,61.3,9.5,60,9.1L60,9.1z M53.1,7.6l-0.2,2c1.3,0.1,2.5,0.4,3.8,0.6l0.4-2
					C55.8,8,54.4,7.7,53.1,7.6L53.1,7.6z"/>
			</g>
		</g>
	</g>
</g>
<circle fill="none" stroke="#4D4D4D" stroke-width="2" stroke-miterlimit="10" cx="48" cy="48" r="46"/>
</svg>
