<?xml version="1.0" encoding="utf-8"?>
<!-- Generator: Adobe Illustrator 18.0.0, SVG Export Plug-In . SVG Version: 6.00 Build 0)  -->
<!DOCTYPE svg PUBLIC "-//W3C//DTD SVG 1.1//EN" "http://www.w3.org/Graphics/SVG/1.1/DTD/svg11.dtd">
<svg version="1.1" id="Layer_1" xmlns="http://www.w3.org/2000/svg" xmlns:xlink="http://www.w3.org/1999/xlink" x="0px" y="0px"
	 width="96px" height="96px" viewBox="0 0 96 96" enable-background="new 0 0 96 96" xml:space="preserve">
<g id="Layer_1_1_">
</g>
<g id="Isolation_Mode">
	<g>
		<g>
			<g>
				<path fill="#4D4D4D" d="M68.4,71.2c-0.3,0-0.5-0.1-0.7-0.3L63.8,67c-0.4-0.4-0.4-1,0-1.4s1-0.4,1.4,0l3.2,3.2l1.8-1.8L67,63.9
					c-0.4-0.4-0.4-1,0-1.4s1-0.4,1.4,0l3.9,3.9c0.4,0.4,0.4,1,0,1.4L69.1,71C68.9,71.1,68.6,71.2,68.4,71.2z"/>
			</g>
			<g>
				<path fill="#4D4D4D" d="M56.6,59.4c-0.3,0-0.5-0.1-0.7-0.3L37.5,40.7c-0.4-0.4-0.4-1,0-1.4s1-0.4,1.4,0l18.4,18.4
					c0.4,0.4,0.4,1,0,1.4C57.1,59.3,56.9,59.4,56.6,59.4z"/>
			</g>
			<g>
				<path fill="#4D4D4D" d="M59.7,56.2c-0.3,0-0.5-0.1-0.7-0.3L40.7,37.6c-0.4-0.4-0.4-1,0-1.4s1-0.4,1.4,0l18.4,18.4
					c0.4,0.4,0.4,1,0,1.4C60.2,56.1,60,56.2,59.7,56.2z"/>
			</g>
			<g>
				<path fill="#4D4D4D" d="M30.2,33c-0.3,0-0.5-0.1-0.7-0.3L26,29.3c-0.2-0.2-0.3-0.4-0.3-0.7s0.1-0.5,0.3-0.7l3.2-3.2
					c0.4-0.4,1-0.4,1.4,0l3.5,3.5c0.4,0.4,0.4,1,0,1.4s-1,0.4-1.4,0l-2.8-2.8l-1.8,1.8l2.8,2.8c0.4,0.4,0.4,1,0,1.4
					C30.7,32.9,30.4,33,30.2,33z"/>
			</g>
			<g>
				<g>
					<path fill="#4D4D4D" d="M30,41.2L30,41.2c-0.3,0-0.5-0.1-0.7-0.3l-4-4c-0.4-0.4-0.4-1,0-1.4l11.6-11.6c0.2-0.2,0.4-0.3,0.7-0.3
						l0,0c0.3,0,0.5,0.1,0.7,0.3l4,4c0.4,0.4,0.4,1,0,1.4L30.7,40.9C30.5,41.1,30.2,41.2,30,41.2z M27.3,36.2l2.6,2.6l10.2-10.2
						L37.5,26L27.3,36.2z"/>
				</g>
				<g>
					<path fill="#4D4D4D" d="M31.5,47.7c-0.3,0-0.5-0.1-0.7-0.3l-4-4c-0.2-0.2-0.3-0.4-0.3-0.7s0.1-0.5,0.3-0.7l16.5-16.5
						c0.4-0.4,1-0.4,1.4,0l4,4c0.4,0.4,0.4,1,0,1.4L32.2,47.4C32,47.6,31.8,47.7,31.5,47.7z M28.9,42.7l2.6,2.6l15.1-15.1L44,27.6
						L28.9,42.7z"/>
				</g>
			</g>
			<g>
				<g>
					<path fill="#4D4D4D" d="M60.4,71.6L60.4,71.6c-0.3,0-0.5-0.1-0.7-0.3l-4-4c-0.4-0.4-0.4-1,0-1.4l11.6-11.6
						c0.2-0.2,0.4-0.3,0.7-0.3l0,0c0.3,0,0.5,0.1,0.7,0.3l4,4c0.4,0.4,0.4,1,0,1.4L61.1,71.3C60.9,71.5,60.6,71.6,60.4,71.6z
						 M57.8,66.6l2.6,2.6L70.5,59l-2.6-2.6L57.8,66.6z"/>
				</g>
				<g>
					<path fill="#4D4D4D" d="M53.9,70.1c-0.3,0-0.5-0.1-0.7-0.3l-4-4c-0.4-0.4-0.4-1,0-1.4l16.6-16.5c0.2-0.2,0.4-0.3,0.7-0.3l0,0
						c0.3,0,0.5,0.1,0.7,0.3l4,4c0.4,0.4,0.4,1,0,1.4L54.6,69.8C54.4,70,54.2,70.1,53.9,70.1z M51.3,65.1l2.6,2.6L69,52.6L66.4,50
						L51.3,65.1z"/>
				</g>
			</g>
		</g>
	</g>
</g>
<circle fill="none" stroke="#4D4D4D" stroke-width="2" stroke-miterlimit="10" cx="48" cy="48" r="46"/>
</svg>
