<?xml version="1.0" encoding="utf-8"?>
<!-- Generator: Adobe Illustrator 18.0.0, SVG Export Plug-In . SVG Version: 6.00 Build 0)  -->
<!DOCTYPE svg PUBLIC "-//W3C//DTD SVG 1.1//EN" "http://www.w3.org/Graphics/SVG/1.1/DTD/svg11.dtd">
<svg version="1.1" id="Layer_1" xmlns="http://www.w3.org/2000/svg" xmlns:xlink="http://www.w3.org/1999/xlink" x="0px" y="0px"
	 width="96px" height="96px" viewBox="0 0 96 96" enable-background="new 0 0 96 96" xml:space="preserve">
<g id="Layer_1_1_">
</g>
<g id="Isolation_Mode">
	<g>
		<path id="health_1_" fill="#4D4D4D" d="M48.5,71.8c0.2,0.1,0.5,0.2,0.7,0.2s0.5-0.1,0.7-0.2c14.1-7.1,23.2-18,23.2-27.9
			c0-10.4-7-15.9-13.8-15.9c-3.9,0-8,1.9-10.1,5.6C47.1,30,43,28,39,28c-6.9,0-13.8,5.4-13.8,15.9C25.2,53.8,34.3,64.7,48.5,71.8z
			 M39,31.3c4.1,0,8.5,2.7,8.5,8.6c0,0.9,0.7,1.6,1.6,1.6c0.9,0,1.6-0.7,1.6-1.6c0-5.9,4.4-8.6,8.5-8.6c5.1,0,10.6,3.9,10.6,12.6
			c0,8.4-8.1,18-20.7,24.6C36.6,62,28.5,52.4,28.5,43.9C28.5,35.3,34,31.3,39,31.3z M37.4,47.5h-2.5c-0.9,0-1.6-0.7-1.6-1.6
			s0.7-1.6,1.6-1.6h2.5v-2.5c0-0.9,0.7-1.6,1.6-1.6s1.6,0.8,1.6,1.7v2.5h2.5c0.9,0,1.6,0.7,1.6,1.6s-0.7,1.6-1.6,1.6h-2.5V50
			c0,0.9-0.7,1.6-1.6,1.6s-1.6-0.7-1.6-1.6V47.5L37.4,47.5z"/>
	</g>
</g>
<circle fill="none" stroke="#4D4D4D" stroke-width="2" stroke-miterlimit="10" cx="48" cy="48" r="46"/>
</svg>
