<?xml version="1.0" encoding="utf-8"?>
<!-- Generator: Adobe Illustrator 18.0.0, SVG Export Plug-In . SVG Version: 6.00 Build 0)  -->
<!DOCTYPE svg PUBLIC "-//W3C//DTD SVG 1.1//EN" "http://www.w3.org/Graphics/SVG/1.1/DTD/svg11.dtd">
<svg version="1.1" id="Layer_1" xmlns="http://www.w3.org/2000/svg" xmlns:xlink="http://www.w3.org/1999/xlink" x="0px" y="0px"
	 width="96px" height="96px" viewBox="0 0 96 96" enable-background="new 0 0 96 96" xml:space="preserve">
<g id="Layer_1_1_">
</g>
<g id="Isolation_Mode">
	<g>
		<g>
			<g>
				<path fill="#4D4D4D" stroke="#4D4D4D" stroke-width="0.75" stroke-miterlimit="10" d="M79.8,81.1c-0.4,0-0.7-0.2-1-0.5
					L60.3,54.8l-3.5,3.3c-0.3,0.3-0.8,0.5-1.1,0.5c-0.6,0-1.1-0.2-1.3-0.6l-2.5-3.1l-2.4,2.2c-0.4,0.4-1,0.6-1.4,0.6
					c-0.6,0-1.2-0.3-1.7-0.8l-3.9-4.5L37,60.2l12.6,19.1c0.2,0.2,0.2,0.6,0.2,0.9c0,0.3-0.2,0.6-0.5,0.7C49.2,81,49,81,48.8,81
					c-0.4,0-0.8-0.2-1.1-0.6L32,56.6l-15.1,24c-0.2,0.3-0.6,0.6-1.1,0.6c-0.2,0-0.5-0.1-0.6-0.2c-0.2-0.2-0.5-0.4-0.6-0.7
					c-0.1-0.3,0-0.6,0.2-0.9L31,54c0.2-0.3,0.6-0.6,1-0.6c0.4,0,0.7,0.2,1,0.6l2.8,4.2l13.4-19c0.3-0.5,0.9-0.8,1.4-0.8
					s1.1,0.3,1.4,0.8l28.8,40.4c0.2,0.2,0.2,0.6,0.2,0.9c-0.1,0.3-0.2,0.6-0.5,0.8C80.3,81,80.1,81.1,79.8,81.1z M51.9,52.2
					c0.4,0,0.7,0.2,1.1,0.5l2.8,3.4L59,53L50.5,41l-6.7,9.5l4.2,4.9l3.2-2.9C51.4,52.3,51.6,52.2,51.9,52.2z"/>
			</g>
			<g>
				<path fill="#4D4D4D" stroke="#4D4D4D" stroke-width="0.5" stroke-miterlimit="10" d="M47.8,16.2c-0.4,0-0.7-0.3-0.7-0.7V12
					c0-0.4,0.3-0.7,0.7-0.7c0.4,0,0.7,0.3,0.7,0.7v3.5C48.5,15.9,48.2,16.2,47.8,16.2z"/>
				<path fill="#4D4D4D" stroke="#4D4D4D" stroke-width="0.5" stroke-miterlimit="10" d="M47.8,32c-0.4,0-0.7-0.3-0.7-0.7v-3.5
					c0-0.4,0.3-0.7,0.7-0.7c0.4,0,0.7,0.3,0.7,0.7v3.5C48.5,31.7,48.2,32,47.8,32z"/>
				<path fill="#4D4D4D" stroke="#4D4D4D" stroke-width="0.5" stroke-miterlimit="10" d="M57.5,22.3h-3.5c-0.4,0-0.7-0.3-0.7-0.7
					c0-0.4,0.3-0.7,0.7-0.7h3.5c0.4,0,0.7,0.3,0.7,0.7C58.1,22,57.9,22.3,57.5,22.3z"/>
				<path fill="#4D4D4D" stroke="#4D4D4D" stroke-width="0.5" stroke-miterlimit="10" d="M41.7,22.3h-3.5c-0.4,0-0.7-0.3-0.7-0.7
					s0.3-0.7,0.7-0.7h3.5c0.4,0,0.7,0.3,0.7,0.7S42.1,22.3,41.7,22.3z"/>
				<path fill="#4D4D4D" stroke="#4D4D4D" stroke-width="0.5" stroke-miterlimit="10" d="M54.6,29.2c-0.2,0-0.3-0.1-0.5-0.2
					l-2.5-2.5c-0.3-0.3-0.3-0.7,0-0.9c0.3-0.3,0.7-0.3,0.9,0l2.5,2.5c0.3,0.3,0.3,0.7,0,0.9C55,29.1,54.8,29.2,54.6,29.2z"/>
				<path fill="#4D4D4D" stroke="#4D4D4D" stroke-width="0.5" stroke-miterlimit="10" d="M43.5,18c-0.2,0-0.3-0.1-0.5-0.2l-2.5-2.5
					c-0.3-0.3-0.3-0.7,0-0.9c0.3-0.3,0.7-0.3,0.9,0l2.5,2.5c0.3,0.3,0.3,0.7,0,0.9C43.8,17.9,43.6,18,43.5,18z"/>
				<path fill="#4D4D4D" stroke="#4D4D4D" stroke-width="0.5" stroke-miterlimit="10" d="M41,29.2c-0.2,0-0.3-0.1-0.5-0.2
					c-0.3-0.3-0.3-0.7,0-0.9l2.5-2.5c0.3-0.3,0.7-0.3,0.9,0c0.3,0.3,0.3,0.7,0,0.9L41.4,29C41.3,29.1,41.1,29.2,41,29.2z"/>
				<path fill="#4D4D4D" stroke="#4D4D4D" stroke-width="0.5" stroke-miterlimit="10" d="M52.1,18c-0.2,0-0.3-0.1-0.5-0.2
					c-0.3-0.3-0.3-0.7,0-0.9l2.5-2.5c0.3-0.3,0.7-0.3,0.9,0c0.3,0.3,0.3,0.7,0,0.9l-2.5,2.5C52.5,17.9,52.3,18,52.1,18z"/>
				<path fill="#4D4D4D" stroke="#4D4D4D" stroke-width="0.5" stroke-miterlimit="10" d="M47.8,25.7c-2.2,0-4-1.8-4-4s1.8-4,4-4
					c2.2,0,4,1.8,4,4S50,25.7,47.8,25.7z M47.8,18.9c-1.5,0-2.8,1.2-2.8,2.8s1.2,2.8,2.8,2.8c1.5,0,2.8-1.2,2.8-2.8
					S49.3,18.9,47.8,18.9z"/>
			</g>
		</g>
	</g>
</g>
<circle fill="none" stroke="#4D4D4D" stroke-width="2" stroke-miterlimit="10" cx="48" cy="48" r="46"/>
</svg>
